<svg width="81" height="80" viewBox="0 0 81 80" fill="none" xmlns="http://www.w3.org/2000/svg">
<path d="M0.5 16C0.5 7.16344 7.66344 0 16.5 0H64.5C73.3366 0 80.5 7.16344 80.5 16V64C80.5 72.8366 73.3366 80 64.5 80H16.5C7.66344 80 0.5 72.8366 0.5 64V16Z" fill="#F0EFFF"/>
<g clip-path="url(#clip0_1_1367)">
<path d="M28.4741 19.5712C28.259 19.6952 28.1763 20.1418 28.1185 21.6056L28.0606 22.9537H26.2163H24.3638L24.1984 23.1687C23.8015 23.6732 24.0744 26.5677 24.7029 28.445C25.5795 31.0915 27.4568 33.4236 29.8717 34.8626C30.4176 35.1852 30.5003 35.2679 30.8476 35.8881C31.5009 37.0459 32.3031 38.0963 33.2873 39.0804C34.6022 40.3953 35.9503 41.2885 37.4223 41.8178C37.7201 41.917 37.9847 42.0494 38.0178 42.0907C38.0509 42.1403 38.0839 43.753 38.0839 45.6717V49.1617L36.1735 49.1865C34.2797 49.2113 34.2632 49.2113 34.106 49.4098C33.9654 49.5834 33.9489 49.7488 33.9489 51.2871V52.9659L32.3858 52.9907C30.9882 53.0155 30.8062 53.0321 30.6491 53.1727C30.4754 53.3298 30.4754 53.3877 30.4754 56.2988V59.2595H26.8035C24.4134 59.2595 23.0489 59.2926 22.8835 59.3505C22.47 59.491 22.3707 59.9873 22.685 60.3511C22.8008 60.4917 23.7518 60.5 40.4823 60.5C58.0894 60.5 58.1555 60.5 58.3044 60.3346C58.5111 60.103 58.4946 59.7061 58.2713 59.4828C58.0976 59.3008 58.0811 59.3008 54.252 59.276L50.4064 59.2512V56.3319C50.4064 53.5035 50.3981 53.4042 50.2327 53.1892L50.0673 52.9742H48.5043H46.9412L46.9164 51.2457C46.8916 49.6827 46.8751 49.5007 46.7345 49.3436C46.5856 49.1782 46.5029 49.1699 44.6835 49.1699H42.7979V45.589V41.9998L43.6167 41.6938C45.1466 41.1148 46.412 40.2548 47.6773 38.9398C48.7359 37.8482 49.2982 37.079 50.1914 35.5077C50.3485 35.2348 50.5305 35.0529 50.8613 34.8626C52.7965 33.7544 54.5994 31.7862 55.5835 29.7021C56.3774 28.0067 56.6834 26.7166 56.7496 24.7235C56.8158 22.8048 56.9894 22.9537 54.6407 22.9537H52.8296L52.7717 21.4899C52.7303 20.3072 52.689 19.9764 52.5732 19.7697L52.4243 19.5216L40.5154 19.505C32.6587 19.4885 28.565 19.5133 28.4741 19.5712ZM51.5973 21.4402C51.6883 22.5898 51.6635 25.7986 51.5642 26.8406C51.3658 28.8006 50.8944 30.984 50.3237 32.547C49.9598 33.556 49.0915 35.2844 48.5208 36.1445C47.0405 38.3692 45.0308 39.9901 42.8806 40.6931C42.3761 40.8502 41.9461 41.1397 41.789 41.4208C41.7063 41.5532 41.6732 42.5456 41.6401 45.3657L41.5987 49.1286L40.5071 49.1534L39.4072 49.1782V45.5311C39.4072 42.1073 39.3989 41.8674 39.25 41.578C39.0019 41.1066 38.7456 40.9164 37.9103 40.6021C33.37 38.915 30.2356 33.9281 29.4417 27.1218C29.3011 25.9309 29.2597 22.3913 29.3672 21.2831L29.4251 20.7207H40.4823H51.5394L51.5973 21.4402ZM28.0275 24.9137C28.1433 26.6835 28.2591 27.8413 28.4162 28.7345C28.6064 29.8427 29.053 31.5959 29.3507 32.423C29.4665 32.7372 29.5492 33.0019 29.5409 33.0184C29.483 33.068 28.3252 32.0012 27.9365 31.5463C26.3569 29.6855 25.4803 27.5188 25.3066 24.9964L25.2487 24.1942H26.6133H27.9779L28.0275 24.9137ZM55.6579 24.9964C55.4512 27.9488 54.3182 30.4133 52.2755 32.3568C51.8289 32.7786 51.4485 33.1176 51.4236 33.1011C51.4071 33.0763 51.465 32.8778 51.556 32.6545C52.1845 31.0501 52.8875 27.3534 52.8875 25.6001C52.8875 25.3024 52.9123 24.8641 52.9371 24.6242L52.995 24.1942H54.3595H55.7158L55.6579 24.9964ZM45.6098 51.6923V52.9742H40.4409H35.2721V51.6923V50.4105H40.4409H45.6098V51.6923ZM49.1659 56.7371V59.2595H40.4823H31.7987V56.7371V54.2147H40.4823H49.1659V56.7371Z" fill="#3C2FC0"/>
<path d="M40.2095 23.7976C40.1351 23.8555 39.7133 24.6494 39.275 25.5591C38.8284 26.4689 38.4397 27.238 38.3983 27.2628C38.357 27.2876 37.5217 27.4282 36.5376 27.577C35.5617 27.7259 34.6685 27.883 34.561 27.9327C34.3377 28.0402 34.1971 28.3875 34.2798 28.6191C34.3377 28.7679 35.1482 29.5867 36.5872 30.9513L37.1247 31.4558L36.8187 33.2587C36.6451 34.2593 36.5127 35.169 36.5127 35.2931C36.5127 35.5991 36.7857 35.8555 37.0999 35.8555C37.2736 35.8555 37.9269 35.5577 39.0021 34.9871C39.9118 34.5074 40.6892 34.1187 40.7305 34.1187C40.7801 34.1187 41.4996 34.5074 42.3349 34.9871C43.9393 35.9051 44.2288 35.9961 44.5348 35.6901C44.6257 35.5991 44.7002 35.4254 44.7002 35.2931C44.7002 35.169 44.5678 34.2593 44.3942 33.2587L44.0882 31.4558L44.5844 30.9926C45.8911 29.7604 46.8008 28.8506 46.9 28.6687C47.0323 28.4123 46.9083 28.0484 46.6436 27.9327C46.5361 27.883 45.643 27.7176 44.6588 27.5688C43.6829 27.4282 42.8477 27.2876 42.8146 27.2628C42.7732 27.238 42.3845 26.4689 41.9379 25.5591C41.4996 24.6494 41.0778 23.8555 41.0034 23.7976C40.929 23.748 40.747 23.6984 40.6065 23.6984C40.4659 23.6984 40.2839 23.748 40.2095 23.7976ZM41.2267 27.0808C41.5823 27.8086 41.9214 28.4206 41.9628 28.4454C42.0041 28.4785 42.5747 28.5695 43.2281 28.6604C43.8814 28.7514 44.5348 28.8424 44.6919 28.8672L44.9731 28.9168L43.9228 29.9754C42.7153 31.1994 42.7732 31.0092 43.0875 32.7046C43.2033 33.3165 43.2942 33.8789 43.2942 33.9533C43.2942 34.0691 43.0296 33.9533 42.0785 33.4489C41.4004 33.0932 40.7553 32.7955 40.623 32.7955C40.4989 32.7955 39.796 33.0932 39.0682 33.4654C37.7533 34.1187 37.7367 34.127 37.7863 33.8955C38.0344 32.6632 38.2495 31.249 38.2164 31.1002C38.1916 31.0009 37.7036 30.4799 37.133 29.9423C36.5624 29.4047 36.1075 28.9499 36.1323 28.9333C36.1489 28.9085 36.7857 28.8093 37.5382 28.7018C38.3074 28.5943 38.9938 28.4619 39.1013 28.3875C39.2005 28.3214 39.5561 27.7176 39.9035 27.0147C40.2426 26.3283 40.532 25.7659 40.5403 25.7659C40.5568 25.7659 40.8628 26.3613 41.2267 27.0808Z" fill="#3C2FC0"/>
</g>
<defs>
<clipPath id="clip0_1_1367">
<rect width="36" height="41" fill="white" transform="translate(22.5 19.5)"/>
</clipPath>
</defs>
</svg>
