<svg width="24" height="41" viewBox="0 0 24 41" fill="none" xmlns="http://www.w3.org/2000/svg">
<g clip-path="url(#clip0_1_1758)">
<path d="M11.2236 0.144122C10.6951 0.33631 10.2787 0.656623 10.0064 1.08103C9.89427 1.26522 9.38978 2.25017 8.88529 3.25916L7.9724 5.10096L7.40384 5.18904C6.78724 5.28514 6.55501 5.4533 6.55501 5.82166C6.55501 6.07791 6.89134 6.40623 7.1556 6.40623C7.58001 6.40623 8.52493 6.23006 8.70111 6.10994C8.82122 6.03787 9.27767 5.21307 9.98236 3.78768C11.2156 1.30525 11.2636 1.24119 12.0003 1.24119C12.737 1.24119 12.7851 1.30525 14.0183 3.78768C14.723 5.19705 15.1794 6.03787 15.2995 6.11795C15.4117 6.19002 16.4126 6.36619 17.806 6.56639C19.0872 6.75057 20.2163 6.95076 20.3285 7.00682C20.4406 7.06287 20.6167 7.20701 20.7208 7.31912C20.9691 7.58338 21.0492 8.27205 20.865 8.6244C20.7929 8.75252 19.9761 9.60135 19.0392 10.4982C18.1103 11.3951 17.3175 12.2039 17.2855 12.292C17.2454 12.3961 17.3736 13.333 17.6138 14.7344C18.0382 17.2248 18.0622 17.441 17.8941 17.7613C17.6779 18.1777 17.3976 18.3619 16.9331 18.402C16.5087 18.434 16.4687 18.418 14.3466 17.3049C13.1615 16.6883 12.1044 16.1758 12.0003 16.1758C11.8962 16.1758 10.8392 16.6883 9.65404 17.3049C7.53197 18.418 7.49193 18.434 7.06751 18.402C6.60306 18.3619 6.32279 18.1777 6.10658 17.7613C5.93841 17.441 5.96243 17.2248 6.38685 14.7344C6.62708 13.325 6.75521 12.3961 6.71517 12.292C6.68314 12.2039 5.89036 11.3951 4.95345 10.4902C4.02454 9.59334 3.20775 8.75252 3.13568 8.6244C2.94349 8.24803 3.03157 7.58338 3.31185 7.2951C3.58411 7.00682 3.80033 6.91873 4.50501 6.81463C5.16165 6.71854 5.35384 6.57439 5.35384 6.166C5.35384 5.67752 5.16165 5.57342 4.3929 5.63748C3.17572 5.73357 2.42298 6.19803 2.01458 7.10291C1.83841 7.48728 1.81439 7.62342 1.84642 8.19998C1.87044 8.7365 1.91849 8.9367 2.09466 9.22498C2.20677 9.42518 3.03157 10.29 3.91243 11.1549L5.522 12.7164L5.15365 14.8145C4.95345 15.9676 4.79329 17.0807 4.79329 17.2889C4.79329 17.6012 6.17064 22.3738 8.12454 28.8441C8.16458 28.9803 8.01243 28.9883 5.77825 28.9883C3.1597 28.9963 3.16771 28.9883 3.03157 29.4768C2.98353 29.6369 2.9515 31.3746 2.9515 33.6008V37.4525L2.49505 37.6207C1.47806 37.9971 0.717317 39.0141 0.645247 40.0791C0.613215 40.5996 0.629231 40.6717 0.797395 40.8238L0.981575 41H12.0003H23.0191L23.2033 40.8238C23.3714 40.6717 23.3874 40.5996 23.3554 40.0791C23.2833 39.0141 22.5226 37.9971 21.5136 37.6207L21.0492 37.4525V33.6008C21.0492 31.3746 21.0171 29.6369 20.9691 29.4768C20.8329 28.9883 20.841 28.9963 18.2224 28.9883C15.9882 28.9883 15.8361 28.9803 15.8761 28.8441C15.9001 28.7721 16.1324 27.9793 16.3966 27.0904C16.6689 26.2016 16.8851 25.3848 16.8851 25.2807C16.8851 24.7922 16.2605 24.5359 15.9161 24.8803C15.812 24.9844 15.5398 25.7451 15.1714 26.9943L14.5868 28.9482H12.0003H9.4138L8.02044 24.3037C7.2597 21.7492 6.63509 19.6512 6.63509 19.6512C6.63509 19.6432 6.91536 19.6191 7.2597 19.5951C7.59603 19.5711 7.96439 19.5311 8.0765 19.499C8.26868 19.451 8.31673 19.523 9.31771 21.5891C9.88626 22.7662 10.4548 23.8713 10.5829 24.0475C10.8632 24.4318 11.4958 24.7441 12.0003 24.7441C12.5048 24.7441 13.1374 24.4318 13.4177 24.0475C13.5378 23.8713 14.1144 22.7662 14.6829 21.5891C15.6919 19.523 15.732 19.451 15.9242 19.499C16.0363 19.5311 16.4046 19.5711 16.749 19.5951C17.2775 19.6271 17.3656 19.6592 17.3335 19.7713C16.9492 20.9805 16.4046 22.8863 16.4046 22.9984C16.4046 23.4229 16.821 23.7031 17.2134 23.535C17.4937 23.4229 17.5097 23.3988 18.4466 20.2277C18.9191 18.6262 19.2074 17.5291 19.2074 17.3049C19.2074 17.1047 19.0472 15.9836 18.847 14.8305L18.4786 12.7164L20.0882 11.1549C20.9691 10.29 21.7939 9.42518 21.914 9.21697C22.1062 8.88865 22.1302 8.76853 22.1302 8.08787C22.1302 7.45525 22.0982 7.27108 21.946 6.9908C21.6898 6.51033 21.1613 6.02986 20.6888 5.85369C20.4726 5.77361 19.3275 5.57342 18.1583 5.40525L16.0202 5.10096L15.0193 3.08299C14.4667 1.9699 13.9062 0.928885 13.762 0.77674C13.1935 0.128104 12.0644 -0.152169 11.2236 0.144122ZM13.2896 18.1057C13.9702 18.466 14.5548 18.7863 14.6029 18.8264C14.715 18.9385 14.1304 20.0275 13.754 20.4119C13.2415 20.9244 12.8011 21.0926 12.0003 21.1006C11.4158 21.1006 11.2636 21.0686 10.9033 20.8764C10.671 20.7563 10.3667 20.54 10.2226 20.3959C9.93431 20.1076 9.32572 19.0266 9.37376 18.8824C9.40579 18.7943 11.8161 17.473 11.9683 17.465C12.0243 17.457 12.6169 17.7453 13.2896 18.1057ZM12.9613 22.3258C12.9613 22.3338 12.8331 22.598 12.681 22.9023C12.3847 23.4949 12.2085 23.615 11.8001 23.5109C11.656 23.4709 11.5279 23.3107 11.3197 22.9023C11.1675 22.598 11.0394 22.3338 11.0394 22.3258C11.0394 22.3098 11.4718 22.3018 12.0003 22.3018C12.5288 22.3018 12.9613 22.3098 12.9613 22.3258ZM19.7679 33.793V37.3965H12.0003H4.23275V33.793V30.1895H12.0003H19.7679V33.793ZM21.3054 38.8619C21.6417 39.0541 22.0902 39.5586 22.0902 39.7348C22.0902 39.7748 17.5497 39.7988 12.0003 39.7988C6.45091 39.7988 1.91048 39.7748 1.91048 39.7508C1.91048 39.6146 2.27083 39.1422 2.48704 38.99C3.03958 38.5896 2.73529 38.6057 12.1204 38.6217L20.929 38.6377L21.3054 38.8619Z" fill="white"/>
<path d="M5.6498 31.5024C5.40957 31.6866 5.35352 32.095 5.35352 33.7927C5.35352 35.4903 5.40957 35.8987 5.6498 36.0829C5.86602 36.2431 18.134 36.2431 18.3502 36.0829C18.5904 35.8987 18.6465 35.4903 18.6465 33.7927C18.6465 32.095 18.5904 31.6866 18.3502 31.5024C18.134 31.3423 5.86602 31.3423 5.6498 31.5024ZM17.3652 33.7927V34.9938H12H6.63477V33.7927V32.5915H12H17.3652V33.7927Z" fill="white"/>
</g>
<defs>
<clipPath id="clip0_1_1758">
<rect width="23" height="41" fill="white" transform="translate(0.5)"/>
</clipPath>
</defs>
</svg>
