<svg width="64" height="65" viewBox="0 0 64 65" fill="none" xmlns="http://www.w3.org/2000/svg">
<path d="M0 16.5C0 7.66344 7.16344 0.5 16 0.5H48C56.8366 0.5 64 7.66344 64 16.5V48.5C64 57.3366 56.8366 64.5 48 64.5H16C7.16344 64.5 0 57.3366 0 48.5V16.5Z" fill="#DFDDFF"/>
<g clip-path="url(#clip0_1_538)">
<path d="M31.1794 16.072C26.6038 16.5123 22.7438 19.6912 21.4158 24.1154C21.0718 25.2713 20.9961 25.8355 20.9961 27.3149C20.9961 28.4777 21.0236 28.8148 21.1543 29.4616C21.464 30.9891 22.152 32.6198 22.9915 33.7826L23.4387 34.4019V39.4798V44.5577L23.6107 44.7228C23.8034 44.9223 24.0924 44.943 24.3332 44.7779C24.4295 44.7159 24.98 44.2824 25.5579 43.8146L26.6038 42.9614V45.7755C26.6038 48.4796 26.6107 48.5966 26.7414 48.7686C26.9409 49.0232 27.1886 49.0576 27.4845 48.8787C27.684 48.7617 30.3193 46.9177 30.6358 46.6769C30.684 46.6356 31.2276 47.0347 32.1152 47.7572C32.8858 48.3833 33.5945 48.9269 33.6839 48.9613C33.8903 49.0438 34.2137 48.9269 34.3101 48.7411C34.3513 48.6723 34.3789 47.8466 34.3789 46.8352V45.0531L35.3146 44.3925L36.2504 43.732L37.6403 44.8535C38.3971 45.4659 39.099 46.0095 39.1815 46.0576C39.388 46.1677 39.6288 46.1058 39.8145 45.9132C39.9522 45.7687 39.9522 45.693 39.9522 40.677V35.5922L40.5026 35.0005C41.9819 33.4111 42.9727 31.4432 43.3649 29.3103C43.5438 28.3607 43.5438 26.2071 43.3718 25.3195C42.6425 21.6315 40.3444 18.6522 37.0417 17.0972C35.8032 16.5192 34.6128 16.1958 33.1748 16.0651C32.3285 15.9894 32.067 15.9894 31.1794 16.072ZM33.1472 17.1729C34.5027 17.3105 35.4247 17.5582 36.6219 18.1293C37.7297 18.6522 38.4453 19.1614 39.4086 20.1246C40.9292 21.6384 41.7755 23.1728 42.2434 25.2713C42.4567 26.2415 42.4567 28.3883 42.2434 29.3584C41.9338 30.7208 41.4797 31.8079 40.7572 32.9088C38.5072 36.3216 34.4958 38.0555 30.4913 37.3606C29.0533 37.106 27.3262 36.3629 26.1909 35.5097C23.4249 33.4317 21.9594 30.363 22.0832 26.9364C22.1864 24.2255 23.136 22.0581 25.0832 20.1246C26.0465 19.1682 26.6657 18.721 27.8079 18.1637C29.5418 17.3174 31.3239 16.9871 33.1472 17.1729ZM26.012 36.7344C26.2804 36.9064 26.5143 37.0509 26.5487 37.0509C26.5763 37.0509 26.6038 38.0624 26.6038 39.3009V41.5577L25.6611 42.3146C25.1451 42.7274 24.6841 43.099 24.6359 43.1265C24.5534 43.1747 24.5396 42.5692 24.5396 39.3903V35.5991L25.0419 36.0051C25.3102 36.2321 25.7506 36.5555 26.012 36.7344ZM38.8513 40.4568V44.4201L37.9774 43.7045C36.6908 42.6586 36.4499 42.4866 36.2779 42.4866C36.1885 42.4866 35.7481 42.7481 35.2871 43.0715C34.833 43.3949 34.4408 43.6563 34.4202 43.6563C34.3995 43.6563 34.3789 42.4797 34.3789 41.0417V38.4339L34.6747 38.3582C36.271 37.9454 37.2825 37.5188 38.404 36.7826C38.6311 36.6312 38.8237 36.5074 38.8375 36.5074C38.8444 36.5005 38.8513 38.2826 38.8513 40.4568ZM29.9753 38.3858C30.8285 38.5578 31.9638 38.6541 32.645 38.6128L33.278 38.5784V42.9063C33.278 46.3604 33.2573 47.2342 33.1954 47.1929C33.1472 47.1585 32.6174 46.7388 32.0188 46.2572C31.2207 45.6104 30.8766 45.3765 30.739 45.3765C30.6152 45.3765 30.1611 45.6517 29.2872 46.2778C28.5854 46.7801 27.9455 47.2273 27.8629 47.2893L27.7047 47.3856V42.5417V37.6908L28.5854 37.9867C29.067 38.1518 29.6932 38.3307 29.9753 38.3858Z" fill="#3C2FC0"/>
<path d="M31.2691 18.7554C27.416 19.2302 24.3679 22.1407 23.7418 25.9388C23.5835 26.9227 23.6385 28.4502 23.8725 29.3516C24.3128 31.0442 25.1179 32.4272 26.3357 33.5694C27.533 34.6978 29.0329 35.4684 30.643 35.7918C31.4618 35.9501 33.0306 35.9501 33.8494 35.7918C37.4066 35.0831 40.1726 32.2483 40.7437 28.7048C41.48 24.1567 38.4869 19.8082 33.9801 18.8861C33.1751 18.7279 31.9916 18.666 31.2691 18.7554ZM33.0512 19.8563C35.8998 20.1728 38.3493 22.0925 39.3057 24.7691C40.6199 28.4571 38.9548 32.4479 35.3906 34.1267C33.8218 34.8698 31.9366 35.035 30.2508 34.5671C29.5627 34.3813 28.3242 33.7689 27.7669 33.3492C26.3839 32.2965 25.4 30.8378 24.9734 29.214C24.7601 28.3952 24.6913 27.0879 24.8151 26.2347C25.3381 22.6361 28.4206 19.9182 32.1292 19.7875C32.2737 19.7875 32.6865 19.815 33.0512 19.8563Z" fill="#3C2FC0"/>
<path d="M32.0057 22.7669C31.8268 22.8426 31.7098 23.049 31.1869 24.1223C30.8498 24.8173 30.5677 25.3953 30.5677 25.4021C30.5608 25.4021 29.914 25.5054 29.1159 25.6224C27.4989 25.8632 27.4026 25.9113 27.4026 26.3655C27.4026 26.5994 27.4645 26.682 28.4553 27.6177L29.508 28.6223L29.2603 30.0535C29.0264 31.3608 29.0195 31.4915 29.109 31.6773C29.336 32.1039 29.508 32.0695 30.9874 31.3057L32.2534 30.6452L33.4369 31.2713C34.6754 31.9319 34.9506 32.0282 35.1983 31.8906C35.4942 31.7323 35.5011 31.5603 35.2396 30.0466L34.9988 28.6292L36.0446 27.6246C37.0286 26.682 37.0905 26.6063 37.0905 26.3655C37.0905 25.9045 36.9804 25.8563 35.446 25.6292C34.6891 25.5192 34.0493 25.4228 34.0217 25.4228C33.9873 25.4228 33.6777 24.8379 33.3199 24.1223C32.7351 22.9595 32.6456 22.815 32.4461 22.7462C32.3222 22.7049 32.2259 22.6705 32.219 22.6705C32.2121 22.6774 32.1158 22.7187 32.0057 22.7669ZM32.6938 25.3609C32.9208 25.815 33.1685 26.2416 33.2442 26.3173C33.3405 26.4068 33.6089 26.4756 34.1731 26.5581C35.5286 26.7439 35.4735 26.6338 34.641 27.4801C34.2419 27.8792 33.8979 28.2576 33.8841 28.3127C33.8635 28.3746 33.9185 28.8494 34.008 29.3792C34.0974 29.9021 34.1593 30.3493 34.1456 30.3562C34.1318 30.37 33.7327 30.1842 33.2649 29.9365C32.7901 29.6819 32.3429 29.4824 32.2603 29.4824C32.1777 29.4824 31.7236 29.6888 31.2488 29.9365C30.7741 30.1911 30.3681 30.3837 30.3612 30.37C30.3475 30.3562 30.4094 29.909 30.4989 29.3792C30.5883 28.8494 30.664 28.3884 30.664 28.354C30.664 28.3196 30.32 27.9411 29.8934 27.5076C29.4668 27.0811 29.1434 26.7301 29.1709 26.7301C29.3704 26.7301 31.1112 26.4412 31.2007 26.393C31.2626 26.3586 31.5172 25.9251 31.7649 25.4297C32.0057 24.9343 32.2259 24.5283 32.2465 24.5283C32.2672 24.5283 32.4667 24.8999 32.6938 25.3609Z" fill="#3C2FC0"/>
</g>
<defs>
<clipPath id="clip0_1_538">
<rect width="23" height="34" fill="white" transform="translate(20.5 15.5)"/>
</clipPath>
</defs>
</svg>
