<svg width="81" height="81" viewBox="0 0 81 81" fill="none" xmlns="http://www.w3.org/2000/svg">
<g clip-path="url(#clip0_1_507)">
<path d="M40.7188 80.5C62.8101 80.5 80.7188 62.5914 80.7188 40.5C80.7188 18.4086 62.8101 0.5 40.7188 0.5C18.6274 0.5 0.71875 18.4086 0.71875 40.5C0.71875 62.5914 18.6274 80.5 40.7188 80.5Z" fill="url(#paint0_linear_1_507)"/>
<path d="M35.1013 20.6034C33.6376 20.879 32.117 22.0671 31.4422 23.4737C30.9765 24.4526 30.8719 25.0419 30.8719 26.7336V28.0927H25.7777C22.052 28.0927 20.5694 28.1212 20.2842 28.2068C19.733 28.3683 18.9726 29.1477 18.8111 29.7084C18.7255 30.0316 18.7065 31.2291 18.7255 34.5081L18.754 38.88L19.0582 39.5168C19.2198 39.8684 19.5524 40.3436 19.79 40.5907L20.2272 41.0184L20.2462 49.8383L20.2747 58.6582L20.6264 59.3806C21.0541 60.2454 21.6053 60.7777 22.4892 61.1959L23.126 61.5H40.7563H58.3866L59.0234 61.1959C59.9073 60.7777 60.4585 60.2454 60.8862 59.3806L61.2378 58.6582L61.2664 49.8573L61.2854 41.0469L61.7226 40.5907C61.9697 40.3436 62.2928 39.8494 62.4639 39.5073L62.7585 38.88L62.787 34.5081C62.806 31.2291 62.787 30.0316 62.7015 29.7084C62.5399 29.1477 61.7796 28.3683 61.2283 28.2068C60.9432 28.1212 59.4606 28.0927 55.7349 28.0927H50.6407V26.7336C50.6407 25.0419 50.5361 24.4526 50.0704 23.4737C49.3766 22.0195 47.8749 20.8695 46.3257 20.5939C45.6224 20.4608 35.7856 20.4703 35.1013 20.6034ZM46.858 22.3617C47.7419 22.7799 48.2931 23.3121 48.7208 24.177L49.0725 24.8993L49.1105 26.496L49.139 28.0927H48.3692H47.5993V26.8001C47.5993 26.0588 47.5518 25.3365 47.4853 25.1084C47.3332 24.5857 46.5443 23.7968 46.0216 23.6447C45.7365 23.5592 44.3014 23.5307 40.7563 23.5307C37.2112 23.5307 35.7761 23.5592 35.491 23.6447C34.9682 23.7968 34.1794 24.5857 34.0273 25.1084C33.9608 25.3365 33.9133 26.0588 33.9133 26.8001V28.0927H33.1434H32.3736L32.4116 26.496C32.4401 24.9468 32.4496 24.8993 32.7442 24.272C32.9058 23.9204 33.2194 23.4452 33.4285 23.2171C33.8467 22.7609 34.7116 22.2571 35.3009 22.1146C35.51 22.0671 37.9525 22.029 40.9464 22.0385L46.2212 22.0575L46.858 22.3617ZM45.841 25.289C46.0691 25.5076 46.0786 25.5646 46.0786 26.8097V28.0927H40.7563H35.4339V26.8097C35.4339 25.5646 35.4434 25.5076 35.6715 25.289L35.8996 25.0514H40.7563H45.6129L45.841 25.289ZM61.0478 29.851L61.2854 30.0791V34.1849C61.2854 37.1312 61.2568 38.3953 61.1713 38.6804C61.0192 39.2031 60.2304 39.992 59.7077 40.1441C59.413 40.2296 57.6167 40.2581 52.6936 40.2581H46.0786V39.7259C46.0786 39.4312 46.0311 39.0131 45.9646 38.7945C45.8125 38.2717 45.0237 37.4829 44.5009 37.3308C43.9497 37.1692 37.5629 37.1692 37.0116 37.3308C36.4889 37.4829 35.7 38.2717 35.548 38.7945C35.4814 39.0131 35.4339 39.4312 35.4339 39.7259V40.2581H28.819C23.8958 40.2581 22.0995 40.2296 21.8049 40.1441C21.2822 39.992 20.4933 39.2031 20.3413 38.6804C20.2557 38.3953 20.2272 37.1312 20.2272 34.1849V30.0791L20.4648 29.851L20.6929 29.6134H40.7563H60.8197L61.0478 29.851ZM44.3204 38.975C44.558 39.2031 44.558 39.2221 44.558 41.0184C44.558 42.8147 44.558 42.8337 44.3204 43.0618L44.0923 43.2994H40.7563H37.4203L37.1922 43.0618C36.9546 42.8337 36.9546 42.8147 36.9546 41.0184C36.9546 39.2221 36.9546 39.2031 37.1922 38.975L37.4203 38.7374H40.7563H44.0923L44.3204 38.975ZM28.743 41.7788H35.4339V42.311C35.4339 43.1379 35.605 43.5751 36.1467 44.1073C36.5839 44.554 37.1162 44.8201 37.5439 44.8201C37.6579 44.8201 37.6959 44.9912 37.7339 45.5995C37.8195 46.8825 38.3042 47.6809 39.3497 48.2511C39.9009 48.5458 40.015 48.5743 40.7563 48.5648C41.4406 48.5648 41.6402 48.5268 42.0489 48.3177C42.7617 47.947 43.0658 47.6524 43.4175 46.9966C43.6741 46.5119 43.7311 46.2838 43.7786 45.6185C43.8166 44.9912 43.8547 44.8201 43.9687 44.8201C44.3964 44.8201 44.9286 44.554 45.3658 44.1073C45.9076 43.5751 46.0786 43.1379 46.0786 42.311V41.7788H52.7696C56.4477 41.7788 59.5271 41.7503 59.6126 41.7217C59.7552 41.6647 59.7647 42.4251 59.7647 49.8573C59.7647 56.0161 59.7362 58.1545 59.6506 58.4492C59.4986 58.9719 58.7097 59.7607 58.187 59.9128C57.6167 60.0839 23.8958 60.0839 23.3256 59.9128C22.8028 59.7607 22.014 58.9719 21.8619 58.4492C21.7764 58.1545 21.7479 56.0161 21.7479 49.8573C21.7479 42.4251 21.7574 41.6647 21.8999 41.7217C21.9855 41.7503 25.0648 41.7788 28.743 41.7788ZM42.2579 45.4854C42.2104 46.4358 41.7542 46.9776 40.9274 47.0726C40.3761 47.1391 39.9009 46.9301 39.5588 46.4834C39.3402 46.1887 39.2831 46.0081 39.2546 45.4759L39.2166 44.8201H40.7563H42.296L42.2579 45.4854Z" fill="#3C2FC0"/>
</g>
<defs>
<linearGradient id="paint0_linear_1_507" x1="14.7187" y1="2.5" x2="68.7187" y2="84.5" gradientUnits="userSpaceOnUse">
<stop stop-color="#EFEDFF"/>
<stop offset="0.76197" stop-color="#EFEDFF" stop-opacity="0"/>
</linearGradient>
<clipPath id="clip0_1_507">
<rect width="80" height="80" fill="white" transform="translate(0.71875 0.5)"/>
</clipPath>
</defs>
</svg>
