<svg width="39" height="38" viewBox="0 0 39 38" fill="none" xmlns="http://www.w3.org/2000/svg">
<g clip-path="url(#clip0_1_1833)">
<path d="M34.7895 0.118711C33.0453 0.586288 32.1324 2.54567 32.8895 4.19332L33.0899 4.63121L28.6739 9.04723L24.2653 13.4558L23.7903 13.2406C23.3746 13.0476 23.241 13.0253 22.5805 13.0253C21.9199 13.0253 21.7864 13.0476 21.3707 13.2406L20.8957 13.4558L18.9586 11.5187L17.0215 9.5816L17.1774 9.22535C17.4594 8.60192 17.5188 8.31246 17.4817 7.72614C17.4297 6.78356 16.9696 5.96715 16.2125 5.46989C15.6781 5.12106 15.1883 4.97262 14.5649 4.97262C12.984 4.97262 11.7371 6.14528 11.6481 7.72614C11.611 8.31246 11.6703 8.60192 11.9524 9.22535L12.1082 9.5816L8.61994 13.0699L5.12424 16.5656L4.76057 16.38C3.02385 15.482 0.930882 16.5656 0.559788 18.5546C0.203538 20.4472 2.01448 22.2359 3.92932 21.8945C5.84416 21.5456 6.91291 19.5269 6.11135 17.7753L5.91096 17.3374L9.41409 13.8343L12.9172 10.3312L13.266 10.5167C14.0379 10.9175 15.0992 10.9175 15.8711 10.5093L16.2125 10.3312L18.1719 12.2906L20.1238 14.2425L19.9903 14.5246C19.0477 16.4765 20.25 18.6511 22.3653 18.8292C23.5676 18.9331 24.718 18.2578 25.2449 17.1445C25.4528 16.7066 25.475 16.5953 25.475 15.9199C25.475 15.2593 25.4528 15.1257 25.2598 14.7101L25.0446 14.2351L29.4531 9.82653L33.8692 5.41051L34.2922 5.6109C36.0809 6.42731 38.1145 5.34372 38.4485 3.38434C38.6488 2.18942 37.9883 0.898008 36.8899 0.348789C36.2071 0.00738296 35.502 -0.0742592 34.7895 0.118711ZM36.1328 1.20231C36.8305 1.41012 37.3871 2.19684 37.3871 2.97614C37.3871 4.61637 35.3535 5.41793 34.2254 4.21559C33.8469 3.81481 33.7207 3.50309 33.7133 2.96872C33.7133 1.67731 34.886 0.823789 36.1328 1.20231ZM15.3145 6.19723C16.4723 6.67965 16.7617 8.2902 15.8563 9.19567C15.5 9.55192 15.0918 9.72262 14.5649 9.72262C12.7985 9.72262 12.0489 7.48864 13.4516 6.41246C13.9563 6.03395 14.7059 5.94489 15.3145 6.19723ZM23.4117 14.2648C24.3246 14.6878 24.6957 15.8679 24.2059 16.7734C23.8571 17.4117 23.3004 17.7382 22.5656 17.7382C21.4746 17.7308 20.7028 16.8847 20.777 15.7789C20.8586 14.4652 22.1946 13.6933 23.4117 14.2648ZM3.99612 17.2335C5.11682 17.6121 5.62893 18.8664 5.06487 19.8757C4.58244 20.7589 3.48401 21.1003 2.60823 20.6476C1.53205 20.091 1.27971 18.6066 2.11838 17.7085C2.56369 17.2335 3.38752 17.0257 3.99612 17.2335Z" fill="#3C2FC0"/>
<path d="M31.8203 24.6035V38H35.1602H38.5V24.6035V11.207H35.1602H31.8203V24.6035ZM37.3867 24.6035V36.8867H35.123H32.8594V24.6035V12.3203H35.123H37.3867V24.6035Z" fill="#3C2FC0"/>
<path d="M10.9648 29.8359V38H14.3047H17.6445V29.8359V21.6719H14.3047H10.9648V29.8359ZM16.5312 29.8359V36.8867H14.2676H12.0039V29.8359V22.7852H14.2676H16.5312V29.8359Z" fill="#3C2FC0"/>
<path d="M21.3555 30.2441V38H24.6953H28.0352V30.2441V22.4883H24.6953H21.3555V30.2441ZM26.9812 30.2219L26.9961 36.8867H24.7324H22.4688V30.207V23.5273L24.7176 23.5422L26.959 23.5645L26.9812 30.2219Z" fill="#3C2FC0"/>
<path d="M0.5 31.8398V38H3.83984H7.17969V31.8398V25.6797H3.83984H0.5V31.8398ZM6.14062 31.8398V36.8867H3.87695H1.61328V31.8398V26.793H3.87695H6.14062V31.8398Z" fill="#3C2FC0"/>
</g>
<defs>
<clipPath id="clip0_1_1833">
<rect width="38" height="38" fill="white" transform="translate(0.5)"/>
</clipPath>
</defs>
</svg>
