<svg width="64" height="65" viewBox="0 0 64 65" fill="none" xmlns="http://www.w3.org/2000/svg">
<path d="M0 16.5C0 7.66344 7.16344 0.5 16 0.5H48C56.8366 0.5 64 7.66344 64 16.5V48.5C64 57.3366 56.8366 64.5 48 64.5H16C7.16344 64.5 0 57.3366 0 48.5V16.5Z" fill="#DFDDFF"/>
<g clip-path="url(#clip0_1_341)">
<path d="M29.7372 16.5675C29.4035 16.6888 29.1063 16.9072 28.9303 17.162C28.6513 17.5624 28.6027 17.8536 28.6027 19.2246C28.6027 20.1831 28.5845 20.4925 28.5299 20.5107C28.2387 20.5896 27.262 20.9718 26.7888 21.1962L26.2125 21.4571L25.2419 20.4986C24.1317 19.4005 23.9679 19.3035 23.3127 19.3459C23.1004 19.3581 22.8213 19.4187 22.6879 19.4855C22.3603 19.6371 19.6243 22.3731 19.4726 22.7007C19.4059 22.8342 19.3452 23.1133 19.3331 23.3256C19.2906 23.9808 19.3877 24.1446 20.4857 25.2548L21.4564 26.2315L21.2986 26.5348C21.0863 26.9594 20.7162 27.8512 20.5949 28.2516L20.4857 28.5852L19.1025 28.6156C17.8589 28.6398 17.683 28.658 17.4403 28.7733C17.1127 28.925 16.8155 29.2101 16.6335 29.5498C16.5 29.7925 16.5 29.8471 16.5 32.0128C16.5 34.1786 16.5 34.2332 16.6335 34.4759C16.8155 34.8156 17.1127 35.1007 17.4403 35.2524C17.683 35.3676 17.8589 35.3858 19.1025 35.4101L20.4857 35.4404L20.5949 35.7741C20.7162 36.1745 21.0863 37.0663 21.2986 37.4909L21.4564 37.7942L20.4857 38.771C19.3877 39.8811 19.2906 40.0449 19.3331 40.7001C19.3452 40.9124 19.4119 41.1915 19.4726 41.325C19.5393 41.4766 20.1157 42.1015 20.9892 42.9811C22.2996 44.2976 22.4027 44.3886 22.609 44.3886C22.9184 44.3886 23.1065 44.2187 23.1065 43.9396C23.1065 43.7334 23.0215 43.6303 21.699 42.3078L20.2916 40.8942V40.6031V40.3119L21.4139 39.1714C22.245 38.3281 22.5362 38.0005 22.5362 37.8913C22.5362 37.8064 22.3603 37.3999 22.154 36.9813C21.9417 36.5627 21.6505 35.859 21.5049 35.4222C21.329 34.8823 21.2016 34.5851 21.1166 34.5305C21.0196 34.4577 20.7102 34.4395 19.5151 34.4395C17.8832 34.4395 17.7012 34.4091 17.5374 34.0815C17.3978 33.8146 17.3918 30.2171 17.5313 29.9502C17.7072 29.6105 17.8286 29.5862 19.4847 29.5862C20.7041 29.5862 21.0135 29.568 21.1166 29.4952C21.2016 29.4406 21.329 29.1434 21.5049 28.6034C21.6505 28.1667 21.9417 27.4629 22.154 27.0443C22.3603 26.6258 22.5362 26.2193 22.5362 26.1344C22.5362 26.0252 22.245 25.6976 21.4139 24.8544L20.2916 23.7139V23.4227V23.1254L21.7051 21.718L23.1125 20.3045H23.4098H23.701L24.8415 21.4268C25.6787 22.2518 26.0123 22.5491 26.1215 22.5491C26.2004 22.5491 26.619 22.3731 27.0436 22.1608C27.4744 21.9424 28.1781 21.6512 28.6088 21.5117C29.1366 21.3418 29.4278 21.2144 29.4824 21.1295C29.5552 21.0264 29.5734 20.717 29.5734 19.4976C29.5734 17.8414 29.5977 17.7201 29.9374 17.5442C30.2043 17.4047 33.8018 17.4107 34.0687 17.5503C34.3963 17.7141 34.4266 17.896 34.4266 19.5279C34.4266 20.7231 34.4448 21.0324 34.5176 21.1295C34.5722 21.2144 34.8695 21.3418 35.4094 21.5178C35.8462 21.6634 36.5499 21.9546 36.9685 22.1669C37.3871 22.3731 37.7935 22.5491 37.8785 22.5491C37.9877 22.5491 38.3153 22.2579 39.1585 21.4268L40.299 20.3045H40.5902H40.8875L42.2949 21.718L43.7084 23.1254V23.4227V23.7139L42.5861 24.8544C41.755 25.6976 41.4638 26.0252 41.4638 26.1344C41.4638 26.2193 41.6397 26.6258 41.846 27.0443C42.0583 27.4629 42.3495 28.1667 42.4951 28.6034C42.671 29.1434 42.7984 29.4406 42.8834 29.4952C42.9865 29.568 43.2959 29.5862 44.5153 29.5862C46.1714 29.5862 46.2928 29.6105 46.4687 29.9502C46.6082 30.2171 46.6022 33.8146 46.4626 34.0815C46.2988 34.4091 46.1168 34.4395 44.4849 34.4395C43.2898 34.4395 42.9804 34.4577 42.8834 34.5305C42.7984 34.5851 42.671 34.8823 42.4951 35.4222C42.3495 35.859 42.0583 36.5627 41.846 36.9813C41.6397 37.3999 41.4638 37.8064 41.4638 37.8913C41.4638 38.0005 41.755 38.3281 42.5861 39.1714L43.7084 40.3119V40.6031V40.8942L42.301 42.3078C40.9785 43.6303 40.8935 43.7334 40.8935 43.9396C40.8935 44.2187 41.0816 44.3886 41.391 44.3886C41.5973 44.3886 41.7004 44.2976 43.0108 42.9751C43.8843 42.1015 44.4607 41.4766 44.5274 41.325C44.5881 41.1915 44.6548 40.9124 44.6669 40.7001C44.7094 40.0449 44.6123 39.8811 43.5143 38.771L42.5436 37.7942L42.7014 37.4909C42.9137 37.0663 43.2838 36.1745 43.4051 35.7741L43.5143 35.4404L44.8975 35.4101C46.1411 35.3858 46.317 35.3676 46.5597 35.2524C46.8873 35.1007 47.1845 34.8156 47.3665 34.4759C47.5 34.2332 47.5 34.1786 47.5 32.0128C47.5 29.8471 47.5 29.7925 47.3665 29.5498C47.1845 29.2101 46.8873 28.925 46.5597 28.7733C46.317 28.658 46.1411 28.6398 44.8975 28.6156L43.5143 28.5852L43.4051 28.2516C43.2838 27.8512 42.9137 26.9594 42.7014 26.5348L42.5436 26.2315L43.5143 25.2548C44.6123 24.1446 44.7094 23.9808 44.6669 23.3256C44.6548 23.1133 44.5941 22.8342 44.5274 22.7007C44.4607 22.5491 43.8843 21.9242 42.9562 20.996C41.3485 19.3884 41.2697 19.3338 40.5599 19.3338C39.9957 19.3399 39.7712 19.4855 38.7339 20.5229L37.7875 21.4632L37.2172 21.1902C36.9018 21.0446 36.3618 20.8201 36.0221 20.6988L35.4033 20.4683L35.3851 19.0972C35.3669 17.8596 35.3548 17.7019 35.2395 17.4532C35.0879 17.1256 34.8027 16.8283 34.463 16.6463C34.2204 16.5189 34.1536 16.5129 32.091 16.5007C30.4166 16.4886 29.9192 16.5007 29.7372 16.5675Z" fill="#3C2FC0"/>
<path d="M30.938 23.8293C29.9613 23.9567 28.8027 24.345 27.9231 24.8485C24.1135 27.0262 22.6637 31.8125 24.6352 35.7252C24.9203 36.2894 25.4177 37.0234 25.5633 37.1083C25.8181 37.2417 26.085 37.1508 26.2245 36.8838C26.3337 36.6776 26.3155 36.6169 26.0183 36.168C24.0225 33.1653 24.3683 29.3799 26.8675 26.8807C27.9231 25.8251 29.2091 25.1396 30.6953 24.8485C31.3201 24.7211 32.8124 24.7393 33.4554 24.8788C35.6514 25.352 37.5077 26.7836 38.5147 28.7794C39.3093 30.3627 39.4913 32.3039 38.9939 34.0145C38.818 34.6333 38.3691 35.5857 37.9808 36.168C37.6836 36.6169 37.6654 36.6776 37.7746 36.8838C37.9141 37.1508 38.181 37.2417 38.4358 37.1083C38.5875 37.0234 39.0849 36.2833 39.3882 35.6827C39.6854 35.0822 39.9645 34.2572 40.1101 33.5474C40.2557 32.8195 40.2557 31.2241 40.1101 30.484C39.5702 27.7663 37.7564 25.5218 35.2207 24.4238C33.9225 23.8657 32.3696 23.6534 30.938 23.8293Z" fill="#3C2FC0"/>
<path d="M31.3629 27.6516C29.5855 27.9125 28.075 29.2774 27.6564 31.0123C27.5169 31.5764 27.5169 32.5834 27.6564 33.1355C27.9658 34.4033 28.8454 35.4952 30.0222 36.0715C30.738 36.4233 31.1748 36.5204 31.9998 36.5204C32.8187 36.5204 33.2616 36.4233 33.9713 36.0776C35.1421 35.5013 36.0399 34.3851 36.3432 33.1355C36.4767 32.5774 36.4767 31.5704 36.3432 31.0123C36.0642 29.8597 35.2513 28.7921 34.1776 28.1733C33.7833 27.9428 33.1099 27.7244 32.57 27.6455C32.0544 27.5788 31.8785 27.5788 31.3629 27.6516ZM33.0614 28.7496C34.1654 29.1136 35.045 30.0235 35.3726 31.1336C35.5182 31.625 35.5182 32.5288 35.3726 33.0141C35.0026 34.2638 33.9531 35.2404 32.6974 35.5013C31.9088 35.6651 31.193 35.568 30.4226 35.1919C30.1071 35.0342 29.8463 34.8401 29.543 34.5368C28.8332 33.8209 28.5178 33.0687 28.5178 32.0739C28.5178 30.6119 29.3549 29.3805 30.738 28.8224C31.4356 28.5373 32.3395 28.5069 33.0614 28.7496Z" fill="#3C2FC0"/>
<path d="M30.1372 36.9697C29.9734 37 29.755 37.2608 29.755 37.4246C29.755 37.4914 29.9977 37.9949 30.2949 38.5469L30.8409 39.5417L30.6771 40.4213C30.5922 40.9006 30.5012 41.2767 30.4769 41.2463C30.4526 41.2221 30.0947 40.3182 29.6883 39.2324C29.2819 38.1465 28.8936 37.2002 28.8269 37.1213C28.6692 36.9515 28.3841 36.9454 27.7107 37.1092C26.4975 37.4004 25.3631 38.1829 24.6533 39.2081C24.4107 39.566 24.0285 40.3789 23.8951 40.8399C23.8041 41.1614 23.7859 41.5618 23.7677 44.2188L23.7434 47.2398L23.8951 47.3914L24.0467 47.5431H31.9995H39.9523L40.0979 47.3914L40.2496 47.2458V44.4372C40.2496 41.1311 40.2253 40.9188 39.7097 39.8754C39.0303 38.4862 37.7624 37.455 36.3065 37.1092C35.615 36.9454 35.3299 36.9515 35.1721 37.1213C35.1054 37.2002 34.7172 38.1465 34.3107 39.2324C33.9043 40.3182 33.5464 41.2221 33.5221 41.2463C33.4979 41.2767 33.4069 40.9006 33.322 40.4213L33.1582 39.5417L33.7041 38.5469C34.0014 37.9949 34.244 37.4914 34.244 37.4186C34.244 37.3518 34.1773 37.2184 34.0984 37.1274L33.9528 36.9575L32.1087 36.9515C31.1017 36.9454 30.21 36.9515 30.1372 36.9697ZM32.9095 37.9342C32.9095 37.9524 32.7457 38.2739 32.5455 38.6379C32.3453 39.0079 32.1815 39.384 32.1815 39.4689C32.1815 39.5539 32.3332 40.4031 32.5151 41.3555L32.8427 43.0844L32.4363 44.1581C32.2118 44.7526 32.0177 45.2379 31.9995 45.2379C31.9813 45.2379 31.7872 44.7526 31.5628 44.1581L31.1563 43.0844L31.4839 41.3555C31.6659 40.4031 31.8175 39.5539 31.8175 39.4689C31.8175 39.384 31.6537 39.0079 31.4536 38.6379C31.2534 38.2739 31.0896 37.9524 31.0896 37.9342C31.0896 37.916 31.5021 37.8978 31.9995 37.8978C32.503 37.8978 32.9095 37.916 32.9095 37.9342ZM29.4214 41.2645C30.0947 43.0298 30.8227 44.9528 31.0411 45.523L31.4414 46.5725H28.0807H24.7201V44.1278C24.7201 41.3252 24.7443 41.1614 25.1811 40.2697C25.6543 39.3112 26.5399 38.5287 27.553 38.1647C27.7774 38.0858 28.0201 38.0252 28.0807 38.0373C28.1778 38.0495 28.4205 38.6318 29.4214 41.2645ZM36.6826 38.2618C37.5926 38.6379 38.3872 39.3901 38.8301 40.2939C39.2547 41.1614 39.279 41.3677 39.279 44.1521V46.5725H35.9062C34.056 46.5725 32.5515 46.5482 32.5697 46.5239C32.5819 46.4997 33.2977 44.6374 34.147 42.3868C35.0023 40.1362 35.7302 38.2254 35.7606 38.1465C35.8152 38.0252 35.8516 38.0131 36.0517 38.0495C36.1731 38.0737 36.4582 38.1647 36.6826 38.2618Z" fill="#3C2FC0"/>
</g>
<defs>
<clipPath id="clip0_1_341">
<rect width="31" height="32" fill="white" transform="translate(16.5 16.5)"/>
</clipPath>
</defs>
</svg>
