<svg width="21" height="23" viewBox="0 0 21 23" fill="none" xmlns="http://www.w3.org/2000/svg">
<g clip-path="url(#clip0_1_821)">
<path d="M4.20665 1.73163C3.89569 1.81223 3.57705 1.98878 3.25074 2.26897C2.88987 2.57986 1.59613 3.89634 1.38498 4.16884C0.528886 5.26271 0.513531 6.963 1.34276 9.15841C2.35241 11.8413 4.24505 14.5587 6.64059 16.7656C9.94212 19.8093 14.3646 21.7781 16.6412 21.2255C16.9791 21.1449 17.5395 20.8838 17.7967 20.6882C18.0578 20.4924 19.793 18.7115 19.9543 18.4774C20.2537 18.0436 20.3688 17.4641 20.2537 16.9729C20.1232 16.424 20.0809 16.3741 18.411 14.7006C16.7256 13.0158 16.6718 12.9735 16.1152 12.8584C15.6738 12.7662 15.2247 12.8469 14.7908 13.0963C14.691 13.1577 14.215 13.5915 13.735 14.0674L12.8636 14.9271L12.5834 14.7813C11.8962 14.4243 11.3894 14.0828 10.6331 13.4609C9.85767 12.8238 8.77507 11.7069 8.17618 10.924C7.74238 10.3559 7.1051 9.3081 7.10126 9.16608C7.10126 9.13922 7.4007 8.82449 7.76541 8.46754C8.53321 7.71912 8.83649 7.36984 9.00924 7.03976C9.22423 6.6214 9.26646 6.09174 9.11674 5.6542C8.96702 5.20898 8.82113 5.04009 7.35464 3.57009C5.90349 2.11927 5.68083 1.92737 5.26621 1.78536C4.97829 1.68173 4.50225 1.6587 4.20665 1.73163ZM5.0973 2.81015C5.2048 2.87155 5.81903 3.4511 6.64442 4.28015C8.13779 5.77702 8.19537 5.8461 8.19153 6.24143C8.19153 6.5907 8.09941 6.71352 7.09742 7.71528C6.59067 8.21806 6.14919 8.68248 6.11848 8.74773C6.0724 8.82833 6.06089 8.93964 6.0724 9.1277C6.08392 9.35799 6.11464 9.44628 6.34881 9.91068C6.87859 10.9623 7.5773 11.8873 8.73283 13.0694C9.8807 14.2439 11.0247 15.119 12.2033 15.7255C12.6218 15.9404 12.7024 15.9711 12.8943 15.9672C13.0249 15.9672 13.163 15.9404 13.2437 15.8982C13.3166 15.8598 13.7926 15.4145 14.2993 14.9118C14.952 14.2631 15.2706 13.9752 15.3935 13.9216C15.6238 13.8179 15.9233 13.8179 16.1344 13.9216C16.3648 14.0367 19.0789 16.7464 19.198 16.9843C19.2632 17.111 19.2901 17.2262 19.2901 17.3912C19.2901 17.7865 19.2095 17.894 18.1192 18.9878C17.0404 20.0702 16.9407 20.1432 16.3648 20.2736C15.8082 20.3964 14.8753 20.2967 13.9309 20.0164C12.4912 19.5905 10.5564 18.5696 8.96318 17.395C5.89581 15.1382 3.26226 11.6877 2.16814 8.49825C1.64604 6.98219 1.58845 5.896 1.98771 5.08999C2.11055 4.83284 2.22572 4.70234 3.02424 3.8925C3.51563 3.39354 3.98783 2.94064 4.06845 2.88306C4.41396 2.6451 4.76714 2.61823 5.0973 2.81015Z" fill="url(#paint0_linear_1_821)"/>
</g>
<defs>
<linearGradient id="paint0_linear_1_821" x1="0.737659" y1="1.1111" x2="22.7379" y2="21.8939" gradientUnits="userSpaceOnUse">
<stop stop-color="#E56213"/>
<stop offset="1" stop-color="#3C2FC0"/>
</linearGradient>
<clipPath id="clip0_1_821">
<rect width="19.56" height="22" fill="white" transform="translate(0.737793 0.5)"/>
</clipPath>
</defs>
</svg>
