<svg width="208" height="47" viewBox="0 0 208 47" fill="none" xmlns="http://www.w3.org/2000/svg">
<g clip-path="url(#clip0_1_151)">
<path d="M68.9864 5.2V4.5H76.3614C78.4947 4.5 80.1281 5.125 81.2614 6.375C82.4114 7.625 82.9864 9.56667 82.9864 12.2V13.775C82.9864 16.4083 82.4114 18.3583 81.2614 19.625C80.1281 20.875 78.4947 21.5 76.3614 21.5H68.9864V20.8L70.3614 20.625C70.6281 20.5917 70.7864 20.525 70.8364 20.425C70.8864 20.3083 70.9114 19.9667 70.9114 19.4V6.6C70.9114 6.03333 70.8864 5.7 70.8364 5.6C70.7864 5.48333 70.6281 5.40833 70.3614 5.375L68.9864 5.2ZM76.2364 5.375H73.9114V20.625H76.2364C77.0864 20.625 77.7697 20.4833 78.2864 20.2C78.8031 19.9 79.1781 19.35 79.4114 18.55C79.6614 17.7333 79.7864 16.5583 79.7864 15.025V10.95C79.7864 9.41667 79.6614 8.25 79.4114 7.45C79.1781 6.65 78.8031 6.10833 78.2864 5.825C77.7697 5.525 77.0864 5.375 76.2364 5.375ZM97.96 20.875C97.6934 21.125 97.3684 21.3333 96.985 21.5C96.6184 21.6667 96.1684 21.75 95.635 21.75C94.9517 21.75 94.3767 21.6 93.91 21.3C93.46 21 93.16 20.575 93.01 20.025C92.46 20.625 91.8517 21.0667 91.185 21.35C90.535 21.6167 89.8684 21.75 89.185 21.75C88.035 21.75 87.1767 21.4333 86.61 20.8C86.0434 20.15 85.76 19.3417 85.76 18.375C85.76 17.3917 86.1184 16.6 86.835 16C87.5517 15.3833 88.8184 15.075 90.635 15.075H92.91V13.05C92.91 11.6667 92.7267 10.725 92.36 10.225C92.01 9.70833 91.5184 9.45 90.885 9.45C90.4684 9.45 90.085 9.55833 89.735 9.775C89.385 9.975 89.135 10.3583 88.985 10.925C88.8517 11.475 88.8767 12.275 89.06 13.325L86.31 12.925C86.1767 12.1583 86.26 11.45 86.56 10.8C86.8767 10.1333 87.4017 9.6 88.135 9.2C88.8684 8.78333 89.8017 8.575 90.935 8.575C92.2184 8.575 93.21 8.78333 93.91 9.2C94.61 9.61667 95.0934 10.1667 95.36 10.85C95.6434 11.5333 95.785 12.2667 95.785 13.05V18.825C95.785 19.675 95.86 20.2083 96.01 20.425C96.16 20.6417 96.3267 20.75 96.51 20.75C96.81 20.75 97.1434 20.575 97.51 20.225L97.96 20.875ZM90.285 20.425C90.7184 20.425 91.1434 20.3167 91.56 20.1C91.9934 19.8667 92.4434 19.4417 92.91 18.825V15.95H91.035C90.2184 15.95 89.6267 16.1417 89.26 16.525C88.8934 16.9083 88.71 17.5083 88.71 18.325C88.71 18.9917 88.8434 19.5083 89.11 19.875C89.3767 20.2417 89.7684 20.425 90.285 20.425ZM107.562 18.9C107.345 19.9167 106.928 20.65 106.312 21.1C105.712 21.5333 104.978 21.75 104.112 21.75C103.228 21.75 102.503 21.5583 101.937 21.175C101.37 20.775 100.953 20.25 100.687 19.6C100.42 18.95 100.287 18.2583 100.287 17.525V10.925C100.287 10.3583 100.262 10.025 100.212 9.925C100.162 9.80833 100.004 9.73333 99.7372 9.7L98.3622 9.525V8.825H100.287V5.925L103.162 5.35V8.825H107.162V9.7H103.162V18.025C103.162 19.0917 103.295 19.8333 103.562 20.25C103.828 20.65 104.17 20.85 104.587 20.85C105.02 20.85 105.353 20.6833 105.587 20.35C105.837 20.0167 105.995 19.4083 106.062 18.525L107.562 18.9ZM121.275 20.875C121.008 21.125 120.683 21.3333 120.3 21.5C119.933 21.6667 119.483 21.75 118.95 21.75C118.267 21.75 117.692 21.6 117.225 21.3C116.775 21 116.475 20.575 116.325 20.025C115.775 20.625 115.167 21.0667 114.5 21.35C113.85 21.6167 113.183 21.75 112.5 21.75C111.35 21.75 110.492 21.4333 109.925 20.8C109.358 20.15 109.075 19.3417 109.075 18.375C109.075 17.3917 109.433 16.6 110.15 16C110.867 15.3833 112.133 15.075 113.95 15.075H116.225V13.05C116.225 11.6667 116.042 10.725 115.675 10.225C115.325 9.70833 114.833 9.45 114.2 9.45C113.783 9.45 113.4 9.55833 113.05 9.775C112.7 9.975 112.45 10.3583 112.3 10.925C112.167 11.475 112.192 12.275 112.375 13.325L109.625 12.925C109.492 12.1583 109.575 11.45 109.875 10.8C110.192 10.1333 110.717 9.6 111.45 9.2C112.183 8.78333 113.117 8.575 114.25 8.575C115.533 8.575 116.525 8.78333 117.225 9.2C117.925 9.61667 118.408 10.1667 118.675 10.85C118.958 11.5333 119.1 12.2667 119.1 13.05V18.825C119.1 19.675 119.175 20.2083 119.325 20.425C119.475 20.6417 119.642 20.75 119.825 20.75C120.125 20.75 120.458 20.575 120.825 20.225L121.275 20.875ZM113.6 20.425C114.033 20.425 114.458 20.3167 114.875 20.1C115.308 19.8667 115.758 19.4417 116.225 18.825V15.95H114.35C113.533 15.95 112.942 16.1417 112.575 16.525C112.208 16.9083 112.025 17.5083 112.025 18.325C112.025 18.9917 112.158 19.5083 112.425 19.875C112.692 20.2417 113.083 20.425 113.6 20.425ZM135.793 21.75C134.26 21.75 132.96 21.425 131.893 20.775C130.826 20.1083 130.018 19.175 129.468 17.975C128.918 16.775 128.643 15.375 128.643 13.775V12.2C128.643 10.6 128.885 9.20833 129.368 8.025C129.868 6.825 130.61 5.9 131.593 5.25C132.576 4.58333 133.81 4.25 135.293 4.25C136.56 4.25 137.618 4.5 138.468 5C139.318 5.48333 139.943 6.13333 140.343 6.95C140.76 7.75 140.935 8.625 140.868 9.575L137.943 10.3C138.11 8.63333 137.935 7.35833 137.418 6.475C136.918 5.575 136.168 5.125 135.168 5.125C134.101 5.125 133.276 5.575 132.693 6.475C132.126 7.375 131.843 8.86667 131.843 10.95V15.025C131.843 17.0917 132.168 18.5833 132.818 19.5C133.468 20.4167 134.46 20.875 135.793 20.875C136.343 20.875 136.851 20.775 137.318 20.575C137.801 20.375 138.201 20.0333 138.518 19.55C138.851 19.05 139.06 18.35 139.143 17.45L140.943 17.925C140.71 18.8583 140.335 19.6083 139.818 20.175C139.301 20.7417 138.693 21.15 137.993 21.4C137.31 21.6333 136.576 21.75 135.793 21.75ZM153.76 18.525C153.46 19.6917 152.902 20.525 152.085 21.025C151.268 21.5083 150.318 21.75 149.235 21.75C147.235 21.75 145.735 21.175 144.735 20.025C143.735 18.8583 143.235 17.3167 143.235 15.4V14.9C143.235 12.9833 143.702 11.45 144.635 10.3C145.585 9.15 146.952 8.575 148.735 8.575C149.735 8.575 150.618 8.775 151.385 9.175C152.168 9.55833 152.777 10.1167 153.21 10.85C153.66 11.5833 153.885 12.475 153.885 13.525C153.885 13.775 153.868 14.0417 153.835 14.325C153.818 14.6083 153.777 14.8917 153.71 15.175H146.31V15.9C146.31 17.6667 146.56 18.9417 147.06 19.725C147.56 20.4917 148.368 20.875 149.485 20.875C150.202 20.875 150.81 20.6667 151.31 20.25C151.81 19.8167 152.093 19.0917 152.16 18.075L153.76 18.525ZM148.735 9.45C147.918 9.45 147.31 9.825 146.91 10.575C146.51 11.325 146.31 12.5667 146.31 14.3H150.835C150.902 13.9667 150.943 13.6583 150.96 13.375C150.993 13.075 151.01 12.8 151.01 12.55C151.01 11.4833 150.802 10.7 150.385 10.2C149.968 9.7 149.418 9.45 148.735 9.45ZM170.442 20.8V21.5H163.717V20.8L165.092 20.625C165.359 20.5917 165.517 20.525 165.567 20.425C165.617 20.3083 165.642 19.9667 165.642 19.4V13.1C165.642 11.95 165.467 11.1167 165.117 10.6C164.784 10.0667 164.284 9.8 163.617 9.8C163.334 9.8 163.001 9.875 162.617 10.025C162.251 10.1583 161.876 10.4083 161.492 10.775C161.126 11.1417 160.801 11.6833 160.517 12.4V19.4C160.517 19.9667 160.542 20.3083 160.592 20.425C160.642 20.525 160.801 20.5917 161.067 20.625L162.442 20.8V21.5H155.717V20.8L157.092 20.625C157.359 20.5917 157.517 20.525 157.567 20.425C157.617 20.3083 157.642 19.9667 157.642 19.4V10.925C157.642 10.3583 157.617 10.025 157.567 9.925C157.517 9.80833 157.359 9.73333 157.092 9.7L155.717 9.525V8.825H160.367V11.025C160.851 10.175 161.467 9.55833 162.217 9.175C162.984 8.775 163.751 8.575 164.517 8.575C165.751 8.575 166.726 8.96667 167.442 9.75C168.159 10.5333 168.517 11.6417 168.517 13.075V19.4C168.517 19.9667 168.542 20.3083 168.592 20.425C168.642 20.525 168.801 20.5917 169.067 20.625L170.442 20.8ZM180.194 18.9C179.977 19.9167 179.56 20.65 178.944 21.1C178.344 21.5333 177.61 21.75 176.744 21.75C175.86 21.75 175.135 21.5583 174.569 21.175C174.002 20.775 173.585 20.25 173.319 19.6C173.052 18.95 172.919 18.2583 172.919 17.525V10.925C172.919 10.3583 172.894 10.025 172.844 9.925C172.794 9.80833 172.635 9.73333 172.369 9.7L170.994 9.525V8.825H172.919V5.925L175.794 5.35V8.825H179.794V9.7H175.794V18.025C175.794 19.0917 175.927 19.8333 176.194 20.25C176.46 20.65 176.802 20.85 177.219 20.85C177.652 20.85 177.985 20.6833 178.219 20.35C178.469 20.0167 178.627 19.4083 178.694 18.525L180.194 18.9ZM192.432 18.525C192.132 19.6917 191.574 20.525 190.757 21.025C189.94 21.5083 188.99 21.75 187.907 21.75C185.907 21.75 184.407 21.175 183.407 20.025C182.407 18.8583 181.907 17.3167 181.907 15.4V14.9C181.907 12.9833 182.374 11.45 183.307 10.3C184.257 9.15 185.624 8.575 187.407 8.575C188.407 8.575 189.29 8.775 190.057 9.175C190.84 9.55833 191.449 10.1167 191.882 10.85C192.332 11.5833 192.557 12.475 192.557 13.525C192.557 13.775 192.54 14.0417 192.507 14.325C192.49 14.6083 192.449 14.8917 192.382 15.175H184.982V15.9C184.982 17.6667 185.232 18.9417 185.732 19.725C186.232 20.4917 187.04 20.875 188.157 20.875C188.874 20.875 189.482 20.6667 189.982 20.25C190.482 19.8167 190.765 19.0917 190.832 18.075L192.432 18.525ZM187.407 9.45C186.59 9.45 185.982 9.825 185.582 10.575C185.182 11.325 184.982 12.5667 184.982 14.3H189.507C189.574 13.9667 189.615 13.6583 189.632 13.375C189.665 13.075 189.682 12.8 189.682 12.55C189.682 11.4833 189.474 10.7 189.057 10.2C188.64 9.7 188.09 9.45 187.407 9.45ZM194.389 9.525V8.825H199.039V10.875C200.056 9.34167 201.264 8.575 202.664 8.575C203.181 8.575 203.681 8.74167 204.164 9.075C204.648 9.39167 205.048 9.99167 205.364 10.875L203.139 12.075C202.906 11.3917 202.631 10.9333 202.314 10.7C202.014 10.45 201.689 10.325 201.339 10.325C200.973 10.325 200.614 10.4417 200.264 10.675C199.914 10.9083 199.556 11.3417 199.189 11.975V19.4C199.189 19.9667 199.214 20.3083 199.264 20.425C199.314 20.525 199.473 20.5917 199.739 20.625L201.614 20.8V21.5H194.389V20.8L195.764 20.625C196.031 20.5917 196.189 20.525 196.239 20.425C196.289 20.3083 196.314 19.9667 196.314 19.4V10.925C196.314 10.3583 196.289 10.025 196.239 9.925C196.189 9.80833 196.031 9.73333 195.764 9.7L194.389 9.525Z" fill="#1F2E54"/>
<path d="M69.9242 34.1364H71.133L73.9753 41.0788H74.0733L76.9157 34.1364H78.1245V42.5H77.177V36.1456H77.0953L74.4817 42.5H73.5669L70.9533 36.1456H70.8716V42.5H69.9242V34.1364ZM81.8703 42.647C81.4728 42.647 81.1121 42.5721 80.7881 42.4224C80.4641 42.2699 80.2069 42.0508 80.0163 41.7649C79.8257 41.4763 79.7304 41.1278 79.7304 40.7195C79.7304 40.3601 79.8012 40.0688 79.9428 39.8455C80.0844 39.6196 80.2736 39.4426 80.5104 39.3146C80.7473 39.1867 81.0087 39.0914 81.2945 39.0288C81.5831 38.9634 81.8731 38.9117 82.1644 38.8736C82.5455 38.8246 82.8545 38.7878 83.0914 38.7633C83.331 38.7361 83.5052 38.6912 83.6141 38.6286C83.7257 38.5659 83.7816 38.457 83.7816 38.3018V38.2692C83.7816 37.8662 83.6713 37.5531 83.4508 37.3299C83.233 37.1067 82.9022 36.995 82.4584 36.995C81.9983 36.995 81.6376 37.0958 81.3762 37.2972C81.1148 37.4987 80.9311 37.7138 80.8249 37.9425L79.9101 37.6158C80.0735 37.2346 80.2913 36.9379 80.5635 36.7255C80.8385 36.5104 81.138 36.3607 81.462 36.2763C81.7887 36.1892 82.1099 36.1456 82.4257 36.1456C82.6272 36.1456 82.8586 36.1701 83.12 36.2191C83.3841 36.2654 83.6386 36.362 83.8837 36.5091C84.1314 36.6561 84.337 36.878 84.5003 37.1747C84.6637 37.4715 84.7453 37.869 84.7453 38.3672V42.5H83.7816V41.6506H83.7326C83.6672 41.7867 83.5583 41.9324 83.4059 42.0875C83.2534 42.2427 83.0506 42.3748 82.7974 42.4837C82.5442 42.5926 82.2352 42.647 81.8703 42.647ZM82.0174 41.7812C82.3985 41.7812 82.7198 41.7064 82.9811 41.5566C83.2452 41.4069 83.444 41.2136 83.5774 40.9767C83.7135 40.7399 83.7816 40.4908 83.7816 40.2294V39.3473C83.7407 39.3963 83.6509 39.4412 83.512 39.4821C83.3759 39.5202 83.218 39.5542 83.0383 39.5842C82.8613 39.6114 82.6885 39.6359 82.5197 39.6577C82.3536 39.6767 82.2188 39.6931 82.1154 39.7067C81.8649 39.7393 81.6308 39.7924 81.413 39.8659C81.1979 39.9367 81.0236 40.0443 80.8902 40.1886C80.7595 40.3301 80.6942 40.5234 80.6942 40.7685C80.6942 41.1033 80.8181 41.3565 81.0658 41.5281C81.3163 41.6969 81.6335 41.7812 82.0174 41.7812ZM86.5044 42.5V36.2273H87.4355V37.1747H87.5009C87.6152 36.8643 87.8221 36.6125 88.1216 36.4192C88.4211 36.2259 88.7587 36.1293 89.1344 36.1293C89.2052 36.1293 89.2937 36.1306 89.3999 36.1333C89.506 36.1361 89.5864 36.1402 89.6408 36.1456V37.1257C89.6081 37.1175 89.5333 37.1053 89.4162 37.089C89.3018 37.0699 89.1807 37.0604 89.0527 37.0604C88.7478 37.0604 88.4756 37.1243 88.236 37.2523C87.9991 37.3775 87.8113 37.5518 87.6724 37.775C87.5363 37.9956 87.4682 38.2474 87.4682 38.5305V42.5H86.5044ZM91.6817 40.2131L91.6654 39.0206H91.8614L94.6057 36.2273H95.7982L92.8742 39.1839H92.7925L91.6817 40.2131ZM90.7832 42.5V34.1364H91.747V42.5H90.7832ZM94.769 42.5L92.3188 39.3963L93.0048 38.7266L95.9942 42.5H94.769ZM99.4103 42.6307C98.8059 42.6307 98.2845 42.4973 97.8462 42.2305C97.4106 41.9609 97.0744 41.5852 96.8375 41.1033C96.6034 40.6187 96.4863 40.0552 96.4863 39.4126C96.4863 38.7701 96.6034 38.2038 96.8375 37.7138C97.0744 37.221 97.4038 36.8371 97.8258 36.5621C98.2505 36.2844 98.746 36.1456 99.3123 36.1456C99.639 36.1456 99.9616 36.2 100.28 36.3089C100.599 36.4179 100.889 36.5948 101.15 36.8398C101.411 37.0821 101.619 37.4034 101.774 37.8036C101.93 38.2038 102.007 38.6966 102.007 39.282V39.6903H97.1724V38.8572H101.027C101.027 38.5033 100.956 38.1875 100.815 37.9098C100.676 37.6321 100.477 37.4129 100.219 37.2523C99.963 37.0917 99.6608 37.0114 99.3123 37.0114C98.9284 37.0114 98.5963 37.1067 98.3158 37.2972C98.0381 37.4851 97.8244 37.7301 97.6747 38.0323C97.5249 38.3345 97.4501 38.6585 97.4501 39.0043V39.5597C97.4501 40.0334 97.5317 40.435 97.6951 40.7644C97.8612 41.0911 98.0912 41.3402 98.3853 41.5117C98.6793 41.6805 99.021 41.7649 99.4103 41.7649C99.6635 41.7649 99.8922 41.7295 100.096 41.6587C100.303 41.5852 100.482 41.4763 100.631 41.332C100.781 41.185 100.897 41.0026 100.978 40.7848L101.909 41.0462C101.811 41.362 101.646 41.6397 101.415 41.8793C101.184 42.1161 100.898 42.3013 100.558 42.4347C100.217 42.5653 99.835 42.6307 99.4103 42.6307ZM106.201 36.2273V37.044H102.951V36.2273H106.201ZM103.898 34.7244H104.862V40.7031C104.862 40.9754 104.901 41.1796 104.98 41.3157C105.062 41.4491 105.165 41.5389 105.291 41.5852C105.419 41.6288 105.553 41.6506 105.695 41.6506C105.801 41.6506 105.888 41.6451 105.956 41.6342C106.024 41.6206 106.079 41.6097 106.12 41.6016L106.316 42.4673C106.25 42.4918 106.159 42.5163 106.042 42.5408C105.925 42.5681 105.777 42.5817 105.597 42.5817C105.325 42.5817 105.058 42.5231 104.796 42.4061C104.538 42.289 104.323 42.1107 104.151 41.8711C103.982 41.6315 103.898 41.3293 103.898 40.9645V34.7244ZM111.359 42.5H110.297L113.368 34.1364H114.414L117.485 42.5H116.423L113.924 35.4595H113.858L111.359 42.5ZM111.751 39.233H116.031V40.1314H111.751V39.233ZM119.621 38.7266V42.5H118.657V36.2273H119.588V37.2074H119.67C119.817 36.8888 120.04 36.6329 120.339 36.4396C120.639 36.2436 121.025 36.1456 121.499 36.1456C121.924 36.1456 122.296 36.2327 122.614 36.407C122.933 36.5785 123.18 36.8398 123.357 37.1911C123.534 37.5395 123.623 37.9806 123.623 38.5142V42.5H122.659V38.5795C122.659 38.0868 122.531 37.7029 122.275 37.4279C122.019 37.1502 121.668 37.0114 121.222 37.0114C120.914 37.0114 120.639 37.0781 120.397 37.2115C120.157 37.3449 119.968 37.5395 119.829 37.7955C119.69 38.0514 119.621 38.3617 119.621 38.7266ZM127.23 42.647C126.832 42.647 126.472 42.5721 126.148 42.4224C125.824 42.2699 125.566 42.0508 125.376 41.7649C125.185 41.4763 125.09 41.1278 125.09 40.7195C125.09 40.3601 125.161 40.0688 125.302 39.8455C125.444 39.6196 125.633 39.4426 125.87 39.3146C126.107 39.1867 126.368 39.0914 126.654 39.0288C126.943 38.9634 127.233 38.9117 127.524 38.8736C127.905 38.8246 128.214 38.7878 128.451 38.7633C128.69 38.7361 128.865 38.6912 128.974 38.6286C129.085 38.5659 129.141 38.457 129.141 38.3018V38.2692C129.141 37.8662 129.031 37.5531 128.81 37.3299C128.592 37.1067 128.262 36.995 127.818 36.995C127.358 36.995 126.997 37.0958 126.736 37.2972C126.474 37.4987 126.291 37.7138 126.184 37.9425L125.27 37.6158C125.433 37.2346 125.651 36.9379 125.923 36.7255C126.198 36.5104 126.497 36.3607 126.821 36.2763C127.148 36.1892 127.469 36.1456 127.785 36.1456C127.987 36.1456 128.218 36.1701 128.479 36.2191C128.744 36.2654 128.998 36.362 129.243 36.5091C129.491 36.6561 129.696 36.878 129.86 37.1747C130.023 37.4715 130.105 37.869 130.105 38.3672V42.5H129.141V41.6506H129.092C129.027 41.7867 128.918 41.9324 128.765 42.0875C128.613 42.2427 128.41 42.3748 128.157 42.4837C127.904 42.5926 127.595 42.647 127.23 42.647ZM127.377 41.7812C127.758 41.7812 128.079 41.7064 128.341 41.5566C128.605 41.4069 128.803 41.2136 128.937 40.9767C129.073 40.7399 129.141 40.4908 129.141 40.2294V39.3473C129.1 39.3963 129.01 39.4412 128.871 39.4821C128.735 39.5202 128.577 39.5542 128.398 39.5842C128.221 39.6114 128.048 39.6359 127.879 39.6577C127.713 39.6767 127.578 39.6931 127.475 39.7067C127.224 39.7393 126.99 39.7924 126.772 39.8659C126.557 39.9367 126.383 40.0443 126.25 40.1886C126.119 40.3301 126.054 40.5234 126.054 40.7685C126.054 41.1033 126.178 41.3565 126.425 41.5281C126.676 41.6969 126.993 41.7812 127.377 41.7812ZM132.828 34.1364V42.5H131.864V34.1364H132.828ZM135.214 44.8523C135.05 44.8523 134.905 44.8387 134.777 44.8114C134.649 44.7869 134.56 44.7624 134.511 44.7379L134.756 43.8885C134.99 43.9484 135.197 43.9702 135.377 43.9538C135.557 43.9375 135.716 43.8572 135.855 43.7129C135.996 43.5713 136.126 43.3413 136.243 43.0227L136.422 42.5327L134.103 36.2273H135.148L136.88 41.2259H136.945L138.677 36.2273H139.722L137.06 43.4148C136.94 43.7388 136.791 44.0069 136.614 44.2193C136.437 44.4344 136.232 44.5936 135.998 44.6971C135.766 44.8005 135.505 44.8523 135.214 44.8523ZM145.437 37.6321L144.572 37.8771C144.517 37.7328 144.437 37.5926 144.331 37.4565C144.227 37.3176 144.086 37.2033 143.906 37.1135C143.726 37.0236 143.496 36.9787 143.216 36.9787C142.832 36.9787 142.512 37.0672 142.256 37.2441C142.003 37.4184 141.876 37.6403 141.876 37.9098C141.876 38.1494 141.963 38.3386 142.138 38.4775C142.312 38.6163 142.584 38.732 142.955 38.8246L143.886 39.0533C144.446 39.1894 144.864 39.3977 145.139 39.6781C145.414 39.9558 145.552 40.3138 145.552 40.7521C145.552 41.1115 145.448 41.4328 145.241 41.7159C145.037 41.9991 144.751 42.2223 144.384 42.3857C144.016 42.549 143.589 42.6307 143.102 42.6307C142.462 42.6307 141.932 42.4918 141.513 42.2141C141.094 41.9364 140.828 41.5308 140.717 40.9972L141.631 40.7685C141.718 41.1061 141.883 41.3593 142.125 41.5281C142.371 41.6969 142.69 41.7812 143.085 41.7812C143.534 41.7812 143.891 41.686 144.155 41.4954C144.422 41.3021 144.555 41.0707 144.555 40.8011C144.555 40.5833 144.479 40.4009 144.327 40.2539C144.174 40.1042 143.94 39.9925 143.624 39.919L142.579 39.674C142.004 39.5379 141.582 39.3269 141.313 39.041C141.046 38.7524 140.913 38.3917 140.913 37.9588C140.913 37.6049 141.012 37.2918 141.211 37.0195C141.412 36.7473 141.686 36.5336 142.032 36.3784C142.38 36.2232 142.775 36.1456 143.216 36.1456C143.837 36.1456 144.324 36.2817 144.678 36.554C145.035 36.8262 145.288 37.1856 145.437 37.6321ZM147.003 42.5V36.2273H147.966V42.5H147.003ZM147.493 35.1818C147.305 35.1818 147.143 35.1178 147.007 34.9899C146.873 34.8619 146.807 34.7081 146.807 34.5284C146.807 34.3487 146.873 34.1949 147.007 34.0669C147.143 33.939 147.305 33.875 147.493 33.875C147.68 33.875 147.841 33.939 147.975 34.0669C148.111 34.1949 148.179 34.3487 148.179 34.5284C148.179 34.7081 148.111 34.8619 147.975 34.9899C147.841 35.1178 147.68 35.1818 147.493 35.1818ZM154.175 37.6321L153.309 37.8771C153.255 37.7328 153.174 37.5926 153.068 37.4565C152.965 37.3176 152.823 37.2033 152.643 37.1135C152.464 37.0236 152.234 36.9787 151.953 36.9787C151.569 36.9787 151.249 37.0672 150.993 37.2441C150.74 37.4184 150.614 37.6403 150.614 37.9098C150.614 38.1494 150.701 38.3386 150.875 38.4775C151.049 38.6163 151.322 38.732 151.692 38.8246L152.623 39.0533C153.184 39.1894 153.602 39.3977 153.877 39.6781C154.152 39.9558 154.289 40.3138 154.289 40.7521C154.289 41.1115 154.186 41.4328 153.979 41.7159C153.775 41.9991 153.489 42.2223 153.121 42.3857C152.754 42.549 152.326 42.6307 151.839 42.6307C151.199 42.6307 150.669 42.4918 150.25 42.2141C149.831 41.9364 149.566 41.5308 149.454 40.9972L150.369 40.7685C150.456 41.1061 150.62 41.3593 150.863 41.5281C151.108 41.6969 151.428 41.7812 151.822 41.7812C152.272 41.7812 152.628 41.686 152.892 41.4954C153.159 41.3021 153.293 41.0707 153.293 40.8011C153.293 40.5833 153.216 40.4009 153.064 40.2539C152.912 40.1042 152.677 39.9925 152.362 39.919L151.316 39.674C150.742 39.5379 150.32 39.3269 150.05 39.041C149.783 38.7524 149.65 38.3917 149.65 37.9588C149.65 37.6049 149.749 37.2918 149.948 37.0195C150.149 36.7473 150.423 36.5336 150.769 36.3784C151.117 36.2232 151.512 36.1456 151.953 36.1456C152.574 36.1456 153.061 36.2817 153.415 36.554C153.772 36.8262 154.025 37.1856 154.175 37.6321ZM163.679 36.2273C163.63 35.8134 163.431 35.4922 163.083 35.2635C162.734 35.0348 162.307 34.9205 161.8 34.9205C161.43 34.9205 161.106 34.9804 160.828 35.1001C160.553 35.2199 160.338 35.3846 160.183 35.5943C160.031 35.8039 159.954 36.0421 159.954 36.3089C159.954 36.5322 160.007 36.7241 160.114 36.8848C160.223 37.0427 160.361 37.1747 160.53 37.2809C160.699 37.3844 160.876 37.4701 161.061 37.5382C161.246 37.6035 161.416 37.6566 161.572 37.6974L162.421 37.9261C162.639 37.9833 162.881 38.0623 163.148 38.163C163.417 38.2637 163.675 38.4012 163.92 38.5755C164.167 38.747 164.372 38.9675 164.532 39.237C164.693 39.5066 164.773 39.8374 164.773 40.2294C164.773 40.6813 164.655 41.0897 164.418 41.4545C164.184 41.8194 163.841 42.1093 163.389 42.3244C162.94 42.5395 162.394 42.647 161.751 42.647C161.152 42.647 160.634 42.5504 160.195 42.3571C159.76 42.1638 159.417 41.8942 159.166 41.5485C158.918 41.2027 158.778 40.8011 158.746 40.3438H159.791C159.818 40.6596 159.924 40.9209 160.11 41.1278C160.297 41.332 160.534 41.4845 160.82 41.5852C161.109 41.6832 161.419 41.7322 161.751 41.7322C162.138 41.7322 162.485 41.6696 162.793 41.5444C163.1 41.4164 163.344 41.2395 163.524 41.0135C163.703 40.7848 163.793 40.518 163.793 40.2131C163.793 39.9354 163.716 39.7094 163.56 39.5352C163.405 39.3609 163.201 39.2193 162.948 39.1104C162.695 39.0015 162.421 38.9062 162.127 38.8246L161.098 38.5305C160.444 38.3427 159.927 38.0745 159.546 37.726C159.165 37.3775 158.974 36.9215 158.974 36.358C158.974 35.8897 159.101 35.4813 159.354 35.1328C159.61 34.7816 159.953 34.5094 160.383 34.3161C160.816 34.12 161.299 34.022 161.833 34.022C162.372 34.022 162.851 34.1187 163.27 34.312C163.69 34.5025 164.022 34.7639 164.267 35.0961C164.515 35.4282 164.645 35.8053 164.659 36.2273H163.679ZM168.938 42.6307C168.333 42.6307 167.812 42.4973 167.374 42.2305C166.938 41.9609 166.602 41.5852 166.365 41.1033C166.131 40.6187 166.014 40.0552 166.014 39.4126C166.014 38.7701 166.131 38.2038 166.365 37.7138C166.602 37.221 166.931 36.8371 167.353 36.5621C167.778 36.2844 168.273 36.1456 168.84 36.1456C169.166 36.1456 169.489 36.2 169.808 36.3089C170.126 36.4179 170.416 36.5948 170.677 36.8398C170.939 37.0821 171.147 37.4034 171.302 37.8036C171.457 38.2038 171.535 38.6966 171.535 39.282V39.6903H166.7V38.8572H170.555C170.555 38.5033 170.484 38.1875 170.343 37.9098C170.204 37.6321 170.005 37.4129 169.746 37.2523C169.49 37.0917 169.188 37.0114 168.84 37.0114C168.456 37.0114 168.124 37.1067 167.843 37.2972C167.566 37.4851 167.352 37.7301 167.202 38.0323C167.052 38.3345 166.977 38.6585 166.977 39.0043V39.5597C166.977 40.0334 167.059 40.435 167.223 40.7644C167.389 41.0911 167.619 41.3402 167.913 41.5117C168.207 41.6805 168.548 41.7649 168.938 41.7649C169.191 41.7649 169.42 41.7295 169.624 41.6587C169.831 41.5852 170.009 41.4763 170.159 41.332C170.309 41.185 170.424 41.0026 170.506 40.7848L171.437 41.0462C171.339 41.362 171.174 41.6397 170.943 41.8793C170.711 42.1161 170.426 42.3013 170.085 42.4347C169.745 42.5653 169.362 42.6307 168.938 42.6307ZM173.001 42.5V36.2273H173.932V37.1747H173.998C174.112 36.8643 174.319 36.6125 174.618 36.4192C174.918 36.2259 175.255 36.1293 175.631 36.1293C175.702 36.1293 175.79 36.1306 175.897 36.1333C176.003 36.1361 176.083 36.1402 176.137 36.1456V37.1257C176.105 37.1175 176.03 37.1053 175.913 37.089C175.799 37.0699 175.677 37.0604 175.549 37.0604C175.244 37.0604 174.972 37.1243 174.733 37.2523C174.496 37.3775 174.308 37.5518 174.169 37.775C174.033 37.9956 173.965 38.2474 173.965 38.5305V42.5H173.001ZM182.6 36.2273L180.28 42.5H179.3L176.981 36.2273H178.026L179.758 41.2259H179.823L181.555 36.2273H182.6ZM183.872 42.5V36.2273H184.836V42.5H183.872ZM184.362 35.1818C184.174 35.1818 184.012 35.1178 183.876 34.9899C183.743 34.8619 183.676 34.7081 183.676 34.5284C183.676 34.3487 183.743 34.1949 183.876 34.0669C184.012 33.939 184.174 33.875 184.362 33.875C184.55 33.875 184.711 33.939 184.844 34.0669C184.98 34.1949 185.048 34.3487 185.048 34.5284C185.048 34.7081 184.98 34.8619 184.844 34.9899C184.711 35.1178 184.55 35.1818 184.362 35.1818ZM189.15 42.6307C188.561 42.6307 188.055 42.4918 187.63 42.2141C187.206 41.9364 186.879 41.5539 186.65 41.0666C186.422 40.5792 186.307 40.0225 186.307 39.3963C186.307 38.7592 186.424 38.197 186.658 37.7097C186.895 37.2196 187.225 36.8371 187.647 36.5621C188.071 36.2844 188.567 36.1456 189.133 36.1456C189.574 36.1456 189.972 36.2273 190.326 36.3906C190.68 36.554 190.97 36.7827 191.195 37.0767C191.421 37.3707 191.562 37.7138 191.616 38.1058H190.652C190.579 37.82 190.415 37.5668 190.162 37.3462C189.912 37.123 189.574 37.0114 189.15 37.0114C188.774 37.0114 188.444 37.1094 188.161 37.3054C187.881 37.4987 187.662 37.7723 187.504 38.1262C187.349 38.4775 187.271 38.8899 187.271 39.3636C187.271 39.8482 187.347 40.2702 187.5 40.6296C187.655 40.989 187.873 41.2681 188.153 41.4668C188.436 41.6655 188.768 41.7649 189.15 41.7649C189.4 41.7649 189.627 41.7214 189.831 41.6342C190.036 41.5471 190.209 41.4219 190.35 41.2585C190.492 41.0952 190.592 40.8991 190.652 40.6705H191.616C191.562 41.0407 191.427 41.3742 191.212 41.671C190.999 41.965 190.718 42.1992 190.366 42.3734C190.018 42.5449 189.612 42.6307 189.15 42.6307ZM195.655 42.6307C195.051 42.6307 194.529 42.4973 194.091 42.2305C193.655 41.9609 193.319 41.5852 193.082 41.1033C192.848 40.6187 192.731 40.0552 192.731 39.4126C192.731 38.7701 192.848 38.2038 193.082 37.7138C193.319 37.221 193.648 36.8371 194.07 36.5621C194.495 36.2844 194.991 36.1456 195.557 36.1456C195.884 36.1456 196.206 36.2 196.525 36.3089C196.843 36.4179 197.133 36.5948 197.395 36.8398C197.656 37.0821 197.864 37.4034 198.02 37.8036C198.175 38.2038 198.252 38.6966 198.252 39.282V39.6903H193.417V38.8572H197.272C197.272 38.5033 197.201 38.1875 197.06 37.9098C196.921 37.6321 196.722 37.4129 196.464 37.2523C196.208 37.0917 195.905 37.0114 195.557 37.0114C195.173 37.0114 194.841 37.1067 194.561 37.2972C194.283 37.4851 194.069 37.7301 193.919 38.0323C193.77 38.3345 193.695 38.6585 193.695 39.0043V39.5597C193.695 40.0334 193.776 40.435 193.94 40.7644C194.106 41.0911 194.336 41.3402 194.63 41.5117C194.924 41.6805 195.266 41.7649 195.655 41.7649C195.908 41.7649 196.137 41.7295 196.341 41.6587C196.548 41.5852 196.726 41.4763 196.876 41.332C197.026 41.185 197.142 41.0026 197.223 40.7848L198.154 41.0462C198.056 41.362 197.892 41.6397 197.66 41.8793C197.429 42.1161 197.143 42.3013 196.803 42.4347C196.462 42.5653 196.08 42.6307 195.655 42.6307ZM204.162 37.6321L203.296 37.8771C203.241 37.7328 203.161 37.5926 203.055 37.4565C202.951 37.3176 202.81 37.2033 202.63 37.1135C202.45 37.0236 202.22 36.9787 201.94 36.9787C201.556 36.9787 201.236 37.0672 200.98 37.2441C200.727 37.4184 200.6 37.6403 200.6 37.9098C200.6 38.1494 200.688 38.3386 200.862 38.4775C201.036 38.6163 201.308 38.732 201.679 38.8246L202.61 39.0533C203.171 39.1894 203.588 39.3977 203.863 39.6781C204.138 39.9558 204.276 40.3138 204.276 40.7521C204.276 41.1115 204.172 41.4328 203.966 41.7159C203.761 41.9991 203.475 42.2223 203.108 42.3857C202.74 42.549 202.313 42.6307 201.826 42.6307C201.186 42.6307 200.656 42.4918 200.237 42.2141C199.818 41.9364 199.552 41.5308 199.441 40.9972L200.355 40.7685C200.443 41.1061 200.607 41.3593 200.85 41.5281C201.095 41.6969 201.415 41.7812 201.809 41.7812C202.259 41.7812 202.615 41.686 202.879 41.4954C203.146 41.3021 203.279 41.0707 203.279 40.8011C203.279 40.5833 203.203 40.4009 203.051 40.2539C202.898 40.1042 202.664 39.9925 202.348 39.919L201.303 39.674C200.728 39.5379 200.306 39.3269 200.037 39.041C199.77 38.7524 199.637 38.3917 199.637 37.9588C199.637 37.6049 199.736 37.2918 199.935 37.0195C200.136 36.7473 200.41 36.5336 200.756 36.3784C201.104 36.2232 201.499 36.1456 201.94 36.1456C202.561 36.1456 203.048 36.2817 203.402 36.554C203.759 36.8262 204.012 37.1856 204.162 37.6321Z" fill="#1F2E54"/>
<path fill-rule="evenodd" clip-rule="evenodd" d="M55.26 11.7661V46.5H32.7149V42.2248H37.8475V37.0872H32.7149V33.8761H37.8475V28.7569H32.7149V17.1972H37.8475V12.0596H32.7149V0.5H55.005H55.26V11.7661ZM45.0881 37.0872H39.9555V42.2248H45.0881V37.0872ZM45.0881 20.4083H39.9555V25.5275H45.0881V20.4083Z" fill="#DBDEE4"/>
<path d="M24.7595 37.0869V42.2245H29.8921V37.0869H24.7595Z" fill="#3C2FC0"/>
<path d="M24.7595 20.4082V25.5458H29.8921V20.4082H24.7595Z" fill="#3C2FC0"/>
<path d="M24.7595 12.0596V17.1972H29.8921V12.0596H24.7595Z" fill="#3C2FC0"/>
<path d="M8.8667 12.0596V17.1972H13.9993V12.0596H8.8667Z" fill="#3C2FC0"/>
<path d="M16.8223 37.0869V42.2245H21.9549V37.0869H16.8223Z" fill="#3C2FC0"/>
<path d="M16.8223 20.4082V25.5458H21.9549V20.4082H16.8223Z" fill="#3C2FC0"/>
<path d="M16.8223 3.71094V8.84856H21.9549V3.71094H16.8223Z" fill="#3C2FC0"/>
<path d="M8.8667 28.7568V33.8761H13.9993V28.7568H8.8667Z" fill="#3C2FC0"/>
<path d="M8.8667 20.4082V25.5458H13.9993V20.4082H8.8667Z" fill="#3C2FC0"/>
<path d="M0.911377 20.4082V25.5458H6.04397V20.4082H0.911377Z" fill="#3C2FC0"/>
</g>
<defs>
<clipPath id="clip0_1_151">
<rect width="207" height="46" fill="white" transform="translate(0.911377 0.5)"/>
</clipPath>
</defs>
</svg>
