<svg width="211" height="49" viewBox="0 0 211 49" fill="none" xmlns="http://www.w3.org/2000/svg">
<g clip-path="url(#clip0_1_165)">
<path fill-rule="evenodd" clip-rule="evenodd" d="M49.046 10.0901C52.0089 10.0901 54.4265 12.5088 54.4265 15.4966V38.1896C54.4265 41.1774 52.0089 43.5961 49.046 43.5961H44.5188V47.3664C44.5188 47.9355 44.2107 48.4572 43.7129 48.7418C43.2151 49.0026 42.6226 49.0026 42.1248 48.6943L33.8289 43.5961H18.6591C16.4548 43.5961 14.5586 42.2445 13.729 40.3475L9.74695 43.9755C9.27291 44.3786 8.60923 44.4972 8.04037 44.2363C7.4715 43.9992 7.11596 43.4301 7.11596 42.8136V36.4823H6.19156C3.22871 36.4823 0.811035 34.0636 0.811035 31.0995V8.38278C0.811035 5.41869 3.22871 3 6.19156 3H33.7104C36.6969 3 39.1146 5.41869 39.1146 8.38278V10.0901H49.046ZM10.2447 34.9173V39.2567L16.2889 33.7553C16.5733 33.4945 16.9525 33.3522 17.3555 33.3522H33.7104C34.9666 33.3522 35.9621 32.3326 35.9621 31.0995V8.38278C35.9621 7.14972 34.9666 6.13007 33.7104 6.13007H6.19156C4.959 6.13007 3.9398 7.14972 3.9398 8.38278V31.0995C3.9398 32.3326 4.959 33.3522 6.19156 33.3522H8.68034C9.55733 33.3522 10.2447 34.0399 10.2447 34.9173ZM51.2978 15.4966C51.2978 14.2635 50.2786 13.2439 49.046 13.2439H39.1146V31.0995C39.1146 34.0636 36.6969 36.4823 33.7104 36.4823H17.9481L16.4311 37.8813V38.1896C16.4311 39.4464 17.4266 40.4423 18.6591 40.4423H34.2792C34.5874 40.4423 34.8718 40.5372 35.1088 40.6794L41.39 44.5446V42.0311C41.39 41.1537 42.0774 40.4423 42.9544 40.4423H49.046C50.2786 40.4423 51.2978 39.4464 51.2978 38.1896V15.4966Z" fill="#DBDEE4"/>
<path fill-rule="evenodd" clip-rule="evenodd" d="M17.5925 28.0406H10.1025C9.24917 28.0406 8.53809 27.3529 8.53809 26.4755V11.4891C8.53809 10.6118 9.24917 9.90039 10.1025 9.90039H17.5925C18.5406 9.90039 19.3939 10.2324 20.0813 10.754C20.7687 10.2324 21.6219 9.90039 22.5701 9.90039H30.0601C30.9371 9.90039 31.6245 10.6118 31.6245 11.4891V26.4755C31.6245 27.3529 30.9371 28.0406 30.0601 28.0406H22.5701C22.0723 28.0406 21.6457 28.4674 21.6457 28.9654V29.1788C21.5745 31.2418 18.588 31.2655 18.5169 29.1788V28.9654C18.5169 28.4674 18.0902 28.0406 17.5925 28.0406ZM21.6457 13.9553V25.0054C21.9459 24.9421 22.254 24.9105 22.5701 24.9105H28.4957V13.0542H22.5701C22.0723 13.0542 21.6457 13.481 21.6457 13.9553ZM11.6668 13.0542V24.9105H17.5925C17.9085 24.9105 18.2167 24.9421 18.5169 25.0054V13.9553C18.5169 13.481 18.0902 13.0542 17.5925 13.0542H11.6668Z" fill="#3C2FC0"/>
<path d="M73.2017 6H77.3736L81.7799 16.75H81.9674L86.3736 6H90.5455V22H87.2642V11.5859H87.1314L82.9908 21.9219H80.7564L76.6158 11.5469H76.483V22H73.2017V6ZM98.7388 22.2344C97.5045 22.2344 96.442 21.9844 95.5513 21.4844C94.6659 20.9792 93.9836 20.2656 93.5045 19.3437C93.0253 18.4167 92.7857 17.3203 92.7857 16.0547C92.7857 14.8203 93.0253 13.737 93.5045 12.8047C93.9836 11.8724 94.6581 11.1458 95.5279 10.625C96.4029 10.1042 97.4289 9.84375 98.606 9.84375C99.3977 9.84375 100.135 9.97135 100.817 10.2266C101.504 10.4766 102.103 10.8542 102.614 11.3594C103.129 11.8646 103.53 12.5 103.817 13.2656C104.103 14.026 104.247 14.9167 104.247 15.9375V16.8516H94.1138V14.7891H101.114C101.114 14.3099 101.01 13.8854 100.801 13.5156C100.593 13.1458 100.304 12.8568 99.9341 12.6484C99.5696 12.4349 99.1451 12.3281 98.6607 12.3281C98.1555 12.3281 97.7076 12.4453 97.317 12.6797C96.9315 12.9089 96.6295 13.2187 96.4107 13.6094C96.192 13.9948 96.08 14.4245 96.0748 14.8984V16.8594C96.0748 17.4531 96.1841 17.9661 96.4029 18.3984C96.6269 18.8307 96.942 19.1641 97.3482 19.3984C97.7545 19.6328 98.2362 19.75 98.7935 19.75C99.1633 19.75 99.5019 19.6979 99.8091 19.5938C100.116 19.4896 100.379 19.3333 100.598 19.125C100.817 18.9167 100.984 18.6615 101.098 18.3594L104.176 18.5625C104.02 19.3021 103.7 19.9479 103.215 20.5C102.736 21.0469 102.116 21.474 101.356 21.7813C100.601 22.0833 99.7284 22.2344 98.7388 22.2344ZM109.747 6V22H106.418V6H109.747ZM115.741 6V22H112.413V6H115.741ZM123.829 22.2344C122.615 22.2344 121.566 21.9766 120.68 21.4609C119.8 20.9401 119.12 20.2161 118.641 19.2891C118.162 18.3568 117.922 17.276 117.922 16.0469C117.922 14.8073 118.162 13.724 118.641 12.7969C119.12 11.8646 119.8 11.1406 120.68 10.625C121.566 10.1042 122.615 9.84375 123.829 9.84375C125.042 9.84375 126.089 10.1042 126.969 10.625C127.855 11.1406 128.537 11.8646 129.016 12.7969C129.495 13.724 129.735 14.8073 129.735 16.0469C129.735 17.276 129.495 18.3568 129.016 19.2891C128.537 20.2161 127.855 20.9401 126.969 21.4609C126.089 21.9766 125.042 22.2344 123.829 22.2344ZM123.844 19.6562C124.396 19.6562 124.857 19.5 125.227 19.1875C125.597 18.8698 125.875 18.4375 126.063 17.8906C126.256 17.3437 126.352 16.7214 126.352 16.0234C126.352 15.3255 126.256 14.7031 126.063 14.1562C125.875 13.6094 125.597 13.1771 125.227 12.8594C124.857 12.5417 124.396 12.3828 123.844 12.3828C123.287 12.3828 122.818 12.5417 122.438 12.8594C122.063 13.1771 121.779 13.6094 121.586 14.1562C121.399 14.7031 121.305 15.3255 121.305 16.0234C121.305 16.7214 121.399 17.3437 121.586 17.8906C121.779 18.4375 122.063 18.8698 122.438 19.1875C122.818 19.5 123.287 19.6562 123.844 19.6562ZM133.965 22L130.7 10H134.067L135.926 18.0625H136.036L137.973 10H141.278L143.247 18.0156H143.348L145.176 10H148.536L145.278 22H141.754L139.692 14.4531H139.543L137.481 22H133.965Z" fill="#1F2E54"/>
<path d="M81.9104 37.5H80.5894C80.5113 37.12 80.3746 36.7862 80.1793 36.4986C79.9875 36.2109 79.7531 35.9695 79.4761 35.7741C79.2027 35.5753 78.8991 35.4261 78.5653 35.3267C78.2315 35.2273 77.8834 35.1776 77.5212 35.1776C76.8607 35.1776 76.2623 35.3445 75.7261 35.6783C75.1935 36.0121 74.7691 36.5039 74.453 37.1538C74.1405 37.8036 73.9843 38.6009 73.9843 39.5455C73.9843 40.4901 74.1405 41.2873 74.453 41.9371C74.7691 42.587 75.1935 43.0788 75.7261 43.4126C76.2623 43.7464 76.8607 43.9134 77.5212 43.9134C77.8834 43.9134 78.2315 43.8636 78.5653 43.7642C78.8991 43.6648 79.2027 43.5174 79.4761 43.3221C79.7531 43.1232 79.9875 42.88 80.1793 42.5923C80.3746 42.3011 80.5113 41.9673 80.5894 41.5909H81.9104C81.811 42.1484 81.6299 42.6474 81.3671 43.0877C81.1043 43.5281 80.7776 43.9027 80.387 44.2116C79.9964 44.517 79.5578 44.7496 79.0713 44.9094C78.5883 45.0692 78.0717 45.1491 77.5212 45.1491C76.5908 45.1491 75.7634 44.9219 75.039 44.4673C74.3146 44.0128 73.7446 43.3665 73.3291 42.5284C72.9136 41.6903 72.7059 40.696 72.7059 39.5455C72.7059 38.3949 72.9136 37.4006 73.3291 36.5625C73.7446 35.7244 74.3146 35.0781 75.039 34.6236C75.7634 34.169 76.5908 33.9418 77.5212 33.9418C78.0717 33.9418 78.5883 34.0217 79.0713 34.1815C79.5578 34.3413 79.9964 34.5756 80.387 34.8846C80.7776 35.19 81.1043 35.5629 81.3671 36.0032C81.6299 36.44 81.811 36.9389 81.9104 37.5ZM87.1985 45.1705C86.4599 45.1705 85.8118 44.9947 85.2543 44.6431C84.7003 44.2915 84.2671 43.7997 83.9546 43.1676C83.6456 42.5355 83.4911 41.7969 83.4911 40.9517C83.4911 40.0994 83.6456 39.3555 83.9546 38.7198C84.2671 38.0842 84.7003 37.5906 85.2543 37.239C85.8118 36.8874 86.4599 36.7116 87.1985 36.7116C87.9372 36.7116 88.5835 36.8874 89.1374 37.239C89.695 37.5906 90.1282 38.0842 90.4372 38.7198C90.7497 39.3555 90.9059 40.0994 90.9059 40.9517C90.9059 41.7969 90.7497 42.5355 90.4372 43.1676C90.1282 43.7997 89.695 44.2915 89.1374 44.6431C88.5835 44.9947 87.9372 45.1705 87.1985 45.1705ZM87.1985 44.0412C87.7596 44.0412 88.2212 43.8974 88.5835 43.6097C88.9457 43.3221 89.2138 42.9439 89.3878 42.4751C89.5618 42.0064 89.6488 41.4986 89.6488 40.9517C89.6488 40.4048 89.5618 39.8952 89.3878 39.4229C89.2138 38.9506 88.9457 38.5689 88.5835 38.2777C88.2212 37.9865 87.7596 37.8409 87.1985 37.8409C86.6374 37.8409 86.1758 37.9865 85.8136 38.2777C85.4514 38.5689 85.1832 38.9506 85.0092 39.4229C84.8352 39.8952 84.7482 40.4048 84.7482 40.9517C84.7482 41.4986 84.8352 42.0064 85.0092 42.4751C85.1832 42.9439 85.4514 43.3221 85.8136 43.6097C86.1758 43.8974 86.6374 44.0412 87.1985 44.0412ZM94.082 40.0781V45H92.8248V36.8182H94.0393V38.0966H94.1459C94.3376 37.6811 94.6288 37.3473 95.0195 37.0952C95.4101 36.8395 95.9143 36.7116 96.5322 36.7116C97.0862 36.7116 97.5709 36.8253 97.9864 37.0526C98.4019 37.2763 98.7251 37.6172 98.9559 38.0753C99.1867 38.5298 99.3021 39.1051 99.3021 39.8011V45H98.045V39.8864C98.045 39.2436 97.8781 38.7429 97.5443 38.3842C97.2105 38.022 96.7524 37.8409 96.17 37.8409C95.7687 37.8409 95.4101 37.9279 95.094 38.1019C94.7815 38.2759 94.5347 38.5298 94.3536 38.8636C94.1725 39.1974 94.082 39.6023 94.082 40.0781ZM107.395 38.6506L106.265 38.9702C106.194 38.782 106.09 38.5991 105.951 38.4215C105.816 38.2404 105.632 38.0913 105.397 37.9741C105.163 37.8569 104.863 37.7983 104.497 37.7983C103.996 37.7983 103.579 37.9137 103.245 38.1445C102.915 38.3718 102.75 38.6612 102.75 39.0128C102.75 39.3253 102.863 39.5721 103.091 39.7532C103.318 39.9343 103.673 40.0852 104.156 40.206L105.371 40.5043C106.102 40.6818 106.647 40.9535 107.006 41.3192C107.365 41.6815 107.544 42.1484 107.544 42.7202C107.544 43.1889 107.409 43.608 107.139 43.9773C106.873 44.3466 106.5 44.6378 106.02 44.8509C105.541 45.0639 104.983 45.1705 104.348 45.1705C103.513 45.1705 102.823 44.9893 102.276 44.6271C101.729 44.2649 101.383 43.7358 101.237 43.0398L102.43 42.7415C102.544 43.1818 102.759 43.5121 103.075 43.7322C103.394 43.9524 103.812 44.0625 104.327 44.0625C104.912 44.0625 105.378 43.9382 105.722 43.6896C106.07 43.4375 106.244 43.1357 106.244 42.7841C106.244 42.5 106.145 42.2621 105.946 42.0703C105.747 41.875 105.442 41.7294 105.03 41.6335L103.666 41.3139C102.917 41.1364 102.366 40.8612 102.015 40.4883C101.667 40.1119 101.493 39.6413 101.493 39.0767C101.493 38.6151 101.622 38.2067 101.882 37.8516C102.144 37.4964 102.501 37.2177 102.952 37.0153C103.407 36.8129 103.922 36.7116 104.497 36.7116C105.307 36.7116 105.942 36.8892 106.404 37.2443C106.869 37.5994 107.199 38.0682 107.395 38.6506ZM114.592 41.6548V36.8182H115.85V45H114.592V43.6151H114.507C114.315 44.0305 114.017 44.3839 113.612 44.6751C113.207 44.9627 112.696 45.1065 112.078 45.1065C111.567 45.1065 111.112 44.9947 110.715 44.771C110.317 44.5437 110.004 44.2028 109.777 43.7482C109.55 43.2901 109.436 42.7131 109.436 42.017V36.8182H110.693V41.9318C110.693 42.5284 110.86 43.0043 111.194 43.3594C111.531 43.7145 111.961 43.892 112.483 43.892C112.796 43.892 113.113 43.8121 113.437 43.6523C113.763 43.4925 114.037 43.2475 114.257 42.9173C114.481 42.587 114.592 42.1662 114.592 41.6548ZM119.409 34.0909V45H118.152V34.0909H119.409ZM125.27 36.8182V37.8835H121.03V36.8182H125.27ZM122.266 34.858H123.523V42.6562C123.523 43.0114 123.574 43.2777 123.677 43.4553C123.784 43.6293 123.919 43.7464 124.082 43.8068C124.249 43.8636 124.425 43.892 124.609 43.892C124.748 43.892 124.861 43.8849 124.95 43.8707C125.039 43.853 125.11 43.8388 125.163 43.8281L125.419 44.9574C125.334 44.9893 125.215 45.0213 125.062 45.0533C124.909 45.0888 124.716 45.1065 124.481 45.1065C124.126 45.1065 123.778 45.0302 123.437 44.8775C123.1 44.7248 122.82 44.4922 122.596 44.1797C122.376 43.8672 122.266 43.473 122.266 42.9972V34.858ZM127.161 45V36.8182H128.418V45H127.161ZM127.8 35.4545C127.555 35.4545 127.344 35.3711 127.166 35.2042C126.992 35.0373 126.905 34.8366 126.905 34.6023C126.905 34.3679 126.992 34.1673 127.166 34.0004C127.344 33.8335 127.555 33.75 127.8 33.75C128.045 33.75 128.255 33.8335 128.429 34.0004C128.606 34.1673 128.695 34.3679 128.695 34.6023C128.695 34.8366 128.606 35.0373 128.429 35.2042C128.255 35.3711 128.045 35.4545 127.8 35.4545ZM131.977 40.0781V45H130.72V36.8182H131.935V38.0966H132.041C132.233 37.6811 132.524 37.3473 132.915 37.0952C133.306 36.8395 133.81 36.7116 134.428 36.7116C134.982 36.7116 135.466 36.8253 135.882 37.0526C136.297 37.2763 136.621 37.6172 136.851 38.0753C137.082 38.5298 137.198 39.1051 137.198 39.8011V45H135.941V39.8864C135.941 39.2436 135.774 38.7429 135.44 38.3842C135.106 38.022 134.648 37.8409 134.066 37.8409C133.664 37.8409 133.306 37.9279 132.99 38.1019C132.677 38.2759 132.43 38.5298 132.249 38.8636C132.068 39.1974 131.977 39.6023 131.977 40.0781ZM142.797 48.2386C142.19 48.2386 141.668 48.1605 141.231 48.0043C140.794 47.8516 140.43 47.6491 140.139 47.397C139.852 47.1484 139.623 46.8821 139.452 46.598L140.454 45.8949C140.567 46.044 140.711 46.2145 140.885 46.4062C141.059 46.6016 141.297 46.7702 141.599 46.9123C141.904 47.0579 142.304 47.1307 142.797 47.1307C143.458 47.1307 144.003 46.9709 144.433 46.6513C144.862 46.3317 145.077 45.831 145.077 45.1491V43.4872H144.971C144.878 43.6364 144.747 43.821 144.576 44.0412C144.41 44.2578 144.168 44.4513 143.852 44.6218C143.54 44.7887 143.117 44.8722 142.584 44.8722C141.924 44.8722 141.331 44.7159 140.805 44.4034C140.283 44.0909 139.869 43.6364 139.564 43.0398C139.262 42.4432 139.111 41.7187 139.111 40.8665C139.111 40.0284 139.259 39.2987 139.553 38.6772C139.848 38.0522 140.258 37.5692 140.784 37.2283C141.309 36.8839 141.917 36.7116 142.606 36.7116C143.138 36.7116 143.561 36.8004 143.873 36.978C144.189 37.152 144.431 37.3509 144.598 37.5746C144.768 37.7947 144.9 37.9759 144.992 38.1179H145.12V36.8182H146.334V45.2344C146.334 45.9375 146.174 46.5092 145.855 46.9496C145.539 47.3935 145.113 47.7184 144.576 47.9244C144.044 48.1339 143.451 48.2386 142.797 48.2386ZM142.755 43.7429C143.259 43.7429 143.685 43.6275 144.033 43.3967C144.381 43.1658 144.646 42.8338 144.827 42.4006C145.008 41.9673 145.098 41.4489 145.098 40.8452C145.098 40.2557 145.01 39.7354 144.832 39.2844C144.655 38.8335 144.392 38.4801 144.044 38.2244C143.696 37.9687 143.266 37.8409 142.755 37.8409C142.222 37.8409 141.778 37.9759 141.423 38.2457C141.071 38.5156 140.807 38.8778 140.629 39.3324C140.455 39.7869 140.368 40.2912 140.368 40.8452C140.368 41.4134 140.457 41.9158 140.635 42.3526C140.816 42.7859 141.082 43.1268 141.434 43.3754C141.789 43.6204 142.229 43.7429 142.755 43.7429ZM158.991 36.8182C158.927 36.2784 158.667 35.8594 158.213 35.5611C157.758 35.2628 157.201 35.1136 156.54 35.1136C156.057 35.1136 155.635 35.1918 155.272 35.348C154.914 35.5043 154.633 35.7191 154.431 35.9925C154.232 36.266 154.133 36.5767 154.133 36.9247C154.133 37.2159 154.202 37.4663 154.34 37.6758C154.482 37.8817 154.663 38.054 154.884 38.1925C155.104 38.3274 155.335 38.4393 155.576 38.5281C155.818 38.6133 156.04 38.6825 156.242 38.7358L157.35 39.0341C157.634 39.1087 157.95 39.2116 158.298 39.343C158.65 39.4744 158.985 39.6538 159.305 39.881C159.628 40.1048 159.894 40.3924 160.104 40.744C160.313 41.0955 160.418 41.527 160.418 42.0384C160.418 42.6278 160.264 43.1605 159.955 43.6364C159.649 44.1122 159.202 44.4904 158.612 44.771C158.026 45.0515 157.314 45.1918 156.476 45.1918C155.695 45.1918 155.019 45.0657 154.447 44.8136C153.879 44.5614 153.431 44.2099 153.105 43.7589C152.781 43.3079 152.598 42.7841 152.556 42.1875H153.919C153.955 42.5994 154.093 42.9403 154.335 43.2102C154.58 43.4766 154.889 43.6754 155.262 43.8068C155.638 43.9347 156.043 43.9986 156.476 43.9986C156.981 43.9986 157.433 43.9169 157.835 43.7536C158.236 43.5866 158.554 43.3558 158.788 43.0611C159.022 42.7628 159.14 42.4148 159.14 42.017C159.14 41.6548 159.038 41.3601 158.836 41.1328C158.634 40.9055 158.367 40.7209 158.037 40.5788C157.707 40.4368 157.35 40.3125 156.966 40.206L155.624 39.8224C154.772 39.5774 154.097 39.2276 153.6 38.7731C153.103 38.3185 152.854 37.7237 152.854 36.9886C152.854 36.3778 153.019 35.8452 153.35 35.3906C153.683 34.9325 154.131 34.5774 154.692 34.3253C155.256 34.0696 155.887 33.9418 156.583 33.9418C157.286 33.9418 157.911 34.0678 158.458 34.32C159.005 34.5685 159.438 34.9094 159.758 35.3427C160.081 35.7759 160.251 36.2678 160.269 36.8182H158.991ZM165.85 45.1705C165.062 45.1705 164.382 44.9964 163.81 44.6484C163.242 44.2969 162.803 43.8068 162.494 43.1783C162.189 42.5462 162.036 41.8111 162.036 40.973C162.036 40.1349 162.189 39.3963 162.494 38.7571C162.803 38.1143 163.233 37.6136 163.783 37.255C164.337 36.8928 164.983 36.7116 165.722 36.7116C166.148 36.7116 166.569 36.7827 166.985 36.9247C167.4 37.0668 167.778 37.2976 168.119 37.6172C168.46 37.9332 168.732 38.3523 168.934 38.8743C169.137 39.3963 169.238 40.0391 169.238 40.8026V41.3352H162.931V40.2486H167.959C167.959 39.7869 167.867 39.375 167.682 39.0128C167.501 38.6506 167.242 38.3647 166.905 38.1552C166.571 37.9457 166.177 37.8409 165.722 37.8409C165.221 37.8409 164.788 37.9652 164.422 38.2138C164.06 38.4588 163.781 38.7784 163.586 39.1726C163.391 39.5668 163.293 39.9893 163.293 40.4403V41.1648C163.293 41.7827 163.4 42.3065 163.613 42.7362C163.829 43.1623 164.129 43.4872 164.513 43.7109C164.896 43.9311 165.342 44.0412 165.85 44.0412C166.18 44.0412 166.479 43.995 166.745 43.9027C167.015 43.8068 167.247 43.6648 167.443 43.4766C167.638 43.2848 167.789 43.0469 167.895 42.7628L169.11 43.1037C168.982 43.5156 168.767 43.8778 168.465 44.1903C168.164 44.4993 167.791 44.7408 167.347 44.9148C166.903 45.0852 166.404 45.1705 165.85 45.1705ZM171.15 45V36.8182H172.365V38.054H172.45C172.599 37.6491 172.869 37.3207 173.259 37.0685C173.65 36.8164 174.09 36.6903 174.58 36.6903C174.673 36.6903 174.788 36.6921 174.927 36.6957C175.065 36.6992 175.17 36.7045 175.241 36.7116V37.9901C175.198 37.9794 175.101 37.9634 174.948 37.9421C174.799 37.9173 174.641 37.9048 174.474 37.9048C174.076 37.9048 173.721 37.9883 173.409 38.1552C173.1 38.3185 172.855 38.5458 172.673 38.837C172.496 39.1246 172.407 39.4531 172.407 39.8224V45H171.15ZM183.67 36.8182L180.645 45H179.366L176.341 36.8182H177.705L179.963 43.3381H180.048L182.307 36.8182H183.67ZM185.33 45V36.8182H186.587V45H185.33ZM185.969 35.4545C185.724 35.4545 185.513 35.3711 185.335 35.2042C185.161 35.0373 185.074 34.8366 185.074 34.6023C185.074 34.3679 185.161 34.1673 185.335 34.0004C185.513 33.8335 185.724 33.75 185.969 33.75C186.214 33.75 186.423 33.8335 186.597 34.0004C186.775 34.1673 186.864 34.3679 186.864 34.6023C186.864 34.8366 186.775 35.0373 186.597 35.2042C186.423 35.3711 186.214 35.4545 185.969 35.4545ZM192.213 45.1705C191.446 45.1705 190.786 44.9893 190.232 44.6271C189.678 44.2649 189.252 43.766 188.953 43.1303C188.655 42.4947 188.506 41.7685 188.506 40.9517C188.506 40.1207 188.658 39.3874 188.964 38.7518C189.273 38.1126 189.703 37.6136 190.253 37.255C190.807 36.8928 191.453 36.7116 192.192 36.7116C192.767 36.7116 193.286 36.8182 193.747 37.0312C194.209 37.2443 194.587 37.5426 194.882 37.9261C195.177 38.3097 195.359 38.7571 195.43 39.2685H194.173C194.078 38.8956 193.864 38.5653 193.534 38.2777C193.207 37.9865 192.767 37.8409 192.213 37.8409C191.723 37.8409 191.293 37.9687 190.924 38.2244C190.558 38.4766 190.272 38.8335 190.067 39.2951C189.864 39.7532 189.763 40.2912 189.763 40.9091C189.763 41.5412 189.862 42.0916 190.061 42.5604C190.264 43.0291 190.548 43.3931 190.913 43.6523C191.283 43.9116 191.716 44.0412 192.213 44.0412C192.54 44.0412 192.836 43.9844 193.103 43.8707C193.369 43.7571 193.595 43.5938 193.779 43.3807C193.964 43.1676 194.095 42.9119 194.173 42.6136H195.43C195.359 43.0966 195.184 43.5316 194.903 43.9187C194.626 44.3022 194.259 44.6076 193.801 44.8349C193.346 45.0586 192.817 45.1705 192.213 45.1705ZM200.699 45.1705C199.91 45.1705 199.23 44.9964 198.658 44.6484C198.09 44.2969 197.652 43.8068 197.343 43.1783C197.037 42.5462 196.885 41.8111 196.885 40.973C196.885 40.1349 197.037 39.3963 197.343 38.7571C197.652 38.1143 198.081 37.6136 198.632 37.255C199.186 36.8928 199.832 36.7116 200.571 36.7116C200.997 36.7116 201.418 36.7827 201.833 36.9247C202.249 37.0668 202.627 37.2976 202.968 37.6172C203.309 37.9332 203.58 38.3523 203.783 38.8743C203.985 39.3963 204.086 40.0391 204.086 40.8026V41.3352H197.78V40.2486H202.808C202.808 39.7869 202.716 39.375 202.531 39.0128C202.35 38.6506 202.091 38.3647 201.753 38.1552C201.419 37.9457 201.025 37.8409 200.571 37.8409C200.07 37.8409 199.637 37.9652 199.271 38.2138C198.909 38.4588 198.63 38.7784 198.435 39.1726C198.239 39.5668 198.142 39.9893 198.142 40.4403V41.1648C198.142 41.7827 198.248 42.3065 198.461 42.7362C198.678 43.1623 198.978 43.4872 199.362 43.7109C199.745 43.9311 200.191 44.0412 200.699 44.0412C201.029 44.0412 201.327 43.995 201.593 43.9027C201.863 43.8068 202.096 43.6648 202.291 43.4766C202.487 43.2848 202.638 43.0469 202.744 42.7628L203.959 43.1037C203.831 43.5156 203.616 43.8778 203.314 44.1903C203.012 44.4993 202.639 44.7408 202.195 44.9148C201.752 45.0852 201.253 45.1705 200.699 45.1705Z" fill="#1F2E54"/>
</g>
<defs>
<clipPath id="clip0_1_165">
<rect width="210" height="49" fill="white" transform="translate(0.811035)"/>
</clipPath>
</defs>
</svg>
