<svg width="155" height="55" viewBox="0 0 155 55" fill="none" xmlns="http://www.w3.org/2000/svg">
<g clip-path="url(#clip0_1_170)">
<path d="M80.1114 25.7876C78.8314 25.7876 77.6474 25.5556 76.5594 25.0916C75.4714 24.6276 74.5194 23.9796 73.7034 23.1476C72.8874 22.3156 72.2474 21.3396 71.7834 20.2196C71.3354 19.0996 71.1114 17.8756 71.1114 16.5476C71.1114 15.2196 71.3274 13.9956 71.7594 12.8756C72.2074 11.7396 72.8314 10.7636 73.6314 9.94754C74.4474 9.11554 75.3994 8.47553 76.4874 8.02753C77.5754 7.56354 78.7594 7.33154 80.0394 7.33154C81.3194 7.33154 82.4634 7.54754 83.4714 7.97954C84.4954 8.41154 85.3594 8.98754 86.0634 9.70753C86.7674 10.4115 87.2714 11.1876 87.5754 12.0356L84.6714 13.4276C84.3354 12.4996 83.7674 11.7476 82.9674 11.1716C82.1674 10.5956 81.1914 10.3075 80.0394 10.3075C78.9194 10.3075 77.9274 10.5716 77.0634 11.0996C76.2154 11.6276 75.5514 12.3556 75.0714 13.2836C74.6074 14.2116 74.3754 15.2996 74.3754 16.5476C74.3754 17.7956 74.6154 18.8916 75.0954 19.8356C75.5914 20.7636 76.2714 21.4916 77.1354 22.0196C77.9994 22.5476 78.9914 22.8116 80.1114 22.8116C81.0234 22.8116 81.8634 22.6356 82.6314 22.2836C83.3994 21.9156 84.0154 21.4036 84.4794 20.7476C84.9434 20.0756 85.1754 19.2836 85.1754 18.3716V17.0036L86.6634 18.2996H80.0394V15.5396H88.4394V17.3396C88.4394 18.7156 88.2074 19.9316 87.7434 20.9876C87.2794 22.0436 86.6474 22.9316 85.8474 23.6516C85.0634 24.3556 84.1754 24.8916 83.1834 25.2596C82.1914 25.6116 81.1674 25.7876 80.1114 25.7876ZM97.1422 25.7876C95.8622 25.7876 94.6942 25.4916 93.6382 24.8996C92.5982 24.3076 91.7662 23.4996 91.1422 22.4756C90.5342 21.4516 90.2302 20.2836 90.2302 18.9716C90.2302 17.6596 90.5342 16.4916 91.1422 15.4676C91.7662 14.4436 92.5982 13.6356 93.6382 13.0436C94.6782 12.4516 95.8462 12.1556 97.1422 12.1556C98.4222 12.1556 99.5822 12.4516 100.622 13.0436C101.662 13.6356 102.486 14.4436 103.094 15.4676C103.718 16.4756 104.03 17.6436 104.03 18.9716C104.03 20.2836 103.718 21.4516 103.094 22.4756C102.47 23.4996 101.638 24.3076 100.598 24.8996C99.5582 25.4916 98.4062 25.7876 97.1422 25.7876ZM97.1422 22.9076C97.8462 22.9076 98.4622 22.7396 98.9902 22.4036C99.5342 22.0676 99.9582 21.6036 100.262 21.0116C100.582 20.4036 100.742 19.7236 100.742 18.9716C100.742 18.2036 100.582 17.5316 100.262 16.9556C99.9582 16.3636 99.5342 15.8996 98.9902 15.5636C98.4622 15.2116 97.8462 15.0356 97.1422 15.0356C96.4222 15.0356 95.7902 15.2116 95.2462 15.5636C94.7022 15.8996 94.2702 16.3636 93.9502 16.9556C93.6462 17.5316 93.4942 18.2036 93.4942 18.9716C93.4942 19.7236 93.6462 20.4036 93.9502 21.0116C94.2702 21.6036 94.7022 22.0676 95.2462 22.4036C95.7902 22.7396 96.4222 22.9076 97.1422 22.9076ZM113.542 25.7876C112.598 25.7876 111.726 25.6036 110.926 25.2356C110.142 24.8516 109.518 24.3076 109.054 23.6036L109.366 22.9796V25.4996H106.414V7.33154H109.558V15.0356L109.078 14.3876C109.526 13.6836 110.134 13.1396 110.902 12.7556C111.67 12.3556 112.558 12.1556 113.566 12.1556C114.798 12.1556 115.91 12.4596 116.902 13.0676C117.894 13.6756 118.678 14.4916 119.254 15.5156C119.846 16.5396 120.142 17.6916 120.142 18.9716C120.142 20.2356 119.854 21.3876 119.278 22.4276C118.702 23.4676 117.918 24.2916 116.926 24.8996C115.934 25.4916 114.806 25.7876 113.542 25.7876ZM113.182 22.9076C113.902 22.9076 114.542 22.7396 115.102 22.4036C115.662 22.0676 116.094 21.6036 116.398 21.0116C116.718 20.4196 116.878 19.7396 116.878 18.9716C116.878 18.2036 116.718 17.5316 116.398 16.9556C116.094 16.3636 115.662 15.8996 115.102 15.5636C114.542 15.2116 113.902 15.0356 113.182 15.0356C112.494 15.0356 111.87 15.2036 111.31 15.5396C110.766 15.8756 110.334 16.3476 110.014 16.9556C109.71 17.5476 109.558 18.2196 109.558 18.9716C109.558 19.7396 109.71 20.4196 110.014 21.0116C110.334 21.6036 110.766 22.0676 111.31 22.4036C111.87 22.7396 112.494 22.9076 113.182 22.9076ZM122.539 25.4996V12.4436H125.683V25.4996H122.539ZM122.539 10.9796V7.61953H125.683V10.9796H122.539ZM128.586 25.4996V12.4436H131.538V15.0116L131.298 14.5556C131.602 13.7716 132.098 13.1796 132.786 12.7796C133.49 12.3636 134.306 12.1556 135.234 12.1556C136.194 12.1556 137.042 12.3636 137.778 12.7796C138.53 13.1956 139.114 13.7796 139.53 14.5316C139.946 15.2676 140.154 16.1236 140.154 17.0996V25.4996H137.01V17.8436C137.01 17.2676 136.898 16.7716 136.674 16.3556C136.45 15.9396 136.138 15.6196 135.738 15.3956C135.354 15.1556 134.898 15.0356 134.37 15.0356C133.858 15.0356 133.402 15.1556 133.002 15.3956C132.602 15.6196 132.29 15.9396 132.066 16.3556C131.842 16.7716 131.73 17.2676 131.73 17.8436V25.4996H128.586ZM147.781 25.7876C146.389 25.7876 145.173 25.4596 144.133 24.8036C143.109 24.1316 142.405 23.2276 142.021 22.0916L144.373 20.9636C144.709 21.6996 145.173 22.2756 145.765 22.6916C146.373 23.1076 147.045 23.3156 147.781 23.3156C148.357 23.3156 148.813 23.1876 149.149 22.9316C149.485 22.6756 149.653 22.3396 149.653 21.9236C149.653 21.6676 149.581 21.4596 149.437 21.2996C149.309 21.1236 149.125 20.9796 148.885 20.8676C148.661 20.7396 148.413 20.6356 148.141 20.5556L146.005 19.9556C144.901 19.6356 144.061 19.1476 143.485 18.4916C142.925 17.8356 142.645 17.0596 142.645 16.1636C142.645 15.3636 142.845 14.6676 143.245 14.0756C143.661 13.4676 144.229 12.9956 144.949 12.6596C145.685 12.3236 146.525 12.1556 147.469 12.1556C148.701 12.1556 149.789 12.4516 150.733 13.0436C151.677 13.6356 152.349 14.4676 152.749 15.5396L150.349 16.6676C150.125 16.0756 149.749 15.6036 149.221 15.2516C148.693 14.8996 148.101 14.7236 147.445 14.7236C146.917 14.7236 146.501 14.8436 146.197 15.0836C145.893 15.3236 145.741 15.6356 145.741 16.0196C145.741 16.2596 145.805 16.4676 145.933 16.6436C146.061 16.8196 146.237 16.9636 146.461 17.0756C146.701 17.1876 146.973 17.2916 147.277 17.3876L149.365 18.0116C150.437 18.3316 151.261 18.8116 151.837 19.4516C152.429 20.0916 152.725 20.8756 152.725 21.8036C152.725 22.5876 152.517 23.2836 152.101 23.8916C151.685 24.4836 151.109 24.9476 150.373 25.2836C149.637 25.6196 148.773 25.7876 147.781 25.7876Z" fill="#1F2E54"/>
<path d="M71.1444 48.5V38.3181H77.2495V39.4119H72.3773V42.8522H76.7921V43.946H72.3773V48.5H71.1444ZM79.2021 48.5V40.8636H80.3754V48.5H79.2021ZM79.7987 39.5909C79.57 39.5909 79.3728 39.513 79.207 39.3572C79.0446 39.2014 78.9634 39.0142 78.9634 38.7954C78.9634 38.5767 79.0446 38.3894 79.207 38.2336C79.3728 38.0778 79.57 38 79.7987 38C80.0273 38 80.2229 38.0778 80.3853 38.2336C80.551 38.3894 80.6339 38.5767 80.6339 38.7954C80.6339 39.0142 80.551 39.2014 80.3853 39.3572C80.2229 39.513 80.0273 39.5909 79.7987 39.5909ZM83.6976 43.9062V48.5H82.5243V40.8636H83.6578V42.0568H83.7573C83.9363 41.669 84.208 41.3574 84.5726 41.1221C84.9372 40.8835 85.4078 40.7642 85.9846 40.7642C86.5016 40.7642 86.954 40.8702 87.3418 41.0823C87.7296 41.2911 88.0312 41.6093 88.2466 42.0369C88.4621 42.4611 88.5698 42.9981 88.5698 43.6477V48.5H87.3965V43.7272C87.3965 43.1273 87.2407 42.66 86.9292 42.3252C86.6176 41.9872 86.19 41.8181 85.6465 41.8181C85.272 41.8181 84.9372 41.8993 84.6422 42.0617C84.3506 42.2242 84.1202 42.4611 83.9512 42.7727C83.7821 43.0842 83.6976 43.4621 83.6976 43.9062ZM92.9609 48.6789C92.477 48.6789 92.0379 48.5878 91.6435 48.4055C91.2491 48.2199 90.9358 47.9531 90.7038 47.6051C90.4718 47.2537 90.3558 46.8295 90.3558 46.3323C90.3558 45.8948 90.442 45.5402 90.6143 45.2684C90.7867 44.9933 91.017 44.7779 91.3054 44.6221C91.5938 44.4663 91.9119 44.3503 92.2599 44.2741C92.6113 44.1946 92.9643 44.1316 93.3189 44.0852C93.7829 44.0255 94.1591 43.9808 94.4474 43.9509C94.7391 43.9178 94.9512 43.8631 95.0838 43.7869C95.2197 43.7107 95.2876 43.5781 95.2876 43.3892V43.3494C95.2876 42.8589 95.1534 42.4777 94.8849 42.2059C94.6198 41.9341 94.2171 41.7983 93.6768 41.7983C93.1167 41.7983 92.6776 41.9209 92.3594 42.1661C92.0412 42.4114 91.8175 42.6733 91.6882 42.9517L90.5746 42.5539C90.7734 42.0899 91.0386 41.7286 91.37 41.4701C91.7048 41.2083 92.0694 41.026 92.4638 40.9233C92.8615 40.8172 93.2526 40.7642 93.6371 40.7642C93.8823 40.7642 94.1641 40.794 94.4822 40.8536C94.8037 40.91 95.1136 41.0277 95.4119 41.2066C95.7135 41.3856 95.9638 41.6557 96.1626 42.017C96.3615 42.3783 96.4609 42.8622 96.4609 43.4687V48.5H95.2876V47.4659H95.228C95.1484 47.6316 95.0159 47.8089 94.8303 47.9978C94.6447 48.1867 94.3977 48.3475 94.0895 48.4801C93.7813 48.6126 93.4051 48.6789 92.9609 48.6789ZM93.1399 47.625C93.6039 47.625 93.995 47.5338 94.3132 47.3515C94.6347 47.1692 94.8767 46.9339 95.0391 46.6456C95.2048 46.3572 95.2876 46.0539 95.2876 45.7358V44.6619C95.2379 44.7215 95.1286 44.7762 94.9595 44.8259C94.7938 44.8724 94.6016 44.9138 94.3828 44.9502C94.1674 44.9834 93.9569 45.0132 93.7514 45.0397C93.5492 45.0629 93.3852 45.0828 93.2592 45.0994C92.9543 45.1392 92.6693 45.2038 92.4041 45.2933C92.1423 45.3795 91.9302 45.5104 91.7678 45.686C91.6087 45.8584 91.5291 46.0937 91.5291 46.392C91.5291 46.7997 91.6799 47.1079 91.9815 47.3167C92.2865 47.5222 92.6726 47.625 93.1399 47.625ZM99.7757 43.9062V48.5H98.6025V40.8636H99.736V42.0568H99.8354C100.014 41.669 100.286 41.3574 100.651 41.1221C101.015 40.8835 101.486 40.7642 102.062 40.7642C102.579 40.7642 103.032 40.8702 103.42 41.0823C103.807 41.2911 104.109 41.6093 104.324 42.0369C104.54 42.4611 104.648 42.9981 104.648 43.6477V48.5H103.474V43.7272C103.474 43.1273 103.318 42.66 103.007 42.3252C102.695 41.9872 102.268 41.8181 101.724 41.8181C101.35 41.8181 101.015 41.8993 100.72 42.0617C100.429 42.2242 100.198 42.4611 100.029 42.7727C99.8603 43.0842 99.7757 43.4621 99.7757 43.9062ZM109.894 48.659C109.178 48.659 108.561 48.49 108.044 48.1519C107.527 47.8139 107.13 47.3482 106.851 46.7549C106.573 46.1617 106.434 45.4839 106.434 44.7215C106.434 43.946 106.576 43.2616 106.861 42.6683C107.149 42.0717 107.551 41.606 108.064 41.2713C108.581 40.9332 109.184 40.7642 109.874 40.7642C110.411 40.7642 110.895 40.8636 111.326 41.0625C111.756 41.2613 112.109 41.5397 112.385 41.8977C112.66 42.2556 112.83 42.6733 112.897 43.1505H111.723C111.634 42.8025 111.435 42.4943 111.127 42.2258C110.822 41.954 110.411 41.8181 109.894 41.8181C109.436 41.8181 109.035 41.9375 108.691 42.1761C108.349 42.4114 108.082 42.7445 107.89 43.1754C107.701 43.6029 107.607 44.1051 107.607 44.6818C107.607 45.2717 107.7 45.7855 107.885 46.223C108.074 46.6605 108.339 47.0002 108.681 47.2421C109.025 47.4841 109.43 47.6051 109.894 47.6051C110.199 47.6051 110.475 47.552 110.724 47.446C110.973 47.3399 111.183 47.1875 111.355 46.9886C111.528 46.7897 111.65 46.5511 111.723 46.2727H112.897C112.83 46.7234 112.666 47.1295 112.404 47.4907C112.146 47.8487 111.803 48.1337 111.375 48.3458C110.951 48.5546 110.457 48.659 109.894 48.659ZM117.814 48.659C117.078 48.659 116.443 48.4966 115.909 48.1718C115.379 47.8437 114.97 47.3863 114.681 46.7997C114.396 46.2097 114.254 45.5236 114.254 44.7414C114.254 43.9592 114.396 43.2698 114.681 42.6733C114.97 42.0733 115.371 41.606 115.885 41.2713C116.402 40.9332 117.005 40.7642 117.694 40.7642C118.092 40.7642 118.485 40.8304 118.872 40.963C119.26 41.0956 119.613 41.311 119.931 41.6093C120.25 41.9043 120.503 42.2954 120.692 42.7826C120.881 43.2698 120.975 43.8697 120.975 44.5823V45.0795H115.089V44.0653H119.782C119.782 43.6344 119.696 43.25 119.524 42.9119C119.355 42.5738 119.113 42.307 118.798 42.1115C118.486 41.9159 118.118 41.8181 117.694 41.8181C117.227 41.8181 116.823 41.9341 116.481 42.1661C116.143 42.3948 115.883 42.6931 115.701 43.061C115.518 43.4289 115.427 43.8233 115.427 44.2443V44.9204C115.427 45.4971 115.527 45.986 115.725 46.387C115.928 46.7848 116.208 47.088 116.566 47.2968C116.924 47.5023 117.34 47.6051 117.814 47.6051C118.122 47.6051 118.4 47.562 118.649 47.4758C118.901 47.3863 119.118 47.2537 119.3 47.0781C119.482 46.8991 119.623 46.677 119.723 46.4119L120.856 46.7301C120.737 47.1145 120.536 47.4526 120.255 47.7443C119.973 48.0326 119.625 48.258 119.211 48.4204C118.796 48.5795 118.331 48.659 117.814 48.659ZM126.857 48.5V38.3181H128.09V42.8522H133.519V38.3181H134.752V48.5H133.519V43.946H128.09V48.5H126.857ZM141.874 45.3778V40.8636H143.047V48.5H141.874V47.2073H141.794C141.615 47.5951 141.337 47.9249 140.959 48.1967C140.581 48.4652 140.104 48.5994 139.527 48.5994C139.05 48.5994 138.625 48.495 138.254 48.2862C137.883 48.0741 137.591 47.7559 137.379 47.3316C137.167 46.9041 137.061 46.3655 137.061 45.7159V40.8636H138.234V45.6363C138.234 46.1931 138.39 46.6373 138.702 46.9687C139.017 47.3001 139.418 47.4659 139.905 47.4659C140.196 47.4659 140.493 47.3913 140.795 47.2421C141.1 47.093 141.355 46.8643 141.56 46.5561C141.769 46.2478 141.874 45.8551 141.874 45.3778ZM145.355 48.5V38.3181H146.528V42.0767H146.628C146.714 41.9441 146.833 41.7751 146.986 41.5696C147.141 41.3608 147.363 41.1751 147.652 41.0127C147.943 40.847 148.338 40.7642 148.835 40.7642C149.478 40.7642 150.045 40.9249 150.535 41.2464C151.026 41.5679 151.409 42.0236 151.684 42.6136C151.959 43.2036 152.096 43.8996 152.096 44.7017C152.096 45.5104 151.959 46.2114 151.684 46.8046C151.409 47.3946 151.027 47.852 150.54 48.1768C150.053 48.4983 149.491 48.659 148.855 48.659C148.364 48.659 147.972 48.5778 147.677 48.4154C147.382 48.2497 147.155 48.0625 146.996 47.8536C146.836 47.6415 146.714 47.4659 146.628 47.3267H146.488V48.5H145.355ZM146.508 44.6818C146.508 45.2585 146.593 45.7672 146.762 46.2081C146.931 46.6456 147.178 46.9886 147.503 47.2372C147.827 47.4824 148.225 47.6051 148.696 47.6051C149.186 47.6051 149.596 47.4758 149.924 47.2173C150.255 46.9554 150.504 46.6041 150.67 46.1633C150.839 45.7192 150.923 45.2253 150.923 44.6818C150.923 44.1448 150.84 43.6609 150.674 43.2301C150.512 42.7959 150.265 42.4528 149.934 42.2009C149.606 41.9457 149.193 41.8181 148.696 41.8181C148.219 41.8181 147.817 41.9391 147.493 42.1811C147.168 42.4197 146.923 42.7545 146.757 43.1853C146.591 43.6129 146.508 44.1117 146.508 44.6818Z" fill="#1F2E54"/>
<path d="M27.7769 54.2228C20.8815 54.2228 14.3253 51.6224 9.33277 46.8738C8.6357 46.2332 7.97631 45.536 7.37344 44.8387L11.6877 41.1266C12.1776 41.6919 12.6862 42.2383 13.2326 42.7471C17.1701 46.4781 22.351 48.5321 27.7769 48.5321C39.4575 48.5321 48.9527 39.0349 48.9527 27.352C48.9527 15.669 39.4575 6.17189 27.7769 6.17189C17.0571 6.17189 8.18355 14.1804 6.78941 24.5255H14.8905V30.1973H0.911407V27.352C0.911407 12.541 12.9688 0.5 27.7769 0.5C42.5849 0.5 54.6423 12.541 54.6423 27.352C54.6423 42.163 42.5849 54.2228 27.7769 54.2228Z" fill="#DBDEE4"/>
<path d="M43.508 24.5068V27.3522C43.4954 28.3321 43.4075 29.2805 43.2442 30.1976C43.2254 30.2729 43.2066 30.3295 43.2066 30.4048C41.7747 37.6219 35.4069 43.0865 27.7768 43.0865C20.0714 43.0865 13.647 37.5088 12.3282 30.1976C12.1398 29.2742 12.0645 28.3321 12.0645 27.3522C12.0645 26.3912 12.1398 25.4302 12.3282 24.5068C13.647 17.1955 20.0714 11.6367 27.7768 11.6367V17.3086C22.2379 17.3086 17.7352 21.8311 17.7352 27.3522C17.7352 32.8922 22.2379 37.3958 27.7768 37.3958C31.7143 37.3958 35.1432 35.1157 36.7822 31.7993C37.0271 31.2905 37.2532 30.744 37.4039 30.1976H28.342V24.5068H43.508Z" fill="#3C2FC0"/>
</g>
<defs>
<clipPath id="clip0_1_170">
<rect width="154" height="54" fill="white" transform="translate(0.911407 0.5)"/>
</clipPath>
</defs>
</svg>
