<svg width="212" height="53" viewBox="0 0 212 53" fill="none" xmlns="http://www.w3.org/2000/svg">
<g clip-path="url(#clip0_1_102)">
<path fill-rule="evenodd" clip-rule="evenodd" d="M47.1349 27.7271C47.1349 14.9104 36.7268 4.5 23.9129 4.5C11.0989 4.5 0.690918 14.9104 0.690918 27.7271C0.690918 30.1898 1.07517 32.5636 1.78691 34.7918L12.5373 24.039L14.1325 25.6607L21.4286 32.9584L32.8827 21.5018H22.3178V16.9505H40.6495V35.2863H36.0993V24.719L21.4286 39.3929L19.8334 37.7712L12.5373 30.4735L3.7551 39.2577C7.76158 46.2432 15.2928 50.9543 23.9129 50.9543C36.7268 50.9543 47.1349 40.5439 47.1349 27.7271Z" fill="#DBDEE4"/>
<mask id="mask0_1_102" style="mask-type:alpha" maskUnits="userSpaceOnUse" x="0" y="4" width="48" height="47">
<path d="M23.9129 4.5C36.7268 4.5 47.1349 14.9104 47.1349 27.7271C47.1349 40.5439 36.7268 50.9543 23.9129 50.9543C11.0989 50.9543 0.690918 40.5439 0.690918 27.7271C0.690918 14.9104 11.0989 4.5 23.9129 4.5Z" fill="#1F2E54"/>
</mask>
<g mask="url(#mask0_1_102)">
<path d="M12.6909 30.5L2.19092 40.5L5.69092 48.5C7.02425 49.5 10.0909 51.7 11.6909 52.5C13.6909 53.5 21.1909 53.5 23.1909 53.5C25.1909 53.5 38.6909 51.5 39.6909 50.5C40.6909 49.5 44.1909 44.5 44.6909 43.5C45.0909 42.7 46.1909 36 46.1909 35H36.1909V24.5L21.6909 39.5L12.6909 30.5Z" fill="#3C2FC0"/>
</g>
<path d="M72.9643 10.8984C72.8914 10.2162 72.5841 9.6849 72.0425 9.30469C71.506 8.92448 70.8081 8.73437 69.9487 8.73437C69.3445 8.73437 68.8263 8.82552 68.394 9.00781C67.9617 9.1901 67.631 9.4375 67.4018 9.75C67.1727 10.0625 67.0555 10.4193 67.0503 10.8203C67.0503 11.1536 67.1258 11.4427 67.2768 11.6875C67.4331 11.9323 67.644 12.1406 67.9097 12.3125C68.1753 12.4792 68.4695 12.6198 68.7925 12.7344C69.1154 12.849 69.4409 12.9453 69.769 13.0234L71.269 13.3984C71.8732 13.5391 72.4539 13.7292 73.0112 13.9687C73.5737 14.2083 74.0763 14.5104 74.519 14.875C74.9669 15.2396 75.3211 15.6797 75.5815 16.1953C75.8419 16.7109 75.9722 17.3151 75.9722 18.0078C75.9722 18.9453 75.7326 19.7708 75.2534 20.4844C74.7742 21.1927 74.0815 21.7474 73.1753 22.1484C72.2742 22.5443 71.1831 22.7422 69.9018 22.7422C68.657 22.7422 67.5763 22.5495 66.6597 22.1641C65.7482 21.7786 65.0347 21.2161 64.519 20.4766C64.0086 19.737 63.7326 18.8359 63.6909 17.7734H66.5425C66.5841 18.3307 66.756 18.7943 67.0581 19.1641C67.3602 19.5339 67.7534 19.8099 68.2378 19.9922C68.7274 20.1745 69.2742 20.2656 69.8784 20.2656C70.5086 20.2656 71.0607 20.1719 71.5347 19.9844C72.0138 19.7917 72.3888 19.526 72.6597 19.1875C72.9305 18.8437 73.0685 18.4427 73.0737 17.9844C73.0685 17.5677 72.9461 17.224 72.7065 16.9531C72.4669 16.6771 72.131 16.4479 71.6987 16.2656C71.2716 16.0781 70.7716 15.9115 70.1987 15.7656L68.3784 15.2969C67.0607 14.9583 66.019 14.4453 65.2534 13.7578C64.493 13.0651 64.1128 12.1458 64.1128 11C64.1128 10.0573 64.368 9.23177 64.8784 8.52344C65.394 7.8151 66.0945 7.26562 66.98 6.875C67.8654 6.47917 68.868 6.28125 69.9878 6.28125C71.1232 6.28125 72.118 6.47917 72.9722 6.875C73.8315 7.26562 74.506 7.8099 74.9956 8.50781C75.4852 9.20052 75.7378 9.9974 75.7534 10.8984H72.9643ZM83.6655 22.7344C82.4936 22.7344 81.478 22.4766 80.6186 21.9609C79.7593 21.4453 79.0926 20.724 78.6186 19.7969C78.1499 18.8698 77.9155 17.7865 77.9155 16.5469C77.9155 15.3073 78.1499 14.2214 78.6186 13.2891C79.0926 12.3568 79.7593 11.6328 80.6186 11.1172C81.478 10.6016 82.4936 10.3438 83.6655 10.3438C84.8374 10.3438 85.853 10.6016 86.7124 11.1172C87.5718 11.6328 88.2358 12.3568 88.7046 13.2891C89.1785 14.2214 89.4155 15.3073 89.4155 16.5469C89.4155 17.7865 89.1785 18.8698 88.7046 19.7969C88.2358 20.724 87.5718 21.4453 86.7124 21.9609C85.853 22.4766 84.8374 22.7344 83.6655 22.7344ZM83.6811 20.4687C84.3166 20.4687 84.8478 20.2943 85.2749 19.9453C85.702 19.5911 86.0197 19.1172 86.228 18.5234C86.4416 17.9297 86.5483 17.2682 86.5483 16.5391C86.5483 15.8047 86.4416 15.1406 86.228 14.5469C86.0197 13.9479 85.702 13.4714 85.2749 13.1172C84.8478 12.763 84.3166 12.5859 83.6811 12.5859C83.0301 12.5859 82.4884 12.763 82.0561 13.1172C81.6291 13.4714 81.3087 13.9479 81.0952 14.5469C80.8869 15.1406 80.7827 15.8047 80.7827 16.5391C80.7827 17.2682 80.8869 17.9297 81.0952 18.5234C81.3087 19.1172 81.6291 19.5911 82.0561 19.9453C82.4884 20.2943 83.0301 20.4687 83.6811 20.4687ZM97.894 10.5V12.6875H90.8003V10.5H97.894ZM92.5737 22.5V9.36719C92.5737 8.55989 92.7404 7.88802 93.0737 7.35156C93.4123 6.8151 93.8654 6.41406 94.4331 6.14844C95.0008 5.88281 95.631 5.75 96.3237 5.75C96.8133 5.75 97.2482 5.78906 97.6284 5.86719C98.0086 5.94531 98.2899 6.01562 98.4722 6.07812L97.9097 8.26562C97.7899 8.22917 97.6388 8.19271 97.4565 8.15625C97.2742 8.11458 97.0711 8.09375 96.8471 8.09375C96.3211 8.09375 95.9487 8.22135 95.73 8.47656C95.5164 8.72656 95.4097 9.08594 95.4097 9.55469V22.5H92.5737ZM106.101 10.5V12.6875H99.2026V10.5H106.101ZM100.906 7.625H103.734V18.8906C103.734 19.2708 103.791 19.5625 103.906 19.7656C104.026 19.9635 104.182 20.099 104.375 20.1719C104.567 20.2448 104.781 20.2812 105.015 20.2812C105.192 20.2812 105.354 20.2682 105.5 20.2422C105.651 20.2161 105.765 20.1927 105.843 20.1719L106.32 22.3828C106.169 22.4349 105.953 22.4922 105.671 22.5547C105.395 22.6172 105.057 22.6536 104.656 22.6641C103.948 22.6849 103.309 22.5781 102.742 22.3437C102.174 22.1042 101.724 21.7344 101.39 21.2344C101.062 20.7344 100.901 20.1094 100.906 19.3594V7.625ZM114.048 22.5V6.5H120.173C121.33 6.5 122.291 6.68229 123.056 7.04687C123.827 7.40625 124.403 7.89844 124.783 8.52344C125.168 9.14844 125.361 9.85677 125.361 10.6484C125.361 11.2995 125.236 11.8568 124.986 12.3203C124.736 12.7786 124.4 13.151 123.978 13.4375C123.556 13.724 123.085 13.9297 122.564 14.0547V14.2109C123.132 14.2422 123.676 14.4167 124.197 14.7344C124.723 15.0469 125.153 15.4896 125.486 16.0625C125.819 16.6354 125.986 17.3281 125.986 18.1406C125.986 18.9687 125.785 19.7135 125.384 20.375C124.983 21.0312 124.379 21.5495 123.572 21.9297C122.765 22.3099 121.749 22.5 120.525 22.5H114.048ZM116.947 20.0781H120.064C121.116 20.0781 121.874 19.8776 122.337 19.4766C122.806 19.0703 123.041 18.5495 123.041 17.9141C123.041 17.4401 122.923 17.013 122.689 16.6328C122.455 16.2474 122.121 15.9453 121.689 15.7266C121.257 15.5026 120.741 15.3906 120.142 15.3906H116.947V20.0781ZM116.947 13.3047H119.814C120.314 13.3047 120.765 13.2135 121.166 13.0312C121.567 12.8437 121.882 12.5807 122.111 12.2422C122.345 11.8984 122.462 11.4922 122.462 11.0234C122.462 10.4037 122.244 9.89323 121.806 9.49219C121.374 9.09114 120.731 8.89062 119.877 8.89062H116.947V13.3047ZM128.382 22.5V10.5H131.125V12.5H131.25C131.468 11.8073 131.843 11.2734 132.375 10.8984C132.911 10.5182 133.523 10.3281 134.211 10.3281C134.367 10.3281 134.541 10.3359 134.734 10.3516C134.932 10.362 135.096 10.3802 135.226 10.4063V13.0078C135.106 12.9661 134.916 12.9297 134.656 12.8984C134.401 12.862 134.153 12.8437 133.914 12.8437C133.398 12.8437 132.934 12.9557 132.523 13.1797C132.117 13.3984 131.796 13.7031 131.562 14.0937C131.328 14.4844 131.211 14.9349 131.211 15.4453V22.5H128.382ZM140.343 22.7422C139.583 22.7422 138.898 22.6068 138.289 22.3359C137.684 22.0599 137.205 21.6536 136.851 21.1172C136.502 20.5807 136.328 19.9193 136.328 19.1328C136.328 18.4557 136.453 17.8958 136.703 17.4531C136.953 17.0104 137.294 16.6562 137.726 16.3906C138.158 16.125 138.645 15.9245 139.187 15.7891C139.734 15.6484 140.299 15.5469 140.882 15.4844C141.586 15.4115 142.156 15.3464 142.593 15.2891C143.031 15.2266 143.349 15.1328 143.546 15.0078C143.75 14.8776 143.851 14.6771 143.851 14.4062V14.3594C143.851 13.7708 143.677 13.3151 143.328 12.9922C142.979 12.6693 142.476 12.5078 141.82 12.5078C141.127 12.5078 140.578 12.6589 140.171 12.9609C139.77 13.263 139.5 13.6198 139.359 14.0312L136.718 13.6562C136.927 12.9271 137.27 12.3177 137.75 11.8281C138.229 11.3333 138.815 10.9635 139.507 10.7187C140.2 10.4688 140.966 10.3438 141.804 10.3438C142.382 10.3438 142.958 10.4115 143.531 10.5469C144.104 10.6823 144.627 10.9062 145.101 11.2187C145.575 11.526 145.955 11.9453 146.242 12.4766C146.533 13.0078 146.679 13.6719 146.679 14.4687V22.5H143.961V20.8516H143.867C143.695 21.1849 143.453 21.4974 143.14 21.7891C142.833 22.0755 142.445 22.3073 141.976 22.4844C141.513 22.6563 140.968 22.7422 140.343 22.7422ZM141.078 20.6641C141.645 20.6641 142.138 20.5521 142.554 20.3281C142.971 20.099 143.291 19.7969 143.515 19.4219C143.744 19.0469 143.859 18.638 143.859 18.1953V16.7812C143.77 16.8542 143.619 16.9219 143.406 16.9844C143.198 17.0469 142.963 17.1016 142.703 17.1484C142.442 17.1953 142.184 17.237 141.929 17.2734C141.674 17.3099 141.453 17.3411 141.265 17.3672C140.843 17.4245 140.466 17.5182 140.132 17.6484C139.799 17.7786 139.536 17.9609 139.343 18.1953C139.151 18.4245 139.054 18.7214 139.054 19.0859C139.054 19.6068 139.244 20 139.625 20.2656C140.005 20.5312 140.489 20.6641 141.078 20.6641ZM152.351 15.4687V22.5H149.523V10.5H152.226V12.5391H152.367C152.643 11.8672 153.083 11.3333 153.687 10.9375C154.296 10.5417 155.049 10.3438 155.945 10.3438C156.773 10.3438 157.494 10.5208 158.109 10.875C158.729 11.2292 159.208 11.7422 159.546 12.4141C159.89 13.0859 160.059 13.901 160.054 14.8594V22.5H157.226V15.2969C157.226 14.4948 157.018 13.8672 156.601 13.4141C156.19 12.9609 155.619 12.7344 154.89 12.7344C154.395 12.7344 153.955 12.8437 153.57 13.0625C153.19 13.276 152.89 13.5859 152.671 13.9922C152.458 14.3984 152.351 14.8906 152.351 15.4687ZM167.382 22.7109C166.44 22.7109 165.596 22.4688 164.851 21.9844C164.106 21.5 163.518 20.7969 163.086 19.875C162.653 18.9531 162.437 17.8333 162.437 16.5156C162.437 15.1823 162.656 14.0573 163.093 13.1406C163.536 12.2187 164.132 11.5234 164.882 11.0547C165.632 10.5807 166.468 10.3438 167.39 10.3438C168.093 10.3438 168.671 10.4635 169.125 10.7031C169.578 10.9375 169.937 11.2214 170.203 11.5547C170.468 11.8828 170.674 12.1927 170.82 12.4844H170.937V6.5H173.773V22.5H170.992V20.6094H170.82C170.674 20.901 170.463 21.2109 170.187 21.5391C169.911 21.862 169.546 22.138 169.093 22.3672C168.64 22.5964 168.07 22.7109 167.382 22.7109ZM168.171 20.3906C168.77 20.3906 169.281 20.2292 169.703 19.9062C170.125 19.5781 170.445 19.1224 170.664 18.5391C170.882 17.9557 170.992 17.276 170.992 16.5C170.992 15.724 170.882 15.0495 170.664 14.4766C170.45 13.9036 170.132 13.4583 169.711 13.1406C169.294 12.8229 168.781 12.6641 168.171 12.6641C167.541 12.6641 167.015 12.8281 166.593 13.1562C166.171 13.4844 165.854 13.9375 165.64 14.5156C165.427 15.0937 165.32 15.7552 165.32 16.5C165.32 17.25 165.427 17.9193 165.64 18.5078C165.859 19.0911 166.179 19.5521 166.601 19.8906C167.028 20.224 167.552 20.3906 168.171 20.3906ZM176.787 22.5V10.5H179.615V22.5H176.787ZM178.209 8.79688C177.761 8.79688 177.375 8.64844 177.052 8.35156C176.729 8.04948 176.568 7.6875 176.568 7.26562C176.568 6.83854 176.729 6.47656 177.052 6.17969C177.375 5.8776 177.761 5.72656 178.209 5.72656C178.662 5.72656 179.047 5.8776 179.365 6.17969C179.688 6.47656 179.849 6.83854 179.849 7.26562C179.849 7.6875 179.688 8.04948 179.365 8.35156C179.047 8.64844 178.662 8.79688 178.209 8.79688ZM185.351 15.4687V22.5H182.523V10.5H185.226V12.5391H185.367C185.643 11.8672 186.083 11.3333 186.687 10.9375C187.296 10.5417 188.049 10.3438 188.945 10.3438C189.773 10.3438 190.494 10.5208 191.109 10.875C191.729 11.2292 192.208 11.7422 192.546 12.4141C192.89 13.0859 193.059 13.901 193.054 14.8594V22.5H190.226V15.2969C190.226 14.4948 190.018 13.8672 189.601 13.4141C189.19 12.9609 188.619 12.7344 187.89 12.7344C187.395 12.7344 186.955 12.8437 186.57 13.0625C186.19 13.276 185.89 13.5859 185.671 13.9922C185.458 14.3984 185.351 14.8906 185.351 15.4687ZM201.148 27.25C200.132 27.25 199.26 27.112 198.531 26.8359C197.802 26.5651 197.216 26.2005 196.773 25.7422C196.33 25.2839 196.023 24.776 195.851 24.2188L198.398 23.6016C198.513 23.8359 198.679 24.0677 198.898 24.2969C199.117 24.5313 199.411 24.724 199.781 24.875C200.156 25.0313 200.627 25.1094 201.195 25.1094C201.997 25.1094 202.661 24.9141 203.187 24.5234C203.713 24.138 203.976 23.5026 203.976 22.6172V20.3437H203.836C203.69 20.6354 203.476 20.9349 203.195 21.2422C202.919 21.5495 202.552 21.8073 202.093 22.0156C201.64 22.224 201.07 22.3281 200.382 22.3281C199.461 22.3281 198.625 22.112 197.875 21.6797C197.13 21.2422 196.536 20.5911 196.093 19.7266C195.656 18.8568 195.437 17.7682 195.437 16.4609C195.437 15.1432 195.656 14.0312 196.093 13.125C196.536 12.2135 197.132 11.5234 197.882 11.0547C198.632 10.5807 199.468 10.3438 200.39 10.3438C201.093 10.3438 201.671 10.4635 202.125 10.7031C202.583 10.9375 202.948 11.2214 203.218 11.5547C203.489 11.8828 203.695 12.1927 203.836 12.4844H203.992V10.5H206.781V22.6953C206.781 23.7214 206.536 24.5703 206.046 25.2422C205.557 25.9141 204.888 26.4167 204.039 26.75C203.19 27.0833 202.226 27.25 201.148 27.25ZM201.171 20.1094C201.77 20.1094 202.281 19.9635 202.703 19.6719C203.125 19.3802 203.445 18.9609 203.664 18.4141C203.882 17.8672 203.992 17.2109 203.992 16.4453C203.992 15.6901 203.882 15.0286 203.664 14.4609C203.45 13.8932 203.132 13.4531 202.711 13.1406C202.294 12.8229 201.781 12.6641 201.171 12.6641C200.541 12.6641 200.015 12.8281 199.593 13.1562C199.171 13.4844 198.854 13.9349 198.64 14.5078C198.427 15.0755 198.32 15.7214 198.32 16.4453C198.32 17.1797 198.427 17.8229 198.64 18.375C198.859 18.9219 199.179 19.349 199.601 19.6562C200.028 19.9583 200.552 20.1094 201.171 20.1094Z" fill="#1F2E54"/>
<path d="M72.7903 41.0001H71.4693C71.3912 40.6201 71.2545 40.2863 71.0592 39.9987C70.8674 39.711 70.633 39.4696 70.356 39.2742C70.0826 39.0754 69.779 38.9262 69.4452 38.8268C69.1114 38.7274 68.7633 38.6777 68.4011 38.6777C67.7406 38.6777 67.1422 38.8446 66.606 39.1784C66.0734 39.5122 65.649 40.004 65.3329 40.6539C65.0204 41.3037 64.8642 42.101 64.8642 43.0456C64.8642 43.9902 65.0204 44.7874 65.3329 45.4372C65.649 46.0871 66.0734 46.5789 66.606 46.9127C67.1422 47.2465 67.7406 47.4135 68.4011 47.4135C68.7633 47.4135 69.1114 47.3637 69.4452 47.2643C69.779 47.1649 70.0826 47.0175 70.356 46.8222C70.633 46.6233 70.8674 46.3801 71.0592 46.0924C71.2545 45.8012 71.3912 45.4674 71.4693 45.091H72.7903C72.6909 45.6485 72.5098 46.1475 72.247 46.5878C71.9842 47.0282 71.6575 47.4028 71.2669 47.7117C70.8763 48.0171 70.4377 48.2497 69.9512 48.4095C69.4682 48.5693 68.9516 48.6492 68.4011 48.6492C67.4707 48.6492 66.6433 48.422 65.9189 47.9674C65.1945 47.5129 64.6245 46.8666 64.209 46.0285C63.7935 45.1904 63.5858 44.1961 63.5858 43.0456C63.5858 41.895 63.7935 40.9007 64.209 40.0626C64.6245 39.2245 65.1945 38.5782 65.9189 38.1237C66.6433 37.6691 67.4707 37.4419 68.4011 37.4419C68.9516 37.4419 69.4682 37.5218 69.9512 37.6816C70.4377 37.8414 70.8763 38.0757 71.2669 38.3847C71.6575 38.6901 71.9842 39.063 72.247 39.5033C72.5098 39.9401 72.6909 40.439 72.7903 41.0001ZM78.0784 48.6706C77.3398 48.6706 76.6917 48.4948 76.1342 48.1432C75.5802 47.7916 75.147 47.2998 74.8345 46.6677C74.5255 46.0356 74.371 45.297 74.371 44.4518C74.371 43.5995 74.5255 42.8556 74.8345 42.2199C75.147 41.5843 75.5802 41.0907 76.1342 40.7391C76.6917 40.3875 77.3398 40.2117 78.0784 40.2117C78.8171 40.2117 79.4634 40.3875 80.0173 40.7391C80.5749 41.0907 81.0081 41.5843 81.3171 42.2199C81.6296 42.8556 81.7858 43.5995 81.7858 44.4518C81.7858 45.297 81.6296 46.0356 81.3171 46.6677C81.0081 47.2998 80.5749 47.7916 80.0173 48.1432C79.4634 48.4948 78.8171 48.6706 78.0784 48.6706ZM78.0784 47.5413C78.6395 47.5413 79.1011 47.3975 79.4634 47.1098C79.8256 46.8222 80.0937 46.444 80.2677 45.9752C80.4417 45.5065 80.5287 44.9987 80.5287 44.4518C80.5287 43.9049 80.4417 43.3953 80.2677 42.923C80.0937 42.4507 79.8256 42.069 79.4634 41.7778C79.1011 41.4866 78.6395 41.341 78.0784 41.341C77.5173 41.341 77.0557 41.4866 76.6935 41.7778C76.3313 42.069 76.0631 42.4507 75.8891 42.923C75.7151 43.3953 75.6281 43.9049 75.6281 44.4518C75.6281 44.9987 75.7151 45.5065 75.8891 45.9752C76.0631 46.444 76.3313 46.8222 76.6935 47.1098C77.0557 47.3975 77.5173 47.5413 78.0784 47.5413ZM84.9619 43.5782V48.5001H83.7047V40.3183H84.9192V41.5967H85.0258C85.2175 41.1812 85.5087 40.8474 85.8994 40.5953C86.29 40.3396 86.7942 40.2117 87.4121 40.2117C87.9661 40.2117 88.4508 40.3254 88.8663 40.5527C89.2818 40.7764 89.605 41.1173 89.8358 41.5754C90.0666 42.0299 90.182 42.6052 90.182 43.3012V48.5001H88.9249V43.3865C88.9249 42.7437 88.758 42.243 88.4242 41.8843C88.0904 41.5221 87.6323 41.341 87.0499 41.341C86.6486 41.341 86.29 41.428 85.9739 41.602C85.6614 41.776 85.4146 42.0299 85.2335 42.3637C85.0524 42.6975 84.9619 43.1024 84.9619 43.5782ZM98.2746 42.1507L97.1454 42.4703C97.0743 42.2821 96.9696 42.0992 96.8311 41.9216C96.6961 41.7405 96.5115 41.5914 96.2771 41.4742C96.0427 41.357 95.7427 41.2984 95.3769 41.2984C94.8762 41.2984 94.4589 41.4138 94.1251 41.6446C93.7949 41.8719 93.6297 42.1613 93.6297 42.5129C93.6297 42.8254 93.7434 43.0722 93.9706 43.2533C94.1979 43.4344 94.553 43.5853 95.036 43.7061L96.2505 44.0044C96.982 44.1819 97.5271 44.4536 97.8858 44.8193C98.2444 45.1816 98.4238 45.6485 98.4238 46.2203C98.4238 46.689 98.2888 47.1081 98.0189 47.4774C97.7526 47.8467 97.3797 48.1379 96.9003 48.351C96.4209 48.564 95.8634 48.6706 95.2277 48.6706C94.3932 48.6706 93.7025 48.4894 93.1557 48.1272C92.6088 47.765 92.2625 47.2359 92.1169 46.5399L93.3101 46.2416C93.4238 46.6819 93.6386 47.0122 93.9547 47.2323C94.2743 47.4525 94.6915 47.5626 95.2064 47.5626C95.7924 47.5626 96.2576 47.4383 96.602 47.1897C96.95 46.9376 97.1241 46.6358 97.1241 46.2842C97.1241 46.0001 97.0246 45.7622 96.8258 45.5704C96.6269 45.3751 96.3215 45.2295 95.9096 45.1336L94.5459 44.814C93.7966 44.6365 93.2462 44.3613 92.8946 43.9884C92.5466 43.612 92.3726 43.1414 92.3726 42.5768C92.3726 42.1152 92.5022 41.7068 92.7615 41.3517C93.0243 40.9965 93.3812 40.7178 93.8321 40.5154C94.2867 40.313 94.8016 40.2117 95.3769 40.2117C96.1865 40.2117 96.8222 40.3893 97.2839 40.7444C97.749 41.0995 98.0793 41.5683 98.2746 42.1507ZM105.472 45.1549V40.3183H106.73V48.5001H105.472V47.1152H105.387C105.195 47.5306 104.897 47.884 104.492 48.1752C104.087 48.4628 103.576 48.6066 102.958 48.6066C102.447 48.6066 101.992 48.4948 101.595 48.2711C101.197 48.0438 100.884 47.7029 100.657 47.2483C100.43 46.7902 100.316 46.2132 100.316 45.5171V40.3183H101.573V45.4319C101.573 46.0285 101.74 46.5044 102.074 46.8595C102.411 47.2146 102.841 47.3921 103.363 47.3921C103.676 47.3921 103.993 47.3122 104.317 47.1524C104.643 46.9926 104.917 46.7476 105.137 46.4174C105.361 46.0871 105.472 45.6663 105.472 45.1549ZM110.289 37.591V48.5001H109.032V37.591H110.289ZM116.15 40.3183V41.3836H111.91V40.3183H116.15ZM113.146 38.3581H114.403V46.1563C114.403 46.5115 114.454 46.7778 114.557 46.9554C114.664 47.1294 114.799 47.2465 114.962 47.3069C115.129 47.3637 115.305 47.3921 115.489 47.3921C115.628 47.3921 115.741 47.385 115.83 47.3708C115.919 47.3531 115.99 47.3389 116.043 47.3282L116.299 48.4575C116.214 48.4894 116.095 48.5214 115.942 48.5534C115.789 48.5889 115.596 48.6066 115.361 48.6066C115.006 48.6066 114.658 48.5303 114.317 48.3776C113.98 48.2249 113.7 47.9923 113.476 47.6798C113.256 47.3673 113.146 46.9731 113.146 46.4973V38.3581ZM120.448 48.6919C119.93 48.6919 119.459 48.5942 119.037 48.3989C118.614 48.2 118.279 47.9142 118.03 47.5413C117.782 47.1649 117.657 46.7103 117.657 46.1777C117.657 45.7089 117.75 45.3289 117.934 45.0377C118.119 44.743 118.366 44.5122 118.675 44.3453C118.984 44.1784 119.325 44.0541 119.697 43.9724C120.074 43.8872 120.452 43.8197 120.832 43.77C121.329 43.7061 121.732 43.6581 122.041 43.6262C122.354 43.5907 122.581 43.5321 122.723 43.4504C122.869 43.3687 122.941 43.2267 122.941 43.0242V42.9816C122.941 42.4561 122.798 42.0477 122.51 41.7565C122.226 41.4653 121.794 41.3197 121.216 41.3197C120.615 41.3197 120.145 41.4511 119.804 41.7139C119.463 41.9767 119.223 42.2572 119.085 42.5555L117.892 42.1294C118.105 41.6322 118.389 41.2451 118.744 40.9681C119.103 40.6876 119.493 40.4923 119.916 40.3822C120.342 40.2686 120.761 40.2117 121.173 40.2117C121.436 40.2117 121.738 40.2437 122.078 40.3076C122.423 40.368 122.755 40.4941 123.075 40.6858C123.398 40.8776 123.666 41.167 123.879 41.5541C124.092 41.9412 124.198 42.4596 124.198 43.1095V48.5001H122.941V47.3921H122.877C122.792 47.5697 122.65 47.7597 122.451 47.9621C122.252 48.1645 121.988 48.3367 121.658 48.4788C121.327 48.6208 120.924 48.6919 120.448 48.6919ZM120.64 47.5626C121.137 47.5626 121.556 47.4649 121.897 47.2696C122.242 47.0743 122.501 46.8222 122.675 46.5132C122.853 46.2043 122.941 45.8794 122.941 45.5385V44.3879C122.888 44.4518 122.771 44.5104 122.59 44.5637C122.412 44.6134 122.206 44.6578 121.972 44.6968C121.741 44.7323 121.516 44.7643 121.295 44.7927C121.079 44.8176 120.903 44.8389 120.768 44.8566C120.441 44.8992 120.136 44.9685 119.852 45.0644C119.571 45.1567 119.344 45.297 119.17 45.4852C119 45.6698 118.914 45.922 118.914 46.2416C118.914 46.6784 119.076 47.0086 119.399 47.2323C119.726 47.4525 120.14 47.5626 120.64 47.5626ZM127.75 43.5782V48.5001H126.493V40.3183H127.707V41.5967H127.814C128.006 41.1812 128.297 40.8474 128.688 40.5953C129.078 40.3396 129.582 40.2117 130.2 40.2117C130.754 40.2117 131.239 40.3254 131.655 40.5527C132.07 40.7764 132.393 41.1173 132.624 41.5754C132.855 42.0299 132.97 42.6052 132.97 43.3012V48.5001H131.713V43.3865C131.713 42.7437 131.546 42.243 131.212 41.8843C130.879 41.5221 130.42 41.341 129.838 41.341C129.437 41.341 129.078 41.428 128.762 41.602C128.45 41.776 128.203 42.0299 128.022 42.3637C127.841 42.6975 127.75 43.1024 127.75 43.5782ZM138.591 48.6706C137.824 48.6706 137.164 48.4894 136.61 48.1272C136.056 47.765 135.63 47.2661 135.331 46.6304C135.033 45.9948 134.884 45.2686 134.884 44.4518C134.884 43.6208 135.037 42.8875 135.342 42.2519C135.651 41.6127 136.081 41.1137 136.631 40.7551C137.185 40.3929 137.831 40.2117 138.57 40.2117C139.145 40.2117 139.664 40.3183 140.125 40.5313C140.587 40.7444 140.965 41.0427 141.26 41.4262C141.555 41.8098 141.738 42.2572 141.809 42.7686H140.551C140.456 42.3957 140.242 42.0654 139.912 41.7778C139.586 41.4866 139.145 41.341 138.591 41.341C138.101 41.341 137.671 41.4688 137.302 41.7245C136.936 41.9767 136.651 42.3336 136.445 42.7952C136.242 43.2533 136.141 43.7913 136.141 44.4092C136.141 45.0413 136.24 45.5917 136.439 46.0605C136.642 46.5292 136.926 46.8932 137.291 47.1524C137.661 47.4117 138.094 47.5413 138.591 47.5413C138.918 47.5413 139.214 47.4845 139.481 47.3708C139.747 47.2572 139.973 47.0939 140.157 46.8808C140.342 46.6677 140.473 46.412 140.551 46.1137H141.809C141.738 46.5967 141.562 47.0317 141.281 47.4188C141.004 47.8023 140.637 48.1077 140.179 48.335C139.724 48.5587 139.195 48.6706 138.591 48.6706ZM144.456 51.5683C144.243 51.5683 144.053 51.5505 143.886 51.515C143.719 51.4831 143.604 51.4511 143.54 51.4191L143.859 50.3112C144.165 50.3893 144.435 50.4177 144.669 50.3964C144.903 50.3751 145.111 50.2703 145.292 50.0821C145.477 49.8975 145.646 49.5974 145.798 49.1819L146.033 48.5427L143.007 40.3183H144.371L146.629 46.8382H146.714L148.973 40.3183H150.337L146.864 49.6933C146.707 50.1159 146.514 50.4657 146.283 50.7426C146.052 51.0232 145.784 51.2309 145.479 51.3659C145.177 51.5008 144.836 51.5683 144.456 51.5683Z" fill="#1F2E54"/>
</g>
<defs>
<clipPath id="clip0_1_102">
<rect width="211" height="52" fill="white" transform="translate(0.690918 0.5)"/>
</clipPath>
</defs>
</svg>
