<svg width="64" height="65" viewBox="0 0 64 65" fill="none" xmlns="http://www.w3.org/2000/svg">
<path d="M0 16.5C0 7.66344 7.16344 0.5 16 0.5H48C56.8366 0.5 64 7.66344 64 16.5V48.5C64 57.3366 56.8366 64.5 48 64.5H16C7.16344 64.5 0 57.3366 0 48.5V16.5Z" fill="#DFDDFF"/>
<g clip-path="url(#clip0_1_290)">
<path d="M16.0958 17.0415C15.4726 17.1939 14.9048 17.6647 14.6071 18.2603L14.434 18.6065V30.2742V41.9419L14.6209 42.295C14.8979 42.8213 15.1056 43.0359 15.5903 43.2991L16.0266 43.5345L21.5869 43.5553L27.1403 43.576V44.1231C27.1403 44.587 27.1196 44.677 27.0296 44.677C26.4964 44.677 25.7208 45.2864 25.5616 45.8265C25.5131 45.9858 25.4785 46.4635 25.4785 46.8859C25.4785 47.613 25.4854 47.6684 25.6516 47.8277L25.8178 48.0008H32.126H38.4341L38.6003 47.8277C38.7665 47.6684 38.7734 47.613 38.7734 46.8859C38.7734 45.9373 38.6973 45.6603 38.3095 45.231C38.0187 44.9125 37.5686 44.677 37.2362 44.677C37.1254 44.677 37.1116 44.6147 37.1116 44.1231V43.576L42.6719 43.5553L48.2253 43.5345L48.6616 43.2991C49.1463 43.0359 49.354 42.8213 49.631 42.295L49.818 41.9419V30.2742V18.6065L49.5825 18.1702C49.3194 17.6855 49.1047 17.4778 48.5785 17.2008L48.2253 17.0138L32.2644 17C23.4842 17 16.2135 17.0138 16.0958 17.0415ZM48.2323 18.2672C48.3361 18.3433 48.4885 18.4957 48.5646 18.5996C48.71 18.7865 48.71 18.8142 48.7308 28.4115L48.7447 38.0296H32.126H15.5072V28.5153C15.5072 21.9371 15.528 18.9388 15.5834 18.8004C15.6804 18.5442 15.9089 18.2949 16.1651 18.1841C16.3382 18.1079 19.1149 18.0941 32.2091 18.1079L48.0453 18.1218L48.2323 18.2672ZM48.7308 40.4462C48.71 41.8796 48.6893 41.9419 48.2323 42.2812L48.0453 42.4266H32.126H16.2066L16.0197 42.2812C15.5626 41.9419 15.5419 41.8796 15.5211 40.4462L15.5003 39.1375H32.126H48.7516L48.7308 40.4462ZM36.0037 44.1231V44.677H32.126H28.2483V44.1231V43.5691H32.126H36.0037V44.1231ZM37.4924 45.9581C37.6378 46.0965 37.6655 46.1935 37.6655 46.512V46.8929H32.126H26.5864V46.512C26.5864 46.1935 26.6141 46.0965 26.7595 45.9581L26.9257 45.7849H32.126H37.3262L37.4924 45.9581Z" fill="#3C2FC0"/>
<path d="M22.6117 21.4795C22.1755 21.5903 21.5523 21.9642 21.2476 22.2896C21.0952 22.4558 20.8667 22.8021 20.749 23.0583C20.5482 23.4876 20.5274 23.5914 20.5067 24.4016L20.479 25.2879H19.8211C19.2256 25.2879 19.1564 25.3018 19.004 25.461L18.8309 25.6272V29.4495C18.8309 32.247 18.8517 33.348 18.914 33.5557C19.0248 33.9366 19.5996 34.5113 19.9804 34.6221C20.1881 34.6844 21.116 34.7052 23.2626 34.7052C25.4092 34.7052 26.337 34.6844 26.5448 34.6221C26.9256 34.5113 27.5004 33.9366 27.6111 33.5557C27.6735 33.348 27.6942 32.247 27.6942 29.4495V25.6272L27.5211 25.461C27.3688 25.3018 27.2995 25.2879 26.704 25.2879H26.0462L26.0185 24.3947C25.9908 23.536 25.9839 23.4876 25.7346 22.989C25.2707 22.0473 24.4397 21.4864 23.4149 21.4379C23.1241 21.4241 22.764 21.4449 22.6117 21.4795ZM23.775 22.6012C24.1558 22.712 24.7306 23.2868 24.8414 23.6676C24.8898 23.8269 24.9245 24.2562 24.9245 24.6232V25.2879H23.2626H21.6007V24.6232C21.6007 23.7369 21.6907 23.4599 22.1201 23.0375C22.6048 22.5458 23.1241 22.4143 23.775 22.6012ZM26.5863 29.8234V33.258L26.4132 33.4242L26.247 33.5973H23.2626H20.2781L20.112 33.4242L19.9389 33.258V29.8234V26.3959H23.2626H26.5863V29.8234Z" fill="#3C2FC0"/>
<path d="M31.1912 22.1365C31.0181 22.3027 31.0181 22.3165 31.0181 23.6252C31.0181 24.934 31.0181 24.9478 31.1912 25.114L31.3574 25.2871H38.2195H45.0816L45.2478 25.114C45.4209 24.9478 45.4209 24.934 45.4209 23.6252C45.4209 22.3165 45.4209 22.3027 45.2478 22.1365L45.0816 21.9634H38.2195H31.3574L31.1912 22.1365ZM44.313 23.6252V24.1792H38.2195H32.126V23.6252V23.0713H38.2195H44.313V23.6252Z" fill="#3C2FC0"/>
<path d="M31.1912 27.1238C31.0804 27.2277 31.0181 27.3731 31.0181 27.5046C31.0181 27.6362 31.0804 27.7816 31.1912 27.8855L31.3574 28.0586H33.7879H36.2183L36.3845 27.8855C36.4953 27.7816 36.5576 27.6362 36.5576 27.5046C36.5576 27.3731 36.4953 27.2277 36.3845 27.1238L36.2183 26.9507H33.7879H31.3574L31.1912 27.1238Z" fill="#3C2FC0"/>
<path d="M37.8386 27.1238C37.7278 27.2277 37.6655 27.3731 37.6655 27.5046C37.6655 27.6362 37.7278 27.7816 37.8386 27.8855L38.0048 28.0586H41.5432H45.0816L45.2478 27.8855C45.3586 27.7816 45.4209 27.6362 45.4209 27.5046C45.4209 27.3731 45.3586 27.2277 45.2478 27.1238L45.0816 26.9507H41.5432H38.0048L37.8386 27.1238Z" fill="#3C2FC0"/>
<path d="M31.1912 29.3406C31.0804 29.4445 31.0181 29.5899 31.0181 29.7214C31.0181 29.853 31.0804 29.9984 31.1912 30.1023L31.3574 30.2754H35.4497H39.5421L39.7083 30.1023C39.8191 29.9984 39.8814 29.853 39.8814 29.7214C39.8814 29.5899 39.8191 29.4445 39.7083 29.3406L39.5421 29.1675H35.4497H31.3574L31.1912 29.3406Z" fill="#3C2FC0"/>
<path d="M41.1625 29.3406C41.0517 29.4445 40.9894 29.5899 40.9894 29.7214C40.9894 29.853 41.0517 29.9984 41.1625 30.1023L41.3287 30.2754H43.2052H45.0817L45.2479 30.1023C45.3587 29.9984 45.421 29.853 45.421 29.7214C45.421 29.5899 45.3587 29.4445 45.2479 29.3406L45.0817 29.1675H43.2052H41.3287L41.1625 29.3406Z" fill="#3C2FC0"/>
<path d="M31.1912 31.5564C31.0804 31.6603 31.0181 31.8057 31.0181 31.9373C31.0181 32.0688 31.0804 32.2142 31.1912 32.3181L31.3574 32.4912H34.6188H37.8802L38.0464 32.3181C38.1572 32.2142 38.2195 32.0688 38.2195 31.9373C38.2195 31.8057 38.1572 31.6603 38.0464 31.5564L37.8802 31.3833H34.6188H31.3574L31.1912 31.5564Z" fill="#3C2FC0"/>
<path d="M39.5007 31.5564C39.39 31.6603 39.3276 31.8057 39.3276 31.9373C39.3276 32.0688 39.39 32.2142 39.5007 32.3181L39.6669 32.4912H42.3744H45.0819L45.2481 32.3181C45.3588 32.2142 45.4212 32.0688 45.4212 31.9373C45.4212 31.8057 45.3588 31.6603 45.2481 31.5564L45.0819 31.3833H42.3744H39.6669L39.5007 31.5564Z" fill="#3C2FC0"/>
<path d="M31.1912 33.7703C31.0804 33.8741 31.0181 34.0196 31.0181 34.1511C31.0181 34.2827 31.0804 34.4281 31.1912 34.532L31.3574 34.7051H32.9569H34.5565L34.7227 34.532C34.8334 34.4281 34.8958 34.2827 34.8958 34.1511C34.8958 34.0196 34.8334 33.8741 34.7227 33.7703L34.5565 33.5972H32.9569H31.3574L31.1912 33.7703Z" fill="#3C2FC0"/>
<path d="M36.1769 33.7703C36.0661 33.8741 36.0038 34.0196 36.0038 34.1511C36.0038 34.2827 36.0661 34.4281 36.1769 34.532L36.3431 34.7051H39.8815H43.4199L43.5861 34.532C43.6969 34.4281 43.7592 34.2827 43.7592 34.1511C43.7592 34.0196 43.6969 33.8741 43.5861 33.7703L43.4199 33.5972H39.8815H36.3431L36.1769 33.7703Z" fill="#3C2FC0"/>
<path d="M44.4863 40.4197C44.1401 40.759 44.3824 41.3545 44.8672 41.3545C45.1511 41.3545 45.4211 41.0844 45.4211 40.8005C45.4211 40.5166 45.1511 40.2466 44.8672 40.2466C44.7356 40.2466 44.5902 40.3089 44.4863 40.4197Z" fill="#3C2FC0"/>
</g>
<defs>
<clipPath id="clip0_1_290">
<rect width="36" height="31" fill="white" transform="translate(14 17)"/>
</clipPath>
</defs>
</svg>
