<svg width="41" height="41" viewBox="0 0 41 41" fill="none" xmlns="http://www.w3.org/2000/svg">
<g clip-path="url(#clip0_2_151)">
<path d="M35.5 0.5H5.5C2.73858 0.5 0.5 2.73858 0.5 5.5V35.5C0.5 38.2614 2.73858 40.5 5.5 40.5H35.5C38.2614 40.5 40.5 38.2614 40.5 35.5V5.5C40.5 2.73858 38.2614 0.5 35.5 0.5Z" fill="#4D40DA"/>
<path d="M9.60603 12.6106L9.5 12.7215V20.5048C9.5 28.2736 9.5 28.288 9.59639 28.3941L9.69759 28.5001H20.9219H32.1462L32.2475 28.3941C32.3438 28.288 32.3438 28.2736 32.3438 20.4999C32.3438 12.7263 32.3438 12.7118 32.2475 12.6058L32.1462 12.4998H20.9267H9.70723L9.60603 12.6106ZM30.9703 13.2661C30.6667 13.56 20.9412 21.8976 20.9123 21.8879C20.893 21.8783 20.1556 21.2518 19.2737 20.4951C14.223 16.1577 10.9603 13.348 10.8735 13.2661C10.782 13.1745 10.9506 13.1745 20.9219 13.1745C30.9173 13.1745 31.0619 13.1745 30.9703 13.2661ZM14.8736 17.6035C15.9628 18.5433 16.8447 19.3336 16.8447 19.3674C16.8399 19.4108 11.0759 26.2302 10.3337 27.0687L10.1747 27.2471V20.4035V13.56L11.5386 14.7311C12.2856 15.3769 13.7892 16.6685 14.8736 17.6035ZM31.6691 20.4276V27.2471L31.5101 27.0687C30.7968 26.2639 25.0039 19.4108 24.9991 19.3674C24.9943 19.3144 31.5583 13.6179 31.6354 13.613C31.6547 13.6082 31.6691 16.6782 31.6691 20.4276ZM19.0809 21.2277C19.9725 21.9988 20.7532 22.6494 20.8159 22.6735C20.8785 22.6976 20.9653 22.6976 21.0328 22.6735C21.0906 22.6494 21.8762 21.9939 22.7726 21.218C23.9292 20.2252 24.4256 19.8252 24.469 19.8541C24.5027 19.8782 26.0401 21.6759 27.8859 23.8494L31.245 27.8013L26.0835 27.8157C23.2449 27.8206 18.599 27.8206 15.7604 27.8157L10.5988 27.8013L13.9868 23.8157C15.8519 21.6228 17.399 19.8252 17.4182 19.8252C17.4375 19.8252 18.1893 20.4566 19.0809 21.2277Z" fill="white"/>
</g>
<defs>
<clipPath id="clip0_2_151">
<rect width="40" height="40" fill="white" transform="translate(0.5 0.5)"/>
</clipPath>
</defs>
</svg>
