<svg width="41" height="41" viewBox="0 0 41 41" fill="none" xmlns="http://www.w3.org/2000/svg">
<g clip-path="url(#clip0_2_158)">
<path d="M35.5 0.5H5.5C2.73858 0.5 0.5 2.73858 0.5 5.5V35.5C0.5 38.2614 2.73858 40.5 5.5 40.5H35.5C38.2614 40.5 40.5 38.2614 40.5 35.5V5.5C40.5 2.73858 38.2614 0.5 35.5 0.5Z" fill="#4D40DA"/>
<path d="M13.039 9.56793C12.923 9.60663 12.3296 9.94201 11.7276 10.3075C10.4936 11.0556 10.227 11.2835 9.94756 11.8081C9.63798 12.4014 9.45309 13.485 9.50469 14.4352C9.68528 17.7761 12.063 21.6931 16.453 25.8896C19.8025 29.0886 22.9069 30.9418 25.6759 31.3975C26.9572 31.6082 28.3933 31.4663 29.1887 31.0493C29.7133 30.7741 29.9412 30.5032 30.6893 29.2692C31.0548 28.6672 31.3859 28.0739 31.4289 27.9578C31.5192 27.6912 31.5235 27.459 31.4418 27.1795C31.3128 26.741 31.2698 26.7066 28.8018 25.0598C27.5334 24.2127 26.4068 23.4732 26.3036 23.4216C26.0672 23.3012 25.6802 23.2625 25.4222 23.3356C25.0395 23.4431 24.8933 23.5807 24.128 24.5653C23.7238 25.0813 23.3583 25.537 23.3153 25.5714C23.2681 25.6101 23.1477 25.6359 22.9972 25.6359C22.7779 25.6359 22.7091 25.6058 22.2404 25.3393C21.0408 24.6556 20.1852 23.9762 18.805 22.6132C17.1969 21.0267 16.41 20.0635 15.6963 18.8123C15.3394 18.1888 15.2835 17.9825 15.3996 17.7589C15.4383 17.6772 15.8382 17.3375 16.4186 16.886C17.4118 16.1121 17.5537 15.9659 17.6612 15.5746C17.7343 15.3166 17.6956 14.9297 17.5752 14.6932C17.5236 14.59 16.7841 13.4635 15.937 12.1951C14.2903 9.72702 14.2559 9.68402 13.8173 9.55503C13.5378 9.47334 13.3056 9.47764 13.039 9.56793ZM13.6883 10.2946C13.8259 10.3634 14.0538 10.6816 15.3394 12.6078C16.1606 13.8375 16.8658 14.9082 16.9088 14.9899C16.9991 15.1704 16.9776 15.4155 16.8529 15.5746C16.8056 15.6305 16.4014 15.9659 15.9585 16.3099C14.9997 17.0537 14.8965 17.1483 14.746 17.402C14.6428 17.574 14.6299 17.6385 14.6299 18.004V18.4124L14.9266 18.9499C15.7092 20.3559 16.496 21.3491 18.0697 22.9271C19.6434 24.5008 20.6409 25.2877 22.0383 26.0659C22.5285 26.3368 22.593 26.3583 22.8811 26.3798C23.2681 26.4056 23.5518 26.3196 23.7969 26.1132C23.8872 26.0315 24.2828 25.5585 24.6655 25.0598C25.3792 24.1439 25.5082 24.0235 25.7662 24.0235C25.8264 24.0235 25.9339 24.0536 26.0027 24.088C26.0672 24.1224 27.1378 24.8276 28.3761 25.6574C30.8011 27.287 30.814 27.2956 30.7624 27.6224C30.7237 27.846 29.5069 29.8368 29.2489 30.0904C28.8319 30.5075 28.1869 30.7096 27.1421 30.7569C24.8288 30.8644 21.9566 29.596 18.9726 27.1494C17.7687 26.1605 16.0875 24.561 15.0212 23.3786C12.1619 20.2226 10.6183 17.4794 10.2829 14.9383C10.1539 13.9837 10.2786 12.8013 10.5624 12.2208C10.7688 11.7995 11.0655 11.5587 12.2006 10.8793C12.7553 10.5483 13.2411 10.2645 13.2755 10.2516C13.3959 10.2086 13.5292 10.2215 13.6883 10.2946Z" fill="white"/>
<path d="M21.8752 12.4439C21.6172 12.5385 21.5269 12.8739 21.7161 13.0502C21.8021 13.1319 21.8967 13.1534 22.3568 13.1878C23.006 13.2351 23.4403 13.3211 23.9606 13.4974C25.702 14.0907 27.1123 15.4365 27.7701 17.1349C28.0066 17.7541 28.1915 18.6398 28.1958 19.1859C28.1958 19.4826 28.2603 19.6287 28.4151 19.719C28.5484 19.7921 28.7204 19.7577 28.8407 19.6287C28.9095 19.5513 28.9267 19.4783 28.9267 19.216C28.9267 18.5581 28.7333 17.5864 28.4581 16.8769C27.5551 14.5508 25.3795 12.8309 22.9286 12.5041C22.4772 12.4482 21.9569 12.4181 21.8752 12.4439Z" fill="white"/>
<path d="M21.7147 14.7448C21.5814 14.8867 21.5814 15.1189 21.719 15.2479C21.805 15.3296 21.8953 15.3511 22.2607 15.3812C22.824 15.4328 23.2626 15.5532 23.7441 15.7896C24.5052 16.1637 25.1458 16.7958 25.5371 17.5568C25.8209 18.1029 26.0015 18.7908 26.0015 19.3068C26.0015 19.4788 26.023 19.539 26.1262 19.6422C26.2939 19.8056 26.4443 19.8056 26.612 19.6336C26.7453 19.5046 26.7453 19.5046 26.7195 19.1305C26.6421 17.9696 26.1649 16.8904 25.3608 16.0734C24.5181 15.2135 23.4561 14.7233 22.3037 14.6631C21.8222 14.6416 21.8093 14.6416 21.7147 14.7448Z" fill="white"/>
<path d="M21.7247 16.9512C21.5183 17.1532 21.6258 17.4929 21.9053 17.5488C21.9698 17.5617 22.1288 17.5832 22.2535 17.6004C22.5889 17.6391 23.0232 17.8756 23.2898 18.1551C23.5649 18.4475 23.7068 18.7441 23.767 19.1655C23.8229 19.5482 23.8702 19.6557 24.0121 19.7202C24.1669 19.789 24.2658 19.7761 24.3905 19.6686C24.5367 19.5439 24.5668 19.316 24.4808 18.9161C24.2744 17.9315 23.5649 17.1704 22.6233 16.9297C22.1503 16.8093 21.858 16.8136 21.7247 16.9512Z" fill="white"/>
</g>
<defs>
<clipPath id="clip0_2_158">
<rect width="40" height="40" fill="white" transform="translate(0.5 0.5)"/>
</clipPath>
</defs>
</svg>
