<svg width="41" height="41" viewBox="0 0 41 41" fill="none" xmlns="http://www.w3.org/2000/svg">
<g clip-path="url(#clip0_2_143)">
<path d="M35.5 0.5H5.5C2.73858 0.5 0.5 2.73858 0.5 5.5V35.5C0.5 38.2614 2.73858 40.5 5.5 40.5H35.5C38.2614 40.5 40.5 38.2614 40.5 35.5V5.5C40.5 2.73858 38.2614 0.5 35.5 0.5Z" fill="#4D40DA"/>
<path d="M19.7039 7.55914C17.5609 7.83518 15.5885 8.7988 14.0627 10.3195C12.7528 11.6294 11.8745 13.2355 11.4629 15.0724C10.9811 17.2405 11.2572 19.2782 12.3914 21.9081C13.7315 25.0248 16.5671 28.9747 19.9348 32.4176C20.8231 33.321 20.8583 33.3361 21.2548 32.9697C21.6513 32.6083 23.1067 31.0425 23.8545 30.1742C27.7592 25.6371 29.9926 21.5668 30.4293 18.2142C30.8258 15.1376 29.5359 11.8452 27.1319 9.81261C26.0076 8.85903 24.6425 8.15137 23.2523 7.79503C22.1833 7.51899 20.7529 7.42865 19.7039 7.55914ZM21.7968 8.34208C24.4367 8.6382 26.7605 10.0485 28.236 12.2618C29.4406 14.0636 29.9424 16.4225 29.571 18.5304C28.9788 21.9232 26.3489 26.2795 22.0929 30.927C21.7014 31.3536 21.2648 31.8154 21.1243 31.9559L20.8683 32.2018L20.6124 31.9559C20.4718 31.8154 20.0352 31.3536 19.6437 30.927C15.3726 26.2595 12.7929 21.9834 12.1555 18.5053C12.02 17.7575 12.0301 16.3472 12.1756 15.5592C12.6976 12.7737 14.4341 10.4801 16.9787 9.20533C18.4291 8.47759 20.1908 8.16642 21.7968 8.34208Z" fill="white"/>
<path d="M20.292 12.7433C19.9909 12.7834 19.3836 12.9541 19.0925 13.0846C16.6734 14.1536 15.7299 17.1197 17.085 19.3933C17.4112 19.9353 18.0586 20.5828 18.6007 20.909C20.3372 21.9429 22.5606 21.6668 23.9859 20.2415C24.5481 19.6794 24.9445 18.9717 25.1654 18.1486C25.3009 17.6317 25.2959 16.5827 25.1503 16.0457C24.6886 14.3393 23.3335 13.0795 21.6471 12.7834C21.2406 12.7132 20.6534 12.6981 20.292 12.7433ZM21.5317 13.5814C22.0436 13.6818 22.41 13.8274 22.8366 14.1084C23.3435 14.4397 23.8203 14.9717 24.0763 15.4836C24.3824 16.1059 24.4577 16.4372 24.4527 17.1749C24.4477 17.712 24.4276 17.8625 24.3172 18.2038C24.1265 18.781 23.8655 19.1976 23.4037 19.6593C22.942 20.121 22.5254 20.382 21.9483 20.5727C21.607 20.6831 21.4564 20.7032 20.9194 20.7082C20.1816 20.7133 19.8504 20.638 19.228 20.3318C18.5003 19.9705 17.7876 19.1875 17.5066 18.4397C17.1201 17.4159 17.2105 16.2364 17.7425 15.318C17.9783 14.9164 18.6358 14.2489 19.0273 14.0181C19.7902 13.5714 20.6735 13.4158 21.5317 13.5814Z" fill="white"/>
</g>
<defs>
<clipPath id="clip0_2_143">
<rect width="40" height="40" fill="white" transform="translate(0.5 0.5)"/>
</clipPath>
</defs>
</svg>
