<svg width="80" height="79" viewBox="0 0 80 79" fill="none" xmlns="http://www.w3.org/2000/svg">
<path d="M0.5 39.5C0.5 17.6848 18.1848 0 40 0C61.8152 0 79.5 17.6848 79.5 39.5C79.5 61.3152 61.8152 79 40 79C18.1848 79 0.5 61.3152 0.5 39.5Z" fill="#F0EFFF"/>
<g clip-path="url(#clip0_1_1933)">
<path d="M38.9465 19.5721C37.9556 19.6813 37.2534 19.7984 36.6058 19.9622C34.226 20.5552 32.0958 21.7646 30.3246 23.5436C27.9292 25.9391 26.5559 28.9743 26.3375 32.384C26.2828 33.1643 26.275 33.1877 26.08 33.2267C24.535 33.5623 23.5285 34.2723 22.9901 35.4036C22.522 36.4024 22.522 36.3868 22.522 41.2556C22.522 45.2584 22.5376 45.7499 22.6624 46.2025C23.0994 47.7865 24.1917 48.8398 25.7835 49.2065C26.1736 49.3002 26.7354 49.3313 27.937 49.3313H29.56L29.755 49.1363C29.8643 49.0271 29.9735 48.832 30.0047 48.6993C30.0671 48.3794 30.0671 34.1318 30.0047 33.8119C29.9735 33.6793 29.8643 33.4842 29.7628 33.375C29.5834 33.1955 29.5053 33.1799 28.6939 33.1643L27.8278 33.1409L27.8512 32.5167C27.9448 30.2773 28.7563 27.9521 30.1061 26.0561C31.019 24.7765 32.6654 23.3096 34.0855 22.5137C35.7397 21.593 38.018 21.0078 39.9608 21.0078C41.9037 21.0078 44.1821 21.593 45.8363 22.5137C47.2563 23.3096 48.9027 24.7765 49.8156 26.0561C51.1655 27.9521 51.977 30.2773 52.0705 32.5167L52.094 33.1409L51.2279 33.1643C50.4086 33.1799 50.3384 33.1955 50.159 33.3828C50.0341 33.5076 49.9404 33.7105 49.9093 33.9055C49.8858 34.085 49.8702 37.5259 49.8858 41.5522L49.9093 48.8788L50.1667 49.1051C50.4164 49.3235 50.4398 49.3313 51.2747 49.3313H52.1252L52.0862 49.7371C51.8677 51.9921 51.3372 53.3653 50.3072 54.3094C49.2928 55.2302 47.5684 55.7842 45.2588 55.9324L44.4318 55.987L44.3849 55.5032C44.3225 54.9259 44.1977 54.6606 43.8309 54.3407C43.4018 53.9662 43.0039 53.9193 40.2105 53.9505C37.9713 53.974 37.7137 53.9895 37.464 54.1222C37.0817 54.325 36.9257 54.4811 36.754 54.8088C36.6214 55.0663 36.6058 55.2848 36.6058 56.697C36.6058 58.3903 36.6369 58.5931 36.9803 58.9599C37.4484 59.4592 37.5342 59.4748 40.507 59.4748C43.1521 59.4748 43.2146 59.4748 43.5501 59.2953C44.0417 59.0534 44.3303 58.6087 44.3849 58.0079L44.4318 57.532L44.8297 57.4929C45.0482 57.4695 45.6334 57.4149 46.1249 57.3681C49.4879 57.0482 51.5478 55.8855 52.6401 53.7008C53.1317 52.7177 53.3971 51.7112 53.5609 50.1974L53.6545 49.3002L54.2085 49.1675C55.7846 48.7774 56.8302 47.763 57.2672 46.1947C57.3841 45.75 57.3998 45.2428 57.3998 41.2166C57.3998 37.1047 57.3841 36.6911 57.2593 36.2229C56.7912 34.5844 55.7144 33.6325 53.8418 33.2267C53.6467 33.1877 53.6389 33.1643 53.5843 32.384C53.1707 25.9625 48.4736 20.7581 42.1456 19.7125C41.4824 19.6033 39.4537 19.5097 38.9465 19.5721ZM28.491 41.2166V47.8489H27.7341C25.4089 47.8411 24.3556 47.1778 24.0513 45.5471C23.9342 44.9229 23.9342 37.5104 24.0513 36.8861C24.2229 35.9498 24.7145 35.2788 25.4948 34.9199C25.9941 34.6936 26.5637 34.6078 27.6561 34.5921L28.491 34.5844V41.2166ZM54.1617 34.8496C54.9576 35.1461 55.5427 35.747 55.7769 36.5194C55.9017 36.9252 55.9173 37.3465 55.9017 41.2166C55.886 45.274 55.8782 45.4925 55.7222 45.9996C55.5818 46.4444 55.4803 46.6161 55.1136 46.9906C54.466 47.646 54.0524 47.7865 52.5856 47.8332L51.4307 47.8645V41.2556V34.6468L52.6245 34.6858C53.4595 34.7092 53.912 34.756 54.1617 34.8496ZM42.8479 56.7439V57.9923H40.4681H38.0882V56.7439V55.4954H40.4681H42.8479V56.7439Z" fill="#3C2FC0"/>
</g>
<defs>
<clipPath id="clip0_1_1933">
<rect width="34.9558" height="39.9495" fill="white" transform="translate(22.522 19.5253)"/>
</clipPath>
</defs>
</svg>
