<svg width="80" height="79" viewBox="0 0 80 79" fill="none" xmlns="http://www.w3.org/2000/svg">
<path d="M0.5 39.5C0.5 17.6848 18.1848 0 40 0C61.8152 0 79.5 17.6848 79.5 39.5C79.5 61.3152 61.8152 79 40 79C18.1848 79 0.5 61.3152 0.5 39.5Z" fill="#F0EFFF"/>
<g clip-path="url(#clip0_1_1940)">
<path d="M26.1715 19.7395C26.012 19.8991 25.9588 20.0764 25.9145 20.5994C25.8081 21.8139 25.3116 22.8954 24.4606 23.7464C23.6185 24.5886 22.5547 25.0761 21.3491 25.1825C20.8083 25.2268 20.631 25.28 20.4715 25.4396L20.2676 25.6435V28.9323V32.2212L20.4892 32.4339C20.7729 32.7265 21.1807 32.7265 21.4643 32.4339L21.686 32.2212V29.3756V26.5388H21.943C22.3685 26.5388 23.5476 26.131 24.1504 25.7676C25.7372 24.8279 27.058 22.9575 27.2442 21.3884L27.2974 20.954H30.6571H34.0169L34.2296 20.7324C34.3715 20.5994 34.4513 20.4133 34.4513 20.2448C34.4513 20.0764 34.3715 19.8902 34.2296 19.7573L34.0169 19.5356H30.1962H26.3754L26.1715 19.7395Z" fill="#3C2FC0"/>
<path d="M36.8527 19.6865C36.7463 19.7752 36.64 19.9968 36.6134 20.1741C36.5691 20.44 36.5956 20.5376 36.7818 20.7237L37.0123 20.9542H44.9817H52.9512L53.0044 21.3886C53.1817 22.9222 54.4937 24.8104 56.0273 25.7323C56.6212 26.0869 57.8712 26.539 58.2878 26.539H58.5803L58.536 30.4573C58.5006 33.3472 58.4562 34.6503 58.3499 35.4038C57.7648 39.6501 56.4085 43.329 54.1125 46.8926C53.5274 47.7968 53.4831 48.0716 53.8288 48.3908C54.1568 48.6922 54.5291 48.6833 54.8217 48.3642C55.1763 47.983 56.4705 45.7934 57.0556 44.5789C58.1903 42.2475 59.0413 39.6678 59.4934 37.2566C59.8657 35.2265 59.9101 34.5528 59.9544 30.0672L59.9987 25.6614L59.786 25.4487C59.6175 25.2802 59.4491 25.227 58.8906 25.1827C56.3641 24.97 54.3075 22.7803 54.3075 20.3159C54.3075 20.0677 54.2455 19.9081 54.0859 19.7574L53.8731 19.5358H45.4604C37.5708 19.5358 37.03 19.5447 36.8527 19.6865Z" fill="#3C2FC0"/>
<path d="M38.8921 27.4699C37.323 27.8156 35.816 28.9858 35.0891 30.4396C34.5838 31.4502 34.4508 32.1328 34.4508 33.7816V35.1379H33.9544C33.6796 35.1379 33.2895 35.1823 33.0856 35.2443C32.5981 35.3862 31.8623 36.1219 31.7204 36.6095C31.5697 37.1325 31.5697 45.1995 31.7204 45.7225C31.8623 46.2101 32.5981 46.9459 33.0856 47.0877C33.3604 47.1675 35.1511 47.1941 40.142 47.1941C47.7569 47.1941 47.3757 47.2295 48.0405 46.4849C48.2533 46.2544 48.4749 45.8998 48.5281 45.7048C48.6788 45.2084 48.6788 37.1237 48.5281 36.6272C48.4749 36.4322 48.2533 36.0776 48.0405 35.8471C47.5884 35.3507 47.0831 35.1379 46.3208 35.1379H45.8155L45.78 33.5157C45.7446 32.186 45.7002 31.8048 45.5495 31.3261C44.6365 28.5337 41.7377 26.8582 38.8921 27.4699ZM40.8335 28.8439C42.0834 29.0389 43.3067 29.9077 43.8475 30.9804C44.2553 31.7782 44.3794 32.443 44.3794 33.8703V35.1379H40.1243H35.8692V33.8703C35.8692 32.443 35.9933 31.7782 36.4011 30.9804C37.0305 29.7215 38.4932 28.8351 40.0356 28.7641C40.1597 28.7641 40.5143 28.7996 40.8335 28.8439ZM46.9945 36.7779L47.2161 36.9907V41.166V45.3413L46.9945 45.5541L46.7817 45.7757H40.1243H33.4668L33.2541 45.5541L33.0324 45.3413V41.166V36.9907L33.2541 36.7779L33.4668 36.5563H40.1243H46.7817L46.9945 36.7779Z" fill="#3C2FC0"/>
<path d="M39.3803 38.4623C38.9726 38.6041 38.485 39.0473 38.2634 39.4817C37.7669 40.4568 38.0772 41.6802 38.9726 42.2298C39.3271 42.4514 39.3271 42.4514 39.3271 43.0099C39.3271 43.4797 39.3626 43.6038 39.5488 43.7811C39.7792 44.0205 40.0009 44.056 40.3289 43.9053C40.6125 43.7723 40.7455 43.4709 40.7455 42.939C40.7455 42.5135 40.7632 42.4957 41.0912 42.3273C41.5877 42.0702 42.0398 41.5029 42.1639 40.971C42.5628 39.3222 40.976 37.8861 39.3803 38.4623ZM40.5771 39.9161C40.7366 40.0402 40.7898 40.1732 40.7898 40.4568C40.7898 40.8912 40.5328 41.166 40.125 41.166C39.7172 41.166 39.4601 40.8912 39.4601 40.4568C39.4601 40.0225 39.7172 39.7477 40.125 39.7477C40.2579 39.7477 40.4618 39.8274 40.5771 39.9161Z" fill="#3C2FC0"/>
<path d="M20.9768 34.8454C20.4981 35.0315 20.4449 35.3329 20.6665 36.7336C21.553 42.2563 24.4341 47.9121 28.4587 52.0608C31.5436 55.2344 35.0186 57.4683 38.8748 58.7537L40.3287 59.2324L41.0467 58.9753C45.0802 57.4861 48.4931 55.3142 51.5426 52.2824C52.6862 51.1389 52.8014 50.997 52.8014 50.7134C52.8014 50.474 52.7394 50.3499 52.5266 50.1726C52.3759 50.0485 52.172 49.9421 52.0745 49.9421C51.9593 49.9421 51.4008 50.4297 50.5498 51.2541C48.6261 53.1423 47.1191 54.3036 44.9738 55.5713C43.4313 56.4666 40.5946 57.7431 40.1159 57.7431C39.8145 57.7431 37.9086 56.9453 36.5345 56.2538C35.1161 55.5269 33.1216 54.2415 31.8805 53.2575C31.4639 52.9296 30.471 51.9987 29.6643 51.192C25.5954 47.1142 23.0423 42.1677 22.0849 36.5119C21.9253 35.5989 21.8101 35.1379 21.7037 35.0315C21.5353 34.8631 21.1718 34.7656 20.9768 34.8454Z" fill="#3C2FC0"/>
</g>
<defs>
<clipPath id="clip0_1_1940">
<rect width="40" height="40" fill="white" transform="translate(20 19.5)"/>
</clipPath>
</defs>
</svg>
