<svg width="29" height="22" viewBox="0 0 29 22" fill="none" xmlns="http://www.w3.org/2000/svg">
<g clip-path="url(#clip0_1_1230)">
<path d="M2.64347 0.946763C1.76842 1.1163 1.00822 1.89292 0.838675 2.80079C0.762108 3.19456 0.762108 19.5744 0.838675 19.9792C1.01369 20.9034 1.76842 21.6582 2.69816 21.8332C3.09741 21.9097 26.4722 21.9097 26.8715 21.8332C27.8013 21.6582 28.556 20.9034 28.7311 19.9792C28.8076 19.5744 28.8076 3.20003 28.7311 2.79532C28.556 1.87104 27.8013 1.1163 26.8715 0.941292C26.505 0.870194 2.99896 0.875664 2.64347 0.946763ZM26.5653 2.08434C26.6692 2.12262 25.4167 3.293 18.2687 9.79028C15.392 12.4099 15.4959 12.3224 15.2498 12.4318C14.9707 12.5631 14.5989 12.5631 14.3145 12.4318C14.1067 12.3388 11.5363 10.0254 5.41083 4.41964C3.34352 2.52733 2.9224 2.11715 3.00443 2.08434C3.14116 2.02965 26.4286 2.02965 26.5653 2.08434ZM6.61403 7.09949C9.14075 9.40197 11.2081 11.3052 11.219 11.3271C11.2245 11.3544 10.7213 11.8247 10.0978 12.3771C8.52274 13.7717 6.59215 15.5492 4.15841 17.8353C3.02084 18.9072 2.07469 19.7877 2.04734 19.7987C2.02 19.8096 1.98718 19.7604 1.96531 19.6893C1.92155 19.5252 1.92155 3.30394 1.96531 3.07971C1.98718 2.98674 2.00906 2.91017 2.01453 2.91017C2.02547 2.91017 4.09278 4.79153 6.61403 7.09949ZM27.6318 11.3599C27.6318 15.8719 27.6207 19.6182 27.6043 19.6893C27.5826 19.7604 27.5497 19.8096 27.5224 19.7987C27.495 19.7877 26.5488 18.9072 25.4112 17.8353C22.9775 15.5492 21.0469 13.7717 19.4718 12.3771C18.8483 11.8247 18.3453 11.3544 18.3507 11.3271C18.3617 11.3052 20.4344 9.3965 22.9611 7.08855C27.134 3.2766 27.5551 2.91017 27.5879 3.02502C27.6098 3.09612 27.6262 6.84791 27.6318 11.3599ZM12.7996 12.7326C13.7347 13.5694 14.32 13.8046 15.1293 13.6788C15.6653 13.5967 16.0591 13.367 16.7755 12.7271C17.3335 12.224 17.4319 12.1584 17.514 12.2185C18.1702 12.7326 21.2056 15.4945 24.3449 18.4369C26.423 20.3839 26.6966 20.6628 26.5872 20.6956C26.5161 20.712 21.2056 20.7284 14.7849 20.7284C8.36414 20.7284 3.05365 20.712 2.98256 20.6956C2.87317 20.6628 3.1521 20.3839 5.22488 18.4369C6.52652 17.2173 8.04693 15.8008 8.60478 15.2921C9.65484 14.3241 12.0996 12.1529 12.1323 12.1529C12.1432 12.1529 12.444 12.4099 12.7996 12.7326Z" fill="white"/>
</g>
<defs>
<clipPath id="clip0_1_1230">
<rect width="28" height="21" fill="white" transform="translate(0.78125 0.890625)"/>
</clipPath>
</defs>
</svg>
