<svg width="27" height="27" viewBox="0 0 27 27" fill="none" xmlns="http://www.w3.org/2000/svg">
<g clip-path="url(#clip0_1_868)">
<path d="M13.0997 26.5C20.2794 26.5 26.0997 20.6797 26.0997 13.5C26.0997 6.3203 20.2794 0.5 13.0997 0.5C5.92003 0.5 0.0997314 6.3203 0.0997314 13.5C0.0997314 20.6797 5.92003 26.5 13.0997 26.5Z" fill="white" fill-opacity="0.2"/>
<path d="M6.64307 8.84174C6.37652 8.92681 6.18653 9.11963 6.12415 9.372C6.1043 9.4599 6.09579 10.7558 6.10146 13.7218L6.10997 17.9469L6.19504 18.1C6.24325 18.1851 6.33115 18.29 6.3907 18.3354C6.63456 18.5112 6.16101 18.4999 13.3549 18.4999C20.5489 18.4999 20.0753 18.5112 20.3192 18.3354C20.3787 18.29 20.4695 18.1851 20.5149 18.1L20.5999 17.9469V13.6509V9.35498L20.5149 9.20186C20.4695 9.11679 20.3787 9.01187 20.3192 8.9665C20.0753 8.7907 20.5517 8.80204 13.3436 8.80487C8.01267 8.80487 6.73948 8.81338 6.64307 8.84174ZM19.5366 9.40886C19.5139 9.42871 18.1897 10.424 16.596 11.6178C14.6536 13.0753 13.664 13.7984 13.5903 13.8183C13.4513 13.858 13.2585 13.858 13.1196 13.8183C13.0458 13.7984 12.0562 13.0753 10.1138 11.6178C8.52024 10.424 7.19601 9.42871 7.17333 9.40886C7.1393 9.37483 8.06371 9.36916 13.3549 9.36916C18.6462 9.36916 19.5706 9.37483 19.5366 9.40886ZM9.72538 12.0205C11.37 13.254 12.7708 14.2861 12.8388 14.3116C12.9069 14.34 13.0487 14.3769 13.1564 14.3939C13.3946 14.4336 13.6867 14.3939 13.9079 14.2918C13.9844 14.2549 15.3966 13.2143 17.0412 11.9808L20.0328 9.73496L20.0413 11.6774C20.0441 12.7464 20.0441 14.496 20.0413 15.5622L20.0328 17.5046L18.459 15.5622C17.5942 14.4931 16.8654 13.6056 16.8399 13.5914C16.7633 13.5517 16.6216 13.5602 16.545 13.6113C16.4656 13.6651 16.4117 13.8012 16.4344 13.8976C16.4457 13.9373 17.1717 14.8589 18.0507 15.945L19.65 17.9186L16.5025 17.9271C14.7699 17.9299 11.94 17.9299 10.2074 17.9271L7.0599 17.9186L8.65919 15.945C9.53823 14.8589 10.2641 13.9373 10.2755 13.8976C10.2981 13.8012 10.2443 13.6651 10.1649 13.6113C10.094 13.5659 9.96357 13.5517 9.88134 13.5829C9.85865 13.5942 9.13274 14.4704 8.27355 15.5338C7.41435 16.5943 6.69978 17.4762 6.68844 17.4904C6.67426 17.5074 6.66292 15.8344 6.66292 13.6254C6.66292 10.5204 6.67142 9.73779 6.69978 9.75481C6.71679 9.76898 8.08072 10.787 9.72538 12.0205Z" fill="white"/>
</g>
<defs>
<clipPath id="clip0_1_868">
<rect width="26" height="26" fill="white" transform="translate(0.0997314 0.5)"/>
</clipPath>
</defs>
</svg>
