<svg width="81" height="81" viewBox="0 0 81 81" fill="none" xmlns="http://www.w3.org/2000/svg">
<g clip-path="url(#clip0_1_494)">
<path d="M40.7188 80.5C62.8101 80.5 80.7188 62.5914 80.7188 40.5C80.7188 18.4086 62.8101 0.5 40.7188 0.5C18.6274 0.5 0.71875 18.4086 0.71875 40.5C0.71875 62.5914 18.6274 80.5 40.7188 80.5Z" fill="url(#paint0_linear_1_494)"/>
<path d="M62.3866 20.4017C62.2363 20.4674 52.1942 24.2062 40.0761 28.7153C27.958 33.2243 17.9723 36.9818 17.8878 37.057C17.7939 37.1415 17.7188 37.3294 17.7188 37.4985C17.7188 37.6676 17.7939 37.8649 17.8878 37.9494C17.9723 38.0245 20.8563 39.3302 24.2945 40.8333C27.7327 42.3456 30.5602 43.6139 30.5884 43.6515C30.6166 43.6985 31.3963 47.6345 32.3169 52.4066C34.1205 61.6877 34.0735 61.4998 34.6277 61.4998C34.8344 61.4998 35.8864 60.5322 40.1138 56.5023C42.9977 53.7499 45.393 51.486 45.4306 51.4671C45.4682 51.4578 47.4878 52.5381 49.9208 53.8908C52.354 55.2341 54.4487 56.3332 54.5709 56.3332C54.693 56.3332 54.862 56.2768 54.9561 56.2111C55.0876 56.1171 56.1115 52.0308 59.3523 38.6633C61.6726 29.0816 63.5984 21.1156 63.6265 20.9559C63.7298 20.3735 63.1005 20.0917 62.3866 20.4017ZM58.1594 23.4453C57.9527 23.652 31.1896 42.3645 31.1049 42.3645C30.9078 42.3645 20.1705 37.5924 20.2363 37.5361C20.2738 37.4985 24.1723 36.0331 28.8974 34.267C33.6225 32.5104 42.1427 29.3446 47.826 27.2216C53.5093 25.0986 58.1781 23.3701 58.2062 23.3608C58.225 23.3608 58.2063 23.3983 58.1594 23.4453ZM61.6351 23.6614C61.6163 23.7271 59.9254 30.7161 57.868 39.1894C55.8203 47.6627 54.1293 54.6141 54.1012 54.6423C54.0824 54.6611 53.9509 54.6235 53.81 54.539C53.6691 54.4638 50.8791 52.9231 47.6101 51.1196C44.341 49.316 41.6824 47.8036 41.7012 47.7566C41.7294 47.6721 61.6068 23.5486 61.6539 23.5486C61.6632 23.5486 61.6632 23.605 61.6351 23.6614ZM49.7799 35.8546C44.5757 42.1673 40.2452 47.4184 40.1606 47.531C40.0761 47.6439 38.8832 50.1708 37.5023 53.1393C36.1214 56.1077 34.9564 58.5689 34.9282 58.6065C34.8907 58.6441 34.1955 55.2435 33.3783 51.0445C32.251 45.2015 31.9317 43.4072 32.0163 43.3603C32.082 43.3227 38.2256 39.0203 45.6655 33.8067C53.1054 28.5931 59.2115 24.3377 59.2209 24.3565C59.2397 24.3659 54.9935 29.5419 49.7799 35.8546ZM42.7816 49.9454C43.5613 50.3775 44.2094 50.7532 44.2001 50.7814C44.2001 50.8096 42.9037 52.059 41.3349 53.562C37.9907 56.7465 36.638 58.0147 36.7132 57.8832C36.7414 57.8268 37.6432 55.9104 38.7141 53.609C41.1658 48.339 40.8841 48.8651 41.1376 49.0342C41.2503 49.0999 41.9925 49.5133 42.7816 49.9454Z" fill="#3C2FC0"/>
</g>
<defs>
<linearGradient id="paint0_linear_1_494" x1="14.7187" y1="2.5" x2="68.7187" y2="84.5" gradientUnits="userSpaceOnUse">
<stop stop-color="#EFEDFF"/>
<stop offset="0.76197" stop-color="#EFEDFF" stop-opacity="0"/>
</linearGradient>
<clipPath id="clip0_1_494">
<rect width="80" height="80" fill="white" transform="translate(0.71875 0.5)"/>
</clipPath>
</defs>
</svg>
