<svg width="40" height="38" viewBox="0 0 40 38" fill="none" xmlns="http://www.w3.org/2000/svg">
<g clip-path="url(#clip0_1_1801)">
<path d="M16.048 0.0722755C15.6406 0.131685 15.3605 0.394789 15.3605 0.691843C15.3605 0.793692 15.6236 1.33688 15.9546 1.89704C17.0919 3.87457 17.7115 5.41076 18.0849 7.20157C18.2886 8.16912 18.3565 10.274 18.2207 11.3688L18.1528 11.9375L17.4993 12.3618C14.5118 14.3394 12.4664 17.7088 11.9402 21.545C11.8553 22.1646 11.7959 22.3428 11.7025 22.3174C11.6346 22.3004 11.3376 22.2155 11.032 22.1307C8.69804 21.4347 5.61716 21.6554 3.64812 22.6484C2.53629 23.2085 1.58572 24.1846 1.35656 25.0078C1.22925 25.4916 1.25471 26.2555 1.42446 26.6968C1.57723 27.0872 1.57723 27.1212 1.43295 27.5286C1.22925 28.0887 1.22925 28.9035 1.42446 29.4127C1.57723 29.8031 1.57723 29.8371 1.43295 30.2445C1.22925 30.8046 1.22925 31.6194 1.42446 32.1287C1.57723 32.5191 1.57723 32.553 1.43295 32.9604C1.22076 33.5545 1.22925 34.3269 1.45841 34.9295C1.5942 35.3029 1.78092 35.566 2.23924 36.0243C3.85181 37.6369 7.07697 38.3668 10.0815 37.7981C10.9726 37.6284 12.0929 37.2465 12.6786 36.9155L13.1284 36.6609L13.4424 36.8815C13.9092 37.1871 14.6391 37.5435 15.3181 37.7642L15.9122 37.9679L24.5692 37.9934C32.2417 38.0103 33.3026 38.0018 33.8967 37.883C36.5447 37.3483 38.4459 35.4047 38.9127 32.7737C39.0994 31.7298 39.1758 28.4452 39.0485 26.8496C38.6411 21.6893 37.0115 17.1486 34.5587 14.3478C34.0749 13.7877 33.0056 12.8541 32.3181 12.3873L31.9192 12.1242L32.369 11.4197C33.3111 9.97691 33.9561 8.44071 34.2447 6.92998C34.4144 6.05579 34.4993 4.18859 34.4144 3.17012L34.355 2.40627L33.9476 2.00737C32.8952 0.988897 30.5103 0.250505 27.7095 0.0807594C26.0969 -0.0210854 25.2397 0.0553001 25.0275 0.318403C24.7984 0.598482 24.8238 0.759741 25.1973 1.5915C25.8423 3.02584 26.1309 4.39229 25.9866 5.37681C25.9357 5.75025 25.8932 5.84361 25.8508 5.7163C25.3416 4.34137 24.8663 3.52659 24.1279 2.70333C22.8208 1.27747 20.9876 0.369326 18.8149 0.0807594C18.0849 -0.0210854 16.6336 -0.0295731 16.048 0.0722755ZM19.5957 1.59998C22.8293 2.38081 24.8663 4.99488 24.8663 8.37281C24.8663 9.00936 24.8832 9.09423 25.0785 9.28095C25.2906 9.50162 25.6131 9.55254 25.8932 9.40826C26.1054 9.28944 26.6741 8.16063 26.9881 7.21006C27.5398 5.57202 27.5228 4.02734 26.9457 2.29594C26.7844 1.81216 26.6486 1.41326 26.6486 1.40477C26.6486 1.33688 28.8892 1.5236 29.4918 1.63393C31.045 1.9225 32.6661 2.55056 32.9631 2.97492C33.2602 3.39928 33.0904 6.12369 32.6746 7.62593C32.4369 8.47466 31.7155 9.96842 31.0874 10.902L30.5782 11.6574L29.6955 11.9884C27.7689 12.7013 26.3091 12.939 24.3231 12.8626C22.719 12.8032 21.1998 12.4806 19.9182 11.929C19.5702 11.7847 19.5108 11.7338 19.5532 11.581C19.5872 11.4792 19.6296 10.902 19.6636 10.2909C19.7909 7.6514 19.1459 4.99488 17.72 2.28745L17.2108 1.3199L18.051 1.37083C18.5093 1.40477 19.2053 1.50662 19.5957 1.59998ZM20.0879 13.4397C20.5632 13.601 21.4204 13.8471 21.9976 13.9744C22.9566 14.1866 23.1858 14.2036 24.9087 14.1951C27.0645 14.1951 27.735 14.0847 29.687 13.4312L30.8243 13.0493L31.5118 13.4991C32.9716 14.4412 34.5757 16.3169 35.399 18.0398C36.9691 21.3329 37.7669 25.0503 37.7669 29.1072C37.7669 30.932 37.6311 32.5276 37.4274 33.1896C36.9182 34.8446 35.4838 36.1431 33.7609 36.5251C33.2092 36.6439 32.1823 36.6524 24.6117 36.6354L16.082 36.6099L15.4539 36.3808C15.1144 36.2535 14.69 36.0583 14.5118 35.9394L14.1978 35.7357L14.4948 35.1247C14.8513 34.4117 14.9022 33.7667 14.6476 32.9859C14.4948 32.5276 14.4948 32.4936 14.6391 32.1117C14.8428 31.6024 14.8428 30.8725 14.6476 30.2699C14.4948 29.8116 14.4948 29.7777 14.6391 29.3958C14.8428 28.8865 14.8428 28.1566 14.6476 27.554C14.5033 27.1127 14.5033 27.0363 14.6137 26.7477C15.072 25.602 14.6985 24.3798 13.5952 23.4207L13.1284 23.0048L13.2302 22.1731C13.5612 19.4317 14.4694 17.2759 16.0989 15.3833C16.9816 14.3563 18.7724 12.9899 19.0949 13.0917C19.1628 13.1087 19.6127 13.27 20.0879 13.4397ZM9.68256 23.2085C12.1269 23.6329 13.7395 24.889 13.4085 26.1197C13.1623 27.0533 11.7195 27.9444 9.80138 28.3433C9.02904 28.5131 6.97513 28.4876 6.10943 28.3009C3.56325 27.7662 2.15436 26.4337 2.76545 25.1436C3.18132 24.2779 4.82785 23.4207 6.58471 23.1661C7.41646 23.0473 8.83384 23.0643 9.68256 23.2085ZM3.15586 28.6149C5.68506 30.2105 10.0815 30.253 12.755 28.7083C13.1284 28.4961 13.4424 28.3433 13.4679 28.3603C13.5612 28.4622 13.3575 29.0648 13.1199 29.3788C12.0166 30.8471 8.82535 31.577 6.04153 30.9998C4.13189 30.6094 2.62965 29.5485 2.62965 28.6064C2.62965 28.4537 2.64662 28.3348 2.67209 28.3348C2.68906 28.3348 2.90973 28.4622 3.15586 28.6149ZM2.87578 31.1696C3.08796 31.3648 4.14887 31.8655 4.74298 32.0608C7.39949 32.9265 10.8283 32.6294 12.9247 31.3393C13.1963 31.1696 13.4424 31.0508 13.4594 31.0762C13.5612 31.1781 13.366 31.7722 13.1199 32.0947C12.0166 33.563 8.82535 34.2929 6.04153 33.7158C4.13189 33.3254 2.62965 32.2645 2.62965 31.3224C2.62965 31.0253 2.68057 30.9914 2.87578 31.1696ZM2.97763 33.9449C3.11342 34.0383 3.53779 34.259 3.91971 34.4457C6.56774 35.6763 10.5822 35.4981 12.9162 34.0553C13.1963 33.8855 13.4424 33.7667 13.4594 33.7922C13.5612 33.8855 13.3745 34.4711 13.1454 34.7852C12.4749 35.7103 10.9217 36.3723 8.95266 36.5845C6.39799 36.8476 3.61417 35.9734 2.84183 34.6663C2.65511 34.3438 2.54478 33.7667 2.68057 33.7667C2.70603 33.7667 2.84183 33.8431 2.97763 33.9449Z" fill="#3C2FC0"/>
<path d="M24.0593 17.0463C20.885 17.3857 18.0503 19.5415 16.8196 22.563C16.3783 23.6493 16.251 24.4047 16.251 25.8306C16.2595 26.8575 16.2934 27.2479 16.4462 27.859C17.9909 34.0377 25.2984 36.6264 30.3568 32.7731C32.0033 31.5255 33.2 29.6329 33.6159 27.6214C33.8196 26.6708 33.8366 25.0752 33.6583 24.1755C32.92 20.3393 29.8221 17.4876 25.9434 17.0547C25.0608 16.9529 24.9504 16.9529 24.0593 17.0463ZM26.6224 18.5315C29.4572 19.185 31.7148 21.4681 32.3004 24.2774C32.4532 24.9903 32.4616 26.4247 32.3343 27.1546C32.0882 28.5041 31.4007 29.845 30.4332 30.855C29.4062 31.9414 28.252 32.6373 26.8346 33.0193C25.884 33.2739 24.1526 33.2739 23.202 33.0193C19.9769 32.1536 17.7787 29.4801 17.592 26.2125C17.4562 23.7512 18.4916 21.4511 20.4097 19.9574C22.1666 18.574 24.4921 18.0477 26.6224 18.5315Z" fill="#3C2FC0"/>
<path d="M24.7127 19.5501C24.4157 19.6774 24.3563 19.8132 24.3563 20.3649C24.3563 20.7468 24.3393 20.7807 24.1271 20.8316C23.7112 20.9335 23.0747 21.29 22.6928 21.6464C21.5724 22.6819 21.5555 24.4557 22.6588 25.5251C23.2105 26.0598 23.9234 26.3653 24.8231 26.4587C25.7057 26.5521 25.9179 26.62 26.2914 26.934C27.0382 27.5536 26.9958 28.5381 26.2065 29.1152C25.5105 29.6414 24.5769 29.6584 23.8385 29.1577C23.4821 28.92 23.168 28.3853 23.168 28.0119C23.168 27.4347 22.4975 27.1122 22.0562 27.4772C21.878 27.613 21.8525 27.7148 21.861 28.1392C21.8695 28.8436 22.1411 29.4208 22.7522 29.9809C23.185 30.3798 23.9574 30.7957 24.2714 30.7957C24.3223 30.7957 24.3563 30.9994 24.3563 31.254C24.3563 31.7887 24.5175 32.0433 24.9164 32.1197C25.1201 32.1537 25.2304 32.1197 25.4172 31.9669C25.6124 31.7972 25.6633 31.6699 25.6972 31.2795C25.7142 30.9994 25.7736 30.7957 25.833 30.7957C25.884 30.7957 26.1725 30.6769 26.4781 30.5326C27.8785 29.8791 28.515 28.4023 27.9973 27.0189C27.5984 25.941 26.2829 25.1092 24.9758 25.1092C24.178 25.1092 23.3208 24.5151 23.202 23.8786C22.9219 22.3594 25.1371 21.4682 26.3762 22.597C26.6393 22.8346 26.8176 23.1826 26.8176 23.4542C26.8176 24.1247 27.4541 24.4812 27.9549 24.0823C28.1416 23.938 28.1755 23.8361 28.1755 23.5051C28.1755 22.3933 27.3183 21.3154 26.1216 20.8995C25.7312 20.7722 25.7312 20.7722 25.6972 20.3139C25.6378 19.6095 25.2644 19.3209 24.7127 19.5501Z" fill="#3C2FC0"/>
</g>
<defs>
<clipPath id="clip0_1_1801">
<rect width="39" height="38" fill="white" transform="translate(0.5)"/>
</clipPath>
</defs>
</svg>
