<svg width="41" height="39" viewBox="0 0 41 39" fill="none" xmlns="http://www.w3.org/2000/svg">
<g clip-path="url(#clip0_1_1814)">
<path d="M2.55968 0.929394C1.82709 1.1065 1.1911 1.60563 0.804675 2.30602L0.530959 2.8132L0.506807 16.1931C0.490706 29.5408 0.490706 29.573 0.651716 30.0158C0.861028 30.5712 1.39236 31.167 1.95589 31.4729L2.38257 31.7144L8.35602 31.7386C12.1478 31.7466 14.3375 31.7869 14.3375 31.8352C14.3375 31.8835 13.9511 32.6966 13.4761 33.6465L12.6067 35.3774H11.23C9.33818 35.3774 9.46699 35.2405 9.46699 37.1887C9.46699 38.67 9.46699 38.6942 9.6602 38.8471C9.84536 38.992 10.1271 39.0001 20.3754 39.0001C30.6236 39.0001 30.9054 38.992 31.0906 38.8471C31.2838 38.6942 31.2838 38.67 31.2838 37.1887C31.2838 35.2405 31.4126 35.3774 29.5207 35.3774H28.1441L27.2746 33.6465C26.7997 32.6966 26.4132 31.8835 26.4132 31.8352C26.4132 31.7869 28.603 31.7466 32.3948 31.7386L38.3682 31.7144L38.7949 31.4729C39.3584 31.167 39.8897 30.5712 40.0991 30.0158C40.2601 29.573 40.2601 29.5408 40.244 16.1931L40.2198 2.8132L39.9461 2.30602C39.6402 1.74249 39.2055 1.33996 38.6017 1.06625L38.2072 0.881088L20.5364 0.86499C10.3525 0.86499 2.73679 0.889141 2.55968 0.929394ZM38.1428 2.05645C38.4165 2.16111 38.8593 2.57169 39.0364 2.8937C39.1652 3.11912 39.1733 4.06908 39.1974 14.3817L39.2135 25.6363H20.3754H1.53727L1.55337 14.3817C1.57752 1.9679 1.53727 2.95811 2.07665 2.41873C2.54358 1.94375 1.3038 1.97595 20.3512 1.9679C32.5477 1.9679 37.9818 1.99205 38.1428 2.05645ZM39.2135 27.987C39.2135 28.6633 39.1733 29.3637 39.125 29.5408C39.0042 29.9594 38.4648 30.4988 38.0462 30.6196C37.5954 30.7403 3.16347 30.7484 2.70459 30.6196C2.26181 30.4988 1.74658 29.9514 1.63387 29.4764C1.57752 29.2751 1.53727 28.5828 1.53727 27.9387V26.7634H20.3754H39.2135V27.987ZM25.9946 33.5177C26.4857 34.4838 26.8963 35.2969 26.8963 35.3291C26.8963 35.3532 23.9578 35.3774 20.3673 35.3774C16.3018 35.3774 13.8545 35.3452 13.8706 35.3049C13.8867 35.2566 14.2973 34.4435 14.7803 33.4936L15.6659 31.7547H20.3754H25.0849L25.9946 33.5177ZM30.197 37.1887V37.873H20.3754H10.5538V37.1887V36.5045H20.3754H30.197V37.1887Z" fill="#3C2FC0"/>
<path d="M9.41043 4.06137C7.09994 4.47999 5.26444 5.86467 4.28228 7.9256C3.79925 8.92386 3.62214 9.7128 3.62214 10.8318C3.61409 12.8283 4.32253 14.5109 5.73941 15.8634C7.05969 17.1273 8.61343 17.7472 10.4811 17.7472C12.8721 17.7472 14.9572 16.6201 16.2694 14.6236C18.7892 10.7835 16.8249 5.55876 12.365 4.26263C11.568 4.02917 10.1028 3.93256 9.41043 4.06137ZM10.0706 7.9095V10.703L8.09015 12.6754L6.11779 14.6477L5.88432 14.374C5.5462 13.9795 5.12758 13.1342 4.91021 12.4339C4.75726 11.9508 4.72505 11.6449 4.72505 10.9043C4.717 9.80136 4.85386 9.22977 5.33689 8.24762C5.79577 7.30571 6.83428 6.2511 7.79229 5.76002C8.44437 5.42995 9.41848 5.12403 9.85321 5.11598L10.0706 5.10793V7.9095ZM12.3247 5.4058C13.7818 5.88078 15.0458 6.98369 15.7059 8.36837C15.9313 8.8353 16.2694 9.96237 16.2694 10.2361C16.2694 10.3246 15.8025 10.3407 13.7335 10.3407H11.1976V7.72434V5.10793L11.4633 5.15623C11.6002 5.18843 11.9946 5.29309 12.3247 5.4058ZM16.2694 11.5242C16.2694 11.7898 16.0279 12.6834 15.8508 13.102C15.1665 14.7282 13.6208 16.0646 11.9222 16.5154C11.1171 16.7328 9.71635 16.7087 8.9435 16.4671C8.33167 16.282 7.45417 15.8553 7.09189 15.5735L6.89063 15.4206L8.90325 13.3999L10.9159 11.3873H13.5886C16.0923 11.3873 16.2694 11.3953 16.2694 11.5242Z" fill="#3C2FC0"/>
<path d="M28.1844 8.328C28.0234 8.489 28.0234 8.59366 28.0234 15.8955C28.0234 23.1972 28.0234 23.3019 28.1844 23.4629C28.3374 23.6159 28.4501 23.6239 30.0683 23.6239H31.7991L31.9601 23.4146C32.1292 23.1972 32.1292 23.165 32.1292 15.8794V8.56146L31.9279 8.36825C31.7347 8.16699 31.7347 8.16699 30.0361 8.16699C28.4501 8.16699 28.3374 8.17504 28.1844 8.328ZM31.0021 15.8955V22.4969H30.0361H29.07V15.8955V9.29405H30.0361H31.0021V15.8955Z" fill="#3C2FC0"/>
<path d="M18.121 14.6075C17.968 14.7604 17.96 14.8732 17.96 19.0191C17.96 23.1893 17.96 23.2779 18.121 23.4469C18.282 23.616 18.3383 23.624 20.0128 23.624C21.639 23.624 21.7517 23.616 21.9047 23.463C22.0577 23.3101 22.0657 23.1973 22.0657 19.0353C22.0657 14.8732 22.0577 14.7604 21.9047 14.6075C21.7517 14.4545 21.639 14.4465 20.0128 14.4465C18.3866 14.4465 18.2739 14.4545 18.121 14.6075ZM20.9386 18.995V22.497H20.0128H19.087V18.995V15.493H20.0128H20.9386V18.995Z" fill="#3C2FC0"/>
<path d="M33.2884 14.5109C33.0307 14.6799 33.0146 14.9295 33.0146 19.0594C33.0146 23.1249 33.0147 23.2054 33.1838 23.4147L33.3447 23.624H35.0756C36.6937 23.624 36.8064 23.616 36.9594 23.463C37.1123 23.3101 37.1204 23.1973 37.1204 19.0514C37.1204 15.3401 37.1043 14.7846 36.9916 14.6236C36.8708 14.4465 36.8387 14.4465 35.124 14.4465C34.166 14.4465 33.3367 14.4787 33.2884 14.5109ZM36.0578 19.0111L36.0738 22.497H35.1078H34.1418V18.995V15.485L35.0918 15.5091L36.0336 15.5333L36.0578 19.0111Z" fill="#3C2FC0"/>
<path d="M23.1854 18.3028L22.9922 18.4557V20.887V23.3182L23.1854 23.4712C23.3545 23.608 23.5155 23.6241 25.037 23.6241C26.4136 23.6241 26.7276 23.6 26.8806 23.4953C27.0577 23.3746 27.0577 23.3665 27.0577 20.9353C27.0577 18.9629 27.0335 18.4718 26.945 18.343C26.8403 18.1981 26.7035 18.1901 25.1095 18.1659C23.4913 18.1417 23.3706 18.1498 23.1854 18.3028ZM26.0111 20.887V22.4971H25.0451H24.079V20.887V19.2769H25.0451H26.0111V20.887Z" fill="#3C2FC0"/>
<path d="M3.91197 20.4195C3.68656 20.5483 3.63021 20.6449 3.63021 20.9427C3.63021 21.4741 3.38869 21.4499 9.49095 21.4499H14.9894L15.1907 21.2406C15.3517 21.0877 15.3839 20.9911 15.3437 20.822C15.2309 20.339 15.553 20.3631 9.56341 20.347C5.55427 20.3309 4.03273 20.347 3.91197 20.4195Z" fill="#3C2FC0"/>
<path d="M3.95191 22.5854C3.70234 22.6901 3.62989 22.7947 3.62989 23.1167C3.62989 23.6239 3.60574 23.6239 7.39751 23.6239H10.8029L10.9961 23.4227C11.2376 23.1892 11.2537 22.9799 11.0444 22.7303L10.8914 22.5371L7.51827 22.521C5.41709 22.513 4.08071 22.5371 3.95191 22.5854Z" fill="#3C2FC0"/>
<path d="M19.8923 28.3491C19.4334 28.9288 20.2062 29.6533 20.7859 29.1864C21.0193 29.0012 21.0354 28.5343 20.8181 28.2928C20.5927 28.0432 20.1096 28.0754 19.8923 28.3491Z" fill="#3C2FC0"/>
</g>
<defs>
<clipPath id="clip0_1_1814">
<rect width="40" height="39" fill="white" transform="translate(0.5)"/>
</clipPath>
</defs>
</svg>
