<svg width="81" height="81" viewBox="0 0 81 81" fill="none" xmlns="http://www.w3.org/2000/svg">
<g clip-path="url(#clip0_1_500)">
<path d="M40.7656 80.5C62.857 80.5 80.7656 62.5914 80.7656 40.5C80.7656 18.4086 62.857 0.5 40.7656 0.5C18.6742 0.5 0.765625 18.4086 0.765625 40.5C0.765625 62.5914 18.6742 80.5 40.7656 80.5Z" fill="url(#paint0_linear_1_500)"/>
<path d="M36.6047 20.6009C35.9087 20.9849 36.2047 22.0887 36.9966 22.0887C37.4046 22.0887 37.7965 21.6968 37.7965 21.2968C37.7965 20.6969 37.1326 20.3049 36.6047 20.6009Z" fill="#3C2FC0"/>
<path d="M32.2771 21.2568C26.5897 23.1446 22.5342 28.1841 21.8863 34.1834C21.2783 39.6949 23.894 45.2143 28.5975 48.3579C30.1654 49.4138 32.2451 50.2617 34.1969 50.6617C35.0128 50.8217 35.3408 50.8457 37.0766 50.8457C38.8924 50.8377 39.1084 50.8217 40.0363 50.6297C41.7321 50.2617 43.6599 49.5018 44.9558 48.6939L45.2757 48.4939L51.723 54.9332C57.9144 61.1245 58.1783 61.3805 58.5063 61.4205L58.8503 61.4685L60.8101 59.5007L62.7778 57.5409L62.7298 57.197C62.6899 56.869 62.4339 56.605 56.2425 50.4137L49.8032 43.9664L50.0032 43.6464C50.8111 42.3586 51.5711 40.4308 51.939 38.727C52.139 37.7831 52.155 37.6151 52.147 35.6873C52.139 33.8075 52.123 33.5755 51.939 32.7276L51.731 31.8077L53.1709 30.3599L54.6187 28.904L54.9867 29.08C55.2907 29.216 55.5066 29.248 56.2345 29.248C57.0425 29.248 57.1545 29.232 57.5944 29.016C58.2103 28.712 58.8183 28.1041 59.1222 27.4882C59.3382 27.0482 59.3542 26.9362 59.3542 26.1283C59.3542 25.3204 59.3382 25.2084 59.1222 24.7685C58.8183 24.1525 58.2103 23.5446 57.5944 23.2406C57.1545 23.0247 57.0425 23.0087 56.2345 23.0087C55.4266 23.0087 55.3146 23.0247 54.8747 23.2406C54.2588 23.5446 53.6508 24.1525 53.3469 24.7685C53.1309 25.2084 53.1149 25.3204 53.1149 26.1283C53.1149 26.8562 53.1469 27.0722 53.2829 27.3762L53.4588 27.7441L52.307 28.896C51.675 29.528 51.1471 30.0239 51.1391 30.0079C51.1231 29.9839 50.9711 29.6639 50.7951 29.296C48.9873 25.4804 45.7397 22.5767 41.7721 21.2568C40.6762 20.8889 40.2843 20.8809 40.0043 21.2168C39.5324 21.7768 39.8363 22.3687 40.7322 22.6087C44.5958 23.6566 48.0754 26.7603 49.5953 30.5198L49.9072 31.2958L47.8834 33.3195L45.8517 35.3513L45.4837 35.1753C44.9478 34.9274 43.5159 34.9274 42.996 35.1753L42.636 35.3513L41.2282 33.9515L39.8123 32.5436L39.9883 32.1757C40.1243 31.8717 40.1563 31.6557 40.1563 30.9278C40.1563 30.1199 40.1403 30.0079 39.9243 29.5679C39.6203 28.952 39.0124 28.3441 38.3965 28.0401C37.9565 27.8241 37.8445 27.8081 37.0366 27.8081C36.2287 27.8081 36.1167 27.8241 35.6768 28.0401C35.0608 28.3441 34.4529 28.952 34.1489 29.5679C33.933 30.0079 33.917 30.1199 33.917 30.9278C33.917 31.6557 33.949 31.8717 34.0849 32.1757L34.2609 32.5436L32.8451 33.9515L31.4372 35.3513L31.0773 35.1753C30.7813 35.0394 30.5653 35.0074 29.8374 35.0074C29.0295 35.0074 28.9175 35.0234 28.4775 35.2393C27.8616 35.5433 27.2537 36.1512 26.9497 36.7672C26.7337 37.2071 26.7177 37.3191 26.7177 38.127C26.7177 38.9349 26.7337 39.0469 26.9497 39.4869C27.2537 40.1028 27.8616 40.7107 28.4775 41.0147C28.9175 41.2307 29.0295 41.2467 29.8374 41.2467C30.6453 41.2467 30.7573 41.2307 31.1972 41.0147C31.8132 40.7107 32.4211 40.1028 32.7251 39.4869C32.9411 39.0469 32.9571 38.9349 32.9571 38.127C32.9571 37.3991 32.9251 37.1831 32.7891 36.8792L32.6131 36.5112L34.0289 35.1033L35.4368 33.7035L35.7968 33.8795C36.0927 34.0155 36.3087 34.0475 37.0366 34.0475C37.7645 34.0475 37.9805 34.0155 38.2765 33.8795L38.6364 33.7035L40.0443 35.1033L41.4601 36.5112L41.2842 36.8792C41.1482 37.1831 41.1162 37.3991 41.1162 38.127C41.1162 38.9349 41.1322 39.0469 41.3482 39.4869C41.6521 40.1028 42.2601 40.7107 42.876 41.0147C43.3159 41.2307 43.4279 41.2467 44.2358 41.2467C45.0438 41.2467 45.1557 41.2307 45.5957 41.0147C46.2116 40.7107 46.8196 40.1028 47.1235 39.4869C47.3395 39.0469 47.3555 38.9349 47.3555 38.127C47.3555 37.3991 47.3235 37.1831 47.1875 36.8792L47.0115 36.5112L48.6674 34.8554C49.5713 33.9515 50.3392 33.2076 50.3632 33.2076C50.4992 33.2076 50.6112 34.8554 50.5792 36.2072C50.5472 37.3991 50.4992 37.8151 50.3232 38.599C49.4993 42.1826 47.5395 45.0383 44.5318 47.0541C43.132 47.99 41.7321 48.5899 39.9083 49.0138C39.0044 49.2298 38.8604 49.2458 37.0366 49.2458C35.2128 49.2458 35.0688 49.2298 34.1649 49.0138C32.0612 48.5179 30.4693 47.79 28.8375 46.5741C25.4699 44.0624 23.4061 39.9428 23.3981 35.7433C23.3981 31.8717 25.0939 28.0881 28.0056 25.5124C29.5094 24.1845 31.6692 23.0167 33.469 22.5687C34.1889 22.3847 34.4449 21.6808 33.965 21.2009C33.653 20.8889 33.349 20.9049 32.2771 21.2568ZM57.0425 24.7685C57.5304 25.0564 57.7944 25.5284 57.7944 26.1283C57.7944 26.7283 57.5304 27.2002 57.0425 27.4882C56.3065 27.9201 55.3066 27.6722 54.8747 26.9362C54.4427 26.2003 54.6907 25.2084 55.4186 24.7765C55.8906 24.4885 56.5625 24.4885 57.0425 24.7685ZM37.8445 29.5679C38.8604 30.1599 38.8604 31.6957 37.8445 32.2877C37.1086 32.7196 36.1087 32.4716 35.6768 31.7357C35.2448 30.9998 35.4928 30.0079 36.2207 29.5759C36.6927 29.288 37.3646 29.288 37.8445 29.5679ZM30.6453 36.7672C31.6612 37.3591 31.6612 38.8949 30.6453 39.4869C29.9094 39.9188 28.9095 39.6709 28.4775 38.9349C28.0456 38.199 28.2936 37.2071 29.0215 36.7752C29.4934 36.4872 30.1654 36.4872 30.6453 36.7672ZM45.0438 36.7672C45.5317 37.0551 45.7957 37.5271 45.7957 38.127C45.7957 38.727 45.5317 39.1989 45.0438 39.4869C44.3078 39.9188 43.3079 39.6709 42.876 38.9349C42.444 38.199 42.692 37.2071 43.4199 36.7752C43.8919 36.4872 44.5638 36.4872 45.0438 36.7672ZM49.6593 48.3419L48.5154 49.4858L47.5715 48.5419L46.6196 47.59L47.7475 46.4541L48.8753 45.3102L49.8352 46.2621L50.7951 47.206L49.6593 48.3419ZM56.4185 52.8294L60.8341 57.245L59.6902 58.3888L58.5543 59.5247L54.1148 55.0852L49.6753 50.6457L50.7951 49.5258C51.4111 48.9099 51.931 48.4059 51.955 48.4059C51.979 48.4059 53.9868 50.3977 56.4185 52.8294Z" fill="#3C2FC0"/>
</g>
<defs>
<linearGradient id="paint0_linear_1_500" x1="14.7656" y1="2.5" x2="68.7656" y2="84.5" gradientUnits="userSpaceOnUse">
<stop stop-color="#EFEDFF"/>
<stop offset="0.76197" stop-color="#EFEDFF" stop-opacity="0"/>
</linearGradient>
<clipPath id="clip0_1_500">
<rect width="80" height="80" fill="white" transform="translate(0.765625 0.5)"/>
</clipPath>
</defs>
</svg>
