<svg width="64" height="64" viewBox="0 0 64 64" fill="none" xmlns="http://www.w3.org/2000/svg">
<path d="M0 16C0 7.16344 7.16344 0 16 0H48C56.8366 0 64 7.16344 64 16V48C64 56.8366 56.8366 64 48 64H16C7.16344 64 0 56.8366 0 48V16Z" fill="#DFDDFF"/>
<g clip-path="url(#clip0_1_399)">
<path d="M20.7179 19.0515C19.8972 19.2464 19.2149 19.9595 19.0404 20.8162C18.825 21.8576 19.4919 22.9862 20.5281 23.3299L20.7846 23.4171V26.7567V30.1015L20.5384 30.1887C19.9741 30.3888 19.5534 30.7992 19.3431 31.3481C19.2559 31.5892 19.2405 31.7226 19.2559 32.1022C19.2816 32.646 19.3944 32.9179 19.7433 33.3078C19.9638 33.554 20.4974 33.8721 20.6923 33.8721C20.7795 33.8721 20.7846 34.0055 20.7846 37.2579V40.6436L20.6461 40.7001C19.7125 41.0489 19.143 41.8389 19.143 42.7982C19.143 43.7729 19.774 44.6296 20.6974 44.9118C21.7952 45.2401 22.97 44.5937 23.3599 43.4395L23.4471 43.183L26.7354 43.1676C29.8339 43.1573 30.0237 43.1625 30.0494 43.2445C30.2443 43.8396 30.6291 44.2962 31.1369 44.5322C31.3934 44.6553 31.4909 44.6707 31.9424 44.6707C32.4194 44.6707 32.4759 44.6553 32.7683 44.5065C33.271 44.2449 33.6301 43.7986 33.7943 43.2189C33.8097 43.1727 34.4971 43.1573 37.0159 43.1573H40.2221L40.2837 43.3728C40.6531 44.7579 42.2177 45.4094 43.5515 44.7271C43.8337 44.5835 44.2389 44.1936 44.4082 43.9012C44.7468 43.3164 44.7878 42.4751 44.4954 41.8595C44.2748 41.3875 43.8542 40.972 43.3976 40.7719L43.0488 40.6231V37.2732V33.9285L43.3412 33.8464C44.7622 33.4309 45.2136 31.6457 44.1466 30.6402C43.8798 30.3888 43.4233 30.1272 43.2437 30.1272C42.9821 30.1272 42.9975 30.3221 42.9975 26.7362C42.9975 23.6069 43.0026 23.4017 43.0898 23.371C43.7003 23.1658 44.244 22.7143 44.4852 22.2064C45.2341 20.6315 44.0748 18.9027 42.3408 19.0053C41.3713 19.0618 40.5248 19.7954 40.3196 20.7495L40.2581 21.0471H37.0416H33.8302L33.7943 20.8316C33.743 20.5033 33.466 20.0416 33.1787 19.7851C32.7991 19.4516 32.4553 19.3337 31.8911 19.3285C31.4704 19.3285 31.3986 19.3439 31.0856 19.4978C30.547 19.7646 30.1007 20.3289 30.034 20.8419L30.0032 21.0471H26.7354H23.4676L23.4061 20.7752C23.3753 20.6315 23.2932 20.3853 23.2214 20.2365C23.0726 19.9185 22.5904 19.4157 22.2826 19.2567C21.8209 19.0207 21.195 18.9386 20.7179 19.0515ZM21.8876 19.9544C22.1441 20.0929 22.3801 20.3391 22.534 20.6367C22.6776 20.9239 22.693 21.4831 22.5596 21.7755C22.4467 22.0423 22.2005 22.309 21.9184 22.4732C21.708 22.5963 21.6311 22.6117 21.2207 22.6117C20.8103 22.6117 20.7333 22.5963 20.523 22.4732C20.2357 22.3039 20.0357 22.0782 19.8972 21.7704C19.7433 21.4216 19.7843 20.8367 19.9895 20.5084C20.169 20.2211 20.4358 19.9903 20.7128 19.8877C21.0001 19.7851 21.6208 19.821 21.8876 19.9544ZM43.1462 19.9749C43.6695 20.2365 43.9516 20.729 43.9106 21.3138C43.8747 21.8833 43.572 22.3193 43.0539 22.5502C42.7256 22.6938 42.1254 22.6579 41.8073 22.4681C41.5303 22.309 41.284 22.0423 41.1712 21.7755C41.0583 21.5242 41.0583 20.9291 41.1712 20.6726C41.5046 19.9133 42.3921 19.6004 43.1462 19.9749ZM32.404 20.2211C32.6349 20.3237 32.8709 20.5751 32.9786 20.8265C33.153 21.2523 32.953 21.8627 32.5477 22.1449C32.0963 22.4578 31.4242 22.3706 31.0703 21.9551C30.5778 21.3805 30.7522 20.5341 31.4294 20.2211C31.6961 20.098 32.1373 20.098 32.404 20.2211ZM30.193 22.0936C30.3623 22.4373 30.7522 22.8067 31.1369 22.9862C31.3883 23.1042 31.496 23.1247 31.9167 23.1247C32.3374 23.1247 32.4451 23.1042 32.6965 22.9862C33.0812 22.8067 33.4557 22.4527 33.6301 22.0987L33.7738 21.8166H37.0518H40.3299L40.3863 21.9551C40.5146 22.2885 40.6223 22.4629 40.8737 22.7348C41.1763 23.0632 41.5149 23.2684 41.9253 23.371L42.2023 23.4428L42.2177 26.7773L42.228 30.1118L41.9202 30.2247C41.5046 30.3786 41.0994 30.753 40.8839 31.1942C40.73 31.502 40.7146 31.579 40.7146 31.9996C40.7146 32.41 40.7351 32.4972 40.8737 32.7948C40.9609 32.9795 41.1353 33.2308 41.2584 33.3539C41.4636 33.5591 42.0074 33.8721 42.1664 33.8721C42.2126 33.8721 42.228 34.5749 42.228 37.2271V40.5821L42.0074 40.6129C41.2687 40.7257 40.5299 41.3926 40.3042 42.157L40.2427 42.3622L37.0416 42.3776L33.8404 42.3878L33.6917 42.0544C33.4865 41.5824 33.2146 41.3003 32.7529 41.0694C32.3938 40.895 32.3322 40.8796 31.9218 40.8796C31.532 40.8796 31.4396 40.9001 31.1318 41.0387C30.6855 41.249 30.3367 41.603 30.1417 42.0493L29.993 42.3878L26.7149 42.3776L23.4368 42.3622L23.3496 42.1006C23.1188 41.4285 22.5853 40.9001 21.9286 40.6949L21.6311 40.6026L21.6157 37.2476L21.6054 33.8926L21.8876 33.7746C22.2672 33.6156 22.6263 33.2821 22.8418 32.8871C23.011 32.5793 23.0162 32.5434 23.0162 32.0253C23.0162 31.5482 23.0008 31.4507 22.8777 31.1942C22.6981 30.8095 22.3442 30.4658 21.9389 30.2708L21.6054 30.1169V26.767V23.4171L21.7747 23.3863C22.3288 23.2786 22.9392 22.781 23.2265 22.1962L23.4163 21.8166H26.7354H30.0596L30.193 22.0936ZM43.3463 31.0095C43.6079 31.1327 43.8029 31.3738 43.9003 31.7021C44.0491 32.1894 43.8337 32.7127 43.3771 32.9795C42.8897 33.2667 42.1715 33.118 41.8535 32.6614C41.4841 32.1381 41.6431 31.3584 42.1767 31.0557C42.5665 30.8403 42.941 30.8249 43.3463 31.0095ZM21.4926 30.9788C22.2877 31.3071 22.4211 32.4254 21.7234 32.9128C21.4464 33.1128 21.0001 33.2154 20.759 33.1385C20.5076 33.0615 20.1742 32.764 20.0613 32.5178C19.9485 32.2715 19.9331 31.8355 20.0305 31.5995C20.2716 31.0301 20.9385 30.7428 21.4926 30.9788ZM43.1616 41.5055C43.4951 41.6543 43.6951 41.8441 43.8644 42.1929C44.1312 42.7162 44.0748 43.2856 43.7208 43.7524C43.1975 44.4398 42.2126 44.5322 41.5713 43.9525C40.6787 43.1471 41.0429 41.7056 42.2126 41.4131C42.4845 41.3465 42.8949 41.3875 43.1616 41.5055ZM21.8363 41.5363C22.457 41.8287 22.7956 42.5469 22.6109 43.1779C22.2467 44.4296 20.5743 44.5989 19.9792 43.4446C19.8664 43.2343 19.8407 43.1112 19.8407 42.7982C19.8356 42.4648 19.8561 42.3776 19.9844 42.1416C20.1434 41.8543 20.405 41.6183 20.6923 41.4901C20.9693 41.3721 21.5336 41.3926 21.8363 41.5363ZM32.4348 41.8133C32.7939 41.998 32.994 42.3058 33.0299 42.7315C33.0504 42.988 33.035 43.065 32.9068 43.3112C32.5426 43.9987 31.691 44.1269 31.1421 43.5729C30.5932 43.0291 30.7163 42.1673 31.3986 41.8133C31.7628 41.6235 32.0706 41.6235 32.4348 41.8133Z" fill="#3C2FC0"/>
<path d="M31.655 26.1206C31.537 26.2129 31.5319 26.254 31.5165 26.9824C31.5011 27.6955 31.5062 27.7519 31.6088 27.8853C31.7525 28.0648 32.0552 28.0802 32.2039 27.9161C32.286 27.8237 32.3014 27.7109 32.3168 27.1415C32.327 26.7721 32.3219 26.4181 32.3065 26.3514C32.2296 26.0436 31.891 25.9256 31.655 26.1206Z" fill="#3C2FC0"/>
<path d="M27.7359 26.7928C27.6846 26.8492 27.6436 26.9621 27.6436 27.039C27.6436 27.2391 28.1053 28.5011 28.2079 28.5729C28.3412 28.6755 28.6183 28.655 28.7362 28.537C28.7927 28.4805 28.8388 28.3677 28.8388 28.2907C28.8388 28.1061 28.3977 26.9005 28.2899 26.7825C28.1719 26.6543 27.8539 26.6594 27.7359 26.7928Z" fill="#3C2FC0"/>
<path d="M35.5641 26.7772C35.4461 26.8798 34.9946 28.0854 34.9946 28.3008C34.9946 28.6035 35.4512 28.7677 35.6461 28.5368C35.7693 28.3932 36.1745 27.2646 36.1745 27.0645C36.1745 26.7619 35.7949 26.5874 35.5641 26.7772Z" fill="#3C2FC0"/>
<path d="M24.3345 28.8091C24.1191 29.0348 24.1755 29.1887 24.6987 29.8145C25.1707 30.3891 25.2887 30.4763 25.5298 30.4148C25.6837 30.3737 25.8325 30.1121 25.7812 29.9582C25.735 29.8145 24.8629 28.7629 24.7552 28.7219C24.5961 28.6603 24.4422 28.6911 24.3345 28.8091Z" fill="#3C2FC0"/>
<path d="M39.0372 28.7471C38.95 28.7933 38.2728 29.5781 38.1087 29.8193C37.9855 29.9937 38.0009 30.163 38.1497 30.3066C38.4113 30.5734 38.5857 30.4708 39.2065 29.7167C39.663 29.1575 39.7041 29.0344 39.4835 28.819C39.3552 28.6856 39.186 28.6599 39.0372 28.7471Z" fill="#3C2FC0"/>
<path d="M31.1215 29.2602C29.2337 29.5167 27.2997 30.5735 25.4529 32.3639C24.7142 33.0821 24.5808 33.2873 24.5808 33.7233C24.5808 34.1183 24.7655 34.4056 25.4375 35.0571C26.5148 36.0934 27.5459 36.8424 28.6592 37.3913C29.875 37.9863 30.7419 38.2018 31.9167 38.2018C33.0966 38.2018 33.9635 37.9863 35.1742 37.3913C36.3285 36.8218 37.3801 36.0472 38.4369 35.0007C38.7652 34.6724 39.0781 34.3287 39.1294 34.2312C39.2577 33.9901 39.2577 33.4514 39.1294 33.2103C39.0063 32.9744 37.9547 31.933 37.3545 31.4559C35.9899 30.3581 34.5484 29.6245 33.2505 29.3577C32.6349 29.2295 31.6499 29.1884 31.1215 29.2602ZM33.1222 30.1272C34.2662 30.3786 35.6257 31.0763 36.8158 32.0253C37.4468 32.5332 38.4215 33.513 38.4625 33.6874C38.4933 33.8259 38.4472 33.8824 37.811 34.5082C36.1284 36.1549 34.4458 37.0989 32.6657 37.3861C32.2912 37.4477 31.2703 37.4169 30.8599 37.3348C29.1773 36.9911 27.3818 35.9138 25.8274 34.3184C25.494 33.985 25.3503 33.7951 25.3503 33.7131C25.3503 33.6207 25.5299 33.4104 26.0275 32.9231C27.8127 31.1686 29.7262 30.158 31.4806 30.0297C31.9936 29.9938 32.7272 30.0349 33.1222 30.1272Z" fill="#3C2FC0"/>
<path d="M31.1474 31.5228C29.7161 32.0204 29.1467 33.7441 29.988 35.0163C30.6446 36.0013 31.9836 36.3142 33.0608 35.7294C33.343 35.5806 33.738 35.1753 33.9329 34.847C34.3126 34.1955 34.3126 33.2772 33.9329 32.5796C33.738 32.2256 33.266 31.7947 32.8557 31.5997C32.5479 31.4561 32.4453 31.4356 31.9938 31.4202C31.5629 31.4099 31.4244 31.4253 31.1474 31.5228ZM32.5684 32.3385C33.5072 32.795 33.7175 34.0673 32.9685 34.806C32.6658 35.1035 32.3683 35.2215 31.9169 35.2266C31.291 35.2318 30.8242 34.9496 30.5215 34.3699C30.3522 34.057 30.3522 33.3798 30.5266 33.0515C30.737 32.6462 31.0653 32.3692 31.5065 32.2256C31.7219 32.1538 32.317 32.2153 32.5684 32.3385Z" fill="#3C2FC0"/>
</g>
<defs>
<clipPath id="clip0_1_399">
<rect width="26" height="26" fill="white" transform="translate(19 19)"/>
</clipPath>
</defs>
</svg>
