<svg width="81" height="81" viewBox="0 0 81 81" fill="none" xmlns="http://www.w3.org/2000/svg">
<g clip-path="url(#clip0_1_513)">
<path d="M40.9375 80.5C63.0289 80.5 80.9375 62.5914 80.9375 40.5C80.9375 18.4086 63.0289 0.5 40.9375 0.5C18.8461 0.5 0.9375 18.4086 0.9375 40.5C0.9375 62.5914 18.8461 80.5 40.9375 80.5Z" fill="url(#paint0_linear_1_513)"/>
<path d="M45.2156 23.8118L36.1953 27.1296H30.0262C26.6358 27.1296 23.5461 27.1814 23.1625 27.2229C20.9852 27.5028 19.5544 29.1825 19.5544 31.4531V32.21H18.8494C17.8955 32.21 17.2319 32.4485 16.6928 32.998C15.9877 33.6926 15.9048 34.1385 15.9463 36.8964C15.9774 39.0322 15.9981 39.2396 16.2055 39.6232C16.7343 40.6082 17.4704 41.0229 18.7042 41.0229H19.5233L19.5751 42.0494C19.6373 43.3039 19.9795 44.123 20.7571 44.9006C21.5347 45.6782 22.3538 46.0204 23.6083 46.0826L24.6348 46.1344V51.9509C24.6348 58.3896 24.6452 58.4932 25.288 59.5715C25.7131 60.2766 26.2729 60.7639 27.1231 61.1786C27.7452 61.4793 27.88 61.5 28.8857 61.5C29.8914 61.5 30.0262 61.4793 30.669 61.1682C31.8303 60.6187 32.6494 59.6337 32.9708 58.3896C33.1159 57.8711 33.1367 56.8758 33.1367 51.9406V46.1033H34.5778H36.0294L42.8516 48.602C46.6049 49.9706 50.7521 51.4947 52.0585 51.9717C53.3753 52.4486 54.495 52.8426 54.5573 52.8426C54.6195 52.8426 54.7957 52.7493 54.9512 52.6249L55.2208 52.4175V46.6217V40.8363L55.6978 40.6704C57.1286 40.1831 58.2068 39.0115 58.5386 37.5807C58.9222 35.9114 58.1654 34.0555 56.7346 33.1224C56.3924 32.8943 55.9051 32.6662 55.6666 32.5936L55.2208 32.4796V26.7149C55.2208 20.3177 55.2416 20.4836 54.5676 20.5043C54.381 20.5043 50.1819 21.9974 45.2156 23.8118ZM53.873 36.6164C53.873 48.011 53.8419 51.08 53.7382 51.08C53.676 51.0696 53.1472 50.8934 52.5769 50.6757L51.5401 50.2817L51.509 36.7201C51.4987 27.4717 51.5194 23.1171 51.592 23.0445C51.6853 22.9512 53.5723 22.1944 53.79 22.1632C53.8315 22.1529 53.873 28.6641 53.873 36.6164ZM50.099 49.701C50.0782 49.7322 47.0922 48.6642 43.4633 47.3371L36.8692 44.9213L36.8899 36.6372L36.921 28.3427L38.4244 27.7932C39.2539 27.4821 42.2192 26.4038 45.0082 25.3774L50.0886 23.5215L50.1197 36.5957C50.1301 43.7808 50.1197 49.6803 50.099 49.701ZM35.4177 36.6683V44.7554L29.2279 44.7347L23.0277 44.7036L22.4264 44.4133C21.7939 44.1022 21.431 43.7083 21.1511 43.0343C20.9956 42.6714 20.9748 41.9975 20.9748 36.6164C20.9748 30.0016 20.9541 30.24 21.628 29.4728C21.9702 29.0892 22.3745 28.83 22.8722 28.6744C23.0174 28.633 25.8997 28.5915 29.2797 28.5915L35.4177 28.5811V36.6683ZM19.5544 36.6787V39.6958L18.7664 39.6543C18.0303 39.6232 17.9577 39.5921 17.6778 39.2811L17.3771 38.9493V36.6061V34.2629L17.6778 33.9622C17.9577 33.6823 18.0406 33.6615 18.7664 33.6615H19.5544V36.6787ZM55.9777 34.294C57.761 35.4656 57.6366 38.0058 55.7392 39.1463C55.5422 39.2603 55.3452 39.364 55.3038 39.364C55.2519 39.364 55.2208 38.1509 55.2208 36.6683C55.2208 34.491 55.2519 33.9726 55.3556 33.9726C55.4385 33.9726 55.7081 34.1177 55.9777 34.294ZM31.6851 52.0961V58.0889L31.4156 58.628C31.1252 59.2086 30.7624 59.5715 30.0884 59.924C29.4871 60.2455 28.2844 60.2455 27.683 59.924C26.9987 59.5612 26.6358 59.1983 26.3248 58.5658L26.0345 57.9748L26.0034 52.0339L25.9723 46.1033H28.8235H31.6851V52.0961Z" fill="#3C2FC0"/>
<path d="M61.1619 30.0534C59.7726 31.4428 59.5756 31.6709 59.5756 31.9715C59.5756 32.1996 59.6481 32.3552 59.8037 32.4588C60.3013 32.8114 60.4672 32.7077 62.0743 31.0902C63.7643 29.4106 63.9094 29.1721 63.474 28.747C63.3288 28.5915 63.1111 28.4775 62.9867 28.4775C62.8208 28.4775 62.2609 28.9751 61.1619 30.0534Z" fill="#3C2FC0"/>
<path d="M61.6491 36.1499C61.3899 36.4091 61.3795 36.8964 61.6283 37.1141C61.7942 37.2697 62.126 37.2904 64.0648 37.2904C66.1799 37.2904 66.3251 37.28 66.5221 37.083C66.7917 36.8135 66.7813 36.5543 66.5117 36.2121L66.3044 35.9425H64.0752C61.9912 35.9425 61.8461 35.9529 61.6491 36.1499Z" fill="#3C2FC0"/>
<path d="M59.6481 40.7948C59.5444 40.8985 59.4718 41.1266 59.4718 41.2925C59.4718 41.5517 59.7206 41.8524 61.0581 43.1795C62.0224 44.1334 62.7274 44.7555 62.8518 44.7555C63.2354 44.7555 63.5154 44.4652 63.5154 44.0504C63.5154 43.7083 63.4013 43.5528 61.9809 42.1427C60.6745 40.8363 60.4049 40.6082 60.1354 40.6082C59.9591 40.6082 59.7414 40.6912 59.6481 40.7948Z" fill="#3C2FC0"/>
</g>
<defs>
<linearGradient id="paint0_linear_1_513" x1="14.9375" y1="2.5" x2="68.9375" y2="84.5" gradientUnits="userSpaceOnUse">
<stop stop-color="#EFEDFF"/>
<stop offset="0.76197" stop-color="#EFEDFF" stop-opacity="0"/>
</linearGradient>
<clipPath id="clip0_1_513">
<rect width="80" height="80" fill="white" transform="translate(0.9375 0.5)"/>
</clipPath>
</defs>
</svg>
