<svg width="41" height="40" viewBox="0 0 41 40" fill="none" xmlns="http://www.w3.org/2000/svg">
<g clip-path="url(#clip0_1_1848)">
<path d="M2.27307 0.812593C1.79651 0.945405 1.31995 1.27353 0.991825 1.70321C0.460575 2.39853 0.499637 1.04697 0.515262 20.1563L0.5387 37.461L0.702762 37.8204C0.94495 38.3439 1.38245 38.7892 1.89026 39.0392L2.33557 39.2579H20.4996H38.6637L39.109 39.0392C39.6168 38.7892 40.0543 38.3439 40.2965 37.8204L40.4606 37.461V20.0001V2.53915L40.2418 2.09384C39.9918 1.58603 39.5465 1.14853 39.0231 0.906343L38.6637 0.742281L20.6559 0.726655C6.06995 0.718843 2.57776 0.734468 2.27307 0.812593ZM38.484 1.71884C38.8746 1.82821 39.2418 2.14853 39.4137 2.53915C39.5465 2.8204 39.5621 3.10165 39.5621 5.67978V8.51571H20.4996H1.43714V5.67978C1.43714 3.09384 1.45276 2.82821 1.58557 2.53915C1.6637 2.36728 1.81995 2.14071 1.92932 2.04697C2.38245 1.62509 1.35901 1.64853 20.4606 1.64071C32.4293 1.64071 38.2887 1.66415 38.484 1.71884ZM39.5621 23.297C39.5621 36.5704 39.5543 37.1642 39.4137 37.461C39.2418 37.8517 38.8746 38.172 38.484 38.2813C38.0778 38.3907 2.92151 38.3907 2.51526 38.2813C2.12464 38.172 1.75745 37.8517 1.58557 37.461C1.44495 37.1642 1.43714 36.5704 1.43714 23.297V9.45321H20.4996H39.5621V23.297Z" fill="#3C2FC0"/>
<path d="M5.30431 3.46875C4.35118 3.90625 3.98399 4.94531 4.43712 5.91406C5.05431 7.23437 6.98399 7.24219 7.64806 5.91406C8.10899 4.98437 7.73399 3.90625 6.79649 3.46875C6.28868 3.22656 5.81212 3.22656 5.30431 3.46875ZM6.65587 4.47656C6.92149 4.74219 6.96837 5.26562 6.75743 5.60156C6.56993 5.89844 6.17149 6.03906 5.78087 5.92969C5.41368 5.82812 5.24962 5.60937 5.21056 5.17969C5.14806 4.57031 5.53868 4.1875 6.15587 4.25C6.34337 4.27344 6.53087 4.35937 6.65587 4.47656Z" fill="#3C2FC0"/>
<path d="M10.461 3.3905C10.0157 3.55457 9.45318 4.18738 9.336 4.65613C9.04693 5.80457 9.8985 6.89832 11.086 6.89832C12.9063 6.89832 13.586 4.46863 12.0235 3.55457C11.586 3.29676 10.9141 3.22644 10.461 3.3905ZM11.5235 4.34363C12.0079 4.58582 12.1016 5.328 11.711 5.72644C11.2344 6.19519 10.4532 5.99207 10.2735 5.33582C10.0547 4.56238 10.8047 3.96863 11.5235 4.34363Z" fill="#3C2FC0"/>
<path d="M15.5547 3.39025C14.3047 3.83556 13.9219 5.43713 14.8438 6.359C15.5391 7.03869 16.5781 7.09338 17.3125 6.484C17.8906 5.99963 18.1016 5.0465 17.7735 4.32775C17.4063 3.51525 16.3985 3.09338 15.5547 3.39025ZM16.7735 4.53088C17.0235 4.81213 17.0625 5.31994 16.8594 5.61681C16.3906 6.28088 15.2656 5.94494 15.2656 5.14025C15.2656 4.31213 16.2266 3.9215 16.7735 4.53088Z" fill="#3C2FC0"/>
<path d="M24.7335 4.73438C24.5382 4.86718 24.4913 5.28906 24.6554 5.45312C24.7257 5.52344 26.1085 5.54688 30.3976 5.54688H36.046L36.171 5.35156C36.3351 5.09375 36.257 4.78125 35.9992 4.6875C35.882 4.64062 33.6632 4.60938 30.3585 4.60938C25.5538 4.60938 24.8898 4.625 24.7335 4.73438Z" fill="#3C2FC0"/>
<path d="M6.82812 14.9922C6.77344 15.0938 6.75 18.2656 6.75 24.7188V34.2891L6.92187 34.4062C7.07812 34.5156 7.8125 34.5312 13.3125 34.5312C18.8125 34.5312 19.5469 34.5156 19.7031 34.4062C19.8672 34.2891 19.875 34.2422 19.875 32.9766V31.6641L20.2266 31.6172C20.9297 31.5156 21.5156 31.0546 21.625 30.5077C21.6562 30.3515 21.5469 29.8047 21.2812 28.8281C21.0703 28.0391 20.8906 27.3594 20.8906 27.3281C20.8906 27.1797 21.3437 27.3281 24.2891 28.4297C26.5547 29.2812 27.4453 29.5781 27.5625 29.5391C27.9766 29.3828 28 29.5312 26.1953 22.75C25.2578 19.2422 24.4531 16.289 24.4141 16.1952C24.3125 15.9765 23.9844 15.8827 23.7891 16.0233C23.7031 16.0858 22.8281 17.1249 21.8281 18.3358C20.8359 19.5468 19.9922 20.5624 19.9453 20.5858C19.9062 20.6171 19.875 19.5702 19.875 17.8358C19.875 15.7577 19.8516 15.0078 19.7812 14.9375C19.7109 14.8672 18.1641 14.8438 13.2969 14.8438C7.0625 14.8438 6.90625 14.8438 6.82812 14.9922ZM18.9375 18.5547V21.3202L18.4922 21.4452C17.5234 21.7187 17.2969 21.8203 16.9453 22.125C16.5 22.5234 16.1953 23.1016 16.1484 23.6641C16.1016 24.1875 16.4844 25.7969 16.8125 26.4608C17.0156 26.8905 17.4609 27.3594 17.8047 27.5156C17.9531 27.5781 18.0234 27.7266 18.1562 28.2344C18.25 28.5781 18.4609 29.3672 18.6328 29.9844C18.9297 31.0702 18.9375 31.1484 18.9375 32.3516V33.5938H13.3125H7.6875V24.6875V15.7812H13.3125H18.9375V18.5547ZM25.2578 22.8594C26.0391 25.8047 26.6719 28.2343 26.6484 28.2577C26.6094 28.289 21.5156 26.4141 21.5156 26.3672C21.5156 26.3516 21.2344 25.2969 20.8984 24.0233L20.2734 21.7108L22.0078 19.6016C22.9609 18.4453 23.7578 17.5 23.7812 17.5C23.8047 17.5 24.4687 19.9141 25.2578 22.8594ZM20 24.3047C20.3125 25.4375 20.5391 26.3906 20.5078 26.4141C20.4844 26.4375 20.1484 26.5391 19.7734 26.6406C18.6797 26.9141 18.1328 26.7968 17.7187 26.1952C17.4844 25.8438 17.0312 24.0547 17.0859 23.6641C17.1406 23.2656 17.4531 22.8594 17.8594 22.6483C18.1875 22.4843 19.2344 22.1796 19.3672 22.2188C19.4141 22.2266 19.6953 23.1719 20 24.3047ZM20.3516 28.9844L20.7187 30.3516L20.5625 30.4922C20.3516 30.6719 20.0391 30.7421 19.8906 30.6483C19.7969 30.5938 19.0234 28.0703 19.0156 27.8047C19.0156 27.7422 19.6328 27.5938 19.8359 27.6094C19.9609 27.6172 20.0391 27.8203 20.3516 28.9844Z" fill="#3C2FC0"/>
<path d="M8.67195 19.1875C8.5157 19.3359 8.5157 19.6094 8.65633 19.8125C8.7657 19.9531 8.8907 19.9609 12.0235 19.9609C15.1563 19.9609 15.2813 19.9531 15.3907 19.8125C15.5313 19.6094 15.5313 19.3359 15.3751 19.1875C15.2735 19.0781 14.8595 19.0625 12.0235 19.0625C9.18758 19.0625 8.77351 19.0781 8.67195 19.1875Z" fill="#3C2FC0"/>
<path d="M8.67195 22.625C8.5157 22.7734 8.5157 23.0469 8.65633 23.25C8.7657 23.3906 8.8907 23.3984 12.0235 23.3984C15.1563 23.3984 15.2813 23.3906 15.3907 23.25C15.5391 23.0391 15.5313 22.7812 15.3595 22.6328C15.2266 22.5156 14.8829 22.5 12.0001 22.5C9.18758 22.5 8.77351 22.5156 8.67195 22.625Z" fill="#3C2FC0"/>
<path d="M8.67195 26.0625C8.5157 26.2109 8.5157 26.4844 8.65633 26.6875C8.7657 26.8281 8.8907 26.8359 12.0235 26.8359C15.1563 26.8359 15.2813 26.8281 15.3907 26.6875C15.5391 26.4766 15.5313 26.2188 15.3595 26.0703C15.2266 25.9531 14.8829 25.9375 12.0001 25.9375C9.18758 25.9375 8.77351 25.9531 8.67195 26.0625Z" fill="#3C2FC0"/>
<path d="M8.67195 29.5C8.5157 29.6484 8.5157 29.9219 8.65633 30.125C8.7657 30.2656 8.8907 30.2734 12.0235 30.2734C15.1563 30.2734 15.2813 30.2656 15.3907 30.125C15.5391 29.9141 15.5313 29.6562 15.3595 29.5078C15.2266 29.3906 14.8829 29.375 12.0001 29.375C9.18758 29.375 8.77351 29.3906 8.67195 29.5Z" fill="#3C2FC0"/>
<path d="M29.7493 15.8988C29.5462 16.2113 29.6555 16.4144 30.2415 16.7972C31.3508 17.516 32.3587 18.766 32.8352 19.9847C33.2102 20.9691 33.3352 21.7582 33.2883 22.8441C33.2415 23.8988 33.0774 24.6019 32.6399 25.5316C32.3196 26.2347 32.304 26.4379 32.5696 26.6097C32.9758 26.8754 33.3352 26.4691 33.7805 25.2582C34.429 23.4691 34.4055 21.391 33.7102 19.6488C33.1087 18.1566 32.1712 16.9925 30.7805 16.0238C30.2337 15.6488 29.9368 15.6097 29.7493 15.8988Z" fill="#3C2FC0"/>
<path d="M28.5625 18.0157C28.4453 18.0939 28.3906 18.211 28.3906 18.3907C28.3906 18.6095 28.4453 18.6876 28.8203 18.9454C30.6406 20.1954 31.2422 22.4689 30.2891 24.4767C30.0938 24.8985 30.0859 24.9454 30.1953 25.1407C30.3281 25.3751 30.6719 25.461 30.8594 25.3048C31.0625 25.1407 31.3594 24.4767 31.5234 23.8439C31.7031 23.1251 31.7188 22.047 31.5547 21.3282C31.2734 20.1329 30.4062 18.8829 29.3984 18.211C28.8594 17.8517 28.8125 17.8439 28.5625 18.0157Z" fill="#3C2FC0"/>
<path d="M27.3903 20.0468C27.1794 20.1952 27.1559 20.578 27.3591 20.7343C27.4294 20.7968 27.6013 20.9374 27.7419 21.0546C28.3513 21.5546 28.5622 22.5702 28.2184 23.3749C28.0622 23.7343 28.0622 23.789 28.1638 23.9765C28.2497 24.1327 28.3356 24.1796 28.5466 24.1796C29.0544 24.1796 29.3669 23.4374 29.3122 22.3827C29.2575 21.3983 28.8356 20.6171 28.0856 20.1405C27.6794 19.8905 27.6247 19.8827 27.3903 20.0468Z" fill="#3C2FC0"/>
</g>
<defs>
<clipPath id="clip0_1_1848">
<rect width="40" height="40" fill="white" transform="translate(0.5)"/>
</clipPath>
</defs>
</svg>
