<svg width="46" height="46" viewBox="0 0 46 46" fill="none" xmlns="http://www.w3.org/2000/svg">
<g clip-path="url(#clip0_1_195)">
<path d="M1.90555 0.188518C1.18732 0.462578 0.658105 0.963447 0.308443 1.68167L-0.00341797 2.31484V17.4354V32.5559L0.242291 33.0851C0.554152 33.7372 1.07392 34.2853 1.69764 34.5877L2.17016 34.824L7.82146 34.8523L13.4728 34.8807L13.7468 34.5972C14.0492 34.3042 14.1154 33.8884 13.9264 33.5293C13.6901 33.0851 13.5295 33.0757 7.91596 33.0757C3.89012 33.0757 2.58597 33.0473 2.40642 32.9528C2.28356 32.8866 2.07565 32.6882 1.96225 32.5181L1.74489 32.1968V20.1665V8.1268H20.8818H40.0187V15.1389V22.1511L37.2592 19.4105C34.1028 16.273 34.1406 16.3013 32.742 16.3013C32.0238 16.3013 31.8631 16.3297 31.3055 16.6132C30.5968 16.9628 30.1148 17.4543 29.7935 18.163C29.5761 18.645 29.5289 18.6734 29.2359 18.5127C28.5838 18.1725 27.2891 18.2481 26.4764 18.6923C25.5597 19.1837 24.8037 20.3461 24.8037 21.2533V21.6219L24.2934 21.6786C23.216 21.8203 21.9875 22.7086 21.6662 23.5875C21.6095 23.7671 21.5244 23.9088 21.4961 23.9088C21.4677 23.9088 20.4093 22.8599 19.1335 21.5841C16.6953 19.1459 16.3835 18.9002 15.429 18.7206C13.624 18.3898 11.8662 19.7223 11.6205 21.6124C11.5449 22.1794 11.7528 23.0867 12.0647 23.6159C12.1686 23.8049 14.862 26.5644 18.0373 29.7397C21.2126 32.9245 23.7736 35.5327 23.7358 35.5327C23.698 35.5327 23.1026 35.4004 22.4222 35.2398C20.8913 34.8712 20.1069 34.8901 19.2847 35.287C18.6137 35.6178 17.8861 36.4116 17.6309 37.092C17.3663 37.8008 17.3663 38.8404 17.6309 39.5397C17.8483 40.1445 18.5098 40.9194 19.0768 41.2502C19.5493 41.5242 28.6216 44.6996 29.7273 44.9736C35.0668 46.3061 40.7653 43.8774 43.6004 39.0672C46.2748 34.5121 45.7645 28.5773 42.3435 24.542L41.8143 23.9183L41.7954 13.1166L41.767 2.31484L41.4552 1.68167C41.0961 0.944545 40.5668 0.462578 39.8297 0.179069C39.3667 -0.000488281 38.8941 -0.000488281 20.8535 -0.000488281C2.99234 0.00896453 2.34026 0.0184136 1.90555 0.188518ZM39.4895 1.99353C39.9715 2.37154 40.0187 2.57945 40.0187 4.53567V6.33123H20.8818H1.74489V4.53567C1.74489 2.57945 1.79214 2.37154 2.27411 1.99353L2.52927 1.79508H20.8818H39.2344L39.4895 1.99353ZM33.4413 18.1914C33.9327 18.4276 41.0205 25.6193 41.5969 26.4604C42.9011 28.3977 43.5154 30.3634 43.5154 32.6504C43.5154 34.0207 43.3452 35.1075 42.9389 36.251C41.0772 41.5904 35.5015 44.5862 30.0014 43.2159C29.0185 42.9702 20.0596 39.8043 19.795 39.6058C19.4076 39.3223 19.1902 38.8498 19.1902 38.3111C19.1902 37.4134 19.8706 36.7424 20.7684 36.7518C20.9858 36.7518 22.3939 37.0448 23.8965 37.4134C25.3991 37.7819 26.7316 38.0843 26.8544 38.0843C27.223 38.0843 27.6388 37.6024 27.6388 37.1676C27.6388 36.818 27.4498 36.629 20.5605 29.7208C12.8868 22.0471 13.2459 22.4535 13.4066 21.5935C13.4917 21.1588 13.9925 20.6485 14.4839 20.5067C15.3439 20.2421 15.1077 20.0436 21.4205 26.347C27.0812 31.9889 27.1663 32.0834 27.5348 32.0834C28.0641 32.0834 28.3948 31.7526 28.3948 31.2423C28.3948 30.8643 28.3476 30.8076 26.0322 28.4922C24.7281 27.1881 23.5563 25.969 23.424 25.78C22.7624 24.835 23.4807 23.4363 24.6147 23.4363C25.2479 23.4363 25.5786 23.7009 28.2153 26.3281C30.7102 28.8136 30.8425 28.9364 31.1827 28.9364C31.6835 28.9364 32.0332 28.5773 32.0332 28.067C32.0332 27.6984 31.9671 27.6228 29.3682 25.024C27.3269 22.9544 26.6938 22.2645 26.5993 21.9904C26.2685 20.9414 27.1757 19.9113 28.2909 20.0815C28.7067 20.1476 28.8295 20.2516 31.4756 22.8788C34.0934 25.487 34.2351 25.6099 34.5753 25.6099C35.2369 25.6099 35.6716 24.9295 35.3786 24.353C35.3219 24.2396 34.3863 23.2473 33.309 22.1605C31.6457 20.4784 31.3339 20.1193 31.2866 19.8263C31.1638 19.1553 31.4945 18.5127 32.1277 18.163C32.4018 18.0118 33.0916 18.0307 33.4413 18.1914Z" fill="#3C2FC0"/>
</g>
<defs>
<clipPath id="clip0_1_195">
<rect width="46" height="46" fill="white"/>
</clipPath>
</defs>
</svg>
