<svg width="17" height="18" viewBox="0 0 17 18" fill="none" xmlns="http://www.w3.org/2000/svg">
<g clip-path="url(#clip0_1_847)">
<path d="M1.62847 0.321015C1.06425 0.428879 0.458557 0.901821 0.201343 1.44114C0.0105068 1.8477 -0.0475738 2.28746 0.0395471 2.68987C0.134965 3.11718 0.288464 3.42418 0.549827 3.70628C1.8193 5.07118 4.05541 4.19167 4.05541 2.32479C4.05541 1.02213 2.90624 0.0762466 1.62847 0.321015Z" fill="white"/>
<path d="M11.8964 5.74711C11.7014 5.7886 11.4525 5.85498 11.3363 5.89232C10.6435 6.13294 9.94655 6.66396 9.57318 7.24891L9.40724 7.49783L9.39894 6.71789L9.38649 5.9338L7.69801 5.92136L6.00537 5.91306V11.5966V17.2802H7.76853H9.53169V14.2393C9.53169 11.2108 9.55244 10.7171 9.68104 10.2069C9.83454 9.60948 10.1996 9.13238 10.6601 8.92081C11.1331 8.70508 11.8923 8.68019 12.3693 8.85858C12.8298 9.03282 13.1742 9.46012 13.3235 10.0451C13.448 10.5304 13.4729 11.2025 13.4729 14.2185V17.2387H15.236H16.9992V13.9281C16.9992 10.5055 16.9743 9.75053 16.8291 8.94155C16.4889 7.01244 15.5098 5.99188 13.7342 5.72637C13.1742 5.6434 12.3403 5.6517 11.8964 5.74711Z" fill="white"/>
<path d="M0.280029 11.5966V17.2802H2.04319H3.80635V11.5966V5.91306H2.04319H0.280029V11.5966Z" fill="white"/>
</g>
<defs>
<clipPath id="clip0_1_847">
<rect width="17" height="17" fill="white" transform="translate(0 0.28125)"/>
</clipPath>
</defs>
</svg>
