<svg width="99" height="29" viewBox="0 0 99 29" fill="none" xmlns="http://www.w3.org/2000/svg">
<g clip-path="url(#clip0_1_841)">
<path fill-rule="evenodd" clip-rule="evenodd" d="M7.15373 8.28448L0.395996 27.5002H4.932L7.02 21.4882H17.928L19.98 27.5002H24.516L15.084 0.680176H10.9938L12.5 5.5L16.632 17.7082H8.244L10.2183 11.962L7.15373 8.28448ZM35.1307 27.9322C33.1867 27.9322 31.4587 27.4882 29.9467 26.6002C28.4587 25.6882 27.2707 24.4642 26.3827 22.9282C25.5187 21.3922 25.0867 19.6522 25.0867 17.7082C25.0867 15.7882 25.5187 14.0602 26.3827 12.5242C27.2467 10.9882 28.4347 9.78818 29.9467 8.92418C31.4587 8.03618 33.1867 7.59218 35.1307 7.59218C36.4507 7.59218 37.6867 7.83218 38.8387 8.31218C39.9907 8.76818 40.9867 9.40418 41.8267 10.2202C42.6907 11.0362 43.3267 11.9842 43.7347 13.0642L40.1707 14.7202C39.7627 13.7122 39.1027 12.9082 38.1907 12.3082C37.3027 11.6842 36.2827 11.3722 35.1307 11.3722C34.0267 11.3722 33.0307 11.6482 32.1427 12.2002C31.2787 12.7282 30.5947 13.4842 30.0907 14.4682C29.5867 15.4282 29.3347 16.5202 29.3347 17.7442C29.3347 18.9682 29.5867 20.0722 30.0907 21.0562C30.5947 22.0162 31.2787 22.7722 32.1427 23.3242C33.0307 23.8762 34.0267 24.1522 35.1307 24.1522C36.3067 24.1522 37.3267 23.8522 38.1907 23.2522C39.0787 22.6282 39.7387 21.8002 40.1707 20.7682L43.7347 22.4602C43.3507 23.4922 42.7267 24.4282 41.8627 25.2682C41.0227 26.0842 40.0267 26.7322 38.8747 27.2122C37.7227 27.6922 36.4747 27.9322 35.1307 27.9322ZM46.9907 8.02418V27.5002H51.0587V16.2682C51.0587 14.7322 51.4667 13.5562 52.2827 12.7402C53.1227 11.9002 54.2147 11.4802 55.5587 11.4802H57.2507V7.77218H56.0627C54.7187 7.77218 53.5667 8.06018 52.6067 8.63618C51.879 9.0546 51.303 9.67986 50.8787 10.512V8.02418H46.9907ZM68.7097 27.9322C66.8377 27.9322 65.1217 27.4882 63.5617 26.6002C62.0257 25.7122 60.8017 24.5002 59.8897 22.9642C58.9777 21.4282 58.5217 19.6882 58.5217 17.7442C58.5217 15.7762 58.9777 14.0362 59.8897 12.5242C60.8017 10.9882 62.0257 9.78818 63.5617 8.92418C65.0977 8.03618 66.8137 7.59218 68.7097 7.59218C70.6297 7.59218 72.3456 8.03618 73.8577 8.92418C75.3937 9.78818 76.6057 10.9882 77.4937 12.5242C78.4057 14.0362 78.8617 15.7762 78.8617 17.7442C78.8617 19.7122 78.4057 21.4642 77.4937 23.0002C76.5816 24.5362 75.3577 25.7482 73.8217 26.6362C72.2857 27.5002 70.5817 27.9322 68.7097 27.9322ZM68.7097 24.1522C69.8617 24.1522 70.8817 23.8762 71.7697 23.3242C72.6577 22.7722 73.3537 22.0162 73.8577 21.0562C74.3857 20.0722 74.6497 18.9682 74.6497 17.7442C74.6497 16.5202 74.3857 15.4282 73.8577 14.4682C73.3537 13.5082 72.6577 12.7522 71.7697 12.2002C70.8817 11.6482 69.8617 11.3722 68.7097 11.3722C67.5817 11.3722 66.5617 11.6482 65.6497 12.2002C64.7617 12.7522 64.0537 13.5082 63.5257 14.4682C63.0217 15.4282 62.7697 16.5202 62.7697 17.7442C62.7697 18.9682 63.0217 20.0722 63.5257 21.0562C64.0537 22.0162 64.7617 22.7722 65.6497 23.3242C66.5617 23.8762 67.5817 24.1522 68.7097 24.1522ZM82.1132 8.02418V27.5002H86.1812V16.0162C86.1812 15.0562 86.3612 14.2282 86.7212 13.5322C87.0812 12.8362 87.5852 12.3082 88.2332 11.9482C88.9052 11.5642 89.6612 11.3722 90.5012 11.3722C91.3412 11.3722 92.0852 11.5642 92.7332 11.9482C93.4052 12.3082 93.9212 12.8362 94.2812 13.5322C94.6412 14.2042 94.8212 15.0322 94.8212 16.0162V27.5002H98.8532V14.9362C98.8532 13.4962 98.5412 12.2242 97.9172 11.1202C97.2932 10.0162 96.4292 9.15218 95.3252 8.52818C94.2212 7.90418 92.9492 7.59218 91.5092 7.59218C90.1172 7.59218 88.8932 7.91618 87.8372 8.56418C87.0753 9.01441 86.4633 9.62082 86.0012 10.3834V8.02418H82.1132Z" fill="#242E45"/>
</g>
<defs>
<clipPath id="clip0_1_841">
<rect width="99" height="28" fill="white" transform="translate(0 0.5)"/>
</clipPath>
</defs>
</svg>
