<svg width="47" height="32" viewBox="0 0 47 32" fill="none" xmlns="http://www.w3.org/2000/svg">
<g clip-path="url(#clip0_1_204)">
<path d="M37.7744 3.85578C35.4978 5.61828 33.7812 7.02277 33.7078 7.16046C33.6252 7.33488 33.616 7.45421 33.6803 7.58273C33.7721 7.73878 33.717 7.78468 33.1754 7.99582C32.3033 8.34464 31.4588 8.47316 30.7428 8.35382C30.4215 8.29874 29.2832 7.96828 28.2275 7.62863C26.4926 7.05949 26.2264 6.99523 25.5654 6.99523C24.9045 6.99523 24.7576 7.03195 24.0875 7.34406L23.3439 7.70206L22.7105 7.50011C21.8936 7.24308 21.5172 7.25226 19.3691 7.52765C17.7168 7.74796 16.4133 7.8673 14.1184 8.005L13.2187 8.06007L13.3014 7.83976C13.3473 7.71124 13.3656 7.52765 13.3381 7.4175C13.3105 7.30734 11.6674 5.97628 9.29902 4.14035C5.12227 0.899919 4.98457 0.8173 4.61738 1.19367C4.51641 1.28546 3.80957 4.20461 2.55195 9.6757C1.50547 14.2564 0.642578 18.1027 0.642578 18.2128C0.642578 18.4882 0.927148 18.681 2.99258 19.8376C5.07637 21.0034 5.17734 21.0218 5.62715 20.3517L5.93008 19.9019L6.45332 20.2782L6.96738 20.6546L6.77461 21.031C6.5084 21.545 6.45332 22.4079 6.64609 22.9862C6.93984 23.8767 7.82109 24.5927 8.75742 24.7212C9.16133 24.7763 9.16133 24.7855 9.22559 25.2077C9.43672 26.5939 10.5016 27.5485 11.8418 27.5485H12.4477L12.6129 28.0901C12.824 28.8153 13.5033 29.5222 14.2193 29.7609C14.7885 29.9444 15.6055 29.9169 16.0645 29.6874C16.3307 29.5497 16.349 29.5497 16.4041 29.6966C16.8355 30.9818 17.9187 31.7437 19.1396 31.6151C19.7822 31.5509 20.2229 31.3122 21.0582 30.5778C21.5631 30.1372 21.8018 29.9903 21.9119 30.0362C22.0037 30.0638 22.7289 30.4677 23.5275 30.9267C24.317 31.3857 25.1248 31.8079 25.3176 31.8814C26.0703 32.1476 27.0709 31.9548 27.6951 31.4132C28.099 31.0644 28.5488 30.2841 28.5488 29.9169C28.5488 29.7241 28.5764 29.7058 28.76 29.7609C29.2557 29.9169 30.1002 29.9169 30.5775 29.7609C31.3945 29.4855 32.1014 28.6134 32.2023 27.7413L32.2391 27.3741L32.7623 27.3558C34.075 27.3282 35.1123 26.3368 35.2408 24.9966L35.2959 24.4366L35.7365 24.3724C36.8656 24.2163 37.8111 23.1515 37.8479 21.9948L37.8662 21.545L39.234 20.1956C39.9775 19.4429 40.6109 18.8737 40.6293 18.9288C40.7211 19.1675 41.6482 20.4894 41.7768 20.5628C42.0154 20.7097 42.2633 20.5995 44.292 19.4521C45.7516 18.6259 46.2381 18.3138 46.3023 18.1394C46.4033 17.8364 42.6672 1.42316 42.4193 1.07433C42.043 0.551089 42.0338 0.551089 37.7744 3.85578ZM43.2822 10.0612C44.2186 14.1737 44.9621 17.561 44.9162 17.6069C44.8795 17.6437 44.2553 18.0109 43.5393 18.4056L42.2357 19.14L41.841 18.4882C41.6207 18.121 41.4187 17.7538 41.382 17.662C41.3453 17.5702 41.2076 17.3683 41.0883 17.203C40.9689 17.0378 39.5828 14.8071 38.0039 12.2368C35.507 8.16105 35.1582 7.55519 35.2775 7.43585C35.4428 7.27062 41.5289 2.55226 41.5564 2.57062C41.5564 2.5798 42.3367 5.94875 43.2822 10.0612ZM8.71152 5.28781C10.4281 6.62804 11.8418 7.73878 11.8418 7.7755C11.8418 7.83976 4.89277 19.1583 4.78262 19.2685C4.73672 19.3235 2.2123 17.9925 2.02871 17.8273C2.01035 17.7997 4.92949 4.91144 5.34258 3.20402C5.39766 2.98371 5.47109 2.81847 5.50781 2.83683C5.54453 2.85519 6.98574 3.95675 8.71152 5.28781ZM27.9521 8.87707C29.0354 9.23507 30.2287 9.56554 30.6051 9.62062C31.5322 9.73996 32.4318 9.61144 33.5609 9.18917C34.0475 9.01476 34.4514 8.87707 34.4605 8.89542C34.4973 8.94132 39.7664 17.5427 39.8215 17.6345C39.8398 17.6712 39.2891 18.2862 38.5914 18.9839L37.3246 20.2599L36.9482 19.9019C36.4617 19.4337 26.6854 11.4841 26.4283 11.3556C26.2631 11.2638 26.0887 11.3097 25.2441 11.7136C23.9223 12.3378 23.0502 12.5673 21.8936 12.5765C21.1867 12.5857 20.8287 12.5398 20.333 12.3837C19.5527 12.145 18.9561 11.8146 18.9561 11.631C18.9561 11.5484 20.1311 10.8691 22.0312 9.86847C24.776 8.4089 25.1523 8.23449 25.5471 8.23449C25.85 8.23449 26.6119 8.43644 27.9521 8.87707ZM21.5264 8.65675C21.4254 8.73019 20.6635 9.15246 19.8281 9.5839C18.9928 10.0245 18.2033 10.4927 18.0656 10.6212C17.7168 10.97 17.5699 11.5392 17.6984 11.989C17.8729 12.5398 18.1299 12.7968 18.9377 13.1915C20.0668 13.7331 20.7369 13.8616 22.1689 13.8066C23.4816 13.7515 24.06 13.623 25.3818 13.0538C26.0887 12.7509 26.1896 12.7234 26.3273 12.8519C26.41 12.9253 28.6314 14.7245 31.2568 16.8634C33.8822 18.9931 36.1404 20.8657 36.2781 21.0126C36.5719 21.3431 36.6729 21.8571 36.5352 22.2335C36.2965 22.8761 35.5896 23.28 35.0021 23.1148C34.8461 23.0689 32.9918 21.7837 30.8805 20.2599C28.76 18.736 26.8965 17.4234 26.7404 17.3407C26.5018 17.2306 26.3916 17.2214 26.208 17.304C25.8959 17.4509 25.7582 17.8181 25.9051 18.1302C25.9785 18.2679 27.5115 19.4337 29.7881 21.0769C32.1381 22.7751 33.6252 23.9134 33.7537 24.1062C33.9924 24.4642 34.0291 24.9232 33.8271 25.2995C33.4232 26.0982 32.5053 26.2909 31.7525 25.7493C31.5322 25.5841 29.9074 24.4275 28.1449 23.179C25.5287 21.3247 24.877 20.9025 24.6383 20.9025C24.2895 20.9025 24.0508 21.1687 24.0508 21.5634C24.0508 21.8755 24.1334 21.9398 27.6492 24.4275C29.2006 25.529 30.5775 26.548 30.7061 26.704C31.3211 27.4292 30.7244 28.6134 29.733 28.6134C29.2373 28.6134 29.577 28.8245 25.4369 25.9513C22.5545 23.9593 22.3709 23.8583 22.0129 24.2898C21.8018 24.5651 21.8018 24.8589 22.0312 25.0976C22.1322 25.2077 23.2613 26.0247 24.5557 26.9151C25.8408 27.8056 26.9791 28.6409 27.0801 28.7694C27.5115 29.311 27.3463 30.1005 26.7221 30.5136C26.1713 30.89 25.8867 30.8165 24.2711 29.8894C23.4725 29.4304 22.7932 29.0357 22.7748 29.0173C22.7473 28.9989 22.8023 28.8245 22.8941 28.6409C23.6102 27.1446 22.5729 25.2995 20.8838 25.0609C20.4982 25.015 20.4707 24.9874 20.4248 24.6753C20.2412 23.5921 19.5344 22.6925 18.6439 22.4263C18.3686 22.3437 18.0473 22.2794 17.9371 22.2794C17.7627 22.2794 17.7168 22.2152 17.6709 21.9306C17.5148 20.9851 17.0467 20.2874 16.2664 19.8284C15.6881 19.4888 14.7059 19.4245 14.0908 19.6999C13.8521 19.8009 13.641 19.8927 13.6318 19.8927C13.6227 19.8927 13.5859 19.7825 13.5584 19.6357C13.4666 19.2042 12.9617 18.5249 12.5211 18.2403C11.9336 17.8732 11.2451 17.7355 10.6117 17.8732C10.015 17.9925 9.65703 18.222 8.71152 19.0757C8.32598 19.4245 7.95879 19.7091 7.89453 19.7091C7.83945 19.7091 7.53652 19.5163 7.22441 19.2777C6.9123 19.0482 6.63691 18.837 6.61855 18.8278C6.60019 18.8095 7.89453 16.6798 9.4918 14.0819L12.4018 9.35441L13.6594 9.29933C15.6973 9.19835 18.341 8.96886 19.9383 8.73937C21.8201 8.48234 21.7559 8.48234 21.5264 8.65675ZM11.8051 19.296C12.3467 19.654 12.5578 20.4985 12.2273 21.0126C12.1447 21.1503 11.5205 21.7378 10.8596 22.3161C9.29902 23.6655 8.9043 23.7665 8.15156 23.023C7.83945 22.7109 7.80273 22.6191 7.80273 22.2243C7.81191 21.9765 7.85781 21.6827 7.92207 21.5726C8.07812 21.2972 10.2629 19.3511 10.6025 19.195C10.933 19.039 11.4838 19.0849 11.8051 19.296ZM15.7523 20.9943C16.349 21.3706 16.5602 22.2151 16.2021 22.7935C16.1287 22.9036 15.2475 23.7114 14.2377 24.6019C12.2732 26.3276 12.0805 26.4378 11.4379 26.2267C11.034 26.0982 10.5842 25.5933 10.5107 25.1802C10.3914 24.5927 10.5842 24.2806 11.6398 23.3626C12.1723 22.8944 12.9525 22.206 13.3564 21.8296C13.7604 21.4624 14.2193 21.0769 14.3662 20.9851C14.7334 20.7556 15.3576 20.7556 15.7523 20.9943ZM18.6256 23.8124C18.7541 23.9134 18.9377 24.1796 19.0295 24.3999C19.1764 24.7396 19.1855 24.8773 19.1029 25.1802C19.0203 25.4923 18.7908 25.7401 17.5424 26.8509C16.7437 27.5669 15.9268 28.2554 15.7432 28.3839C14.8803 28.9622 13.7695 28.3655 13.7695 27.3191C13.7695 27.0896 13.8338 26.8234 13.9072 26.704C14.1092 26.4286 17.01 23.8675 17.3221 23.6931C17.6525 23.5187 18.3043 23.5737 18.6256 23.8124ZM21.4529 26.704C21.8201 27.0804 21.9395 27.6128 21.7559 28.0718C21.6365 28.3472 20.0301 29.871 19.5068 30.1923C18.9652 30.5228 18.1574 30.3208 17.8086 29.7609C17.6158 29.4396 17.5699 28.953 17.7076 28.5859C17.7902 28.3747 19.6445 26.6673 20.0576 26.4194C20.1586 26.3644 20.4432 26.3276 20.6818 26.346C21.049 26.3827 21.1959 26.447 21.4529 26.704Z" fill="#3C2FC0"/>
</g>
<defs>
<clipPath id="clip0_1_204">
<rect width="47" height="32" fill="white"/>
</clipPath>
</defs>
</svg>
