<svg width="80" height="79" viewBox="0 0 80 79" fill="none" xmlns="http://www.w3.org/2000/svg">
<path d="M0.5 39.5C0.5 17.6848 18.1848 0 40 0C61.8152 0 79.5 17.6848 79.5 39.5C79.5 61.3152 61.8152 79 40 79C18.1848 79 0.5 61.3152 0.5 39.5Z" fill="#F0EFFF"/>
<g clip-path="url(#clip0_1_1926)">
<path d="M53.7701 22.0546C52.8064 22.0214 51.5648 22.5746 50.9911 23.3003C49.5701 25.1801 44.0237 28.0361 39.5955 29.1687C36.9227 29.8579 36.3874 29.8994 30.8506 29.9798C26.0411 30.0371 25.77 30.0664 25.2012 30.5342C24.7427 30.927 24.3544 31.0485 23.5415 31.0368C21.7269 31.0363 19.9699 32.319 19.6107 33.8921C19.4134 34.7715 19.4954 41.7437 19.734 42.5809C20.1262 44.1207 21.7797 45.2553 23.6557 45.3009C24.3279 45.3152 24.8931 45.4458 25.5325 45.7867C26.2302 46.1314 26.6858 46.2373 27.4131 46.2141C27.9415 46.1898 28.3908 46.2131 28.4009 46.2372C28.4041 46.2785 28.4207 48.105 28.4419 50.3132C28.463 52.5215 28.5196 54.5442 28.566 54.8231C28.6924 55.4945 29.5544 56.4662 30.273 56.7594C31.7786 57.3737 33.9077 56.4027 34.2594 54.9465C34.3473 54.5824 34.3977 52.4434 34.3664 50.211C34.3351 47.9786 34.3425 46.142 34.3767 46.156C34.4008 46.1458 34.7474 46.1272 35.1351 46.1055C35.533 46.1078 36.5753 46.1932 37.4458 46.3084C42.0142 46.9927 47.8207 49.4418 50.9782 52.03C52.8624 53.5786 54.6897 53.7443 56.1173 52.4871C57.1205 51.6367 57.2659 50.8362 57.2496 46.6503C57.2348 44.5246 57.2524 42.7121 57.2873 42.6264C57.3221 42.5406 57.5596 42.3975 57.7934 42.313C58.0512 42.2182 58.575 41.812 58.9752 41.4154C59.5756 40.8206 59.7972 40.4711 60.1674 39.3623C61.009 36.8462 60.2466 34.6955 57.9575 33.1616L57.1102 32.5959L57.0813 28.7848C57.0564 26.635 56.9238 24.7012 56.7786 24.322C56.2515 22.9672 55.1075 22.1005 53.7701 22.0546ZM54.7697 24.7021C55.0613 25.261 55.3578 49.8377 55.0793 50.5239C54.6755 51.5189 53.1936 51.5342 52.7123 50.5579C52.5462 50.2302 52.184 29.2061 52.2851 25.468C52.3346 24.0685 54.1318 23.522 54.7697 24.7021ZM50.3564 36.0191C50.4016 41.1166 50.4575 46.1385 50.4617 47.1601L50.4916 49.0519L49.3053 48.3879C48.6659 48.047 46.5893 47.1197 44.7073 46.3518C41.843 45.2031 40.9325 44.8916 39.1748 44.5543C38.0235 44.3445 37.054 44.1289 37.0337 44.0807C37.0306 44.0394 36.9819 41.26 36.9539 37.8892C36.9155 33.9542 36.9729 31.798 37.1136 31.7954C37.5216 31.8219 40.7886 30.9953 42.6067 30.3974C44.5211 29.7588 47.5516 28.3358 49.1218 27.3168C49.6659 26.9589 50.134 26.6899 50.1853 26.7109C50.2436 26.7147 50.3182 30.9044 50.3564 36.0191ZM57.9447 35.8958C58.4988 36.7418 58.612 37.8878 58.243 38.7971C57.8949 39.6549 57.4694 40.2611 57.2983 40.1913C57.2299 40.1634 57.1592 39.3547 57.1582 38.3744C57.1673 37.4183 57.1465 36.2901 57.1559 35.8739C57.1371 34.9864 57.3532 34.9946 57.9447 35.8958ZM34.9291 38.0628C34.9646 41.3167 34.9074 44.0129 34.8181 44.0365C34.457 44.1891 26.8592 44.1884 26.6406 44.0392C26.439 43.897 26.1861 32.7758 26.388 32.2782C26.4367 32.1581 27.3978 32.0504 28.5401 32.0366C29.6584 32.0329 31.4869 31.9991 32.588 31.9885C33.6961 31.9607 34.6598 31.994 34.7384 32.0461C34.7929 32.1083 34.8935 34.8089 34.9291 38.0628ZM24.3395 38.1612C24.3647 40.851 24.3821 43.1177 24.3612 43.1692C24.2846 43.3579 23.2867 43.3107 22.705 43.0733C21.7469 42.6824 21.5692 41.99 21.5291 38.3542C21.4843 34.3367 21.5273 34.0343 22.1993 33.5086C22.6921 33.1298 23.8356 32.9165 24.1259 33.1349C24.2215 33.1939 24.3042 35.4473 24.3395 38.1612ZM32.3485 50.3675C32.3632 53.6729 32.3173 54.474 32.0519 54.6857C31.6313 55.034 30.819 54.9225 30.6364 54.488C30.5045 54.1743 30.3575 46.5757 30.4689 46.3012C30.5316 46.1468 31.9761 46.0763 32.1776 46.2185C32.2562 46.2706 32.3172 48.1351 32.3485 50.3675Z" fill="#3C2FC0"/>
</g>
<defs>
<clipPath id="clip0_1_1926">
<rect width="41" height="36" fill="white" transform="translate(19.5 21.5)"/>
</clipPath>
</defs>
</svg>
