<svg width="81" height="80" viewBox="0 0 81 80" fill="none" xmlns="http://www.w3.org/2000/svg">
<path d="M0.5 16C0.5 7.16344 7.66344 0 16.5 0H64.5C73.3366 0 80.5 7.16344 80.5 16V64C80.5 72.8366 73.3366 80 64.5 80H16.5C7.66344 80 0.5 72.8366 0.5 64V16Z" fill="#F0EFFF"/>
<g clip-path="url(#clip0_1_1351)">
<path d="M39.3564 19.548C38.3395 19.6601 37.6187 19.7803 36.9541 19.9484C34.5117 20.557 32.3256 21.7982 30.5078 23.624C28.0494 26.0824 26.64 29.1974 26.4158 32.6969C26.3598 33.4977 26.3518 33.5217 26.1516 33.5617C24.566 33.9061 23.533 34.6348 22.9805 35.7959C22.5 36.8209 22.5 36.8049 22.5 41.8018C22.5 45.9098 22.516 46.4143 22.6441 46.8787C23.0926 48.5043 24.2137 49.5854 25.8473 49.9617C26.2477 50.0578 26.8242 50.0898 28.0574 50.0898H29.7231L29.9232 49.8896C30.0354 49.7775 30.1475 49.5773 30.1795 49.4412C30.2436 49.1129 30.2436 34.4906 30.1795 34.1623C30.1475 34.0262 30.0354 33.826 29.9313 33.7139C29.7471 33.5297 29.667 33.5137 28.8342 33.4977L27.9453 33.4736L27.9693 32.833C28.0654 30.5348 28.8982 28.1484 30.2836 26.2025C31.2205 24.8892 32.9102 23.3838 34.3676 22.567C36.0652 21.6221 38.4035 21.0215 40.3975 21.0215C42.3914 21.0215 44.7297 21.6221 46.4273 22.567C47.8848 23.3838 49.5744 24.8892 50.5113 26.2025C51.8967 28.1484 52.7295 30.5348 52.8256 32.833L52.8496 33.4736L51.9607 33.4977C51.1199 33.5137 51.0479 33.5297 50.8637 33.7219C50.7355 33.85 50.6395 34.0582 50.6074 34.2584C50.5834 34.4426 50.5674 37.974 50.5834 42.1061L50.6074 49.6254L50.8717 49.8576C51.1279 50.0818 51.152 50.0898 52.0088 50.0898H52.8816L52.8416 50.5062C52.6174 52.8205 52.0729 54.2299 51.0158 55.1988C49.9748 56.1437 48.2051 56.7123 45.8348 56.8645L44.9859 56.9205L44.9379 56.424C44.8738 55.8314 44.7457 55.5592 44.3693 55.2309C43.9289 54.8465 43.5205 54.7984 40.6537 54.8305C38.3555 54.8545 38.0912 54.8705 37.835 55.0066C37.4426 55.2148 37.2824 55.375 37.1062 55.7113C36.9701 55.9756 36.9541 56.1998 36.9541 57.6492C36.9541 59.3869 36.9861 59.5951 37.3385 59.9715C37.8189 60.484 37.907 60.5 40.958 60.5C43.6727 60.5 43.7367 60.5 44.0811 60.3158C44.5855 60.0676 44.8818 59.6111 44.9379 58.9945L44.9859 58.5061L45.3943 58.466C45.6186 58.442 46.2191 58.3859 46.7236 58.3379C50.175 58.0096 52.2891 56.8164 53.4102 54.5742C53.9146 53.5652 54.1869 52.5322 54.3551 50.9787L54.4512 50.0578L55.0197 49.9217C56.6373 49.5213 57.7104 48.4803 58.1588 46.8707C58.2789 46.4143 58.2949 45.8937 58.2949 41.7617C58.2949 37.5416 58.2789 37.1172 58.1508 36.6367C57.6703 34.9551 56.5652 33.9781 54.6434 33.5617C54.4432 33.5217 54.4352 33.4977 54.3791 32.6969C53.9547 26.1064 49.134 20.7652 42.6396 19.6922C41.959 19.5801 39.877 19.484 39.3564 19.548ZM28.626 41.7617V48.5684H27.8492C25.4629 48.5604 24.3818 47.8797 24.0695 46.2061C23.9494 45.5654 23.9494 37.958 24.0695 37.3174C24.2457 36.3564 24.7502 35.6678 25.551 35.2994C26.0635 35.0672 26.648 34.9791 27.7691 34.9631L28.626 34.9551V41.7617ZM54.9717 35.2273C55.7885 35.5316 56.3891 36.1482 56.6293 36.941C56.7574 37.3574 56.7734 37.7898 56.7574 41.7617C56.7414 45.9258 56.7334 46.15 56.5732 46.6705C56.4291 47.127 56.325 47.3031 55.9486 47.6875C55.284 48.3602 54.8596 48.5043 53.3541 48.5523L52.1689 48.5844V41.8018V35.0191L53.3941 35.0592C54.251 35.0832 54.7154 35.1312 54.9717 35.2273ZM43.3604 57.6973V58.9785H40.918H38.4756V57.6973V56.416H40.918H43.3604V57.6973Z" fill="#3C2FC0"/>
</g>
<defs>
<clipPath id="clip0_1_1351">
<rect width="36" height="41" fill="white" transform="translate(22.5 19.5)"/>
</clipPath>
</defs>
</svg>
