<svg width="36" height="40" viewBox="0 0 36 40" fill="none" xmlns="http://www.w3.org/2000/svg">
<g clip-path="url(#clip0_1_1773)">
<path d="M16.9453 0.02055C15.9531 0.129925 15.25 0.247112 14.6016 0.411175C12.2188 1.00493 10.0859 2.21587 8.3125 3.99712C5.91406 6.39555 4.53906 9.43462 4.32031 12.8486C4.26562 13.6299 4.25781 13.6533 4.0625 13.6924C2.51562 14.0283 1.50781 14.7393 0.96875 15.8721C0.5 16.8721 0.5 16.8564 0.5 21.7314C0.5 25.7393 0.515625 26.2314 0.640625 26.6846C1.07812 28.2705 2.17188 29.3252 3.76562 29.6924C4.15625 29.7861 4.71875 29.8174 5.92188 29.8174H7.54688L7.74219 29.6221C7.85156 29.5127 7.96094 29.3174 7.99219 29.1846C8.05469 28.8643 8.05469 14.5986 7.99219 14.2783C7.96094 14.1455 7.85156 13.9502 7.75 13.8408C7.57031 13.6611 7.49219 13.6455 6.67969 13.6299L5.8125 13.6064L5.83594 12.9814C5.92969 10.7393 6.74219 8.41118 8.09375 6.51274C9.00781 5.23149 10.6562 3.76274 12.0781 2.96587C13.7344 2.04399 16.0156 1.45805 17.9609 1.45805C19.9062 1.45805 22.1875 2.04399 23.8438 2.96587C25.2656 3.76274 26.9141 5.23149 27.8281 6.51274C29.1797 8.41118 29.9922 10.7393 30.0859 12.9814L30.1094 13.6064L29.2422 13.6299C28.4219 13.6455 28.3516 13.6611 28.1719 13.8486C28.0469 13.9736 27.9531 14.1768 27.9219 14.3721C27.8984 14.5518 27.8828 17.9971 27.8984 22.0283L27.9219 29.3643L28.1797 29.5908C28.4297 29.8096 28.4531 29.8174 29.2891 29.8174H30.1406L30.1016 30.2236C29.8828 32.4814 29.3516 33.8564 28.3203 34.8018C27.3047 35.7236 25.5781 36.2783 23.2656 36.4268L22.4375 36.4814L22.3906 35.9971C22.3281 35.4189 22.2031 35.1533 21.8359 34.833C21.4062 34.458 21.0078 34.4111 18.2109 34.4424C15.9688 34.4658 15.7109 34.4814 15.4609 34.6143C15.0781 34.8174 14.9219 34.9736 14.75 35.3018C14.6172 35.5596 14.6016 35.7783 14.6016 37.1924C14.6016 38.8877 14.6328 39.0908 14.9766 39.458C15.4453 39.958 15.5312 39.9736 18.5078 39.9736C21.1562 39.9736 21.2188 39.9736 21.5547 39.7939C22.0469 39.5518 22.3359 39.1064 22.3906 38.5049L22.4375 38.0283L22.8359 37.9893C23.0547 37.9658 23.6406 37.9111 24.1328 37.8643C27.5 37.5439 29.5625 36.3799 30.6562 34.1924C31.1484 33.208 31.4141 32.2002 31.5781 30.6846L31.6719 29.7861L32.2266 29.6533C33.8047 29.2627 34.8516 28.2471 35.2891 26.6768C35.4062 26.2314 35.4219 25.7236 35.4219 21.6924C35.4219 17.5752 35.4062 17.1611 35.2812 16.6924C34.8125 15.0518 33.7344 14.0986 31.8594 13.6924C31.6641 13.6533 31.6562 13.6299 31.6016 12.8486C31.1875 6.41899 26.4844 1.20805 20.1484 0.161175C19.4844 0.0518 17.4531 -0.04195 16.9453 0.02055ZM6.47656 21.6924V28.333H5.71875C3.39062 28.3252 2.33594 27.6611 2.03125 26.0283C1.91406 25.4033 1.91406 17.9814 2.03125 17.3564C2.20312 16.4189 2.69531 15.7471 3.47656 15.3877C3.97656 15.1611 4.54688 15.0752 5.64062 15.0596L6.47656 15.0518V21.6924ZM32.1797 15.3174C32.9766 15.6143 33.5625 16.2158 33.7969 16.9893C33.9219 17.3955 33.9375 17.8174 33.9219 21.6924C33.9062 25.7549 33.8984 25.9736 33.7422 26.4814C33.6016 26.9268 33.5 27.0986 33.1328 27.4736C32.4844 28.1299 32.0703 28.2705 30.6016 28.3174L29.4453 28.3486V21.7314V15.1143L30.6406 15.1533C31.4766 15.1768 31.9297 15.2236 32.1797 15.3174ZM20.8516 37.2393V38.4893H18.4688H16.0859V37.2393V35.9893H18.4688H20.8516V37.2393Z" fill="white"/>
</g>
<defs>
<clipPath id="clip0_1_1773">
<rect width="35" height="40" fill="white" transform="translate(0.5)"/>
</clipPath>
</defs>
</svg>
