<svg width="64" height="64" viewBox="0 0 64 64" fill="none" xmlns="http://www.w3.org/2000/svg">
<path d="M0 16C0 7.16344 7.16344 0 16 0H48C56.8366 0 64 7.16344 64 16V48C64 56.8366 56.8366 64 48 64H16C7.16344 64 0 56.8366 0 48V16Z" fill="#DFDDFF"/>
<g clip-path="url(#clip0_1_389)">
<path d="M42.4878 22.7177C40.8253 24.0048 39.5717 25.0305 39.5181 25.131C39.4578 25.2584 39.4511 25.3455 39.498 25.4394C39.565 25.5533 39.5248 25.5869 39.1293 25.741C38.4924 25.9958 37.8757 26.0896 37.3528 26.0025C37.1182 25.9623 36.287 25.7209 35.5161 25.4729C34.2491 25.0573 34.0547 25.0104 33.5721 25.0104C33.0894 25.0104 32.9821 25.0372 32.4928 25.2651L31.9498 25.5265L31.4873 25.379C30.8906 25.1913 30.6158 25.1981 29.0472 25.3992C27.8405 25.56 26.8886 25.6472 25.2127 25.7477L24.5558 25.788L24.6161 25.6271C24.6496 25.5332 24.6631 25.3992 24.6429 25.3187C24.6228 25.2383 23.4229 24.2663 21.6934 22.9256C18.6433 20.5592 18.5427 20.4989 18.2746 20.7737C18.2008 20.8408 17.6847 22.9725 16.7663 26.9678C16.0021 30.3129 15.3719 33.1216 15.3719 33.2021C15.3719 33.4032 15.5798 33.5439 17.0881 34.3886C18.6098 35.2399 18.6835 35.2533 19.012 34.764L19.2332 34.4355L19.6153 34.7104L19.9907 34.9852L19.8499 35.26C19.6555 35.6354 19.6153 36.2656 19.7561 36.6879C19.9706 37.3381 20.6141 37.861 21.2979 37.9549C21.5928 37.9951 21.5928 38.0018 21.6398 38.3102C21.7939 39.3224 22.5715 40.0196 23.5503 40.0196H23.9927L24.1134 40.4151C24.2675 40.9446 24.7636 41.4608 25.2865 41.6351C25.7021 41.7692 26.2987 41.7491 26.6339 41.5815C26.8283 41.4809 26.8417 41.4809 26.8819 41.5882C27.197 42.5267 27.988 43.0831 28.8796 42.9892C29.3488 42.9423 29.6706 42.768 30.2806 42.2317C30.6493 41.91 30.8236 41.8027 30.904 41.8362C30.9711 41.8563 31.5007 42.1513 32.0839 42.4865C32.6604 42.8216 33.2503 43.13 33.3911 43.1836C33.9407 43.378 34.6714 43.2373 35.1273 42.8417C35.4222 42.587 35.7507 42.0172 35.7507 41.7491C35.7507 41.6083 35.7708 41.5949 35.9049 41.6351C36.2669 41.7491 36.8836 41.7491 37.2322 41.6351C37.8288 41.434 38.345 40.7972 38.4187 40.1603L38.4455 39.8922L38.8276 39.8788C39.7862 39.8587 40.5437 39.1347 40.6376 38.156L40.6778 37.7471L40.9996 37.7001C41.8241 37.5862 42.5146 36.8086 42.5414 35.9639L42.5548 35.6354L43.5536 34.65C44.0966 34.1003 44.5591 33.6847 44.5726 33.7249C44.6396 33.8992 45.3166 34.8645 45.4105 34.9182C45.5848 35.0254 45.7658 34.945 47.2473 34.107C48.3131 33.5037 48.6684 33.2758 48.7153 33.1484C48.7891 32.9272 46.0607 20.9413 45.8797 20.6866C45.6049 20.3045 45.5982 20.3045 42.4878 22.7177ZM46.5099 27.2493C47.1936 30.2525 47.7366 32.7261 47.7031 32.7596C47.6763 32.7864 47.2205 33.0546 46.6976 33.3428L45.7457 33.8791L45.4574 33.4032C45.2965 33.135 45.1491 32.8669 45.1222 32.7998C45.0954 32.7328 44.9949 32.5853 44.9077 32.4647C44.8206 32.344 43.8084 30.715 42.6553 28.8381C40.832 25.8617 40.5772 25.4193 40.6644 25.3321C40.7851 25.2115 45.2295 21.7658 45.2496 21.7792C45.2496 21.786 45.8194 24.2462 46.5099 27.2493ZM21.2644 23.7635C22.5179 24.7422 23.5503 25.5533 23.5503 25.5802C23.5503 25.6271 18.4757 33.8925 18.3952 33.973C18.3617 34.0132 16.5183 33.0412 16.3842 32.9205C16.3708 32.9004 18.5025 23.4887 18.8042 22.2418C18.8444 22.0809 18.898 21.9602 18.9248 21.9737C18.9516 21.9871 20.0041 22.7915 21.2644 23.7635ZM35.315 26.3846C36.106 26.646 36.9774 26.8873 37.2523 26.9276C37.9293 27.0147 38.5863 26.9209 39.4108 26.6125C39.7661 26.4851 40.0611 26.3846 40.0678 26.398C40.0946 26.4315 43.9424 32.7127 43.9826 32.7797C43.9961 32.8066 43.5938 33.2557 43.0844 33.7652L42.1593 34.6969L41.8844 34.4355C41.5292 34.0936 34.3899 28.2884 34.2022 28.1945C34.0815 28.1275 33.9542 28.161 33.3374 28.456C32.3721 28.9118 31.7353 29.0794 30.8906 29.0861C30.3745 29.0928 30.113 29.0593 29.751 28.9453C29.1812 28.771 28.7455 28.5297 28.7455 28.3956C28.7455 28.3353 29.6036 27.8392 30.9912 27.1086C32.9955 26.0427 33.2704 25.9153 33.5586 25.9153C33.7799 25.9153 34.3363 26.0628 35.315 26.3846ZM30.6225 26.2237C30.5488 26.2773 29.9924 26.5857 29.3823 26.9008C28.7723 27.2225 28.1958 27.5644 28.0953 27.6583C27.8405 27.913 27.7333 28.3286 27.8271 28.6571C27.9545 29.0593 28.1422 29.247 28.7321 29.5352C29.5566 29.9307 30.046 30.0246 31.0917 29.9844C32.0503 29.9442 32.4727 29.8503 33.438 29.4347C33.9542 29.2135 34.0279 29.1934 34.1284 29.2872C34.1888 29.3408 35.811 30.6547 37.7282 32.2166C39.6455 33.7719 41.2945 35.1394 41.3951 35.2466C41.6096 35.488 41.6833 35.8634 41.5828 36.1382C41.4085 36.6075 40.8923 36.9024 40.4633 36.7817C40.3493 36.7482 38.9952 35.8097 37.4534 34.6969C35.9049 33.5842 34.5441 32.6256 34.4301 32.5652C34.2558 32.4848 34.1754 32.4781 34.0413 32.5384C33.8134 32.6457 33.7128 32.9138 33.8201 33.1417C33.8737 33.2423 34.9932 34.0936 36.6557 35.2936C38.3718 36.5337 39.4578 37.365 39.5516 37.5057C39.7259 37.7672 39.7527 38.1023 39.6052 38.3772C39.3103 38.9604 38.6399 39.1012 38.0902 38.7057C37.9293 38.585 36.7428 37.7404 35.4557 36.8287C33.5452 35.4746 33.0693 35.1662 32.895 35.1662C32.6403 35.1662 32.466 35.3606 32.466 35.6489C32.466 35.8768 32.5263 35.9237 35.0938 37.7404C36.2267 38.5448 37.2322 39.2889 37.326 39.4028C37.7752 39.9324 37.3394 40.7972 36.6155 40.7972C36.2535 40.7972 36.5015 40.9513 33.4782 38.8531C31.3733 37.3985 31.2392 37.3247 30.9778 37.6398C30.8236 37.8409 30.8236 38.0554 30.9912 38.2297C31.0649 38.3102 31.8895 38.9068 32.8347 39.557C33.7732 40.2073 34.6044 40.8173 34.6781 40.9111C34.9932 41.3066 34.8725 41.8831 34.4167 42.1848C34.0145 42.4596 33.8067 42.406 32.6269 41.729C32.0436 41.3938 31.5476 41.1055 31.5342 41.0921C31.5141 41.0787 31.5543 40.9513 31.6213 40.8173C32.1442 39.7246 31.3867 38.3772 30.1532 38.2029C29.8717 38.1694 29.8516 38.1493 29.8181 37.9213C29.684 37.1303 29.1678 36.4734 28.5176 36.279C28.3165 36.2187 28.0819 36.1717 28.0014 36.1717C27.874 36.1717 27.8405 36.1248 27.807 35.917C27.693 35.2265 27.3512 34.7171 26.7814 34.3819C26.359 34.1339 25.6418 34.0869 25.1926 34.288C25.0183 34.3618 24.8642 34.4288 24.8575 34.4288C24.8507 34.4288 24.8239 34.3484 24.8038 34.2411C24.7368 33.926 24.3681 33.43 24.0463 33.2222C23.6173 32.954 23.1145 32.8535 22.652 32.954C22.2163 33.0412 21.9548 33.2088 21.2644 33.8322C20.9828 34.0869 20.7147 34.2947 20.6677 34.2947C20.6275 34.2947 20.4063 34.154 20.1784 33.9797C19.9505 33.8121 19.7494 33.6579 19.736 33.6512C19.7225 33.6378 20.6677 32.0826 21.8342 30.1855L23.9592 26.7332L24.8776 26.6929C26.3657 26.6192 28.2964 26.4516 29.4628 26.284C30.837 26.0963 30.7901 26.0963 30.6225 26.2237ZM23.5234 33.9931C23.919 34.2545 24.0731 34.8712 23.8318 35.2466C23.7715 35.3472 23.3156 35.7762 22.833 36.1985C21.6934 37.184 21.4051 37.2577 20.8554 36.7147C20.6275 36.4868 20.6007 36.4198 20.6007 36.1315C20.6074 35.9505 20.6409 35.736 20.6878 35.6556C20.8018 35.4544 22.3973 34.0333 22.6453 33.9193C22.8866 33.8054 23.2888 33.8389 23.5234 33.9931ZM26.406 35.2332C26.8417 35.5081 26.9959 36.1248 26.7344 36.5471C26.6808 36.6276 26.0373 37.2175 25.2999 37.8677C23.8653 39.128 23.7246 39.2084 23.2553 39.0542C22.9604 38.9604 22.6319 38.5917 22.5782 38.29C22.4911 37.861 22.6319 37.6331 23.4028 36.9627C23.7916 36.6209 24.3614 36.1181 24.6563 35.8433C24.9513 35.5751 25.2865 35.2936 25.3937 35.2265C25.6619 35.0589 26.1177 35.0589 26.406 35.2332ZM28.5042 37.2912C28.598 37.365 28.7321 37.5594 28.7991 37.7202C28.9064 37.9683 28.9131 38.0688 28.8528 38.29C28.7924 38.518 28.6248 38.699 27.7132 39.5101C27.13 40.033 26.5333 40.5357 26.3993 40.6296C25.7691 41.0519 24.958 40.6162 24.958 39.852C24.958 39.6844 25.0049 39.49 25.0586 39.4028C25.206 39.2017 27.3244 37.3314 27.5523 37.2041C27.7936 37.0767 28.2696 37.1169 28.5042 37.2912ZM30.5689 39.4028C30.837 39.6777 30.9242 40.0665 30.7901 40.4017C30.7029 40.6028 29.5298 41.7156 29.1477 41.9502C28.7522 42.1915 28.1623 42.044 27.9076 41.6351C27.7668 41.4005 27.7333 41.0452 27.8338 40.7771C27.8942 40.6229 29.2483 39.376 29.5499 39.195C29.6237 39.1548 29.8315 39.128 30.0058 39.1414C30.2739 39.1682 30.3812 39.2151 30.5689 39.4028Z" fill="#3C2FC0"/>
</g>
<defs>
<clipPath id="clip0_1_389">
<rect width="35" height="23" fill="white" transform="translate(14.5 20.5)"/>
</clipPath>
</defs>
</svg>
