<svg width="65" height="64" viewBox="0 0 65 64" fill="none" xmlns="http://www.w3.org/2000/svg">
<path d="M0.5 16C0.5 7.16344 7.66344 0 16.5 0H48.5C57.3366 0 64.5 7.16344 64.5 16V48C64.5 56.8366 57.3366 64 48.5 64H16.5C7.66344 64 0.5 56.8366 0.5 48V16Z" fill="#DFDDFF"/>
<g clip-path="url(#clip0_1_1290)">
<path d="M31.3123 15.7743C28.3506 17.3349 26.2389 20.2833 25.5416 23.8228C25.1432 25.8614 25.1366 27.8138 25.5284 30.3638L25.6811 31.32L25.0104 31.9907C23.3436 33.6443 22.5002 35.6763 22.5002 38.0337C22.4936 39.0564 22.633 39.8732 22.9584 40.8161C23.2373 41.613 23.4166 41.9849 23.8615 42.6622C24.2268 43.22 24.4326 43.3595 24.7248 43.2532C24.9639 43.1603 25.0768 42.9478 25.1299 42.5161C25.3225 40.9822 26.1061 39.3884 27.2151 38.3126C27.5006 38.0337 27.5471 38.0072 27.5869 38.1134C27.6135 38.1798 27.7397 38.5185 27.8725 38.8638C27.9987 39.2091 28.1647 39.5611 28.2444 39.6474L28.3772 39.7935H32.076H35.7748L35.9076 39.6407C35.9807 39.5611 36.1866 39.1161 36.3592 38.6513L36.6713 37.8079L36.8905 37.9739C37.1694 38.1864 37.694 38.7907 38.0326 39.2954C38.6303 40.1853 39.0487 41.2611 39.208 42.3302C39.301 42.9345 39.3741 43.0872 39.6264 43.1868C39.8987 43.2864 40.1444 43.1337 40.4631 42.6556C41.0276 41.8056 41.4127 40.9224 41.6385 39.9661C42.369 36.8716 41.3596 33.6974 38.9823 31.5857C38.7432 31.3798 38.544 31.1806 38.5307 31.154C38.5174 31.1275 38.5705 30.6892 38.6436 30.1845C39.3741 25.1642 38.5041 21.2728 35.9674 18.2845C34.885 17.0029 32.76 15.4821 32.0627 15.4888C31.9366 15.4888 31.6178 15.615 31.3123 15.7743ZM32.5276 16.8435C32.9194 17.0427 33.7561 17.6404 34.2807 18.0986C34.6725 18.4439 35.7284 19.6458 35.7284 19.7521C35.7284 19.7786 34.1147 19.8052 32.1424 19.8052C30.1702 19.8052 28.5565 19.7853 28.5565 19.7587C28.5565 19.7388 28.6362 19.6126 28.7358 19.4798C29.4928 18.4638 30.6416 17.4611 31.7108 16.87C32.1158 16.6443 32.1358 16.6443 32.5276 16.8435ZM36.7178 21.4122C37.9795 24.1415 38.1588 27.4419 37.2889 31.7318C36.9037 33.6243 36.1135 36.3204 35.3963 38.1864L35.1838 38.731L32.0627 38.7177L28.9416 38.6978L28.6827 38.0005C28.5432 37.6154 28.4237 37.2302 28.4237 37.1439C28.4237 37.0575 28.3041 36.606 28.1514 36.1544C27.7862 35.0189 27.4209 33.6642 27.1287 32.3626C26.9959 31.765 26.8432 31.2072 26.7901 31.1275C26.5975 30.8353 26.2987 28.2521 26.2987 26.8841C26.2987 24.9318 26.7635 22.7138 27.4674 21.3259L27.6932 20.8677H32.0827H36.4655L36.7178 21.4122ZM38.783 32.8673C39.9252 34.1091 40.6092 35.6165 40.7752 37.2501C40.9014 38.4654 40.6623 39.9595 40.1709 41.0087C40.0912 41.1947 40.0846 41.188 39.8787 40.6103C39.4205 39.3353 38.8561 38.4521 37.8401 37.4427L37.1096 36.7189L37.176 36.4798C37.2158 36.347 37.435 35.5634 37.6741 34.7333C37.9131 33.9099 38.1455 33.0466 38.192 32.8275C38.2319 32.6017 38.2916 32.4224 38.3182 32.4224C38.3514 32.4224 38.5573 32.6216 38.783 32.8673ZM26.8299 35.8224L27.1619 36.8583L26.5112 37.5157C25.5416 38.4919 24.8311 39.6275 24.4393 40.8161C24.2866 41.2743 24.2866 41.2743 24.1936 41.1017C24.0342 40.7962 23.7287 39.7802 23.6424 39.2622C23.5229 38.5849 23.5362 37.363 23.669 36.6657C23.9346 35.2646 24.5721 33.9896 25.5151 32.9802L25.9268 32.5419L26.2123 33.6642C26.3717 34.2751 26.6506 35.2447 26.8299 35.8224Z" fill="#3C2FC0"/>
<path d="M31.6777 24.9909C30.8344 25.1304 30.1039 25.6882 29.7055 26.4983C29.4664 26.9831 29.4531 27.0296 29.4531 27.6737C29.4531 28.3179 29.4664 28.3644 29.7055 28.8491C30.2434 29.9382 31.3391 30.5159 32.541 30.3499C33.4242 30.2304 34.2211 29.6327 34.6195 28.7894C34.8121 28.371 34.832 28.2847 34.832 27.6671C34.832 27.0296 34.8188 26.9831 34.5797 26.4983C34.2211 25.7679 33.6102 25.2433 32.9062 25.064C32.468 24.9511 32.0629 24.9312 31.6777 24.9909ZM32.8266 26.1597C33.1453 26.2858 33.6234 26.8171 33.723 27.1624C33.8426 27.5675 33.816 27.9726 33.6434 28.3378C33.3445 28.9687 32.8133 29.314 32.1426 29.314C31.4719 29.314 30.9406 28.9687 30.6418 28.3378C30.3629 27.7468 30.4559 27.1093 30.9008 26.6046C31.4188 26.0202 32.0762 25.8675 32.8266 26.1597Z" fill="#3C2FC0"/>
<path d="M29.2406 42.084C28.9152 42.2234 28.8887 42.3961 28.8887 44.5742C28.8887 46.6062 28.9219 46.9051 29.1543 47.0312C29.3668 47.1441 29.6523 47.1043 29.8051 46.9449C29.9512 46.7922 29.9512 46.759 29.9512 44.5808C29.9512 43.266 29.9246 42.323 29.8848 42.25C29.7852 42.064 29.4797 41.9844 29.2406 42.084Z" fill="#3C2FC0"/>
<path d="M34.6195 42.0845C34.5133 42.131 34.4004 42.2173 34.3738 42.2837C34.3539 42.3435 34.334 43.3861 34.334 44.6013V46.8126L34.4867 46.9521C34.7723 47.2177 35.1973 47.1181 35.3234 46.7595C35.4363 46.4275 35.423 42.6423 35.3035 42.3568C35.184 42.0712 34.9117 41.965 34.6195 42.0845Z" fill="#3C2FC0"/>
<path d="M31.7508 44.5477C31.618 44.7203 31.6113 44.8 31.6113 46.9316C31.6113 49.0633 31.618 49.143 31.7508 49.3156C31.9434 49.5613 32.3418 49.5613 32.5344 49.3156C32.6672 49.143 32.6738 49.0633 32.6738 46.9316C32.6738 44.8 32.6672 44.7203 32.5344 44.5477C32.4281 44.4148 32.3418 44.375 32.1426 44.375C31.9434 44.375 31.857 44.4148 31.7508 44.5477Z" fill="#3C2FC0"/>
</g>
<defs>
<clipPath id="clip0_1_1290">
<rect width="20" height="35" fill="white" transform="translate(22.5 14.5)"/>
</clipPath>
</defs>
</svg>
