<svg width="33" height="39" viewBox="0 0 33 39" fill="none" xmlns="http://www.w3.org/2000/svg">
<g clip-path="url(#clip0_1_364)">
<path d="M17.7404 0.0762995C17.3748 0.221026 17.3291 0.403839 17.3291 1.69876C17.3291 2.87181 17.3367 2.90989 17.5119 3.08509C17.7861 3.35931 18.068 3.40501 18.3879 3.22981C18.5707 3.13079 18.6926 2.99368 18.7535 2.81849C18.883 2.43763 18.8754 0.822784 18.7459 0.502862C18.5631 0.0686822 18.1746 -0.0988958 17.7404 0.0762995Z" fill="#3C2FC0"/>
<path d="M9.3997 2.55159C9.14833 2.6887 8.99599 3.03909 9.06454 3.34378C9.12548 3.618 10.4966 4.9053 10.9155 5.0805C11.144 5.1719 11.205 5.1719 11.4487 5.05003C11.7915 4.88245 11.9515 4.57776 11.8905 4.22737C11.8448 3.99124 11.5401 3.67893 10.3747 2.68108C10.0548 2.41448 9.73485 2.36878 9.3997 2.55159Z" fill="#3C2FC0"/>
<path d="M25.1823 3.16875C24.7253 3.56484 24.3063 3.99902 24.2606 4.12089C24.055 4.60078 24.4511 5.1416 24.9843 5.12636C25.2889 5.11875 25.6089 4.88261 26.5229 3.99902C26.9419 3.59531 27.079 3.4125 27.079 3.26015C27.079 2.78027 26.7286 2.4375 26.2487 2.4375C26.0659 2.4375 25.845 2.58984 25.1823 3.16875Z" fill="#3C2FC0"/>
<path d="M16.6512 6.787C15.5086 7.0079 14.9525 7.90673 14.5488 10.2071C13.8557 14.168 13.0711 16.2628 11.5857 18.1594C10.923 19.0049 9.40723 20.4446 9.30059 20.3303C9.28535 20.3151 9.20156 20.1628 9.11777 19.9876C9.03398 19.82 8.8207 19.5534 8.64551 19.3934C8.02851 18.8374 8.12754 18.8526 4.68457 18.8526C1.69863 18.8526 1.58437 18.8602 1.24922 19.0126C0.807422 19.2182 0.411328 19.6143 0.182812 20.079L0 20.4522V28.6026V36.753L0.213281 37.1872C0.441797 37.6518 0.700781 37.9108 1.21113 38.185C1.51582 38.3526 1.57676 38.3526 4.64648 38.3526C7.67051 38.3526 7.77715 38.345 8.11992 38.1926C8.5541 37.987 8.96543 37.5833 9.14824 37.1796C9.22441 37.0044 9.3082 36.8673 9.33105 36.8673C9.36152 36.8673 9.74238 37.0348 10.1766 37.2405C11.799 38.0022 14.0537 38.6573 15.859 38.8858C16.6969 38.9924 17.6643 39.0077 22.7373 38.9848C29.3262 38.962 28.8844 38.9924 29.7299 38.4135C30.4992 37.888 31.04 36.8444 31.04 35.877C31.04 35.4276 30.7963 34.4755 30.6592 34.3917C30.5068 34.3003 30.5906 34.2165 31.0629 33.988C31.9541 33.5462 32.632 32.6321 32.792 31.6571C32.9291 30.8192 32.632 29.8137 32.0684 29.1891L31.7865 28.8768L32.0531 28.5493C33.0662 27.3153 33.0738 25.571 32.0684 24.4665L31.7865 24.1465L32.0607 23.8266C33.6223 22.0061 32.632 19.1801 30.2859 18.7383C30.0346 18.6926 28.0389 18.6622 25.2053 18.6622C21.5109 18.6622 20.5283 18.6393 20.5283 18.5631C20.5283 18.5174 20.7645 17.5805 21.0539 16.4913C21.7547 13.8405 21.7775 13.7415 21.7699 12.6446C21.7623 11.8905 21.7242 11.5401 21.5719 10.9536C21.2139 9.58251 20.4293 8.31044 19.5152 7.6249C18.6545 6.97743 17.4814 6.62704 16.6512 6.787ZM17.9156 8.4704C19.1496 8.92743 20.0484 10.3594 20.2541 12.2256C20.3455 12.9797 20.1855 13.8481 19.4543 16.5674C19.0734 17.9919 18.7611 19.2868 18.7535 19.4391C18.7459 19.66 18.7916 19.7743 18.9516 19.9342L19.1572 20.1475L24.6645 20.1856L30.1641 20.2237L30.5221 20.437C31.5656 21.0463 31.558 22.5698 30.5068 23.1563C30.1717 23.3391 30.126 23.3467 28.1607 23.3848L26.1498 23.4229L25.967 23.6362C25.7689 23.8647 25.7232 24.2684 25.8604 24.5274C26.0279 24.8397 26.2031 24.8702 28.275 24.9083L30.2631 24.9464L30.5982 25.1749C31.4361 25.769 31.5428 26.8964 30.8268 27.5971C30.3621 28.0542 30.065 28.1075 28.016 28.1075H26.226L26.0051 28.3284C25.7004 28.6331 25.7004 29.0063 26.0051 29.3415L26.226 29.5928L28.2369 29.6309C30.4687 29.6766 30.5145 29.6842 30.9562 30.2174C31.5809 30.9792 31.299 32.1979 30.4002 32.6092C30.126 32.7311 29.8746 32.754 28.275 32.754C26.7896 32.754 26.4088 32.7768 26.2031 32.8682C25.7385 33.0967 25.6395 33.6833 26.0051 34.0565C26.226 34.2774 26.2412 34.2774 27.1172 34.2774C28.1684 34.2774 28.5645 34.3612 28.9453 34.6811C29.8898 35.4581 29.5699 37.0577 28.3969 37.4005C28.1912 37.4614 26.3555 37.4766 22.0518 37.4538C15.4857 37.4233 15.8514 37.4462 13.9852 36.9739C12.4541 36.593 10.6488 35.8694 9.69668 35.2524L9.33105 35.0239V28.6483V22.2727L10.1689 21.6405C11.8904 20.3608 13.1625 18.8602 14.0842 17.0626C14.9525 15.3639 15.4629 13.6881 15.9504 10.9688C16.316 8.94267 16.4988 8.44755 16.9482 8.27997C17.1006 8.22665 17.4281 8.28759 17.9156 8.4704ZM7.60957 20.4979L7.80762 20.6503V28.6026V36.5549L7.60957 36.7073C7.41152 36.8596 7.32012 36.8673 4.67695 36.8673H1.95L1.73672 36.6844L1.52344 36.5016V28.6026V20.7036L1.73672 20.5208L1.95 20.338H4.67695C7.32012 20.338 7.41152 20.3456 7.60957 20.4979Z" fill="#3C2FC0"/>
<path d="M4.36453 23.2553C4.09793 23.499 4.02938 23.8418 4.18934 24.1389C4.56258 24.8701 5.59852 24.6187 5.59852 23.8037C5.59852 23.1867 4.81395 22.8439 4.36453 23.2553Z" fill="#3C2FC0"/>
<path d="M6.61925 9.0643C6.16222 9.23949 5.99464 9.87934 6.30694 10.2526C6.52784 10.504 6.91632 10.5801 8.08937 10.5801C8.91964 10.5877 8.95773 10.5801 9.18624 10.3745C9.60519 10.0012 9.46046 9.31567 8.93487 9.1557C8.61495 9.05668 6.82491 8.98813 6.61925 9.0643Z" fill="#3C2FC0"/>
<path d="M28.0693 9.05681C26.9115 9.11775 26.6982 9.24724 26.6982 9.88708C26.6982 10.1385 26.7439 10.2299 26.9344 10.3899C27.1553 10.5803 27.2086 10.5879 28.016 10.5803C29.1891 10.5803 29.5775 10.5041 29.7984 10.2527C30.225 9.75759 29.7908 8.95017 29.1205 9.00349C29.0291 9.01111 28.5492 9.03396 28.0693 9.05681Z" fill="#3C2FC0"/>
</g>
<defs>
<clipPath id="clip0_1_364">
<rect width="33" height="39" fill="white"/>
</clipPath>
</defs>
</svg>
