<svg width="95" height="21" viewBox="0 0 95 21" fill="none" xmlns="http://www.w3.org/2000/svg">
<g clip-path="url(#clip0_1_424)">
<path d="M84.2812 0H11.2812C5.48226 0 0.78125 4.70101 0.78125 10.5C0.78125 16.299 5.48226 21 11.2812 21H84.2812C90.0802 21 94.7812 16.299 94.7812 10.5C94.7812 4.70101 90.0802 0 84.2812 0Z" fill="#00B77A"/>
<path d="M17.7813 6L19.2508 8.97746L22.5366 9.45492L20.1589 11.7725L20.7202 15.0451L17.7813 13.5L14.8424 15.0451L15.4037 11.7725L13.026 9.45492L16.3118 8.97746L17.7813 6Z" fill="white"/>
<path d="M32.7813 6L34.2508 8.97746L37.5366 9.45492L35.1589 11.7725L35.7202 15.0451L32.7813 13.5L29.8424 15.0451L30.4037 11.7725L28.026 9.45492L31.3118 8.97746L32.7813 6Z" fill="white"/>
<path d="M47.7813 6L49.2508 8.97746L52.5366 9.45492L50.1589 11.7725L50.7202 15.0451L47.7813 13.5L44.8424 15.0451L45.4037 11.7725L43.026 9.45492L46.3118 8.97746L47.7813 6Z" fill="white"/>
<path d="M62.7813 6L64.2508 8.97746L67.5366 9.45492L65.1589 11.7725L65.7202 15.0451L62.7813 13.5L59.8424 15.0451L60.4037 11.7725L58.026 9.45492L61.3118 8.97746L62.7813 6Z" fill="white"/>
<path d="M77.7813 6L79.2508 8.97746L82.5366 9.45492L80.1589 11.7725L80.7202 15.0451L77.7813 13.5L74.8424 15.0451L75.4037 11.7725L73.026 9.45492L76.3118 8.97746L77.7813 6Z" fill="white"/>
</g>
<defs>
<clipPath id="clip0_1_424">
<rect width="94" height="21" fill="white" transform="translate(0.78125)"/>
</clipPath>
</defs>
</svg>
