<svg width="38" height="41" viewBox="0 0 38 41" fill="none" xmlns="http://www.w3.org/2000/svg">
<g clip-path="url(#clip0_1_1780)">
<path d="M8.46875 0.645752C8 0.880127 7.71875 1.29419 7.60156 1.93481C7.21875 4.03638 5.6875 5.78637 3.54688 6.56762C3.19531 6.70044 2.58594 6.85669 2.1875 6.927C1.79688 6.99731 1.38281 7.09887 1.26562 7.15356C0.960938 7.31762 0.585938 7.77856 0.53125 8.07544C0.5 8.21606 0.492188 10.3333 0.507812 12.7786C0.53125 16.3333 0.554688 17.2708 0.640625 17.4426C0.78125 17.7161 1.10156 17.8489 1.375 17.7473C1.71875 17.6145 1.75 17.4583 1.66406 16.3176C1.625 15.7473 1.58594 13.7239 1.58594 11.8254C1.58594 7.94262 1.54688 8.177 2.19531 8.09106C3.23438 7.95044 4.77344 7.37231 5.63281 6.79419C7.22656 5.70825 8.36719 4.02856 8.6875 2.29419C8.73438 2.05981 8.8125 1.80981 8.85938 1.75513C8.99219 1.59106 28.2422 1.59106 28.375 1.74731C28.4219 1.80981 28.5 2.04419 28.5391 2.27856C28.875 4.04419 30 5.70825 31.6016 6.79419C32.4609 7.37231 34 7.95044 35.0391 8.09106C35.6875 8.177 35.6484 7.93481 35.6484 11.8645C35.6484 13.7864 35.6094 15.7942 35.5703 16.3333C35.5 17.2317 35.5 17.3254 35.6406 17.5051C35.8516 17.7942 36.3125 17.7786 36.5391 17.4817C36.7031 17.2629 36.7031 17.1926 36.7266 12.7551C36.75 9.66919 36.7266 8.16137 36.6719 7.96606C36.625 7.802 36.4453 7.552 36.2734 7.40356C35.9609 7.1145 35.8359 7.06762 34.75 6.8645C32.1172 6.35669 30.0859 4.40356 29.6328 1.93481C29.5156 1.29419 29.2344 0.872315 28.7578 0.63794L28.4141 0.473877H18.6094H8.8125L8.46875 0.645752Z" fill="white"/>
<path d="M10.7657 3.28613C10.2735 3.5205 10.1407 3.66894 9.67972 4.48925C9.08597 5.54394 8.58597 6.18456 7.78128 6.96581C6.96097 7.75488 6.03128 8.38769 4.92191 8.91113C3.98441 9.35644 3.67972 9.583 3.43753 10.0361C3.27347 10.3486 3.26566 10.4189 3.27347 13.0517C3.27347 15.8095 3.33597 16.7236 3.62503 18.3642C4.67972 24.372 7.98441 29.8095 13.0313 33.8642C14.9063 35.372 17.6563 37.0595 18.3907 37.1611C18.8907 37.2314 19.25 37.1064 20.336 36.4814C27.4922 32.4033 32.2969 25.8564 33.6094 18.3642C33.8985 16.7392 33.961 15.8095 33.961 13.0517C33.9688 10.5674 33.961 10.333 33.8203 10.083C33.5625 9.59081 33.2813 9.37206 32.375 8.94238C31.1953 8.38769 30.2891 7.7705 29.4532 6.96581C28.6485 6.18456 28.1485 5.54394 27.5547 4.48925C27.0938 3.66894 26.961 3.5205 26.4688 3.28613C26.1641 3.13769 25.8828 3.12988 18.6172 3.12988C11.3516 3.12988 11.0703 3.13769 10.7657 3.28613ZM26.0391 4.32519C26.1563 4.37988 26.3672 4.66113 26.5469 5.00488C27.7344 7.208 29.3985 8.77831 31.7578 9.91113C32.4766 10.2549 32.6953 10.3955 32.7657 10.5674C32.9063 10.9033 32.8125 16.1142 32.6485 17.2705C32.1953 20.4033 31.0782 23.5361 29.4375 26.2627C27.6797 29.1689 25.0313 31.9736 22.086 34.0283C20.625 35.0517 18.9375 36.0205 18.6172 36.0205C18.2188 36.0205 16.0157 34.6924 14.3907 33.4658C8.59378 29.1064 5.1016 23.0049 4.4766 16.1377C4.36722 14.9345 4.37503 10.7705 4.48441 10.5205C4.54691 10.3877 4.77347 10.2392 5.21097 10.0439C7.6016 8.97363 9.48441 7.24706 10.6875 5.00488C10.8672 4.66113 11.0782 4.37988 11.1953 4.32519C11.4844 4.17675 25.75 4.17675 26.0391 4.32519Z" fill="white"/>
<path d="M17.4845 6.52834C15.797 6.89553 14.4454 7.95022 13.6642 9.5049C13.1876 10.4658 13.1329 10.7861 13.0938 12.833L13.0548 14.6924H12.4688C12.1407 14.6924 11.7345 14.7393 11.5548 14.7861C11.1329 14.9111 10.5548 15.4893 10.4298 15.9111C10.3048 16.333 10.297 24.7393 10.422 25.1846C10.5235 25.5518 10.961 26.0518 11.3829 26.2783L11.7032 26.4502H18.6173H25.5313L25.8985 26.2705C26.1017 26.1689 26.3751 25.9658 26.5001 25.8174C26.9688 25.2939 26.9767 25.1611 26.9767 20.5986C26.9767 18.0439 26.9454 16.3174 26.8907 16.0986C26.7813 15.6143 26.4688 15.1924 26.047 14.9424C25.7423 14.7627 25.5704 14.7236 24.9454 14.6924L24.2032 14.6533L24.1642 12.7002C24.1173 10.8018 24.1095 10.7314 23.8985 10.1611C23.047 7.87991 20.9454 6.39553 18.6017 6.41897C18.2423 6.41897 17.7423 6.47365 17.4845 6.52834ZM20.1407 7.8174C21.1329 8.16115 22.0704 8.98928 22.5548 9.9424C22.9767 10.7861 23.0704 11.3564 23.0704 13.1455V14.6924H18.6563H14.2423V13.0518C14.2423 12.1533 14.2813 11.2314 14.3282 11.0049C14.6095 9.63772 15.7579 8.32522 17.1095 7.8174C17.9767 7.49709 19.2188 7.48928 20.1407 7.8174ZM25.6173 16.0439L25.8048 16.2627V20.5596V24.8643L25.5782 25.0908L25.3517 25.3174H18.6173H11.8907L11.7032 25.1221L11.5079 24.9346V20.5674V16.2002L11.6876 16.0439C11.7813 15.958 11.9142 15.8643 11.9767 15.8408C12.0392 15.8174 15.0938 15.8018 18.7579 15.8096L25.4298 15.8252L25.6173 16.0439Z" fill="white"/>
<path d="M18.1091 18.7389C17.7341 18.9185 17.57 19.0904 17.3981 19.4967C17.1794 20.0201 17.4138 20.7779 17.8747 21.0201C18.07 21.1217 18.07 21.1373 18.07 22.0514C18.07 22.9342 18.0778 22.9889 18.2653 23.1685C18.4763 23.3873 18.5935 23.4029 18.8825 23.2779C19.156 23.1529 19.2419 22.8326 19.2419 21.942C19.2419 21.1764 19.2419 21.1607 19.4763 20.9654C19.8044 20.692 19.945 20.3873 19.945 19.9576C19.945 18.9967 18.9606 18.3404 18.1091 18.7389Z" fill="white"/>
<path d="M1.24996 19.8329C1.04684 20.0516 1.0859 20.4266 1.43746 21.6532C2.82809 26.5907 5.5859 31.0516 9.4609 34.6376C11.6093 36.622 13.7265 38.0907 16.664 39.6454C18.1796 40.4423 18.4765 40.5438 18.9609 40.411C19.4062 40.2938 22.0781 38.8641 23.3281 38.0673C28.7812 34.5985 32.9609 29.5438 35.0859 23.8329C35.5546 22.5751 36.1171 20.6376 36.1171 20.2704C36.1171 19.747 35.539 19.497 35.1953 19.8641C35.1093 19.9657 34.9843 20.2704 34.914 20.5516C34.3984 22.7782 33.2734 25.5126 31.9843 27.6688C29.6484 31.5829 26.1406 35.0595 22.0547 37.5204C20.9531 38.1845 18.7968 39.3016 18.625 39.3016C18.5234 39.3016 17.875 38.997 17.1875 38.6298C13.8828 36.872 11.7109 35.3016 9.3984 32.9813C5.96871 29.536 3.56246 25.372 2.37496 20.786C2.23434 20.2313 2.09371 19.8563 2.00778 19.7938C1.80465 19.6454 1.3984 19.6688 1.24996 19.8329Z" fill="white"/>
</g>
<defs>
<clipPath id="clip0_1_1780">
<rect width="37" height="41" fill="white" transform="translate(0.5)"/>
</clipPath>
</defs>
</svg>
