<svg width="81" height="80" viewBox="0 0 81 80" fill="none" xmlns="http://www.w3.org/2000/svg">
<path d="M0.5 16C0.5 7.16344 7.66344 0 16.5 0H64.5C73.3366 0 80.5 7.16344 80.5 16V64C80.5 72.8366 73.3366 80 64.5 80H16.5C7.66344 80 0.5 72.8366 0.5 64V16Z" fill="#F0EFFF"/>
<g clip-path="url(#clip0_1_1339)">
<path d="M29.668 19.69C29.1875 19.9302 28.8992 20.3546 28.7791 21.0113C28.3867 23.1654 26.8172 24.9591 24.623 25.7599C24.2627 25.896 23.6381 26.0562 23.2297 26.1283C22.8293 26.2003 22.4049 26.3044 22.2848 26.3605C21.9725 26.5286 21.5881 27.0011 21.532 27.3054C21.5 27.4495 21.492 29.6196 21.508 32.1261C21.532 35.7696 21.5561 36.7305 21.6441 36.9067C21.7883 37.187 22.1166 37.3231 22.3969 37.219C22.7492 37.0829 22.7812 36.9227 22.6932 35.7536C22.6531 35.169 22.6131 33.095 22.6131 31.1491C22.6131 27.1693 22.5731 27.4095 23.2377 27.3214C24.3027 27.1773 25.8803 26.5847 26.7611 25.9921C28.3947 24.879 29.5639 23.1574 29.8922 21.3796C29.9402 21.1394 30.0203 20.8831 30.0684 20.8271C30.2045 20.6589 49.9357 20.6589 50.0719 20.8191C50.1199 20.8831 50.2 21.1234 50.24 21.3636C50.5844 23.1734 51.7375 24.879 53.3791 25.9921C54.26 26.5847 55.8375 27.1773 56.9025 27.3214C57.5672 27.4095 57.5271 27.1613 57.5271 31.1891C57.5271 33.1591 57.4871 35.2171 57.4471 35.7696C57.375 36.6905 57.375 36.7866 57.5191 36.9708C57.7354 37.2671 58.2078 37.2511 58.44 36.9468C58.6082 36.7225 58.6082 36.6505 58.6322 32.102C58.6562 28.939 58.6322 27.3935 58.5762 27.1933C58.5281 27.0251 58.3439 26.7689 58.1678 26.6167C57.8475 26.3204 57.7193 26.2724 56.6063 26.0642C53.9076 25.5437 51.8256 23.5417 51.3611 21.0113C51.241 20.3546 50.9527 19.9222 50.4643 19.682L50.1119 19.5138H40.0621H30.0203L29.668 19.69Z" fill="#3C2FC0"/>
<path d="M32.0223 22.3969C31.5179 22.6371 31.3817 22.7892 30.9093 23.6301C30.3007 24.7111 29.7882 25.3678 28.9634 26.1685C28.1225 26.9773 27.1696 27.626 26.0325 28.1625C25.0716 28.6189 24.7593 28.8512 24.511 29.3156C24.3429 29.636 24.3348 29.708 24.3429 32.4067C24.3429 35.2334 24.4069 36.1703 24.7032 37.852C25.7843 44.01 29.1716 49.5834 34.3446 53.7395C36.2665 55.285 39.0852 57.0147 39.838 57.1188C40.3505 57.1908 40.7188 57.0627 41.8319 56.4221C49.1671 52.242 54.0919 45.5315 55.4372 37.852C55.7335 36.1864 55.7975 35.2334 55.7975 32.4067C55.8056 29.8602 55.7975 29.6199 55.6534 29.3637C55.3891 28.8592 55.1009 28.6349 54.172 28.1945C52.9628 27.626 52.0339 26.9933 51.177 26.1685C50.3522 25.3678 49.8397 24.7111 49.2311 23.6301C48.7587 22.7892 48.6225 22.6371 48.1181 22.3969C47.8057 22.2447 47.5175 22.2367 40.0702 22.2367C32.6229 22.2367 32.3347 22.2447 32.0223 22.3969ZM47.6776 23.4619C47.7977 23.5179 48.014 23.8062 48.1981 24.1586C49.4153 26.4168 51.121 28.0263 53.5393 29.1875C54.2761 29.5399 54.5003 29.684 54.5723 29.8602C54.7165 30.2045 54.6204 35.5457 54.4522 36.7309C53.9878 39.942 52.8427 43.1532 51.161 45.9479C49.3593 48.9268 46.6446 51.8016 43.6257 53.9076C42.1282 54.9567 40.3985 55.9496 40.0702 55.9496C39.6618 55.9496 37.4036 54.5883 35.738 53.3311C29.7962 48.8627 26.2167 42.6086 25.5761 35.5698C25.4639 34.3365 25.472 30.0684 25.5841 29.8121C25.6481 29.676 25.8804 29.5239 26.3288 29.3236C28.7792 28.2265 30.7091 26.4568 31.9423 24.1586C32.1265 23.8062 32.3427 23.5179 32.4628 23.4619C32.7591 23.3097 47.3813 23.3097 47.6776 23.4619Z" fill="#3C2FC0"/>
<path d="M38.9089 25.7197C37.1792 26.0961 35.7938 27.1771 34.9931 28.7707C34.5046 29.7557 34.4485 30.084 34.4085 32.182L34.3685 34.0879H33.7679C33.4315 34.0879 33.0151 34.1359 32.831 34.184C32.3985 34.3121 31.806 34.9047 31.6778 35.3371C31.5497 35.7695 31.5417 44.3859 31.6698 44.8424C31.7739 45.2188 32.2224 45.7313 32.6548 45.9635L32.9831 46.1396H40.07H47.1569L47.5333 45.9555C47.7415 45.8514 48.0218 45.6432 48.1499 45.491C48.6304 44.9545 48.6384 44.8184 48.6384 40.1418C48.6384 37.5232 48.6063 35.7535 48.5503 35.5293C48.4382 35.0328 48.1179 34.6004 47.6854 34.3441C47.3731 34.16 47.197 34.1199 46.5563 34.0879L45.7956 34.0479L45.7556 32.0459C45.7075 30.1 45.6995 30.0279 45.4833 29.4433C44.6104 27.105 42.4563 25.5836 40.054 25.6076C39.6856 25.6076 39.1731 25.6636 38.9089 25.7197ZM41.6315 27.041C42.6485 27.3933 43.6095 28.2422 44.106 29.2191C44.5384 30.084 44.6345 30.6686 44.6345 32.5023V34.0879H40.1101H35.5856V32.4062C35.5856 31.4854 35.6257 30.5404 35.6737 30.3082C35.962 28.9068 37.1392 27.5615 38.5245 27.041C39.4134 26.7127 40.6866 26.7047 41.6315 27.041ZM47.245 35.4732L47.4372 35.6975V40.1018V44.5141L47.205 44.7463L46.9727 44.9785H40.07H33.1753L32.9831 44.7783L32.7829 44.5861V40.1098V35.6334L32.9671 35.4732C33.0632 35.3852 33.1993 35.2891 33.2634 35.265C33.3274 35.241 36.4585 35.225 40.2142 35.233L47.0528 35.249L47.245 35.4732Z" fill="#3C2FC0"/>
<path d="M39.5498 38.2367C39.1654 38.4209 38.9973 38.597 38.8211 39.0135C38.5969 39.55 38.8371 40.3267 39.3096 40.575C39.5098 40.6791 39.5098 40.6951 39.5098 41.632C39.5098 42.5369 39.5178 42.5929 39.71 42.7771C39.9262 43.0013 40.0463 43.0174 40.3426 42.8892C40.6229 42.7611 40.711 42.4328 40.711 41.5199C40.711 40.7351 40.711 40.7191 40.9512 40.5189C41.2875 40.2386 41.4317 39.9263 41.4317 39.4859C41.4317 38.501 40.4227 37.8283 39.5498 38.2367Z" fill="#3C2FC0"/>
<path d="M22.2687 39.3574C22.0605 39.5816 22.1005 39.966 22.4609 41.2232C23.8862 46.2841 26.713 50.8566 30.6849 54.5322C32.887 56.5662 35.0571 58.0716 38.0681 59.6652C39.6216 60.482 39.9259 60.5861 40.4224 60.4499C40.8788 60.3298 43.6175 58.8644 44.8987 58.0476C50.4882 54.4921 54.7724 49.3111 56.9505 43.4574C57.431 42.1681 58.0075 40.1822 58.0075 39.8058C58.0075 39.2693 57.415 39.013 57.0626 39.3894C56.9745 39.4935 56.8464 39.8058 56.7743 40.0941C56.2458 42.3763 55.0927 45.179 53.7714 47.3892C51.3771 51.4011 47.7816 54.9646 43.5935 57.4871C42.4644 58.1677 40.2542 59.3128 40.078 59.3128C39.9739 59.3128 39.3093 59.0005 38.6046 58.6242C35.2173 56.8224 32.9911 55.2128 30.6208 52.8345C27.1054 49.3031 24.639 45.0349 23.4218 40.3343C23.2776 39.7658 23.1335 39.3814 23.0454 39.3173C22.8372 39.1652 22.4208 39.1892 22.2687 39.3574Z" fill="#3C2FC0"/>
</g>
<defs>
<clipPath id="clip0_1_1339">
<rect width="38" height="41" fill="white" transform="translate(21.5 19.5)"/>
</clipPath>
</defs>
</svg>
