<svg width="37" height="37" viewBox="0 0 37 37" fill="none" xmlns="http://www.w3.org/2000/svg">
<path d="M0.984985 18.5C0.984985 8.55888 9.04386 0.5 18.985 0.5C28.9261 0.5 36.985 8.55888 36.985 18.5C36.985 28.4411 28.9261 36.5 18.985 36.5C9.04386 36.5 0.984985 28.4411 0.984985 18.5Z" fill="#3C2FC0"/>
<g clip-path="url(#clip0_1_54)">
<path d="M23.3609 12.7773C15.7349 15.8055 12.8107 16.9781 12.729 17.0375C12.4692 17.2305 12.4062 17.6498 12.5917 17.9281C12.6474 18.0135 12.7364 18.1062 12.7921 18.1359C12.8515 18.1619 13.8497 18.5738 15.0112 19.0488C16.1765 19.5238 17.1896 19.9432 17.2675 19.9877C17.3454 20.0322 17.4419 20.1176 17.479 20.1844C17.5198 20.2475 17.9429 21.2605 18.4216 22.437C18.9003 23.6133 19.3196 24.6264 19.353 24.6895C19.5571 25.0829 20.2177 25.1088 20.4663 24.7303C20.5591 24.5893 25.0197 13.3971 25.0642 13.1967C25.1013 13.0408 25.0308 12.807 24.912 12.6623C24.797 12.525 24.5595 12.4062 24.3999 12.4062C24.3405 12.4062 23.873 12.5732 23.3609 12.7773ZM23.1197 13.9055C22.7189 14.2988 19.6982 17.2602 17.8983 19.0228L17.5607 19.3568L15.386 18.4699C14.1911 17.9838 13.2114 17.5756 13.2114 17.5645C13.2114 17.5459 23.539 13.4193 23.6021 13.4119C23.6132 13.4082 23.3943 13.6309 23.1197 13.9055ZM21.9952 19.1342C20.8708 21.9656 19.9394 24.2813 19.9282 24.2813C19.906 24.2813 18.1099 19.9209 18.0987 19.8355C18.0913 19.7947 24.0103 13.95 24.0325 13.976C24.04 13.9797 23.1234 16.3027 21.9952 19.1342Z" fill="white"/>
</g>
<defs>
<clipPath id="clip0_1_54">
<rect width="13" height="13" fill="white" transform="translate(12.485 12)"/>
</clipPath>
</defs>
</svg>
