<svg width="17" height="18" viewBox="0 0 17 18" fill="none" xmlns="http://www.w3.org/2000/svg">
<g clip-path="url(#clip0_1_853)">
<path d="M4.13136 0.308492C1.95445 0.567729 0.259443 2.27934 0.0234719 4.45958C-0.0662635 5.29711 0.103237 6.21441 0.498737 7.00208L0.635002 7.26797L0.571855 7.65017C0.522002 7.95594 0.508708 8.2052 0.508708 8.8965C0.508708 9.65094 0.518679 9.8138 0.588473 10.1927C0.890914 11.8877 1.66862 13.3634 2.88836 14.5466C3.84554 15.4738 4.85257 16.082 6.11219 16.4842C7.20231 16.8331 8.42869 16.9428 9.62184 16.7999L10.0905 16.7434L10.3231 16.8498C12.0513 17.6474 14.1252 17.3184 15.5244 16.0255C16.5647 15.0617 17.1098 13.6525 16.9835 12.2633C16.9403 11.7847 16.8239 11.3061 16.6544 10.9073C16.5182 10.5882 16.5215 10.5949 16.5913 10.196C16.8804 8.57745 16.6212 6.83591 15.8668 5.34032C15.4214 4.45958 14.9893 3.87132 14.2947 3.19664C13.8361 2.74796 13.5635 2.52529 13.0816 2.20623C11.4697 1.14602 9.49222 0.694022 7.53466 0.939964L7.21228 0.979846L6.88657 0.810346C6.21522 0.468023 5.58374 0.308492 4.84592 0.28855C4.59998 0.281903 4.2776 0.291875 4.13136 0.308492ZM9.10004 3.26311C9.69496 3.30964 10.0705 3.37611 10.5125 3.51902C11.7855 3.92782 12.623 4.72879 12.7892 5.69261C12.859 6.08811 12.7526 6.41714 12.4701 6.69964C12.2773 6.89241 12.1311 6.96885 11.8553 7.0187C11.4764 7.0885 11.1274 6.99544 10.8848 6.75947C10.8183 6.693 10.6688 6.49691 10.5558 6.32076C10.2035 5.77238 10.1835 5.74911 10.0207 5.56964C9.69828 5.21735 9.38587 5.08108 8.75107 5.02458C8.33231 4.9847 7.83045 5.02127 7.51139 5.11099C6.76028 5.32702 6.33154 5.87209 6.52098 6.37062C6.62733 6.64315 7.03613 6.93894 7.5546 7.11841C7.64766 7.14832 8.20601 7.29123 8.80093 7.43414C10.4261 7.81967 11.0609 8.01576 11.6359 8.30159C12.8257 8.89983 13.3708 9.79053 13.311 11.0402C13.2711 11.8545 12.9786 12.5225 12.4103 13.0842C11.7622 13.7256 10.8216 14.1344 9.59857 14.3039C9.12331 14.3671 7.84707 14.3604 7.37845 14.2873C5.96595 14.068 5.00213 13.5296 4.33077 12.5857C3.9951 12.1171 3.83889 11.6783 3.83557 11.2031C3.83224 10.9139 3.84221 10.8707 3.93195 10.6913C4.12804 10.3057 4.51024 10.0963 5.01874 10.0963C5.2381 10.0963 5.30457 10.1129 5.49069 10.206C5.77651 10.3456 5.92939 10.5251 6.17866 11.0203C6.5808 11.808 6.83339 12.1038 7.28207 12.3165C7.61775 12.4793 7.96339 12.5425 8.50181 12.5425C9.13328 12.5425 9.5321 12.4561 9.99407 12.2234C10.2134 12.1104 10.5325 11.808 10.6289 11.6185C10.702 11.4756 10.712 11.4125 10.712 11.1233C10.712 10.7378 10.6654 10.6181 10.4228 10.3888C10.0639 10.0431 9.67501 9.90021 8.23592 9.57782C6.16204 9.11585 5.2813 8.72701 4.63654 7.98917C4.20448 7.49397 4.04495 7.02868 4.04495 6.27755C4.04827 5.81559 4.12471 5.4932 4.34074 5.07443C4.46371 4.83182 4.55677 4.7155 4.81268 4.45626C5.60036 3.66527 6.74033 3.28637 8.48519 3.2332C8.57825 3.2332 8.8541 3.24649 9.10004 3.26311Z" fill="white"/>
</g>
<defs>
<clipPath id="clip0_1_853">
<rect width="17" height="17" fill="white" transform="translate(0 0.28125)"/>
</clipPath>
</defs>
</svg>
