<svg width="81" height="80" viewBox="0 0 81 80" fill="none" xmlns="http://www.w3.org/2000/svg">
<path d="M0.5 16C0.5 7.16344 7.66344 0 16.5 0H64.5C73.3366 0 80.5 7.16344 80.5 16V64C80.5 72.8366 73.3366 80 64.5 80H16.5C7.66344 80 0.5 72.8366 0.5 64V16Z" fill="#F0EFFF"/>
<g clip-path="url(#clip0_1_1359)">
<path d="M39.7998 26.029C39.0006 26.1039 38.0515 26.4119 37.3355 26.8282C36.6695 27.2112 35.5622 28.3101 35.1792 28.9595C34.0553 30.8577 34.047 33.3803 35.1459 35.2452C35.5455 35.9112 36.3198 36.7604 36.861 37.1267C37.1357 37.3182 37.2439 37.4264 37.1607 37.4514C36.478 37.6928 35.8786 37.9343 35.5039 38.1258C34.9461 38.4088 33.7389 39.1914 33.5891 39.3746C33.5308 39.4412 33.4559 39.4995 33.4142 39.4995C33.3809 39.4995 33.0562 39.2913 32.7066 39.0416C32.1488 38.6419 31.233 38.1424 30.7335 37.9676C30.6003 37.926 30.6669 37.8177 31.1914 37.2682C32.4235 35.9529 32.8481 34.3877 32.4235 32.7226C31.3828 28.6598 26.0296 27.7274 23.7068 31.1991C23.124 32.0649 22.8909 32.8308 22.8992 33.8798C22.8992 35.3035 23.3988 36.4773 24.3978 37.4181L24.914 37.8927L24.4394 38.0841C23.4154 38.5004 22.6661 39.0166 21.7254 39.9574C20.1019 41.5808 19.3276 43.3125 19.2111 45.5937L19.1611 46.5761H24.3312H29.5013L29.4597 47.675C29.4014 48.9738 29.5263 49.7314 29.9425 50.5723C30.3005 51.3049 31.2163 52.2124 31.9323 52.5454C32.973 53.0449 32.7482 53.0283 40.5408 53.0283H47.7007L48.2918 52.8451C49.3907 52.4954 50.4813 51.5713 50.9975 50.5639C51.4055 49.748 51.5137 49.1153 51.4721 47.7583L51.4304 46.5761H56.6338H61.8372L61.7873 45.6353C61.6957 43.8703 61.2295 42.4966 60.2137 41.023C59.3979 39.8408 57.8743 38.6003 56.6421 38.1174L56.0927 37.901L56.6921 37.3015C57.6495 36.3275 58.0991 35.2286 58.0991 33.8382C58.0908 31.7818 56.7754 29.9752 54.7773 29.2925C53.9447 29.0012 52.7459 28.9679 51.9466 29.2093C50.2732 29.7088 48.9245 31.1158 48.5332 32.7726C48.1502 34.3877 48.6081 36.0111 49.807 37.2599L50.4064 37.901L49.9485 38.0841C49.3824 38.3172 48.4916 38.8417 48.0087 39.2247C47.8172 39.3829 47.6091 39.4995 47.5508 39.4745C47.4925 39.4495 47.1595 39.233 46.8182 38.9833C46.0855 38.4588 44.9116 37.8344 44.2456 37.6262C43.9958 37.543 43.7544 37.4597 43.7211 37.4431C43.6795 37.4181 43.8377 37.2766 44.0624 37.1267C44.5953 36.7604 45.3779 35.9029 45.7692 35.2452C46.8598 33.397 46.8598 30.8993 45.7608 29.0095C45.3612 28.3185 44.2706 27.2278 43.5796 26.8282C42.4806 26.1872 41.1486 25.9041 39.7998 26.029ZM41.6064 27.4776C43.3215 27.9188 44.7202 29.3258 45.1198 31.0159C45.6693 33.3803 44.3622 35.7864 42.0394 36.6688C41.3567 36.9269 40.0829 36.9935 39.3336 36.802C38.4012 36.5689 37.7684 36.2026 37.0857 35.5116C36.07 34.4793 35.6538 33.4969 35.6621 32.1482C35.6621 30.7412 36.07 29.7754 37.0857 28.7514C37.7518 28.077 38.4594 27.6608 39.2753 27.461C39.8831 27.3194 41.007 27.3194 41.6064 27.4776ZM28.6771 30.5247C30.7002 31.1325 31.7575 33.4136 30.8916 35.2952C30.2339 36.7437 28.7104 37.5846 27.1868 37.3432C25.2803 37.0351 23.9399 35.2202 24.248 33.372C24.5976 31.2657 26.6707 29.9253 28.6771 30.5247ZM54.2361 30.5247C56.2509 31.1325 57.3165 33.4136 56.4507 35.2952C55.7846 36.7521 54.2694 37.5846 52.7459 37.3432C51.2057 37.0934 50.0651 35.9445 49.807 34.396C49.5905 33.064 50.2233 31.6819 51.4055 30.9243C52.213 30.4081 53.312 30.25 54.2361 30.5247ZM42.1892 38.4588C43.105 38.6336 43.9875 38.9417 44.9116 39.4245C47.3094 40.6567 49.0743 42.8629 49.782 45.5021C50.0068 46.3429 50.1983 48.1496 50.115 48.6907C49.9235 50.0311 49.3324 50.8886 48.2418 51.3965L47.7839 51.6129H40.4575H33.1312L32.6067 51.3715C31.9406 51.0635 31.2663 50.3558 30.9999 49.6814C30.825 49.2485 30.8084 49.0737 30.8167 47.9914C30.8167 47.2088 30.875 46.5511 30.9666 46.1182C31.7991 42.1553 34.738 39.2497 38.7092 38.4505C39.4418 38.3089 41.415 38.3089 42.1892 38.4588ZM29.5512 38.9999C30.3089 39.2081 31.1497 39.6077 31.8574 40.0989C32.1238 40.2904 32.3403 40.4486 32.3403 40.4652C32.3403 40.4819 32.1571 40.7066 31.9406 40.9731C31.0831 42.0054 30.467 43.1127 30.0091 44.4531L29.776 45.1191L25.1804 45.1441L20.5764 45.1607L20.6264 44.7445C20.6514 44.5114 20.7846 44.0035 20.9261 43.6122C21.742 41.2311 23.7568 39.4578 26.2627 38.9084C27.1785 38.7002 28.5938 38.7418 29.5512 38.9999ZM55.1852 39.0416C57.1999 39.6327 58.7818 40.9398 59.7142 42.788C59.9973 43.3624 60.2637 44.1867 60.347 44.7611L60.4052 45.1607H55.7597H51.1057L50.9975 44.7611C50.7394 43.7537 49.8736 42.1303 49.0244 41.073L48.5831 40.5152L48.7663 40.3486C49.4323 39.7326 50.8393 39.0915 51.9633 38.8751C52.9124 38.7002 54.2444 38.7668 55.1852 39.0416Z" fill="#3C2FC0"/>
</g>
<defs>
<clipPath id="clip0_1_1359">
<rect width="43" height="28" fill="white" transform="translate(19 26)"/>
</clipPath>
</defs>
</svg>
