<svg width="28" height="41" viewBox="0 0 28 41" fill="none" xmlns="http://www.w3.org/2000/svg">
<g clip-path="url(#clip0_1_1766)">
<path d="M12.5064 0.120223C10.088 0.560653 8.08609 2.09816 7.03707 4.34835C6.51656 5.45343 6.39644 6.11808 6.3484 8.00792L6.30035 9.64952L6.02008 10.2181C5.75582 10.7546 5.7398 10.8347 5.77183 11.4192C5.80387 12.164 5.98805 12.6044 6.47652 13.1169C6.85289 13.5093 7.11715 13.6534 7.69371 13.8056L8.11012 13.9097L8.25426 14.4862C8.52652 15.5913 9.19918 16.7044 9.99996 17.3771L10.4004 17.7134V18.4901V19.2669L6.74078 20.6843C4.72281 21.469 2.88101 22.2218 2.64879 22.3659C1.62379 22.9825 0.710898 24.0716 0.350546 25.1126C0.0142178 26.0896 -0.0178134 26.8423 0.00621001 33.5608L0.0302335 39.855L0.270468 40.2394C0.430624 40.4956 0.630819 40.6878 0.863046 40.8159C1.21539 41.0001 1.2234 41.0001 4.35445 41.0001C7.39742 41.0001 7.49351 40.9921 7.66168 40.8399C7.90191 40.6157 7.90191 40.1833 7.66168 39.9591C7.50953 39.823 7.38141 39.7989 6.74078 39.7989H5.99605V33.7931V27.7792L5.79586 27.587C5.5316 27.3147 5.17926 27.3228 4.96305 27.595C4.79488 27.8032 4.79488 27.8593 4.79488 33.8011V39.7989H3.13726C2.21637 39.7989 1.41559 39.7589 1.35152 39.7189C1.24742 39.6548 1.23141 38.814 1.23141 32.9763C1.23141 26.7462 1.23941 26.2737 1.37555 25.8253C1.67183 24.8644 2.27242 24.0556 3.09723 23.519C3.67379 23.1427 7.86988 21.469 7.98199 21.5731C8.01402 21.6052 8.47047 22.5021 8.99898 23.5671C9.79176 25.1687 10.008 25.537 10.2322 25.6812C10.5685 25.9054 10.9929 25.9134 11.3453 25.7052C11.4894 25.6171 11.6175 25.545 11.6416 25.545C11.6576 25.545 11.7777 25.6972 11.9058 25.8894L12.1461 26.2257L11.2252 31.631C10.4484 36.2274 10.3203 37.0763 10.3923 37.3165C10.4484 37.4927 10.8568 38.0052 11.4814 38.7019L12.4904 39.7989H11.2171C10.048 39.7989 9.91988 39.8149 9.72769 39.9671C9.43941 40.1913 9.43941 40.6077 9.7357 40.8319L9.9439 41.0001L18.288 40.9841L26.6242 40.9601L26.9605 40.7358C27.1447 40.6157 27.3769 40.3675 27.473 40.1753C27.6492 39.847 27.6572 39.7749 27.6812 36.9562C27.6972 35.3706 27.6892 33.9612 27.6572 33.8091C27.5611 33.2966 27.0806 33.0724 26.6962 33.3606C26.5441 33.4728 26.5361 33.6009 26.4961 36.5638C26.464 39.1823 26.44 39.6548 26.3359 39.7189C26.2718 39.7589 25.4711 39.7989 24.5582 39.7989H22.8925V33.8011C22.8925 27.8593 22.8925 27.8032 22.7244 27.595C22.5082 27.3228 22.1558 27.3147 21.8916 27.587L21.6914 27.7792V33.7931V39.7989H18.4402H15.197L16.198 38.6939C16.8386 37.9972 17.239 37.4927 17.2951 37.3165C17.3671 37.0763 17.239 36.2034 16.4623 31.631L15.5414 26.2257L15.7816 25.8894C15.9097 25.6972 16.0298 25.545 16.0459 25.545C16.0699 25.545 16.198 25.6171 16.3421 25.7052C16.6785 25.9054 17.0949 25.9054 17.4232 25.7052C17.6394 25.5771 17.8556 25.2007 18.6884 23.5351C19.5453 21.8374 19.7214 21.5331 19.8496 21.5651C19.9296 21.5892 20.9146 21.9575 22.0277 22.3899C24.6943 23.4149 25.2869 23.8073 25.9355 24.9444C26.4 25.7692 26.432 26.0015 26.472 28.7722L26.5121 31.3106L26.7123 31.4708C26.9845 31.679 27.1607 31.671 27.433 31.4388L27.6572 31.2466L27.6812 29.2526C27.7132 26.9944 27.6252 25.9294 27.3369 25.1126C26.9765 24.0876 26.1757 23.1026 25.1507 22.438C24.8545 22.2458 23.333 21.6132 20.9867 20.7003L17.2871 19.2669V18.4661V17.6573L17.8796 17.0407C18.6724 16.2079 19.1289 15.319 19.4011 14.0858C19.4412 13.9097 19.5052 13.8616 19.7775 13.8216C20.4742 13.7095 21.2029 13.173 21.5232 12.5323C21.6273 12.3321 21.7474 11.9317 21.7955 11.6595C21.8675 11.203 21.8595 11.0909 21.6994 10.6024C21.6033 10.2981 21.4591 9.98585 21.3871 9.89777C21.275 9.77765 21.2429 9.48136 21.2029 7.97589C21.1628 6.5425 21.1228 6.08605 20.9867 5.58956C20.33 3.1632 18.5203 1.20929 16.206 0.416515C15.0369 0.0161237 13.6755 -0.0959864 12.5064 0.120223ZM15.4293 1.44152C17.2951 1.97003 18.7685 3.2673 19.5132 5.02902C19.8736 5.86984 20.0097 6.63859 20.0097 7.84777V8.88878L19.7935 8.84074C19.4732 8.76066 19.4492 8.74464 19.4492 8.52843C19.4492 8.32023 18.9607 7.71163 17.9197 6.63859C17.4232 6.12609 17.2711 6.01398 16.9908 5.97394C16.6304 5.90988 16.6464 5.90187 15.2851 6.63058C13.5234 7.56749 11.7777 8.00792 9.78375 8.00792C8.71871 8.00792 8.38238 8.12804 8.21422 8.56847C8.13414 8.78468 7.95797 8.88878 7.66168 8.88878C7.53355 8.88878 7.51754 8.8007 7.51754 8.06398C7.51754 7.61554 7.55758 6.99093 7.59762 6.68663C7.94996 3.94796 10.032 1.77785 12.7627 1.28136C13.3953 1.16925 14.7646 1.24933 15.4293 1.44152ZM17.5513 7.9839L18.248 8.75265V11.2831C18.248 13.245 18.216 13.9097 18.1279 14.254C17.7195 15.7915 16.5023 17.0087 14.9648 17.4171C14.3802 17.5692 13.2271 17.5692 12.6105 17.4091C11.2171 17.0487 10.072 15.9997 9.5275 14.5903C9.3273 14.0618 9.3273 14.0058 9.29527 11.6274L9.26324 9.20909H10.016C12.0179 9.20109 14.3962 8.56046 16.0859 7.5755C16.4142 7.38332 16.7265 7.22316 16.7666 7.22316C16.8146 7.22316 17.1589 7.56749 17.5513 7.9839ZM8.07808 11.3312C8.07808 12.7886 8.07808 12.7966 7.58961 12.4683C6.79683 11.9317 6.72476 10.8587 7.44547 10.3462C7.59762 10.2421 7.93394 10.0579 8.06207 10.0179C8.07008 10.0099 8.07808 10.6024 8.07808 11.3312ZM20.0978 10.2581C20.3621 10.4423 20.6503 11.0108 20.6503 11.3392C20.6423 11.8917 20.1859 12.4843 19.6654 12.6124L19.4492 12.6685V11.3312V9.99386L19.6654 10.0499C19.7855 10.0739 19.9777 10.17 20.0978 10.2581ZM13.5714 18.7224C14.3642 18.7464 14.6445 18.7304 15.173 18.5942C15.5173 18.5062 15.8697 18.4101 15.9498 18.378C16.0699 18.33 16.0859 18.378 16.0859 18.8985V19.4831L14.9968 20.8364C14.3962 21.5731 13.8757 22.1817 13.8437 22.1817C13.8037 22.1817 13.2912 21.5812 12.6906 20.8364L11.6015 19.4991V18.9306V18.354L12.106 18.5142C12.4423 18.6263 12.9068 18.6903 13.5714 18.7224ZM11.9058 21.7813C12.4904 22.5021 12.9388 23.1187 12.9068 23.1427C12.7146 23.3108 10.8648 24.5921 10.8408 24.5681C10.7207 24.4399 9.1191 21.1087 9.15914 21.0687C9.24723 20.9886 10.6726 20.436 10.7607 20.4521C10.8007 20.4681 11.3212 21.0606 11.9058 21.7813ZM17.6875 20.7083C18.1039 20.8685 18.4802 21.0286 18.5123 21.0606C18.5603 21.1007 16.9908 24.4159 16.8466 24.5681C16.8306 24.5841 16.3502 24.2638 15.7736 23.8554C14.8447 23.1907 14.7406 23.0946 14.8287 22.9665C15.0369 22.6702 16.8466 20.428 16.8867 20.428C16.9107 20.42 17.2711 20.5481 17.6875 20.7083ZM14.4843 24.4079C14.7726 24.6081 15.0129 24.7763 15.0289 24.7923C15.0449 24.8003 14.9568 24.9605 14.8367 25.1366L14.6205 25.4649H13.8437H13.067L12.8427 25.1366C12.6666 24.8724 12.6505 24.7843 12.7306 24.7362C12.7947 24.7042 13.0589 24.512 13.3232 24.3198C13.5875 24.1276 13.8437 23.9835 13.8837 24.0075C13.9318 24.0315 14.1961 24.2077 14.4843 24.4079ZM14.4363 26.8823C14.4603 27.0105 14.8447 29.2687 15.2851 31.9112C15.7336 34.5538 16.1099 36.772 16.1259 36.836C16.158 36.9481 13.9718 39.4386 13.8437 39.4386C13.8117 39.4386 13.2752 38.878 12.6586 38.1974C11.8177 37.2765 11.5375 36.9161 11.5615 36.796C11.5855 36.7079 11.9619 34.4897 12.4023 31.8712C12.8427 29.2526 13.2271 27.0105 13.2511 26.8823C13.2912 26.6741 13.3072 26.6661 13.8437 26.6661C14.3802 26.6661 14.3962 26.6741 14.4363 26.8823Z" fill="white"/>
</g>
<defs>
<clipPath id="clip0_1_1766">
<rect width="28" height="41" fill="white"/>
</clipPath>
</defs>
</svg>
