<svg width="63" height="64" viewBox="0 0 63 64" fill="none" xmlns="http://www.w3.org/2000/svg">
<path d="M31.5 1C48.6208 1 62.5 14.8792 62.5 32C62.5 49.1208 48.6208 63 31.5 63C14.3792 63 0.5 49.1208 0.5 32C0.5 14.8792 14.3792 1 31.5 1Z" stroke="#E1DEFF"/>
<g clip-path="url(#clip0_1_228)">
<path d="M17.7929 32.7073C17.4024 32.3168 17.4024 31.6836 17.7929 31.2931L24.1569 24.9291C24.5474 24.5386 25.1805 24.5386 25.5711 24.9291C25.9616 25.3197 25.9616 25.9528 25.5711 26.3433L19.9142 32.0002L25.5711 37.6571C25.9616 38.0476 25.9616 38.6807 25.5711 39.0713C25.1805 39.4618 24.5474 39.4618 24.1569 39.0713L17.7929 32.7073ZM45.5 33.0002H18.5V31.0002H45.5V33.0002Z" fill="#1F2E54"/>
</g>
<defs>
<clipPath id="clip0_1_228">
<rect width="28" height="16" fill="white" transform="translate(17.5 24)"/>
</clipPath>
</defs>
</svg>
