<svg width="63" height="64" viewBox="0 0 63 64" fill="none" xmlns="http://www.w3.org/2000/svg">
<path d="M31.5 1C48.6208 1 62.5 14.8792 62.5 32C62.5 49.1208 48.6208 63 31.5 63C14.3792 63 0.5 49.1208 0.5 32C0.5 14.8792 14.3792 1 31.5 1Z" stroke="#E1DEFF"/>
<g clip-path="url(#clip0_1_225)">
<path d="M45.2071 32.7073C45.5976 32.3168 45.5976 31.6836 45.2071 31.2931L38.8431 24.9291C38.4526 24.5386 37.8195 24.5386 37.4289 24.9291C37.0384 25.3197 37.0384 25.9528 37.4289 26.3433L43.0858 32.0002L37.4289 37.6571C37.0384 38.0476 37.0384 38.6807 37.4289 39.0713C37.8195 39.4618 38.4526 39.4618 38.8431 39.0713L45.2071 32.7073ZM17.5 33.0002H44.5V31.0002H17.5V33.0002Z" fill="#1F2E54"/>
</g>
<defs>
<clipPath id="clip0_1_225">
<rect width="28" height="16" fill="white" transform="translate(17.5 24)"/>
</clipPath>
</defs>
</svg>
