<svg width="20" height="25" viewBox="0 0 20 25" fill="none" xmlns="http://www.w3.org/2000/svg">
<g clip-path="url(#clip0_1_809)">
<path d="M10.2832 0.5976C10.1409 0.671427 8.80668 2.30092 5.09946 6.92045C2.352 10.3482 0.0844174 13.2063 0.0580502 13.2854C-0.089606 13.6704 0.0527768 14.1292 0.390277 14.3507L0.606488 14.4931L4.20825 14.5089C7.00317 14.5194 7.81 14.5352 7.81 14.588C7.81 14.6249 7.4145 16.5286 6.93461 18.8173C6.45473 21.1112 6.05922 23.0888 6.05922 23.2206C6.0434 23.8798 6.75004 24.3175 7.31957 24.0011C7.4936 23.9061 8.79086 22.3927 13.2206 17.1034C16.3424 13.3751 18.9422 10.2533 18.995 10.1689C19.1215 9.9685 19.1268 9.56245 19.0055 9.3146C18.958 9.2144 18.8262 9.06674 18.7102 8.99292L18.494 8.85053L14.4967 8.87163L10.4942 8.89272L10.5206 8.71342C10.7315 7.50581 11.5541 1.50991 11.5383 1.30424C11.5172 0.96674 11.3485 0.724161 11.0584 0.592326C10.7842 0.465764 10.5258 0.471038 10.2832 0.5976Z" fill="white"/>
</g>
<defs>
<clipPath id="clip0_1_809">
<rect width="20" height="24" fill="white" transform="translate(0 0.5)"/>
</clipPath>
</defs>
</svg>
