<svg width="26" height="27" viewBox="0 0 26 27" fill="none" xmlns="http://www.w3.org/2000/svg">
<g clip-path="url(#clip0_1_859)">
<path d="M13 26.5C20.1797 26.5 26 20.6797 26 13.5C26 6.3203 20.1797 0.5 13 0.5C5.8203 0.5 0 6.3203 0 13.5C0 20.6797 5.8203 26.5 13 26.5Z" fill="white" fill-opacity="0.2"/>
<path d="M12.386 5.50019C12.3264 5.50646 12.1415 5.5284 11.9786 5.5472C9.49946 5.82928 7.20841 7.3838 5.94849 9.63724C5.49091 10.4584 5.15869 11.4801 5.01765 12.5018C4.96124 12.8936 4.96124 14.1159 5.01765 14.5077C5.34674 16.8959 6.61919 18.9237 8.60937 20.2306C10.5181 21.4843 12.9251 21.851 15.1597 21.2241C18.0713 20.4093 20.3185 17.9552 20.8607 14.9966C21.3496 12.3483 20.5379 9.725 18.6511 7.83512C17.4006 6.58773 15.8962 5.83241 14.1098 5.55974C13.7964 5.51273 12.6305 5.47198 12.386 5.50019ZM14.0784 6.02986C14.2602 6.05807 14.5987 6.12702 14.8306 6.18343C17.4884 6.84473 19.629 8.97907 20.2997 11.64C20.472 12.3263 20.5159 12.7118 20.5159 13.5048C20.5159 14.2977 20.472 14.6832 20.2997 15.3696C19.6321 18.0211 17.4978 20.1554 14.8463 20.823C14.1599 20.9953 13.7744 21.0392 12.9815 21.0392C12.1823 21.0392 11.8281 20.9985 11.1229 20.823C8.46206 20.1554 6.33399 18.0273 5.66328 15.3696C5.49091 14.6832 5.44703 14.2977 5.44703 13.5048C5.44703 12.7118 5.49091 12.3263 5.66328 11.64C6.26504 9.25801 8.05776 7.26784 10.3864 6.40909C10.9318 6.20851 11.7435 6.02986 12.386 5.97031C12.6775 5.94524 13.7619 5.98285 14.0784 6.02986Z" fill="white"/>
<path d="M12.48 6.59734C11.6777 6.66629 10.8534 6.87315 10.1764 7.17402C9.95705 7.27431 9.91003 7.32133 9.91003 7.45609C9.91003 7.69115 10.0855 7.73503 10.424 7.58459C10.9349 7.35267 11.7592 7.13955 12.292 7.09567C12.4205 7.08627 12.574 7.0706 12.6305 7.06119L12.7308 7.04552L12.7339 7.44669C12.7339 7.91054 12.7715 8.05158 12.8969 8.09546C13.0285 8.14247 13.1476 8.08605 13.1915 7.95755C13.2134 7.89487 13.2291 7.66921 13.2291 7.44669L13.2322 7.04552L13.3356 7.06119C13.3889 7.0706 13.5488 7.08627 13.6835 7.0988C14.8651 7.19283 16.266 7.80712 17.222 8.6502L17.3755 8.78183L17.059 9.09838C16.8866 9.27389 16.7362 9.45253 16.7268 9.49641C16.6986 9.61551 16.8239 9.75341 16.9587 9.75341C17.0464 9.75341 17.106 9.7064 17.3818 9.43373L17.7046 9.11405L17.8112 9.23314C18.7201 10.2392 19.3469 11.7404 19.4127 13.0662L19.4221 13.2699L18.9426 13.2856C18.5132 13.2981 18.4568 13.3075 18.4161 13.3608C18.3659 13.4329 18.3596 13.5488 18.4035 13.6303C18.4537 13.7244 18.6104 13.7557 19.0366 13.7557H19.4409L19.4253 13.856C19.4158 13.9124 19.4002 14.0722 19.3876 14.207C19.2968 15.3447 18.7044 16.7331 17.9177 17.6546L17.7077 17.899L17.3881 17.5856C17.0151 17.2158 16.9462 17.1844 16.802 17.3255C16.6609 17.4696 16.6923 17.5386 17.0621 17.9116L17.3755 18.2312L17.1311 18.4381C16.9963 18.554 16.7424 18.7452 16.5638 18.8675C16.2159 19.1057 16.1626 19.184 16.2441 19.3313C16.3162 19.4629 16.4416 19.4849 16.5951 19.4034C17.037 19.1652 17.761 18.554 18.1998 18.0432C19.0868 17.0121 19.6258 15.8368 19.8327 14.4734C19.9079 13.9814 19.9079 13.0223 19.8358 12.5334C19.5976 10.982 18.9301 9.66566 17.8362 8.57811C16.7863 7.54072 15.4606 6.87941 13.9844 6.65689C13.6616 6.60988 12.7558 6.57227 12.48 6.59734Z" fill="white"/>
<path d="M9.07948 7.79429C7.75688 8.65304 6.67561 10.2013 6.27444 11.8091C6.12086 12.4203 6.07385 12.8277 6.07385 13.5047C6.07385 14.166 6.12086 14.5765 6.26503 15.1658C6.86365 17.6261 8.81935 19.5912 11.2859 20.2117C11.8845 20.3622 12.3045 20.4123 12.9658 20.4123C13.9029 20.4154 14.6206 20.2869 15.4543 19.9673C15.7019 19.8732 15.752 19.8419 15.7865 19.7604C15.8398 19.635 15.7928 19.5065 15.6768 19.4595C15.5953 19.425 15.5358 19.4407 15.1252 19.5818C14.6426 19.751 14.0659 19.8826 13.671 19.914C13.5425 19.9234 13.3889 19.939 13.3356 19.9484L13.2322 19.9641L13.2291 19.5629C13.2291 19.0991 13.1915 18.9581 13.0692 18.9142C12.9345 18.8672 12.8154 18.9236 12.7715 19.0521C12.7495 19.1148 12.7339 19.3373 12.7339 19.5598L12.7307 19.961L12.5991 19.9453C12.0068 19.8826 11.7968 19.8513 11.4802 19.7729C10.8346 19.6131 10.1576 19.3373 9.64363 19.0207C9.38349 18.8609 8.90084 18.5067 8.71906 18.3438L8.59056 18.2278L8.91024 17.905C9.18291 17.6292 9.22992 17.5696 9.22992 17.4819C9.22992 17.3471 9.09202 17.2218 8.97292 17.25C8.92904 17.2594 8.7504 17.4098 8.57802 17.5822L8.26148 17.8925L8.16432 17.7922C8.00134 17.6198 7.63152 17.1152 7.46541 16.8394C6.99215 16.0621 6.638 15.0122 6.57531 14.2067C6.56278 14.072 6.54711 13.9121 6.5377 13.8557L6.52203 13.7554H6.92634C7.35258 13.7554 7.50928 13.7241 7.55943 13.63C7.60958 13.536 7.59704 13.4169 7.52809 13.348C7.47167 13.2916 7.42466 13.2853 7.01409 13.2853C6.76336 13.2853 6.55337 13.2759 6.54711 13.2602C6.52203 13.2195 6.58472 12.6209 6.65367 12.2667C6.86052 11.1886 7.44347 10.0039 8.13611 9.24853L8.26148 9.11376L8.58116 9.43344C8.85069 9.70298 8.91964 9.75312 9.00113 9.75312C9.12963 9.75312 9.22992 9.65283 9.22992 9.52433C9.22992 9.44284 9.17978 9.37389 8.91024 9.10436L8.58742 8.78154L8.78801 8.60917C8.8977 8.51514 9.07008 8.37724 9.17351 8.30202C9.46812 8.08576 9.53393 8.01681 9.53393 7.91966C9.53393 7.83503 9.43991 7.70654 9.38036 7.70654C9.36469 7.70654 9.33021 7.70027 9.30827 7.69086C9.2832 7.68146 9.17978 7.72847 9.07948 7.79429Z" fill="white"/>
<path d="M14.5015 11.5586C13.4579 12.5992 13.2698 12.7747 13.2165 12.7527C13.1319 12.7151 12.8467 12.7151 12.7527 12.7496C12.6837 12.7778 12.6242 12.7245 12.0067 12.1071C11.3831 11.4803 11.3298 11.4364 11.2232 11.4364C11.0853 11.4364 10.9976 11.5242 10.9976 11.6589C10.9976 11.7404 11.0884 11.847 11.6714 12.433C12.2449 13.0097 12.3452 13.1226 12.3233 13.1758C12.2731 13.2949 12.2888 13.5958 12.3515 13.718C12.6242 14.2477 13.3482 14.2383 13.6208 13.7024C13.6772 13.5927 13.6866 13.3043 13.6428 13.1821C13.6146 13.1132 13.7054 13.016 14.8337 11.8877C15.9401 10.7814 16.0529 10.6591 16.0529 10.5682C16.0529 10.4335 15.9589 10.3394 15.8273 10.3394C15.7364 10.3394 15.6047 10.4585 14.5015 11.5586ZM13.1319 13.2417C13.2228 13.3043 13.2291 13.5018 13.1382 13.5833C12.9877 13.7212 12.7621 13.6146 12.7621 13.4078C12.7621 13.273 12.8467 13.1915 12.9815 13.1915C13.0253 13.1915 13.0943 13.2134 13.1319 13.2417Z" fill="white"/>
<path d="M11.9785 15.8303C11.8625 15.9556 11.9127 16.1343 12.0851 16.2001C12.1352 16.2189 12.4956 16.2314 12.9814 16.2314C13.4672 16.2314 13.8276 16.2189 13.8778 16.2001C14.0502 16.1343 14.1003 15.9556 13.9843 15.8303C13.9217 15.7613 13.906 15.7613 12.9814 15.7613C12.0568 15.7613 12.0412 15.7613 11.9785 15.8303Z" fill="white"/>
</g>
<defs>
<clipPath id="clip0_1_859">
<rect width="26" height="26" fill="white" transform="translate(0 0.5)"/>
</clipPath>
</defs>
</svg>
