<svg width="65" height="64" viewBox="0 0 65 64" fill="none" xmlns="http://www.w3.org/2000/svg">
<path d="M0.5 16C0.5 7.16344 7.66344 0 16.5 0H48.5C57.3366 0 64.5 7.16344 64.5 16V48C64.5 56.8366 57.3366 64 48.5 64H16.5C7.66344 64 0.5 56.8366 0.5 48V16Z" fill="#DFDDFF"/>
<g clip-path="url(#clip0_1_1303)">
<path d="M38.9615 15.3695C38.8982 15.4188 38.5889 16.1078 38.2725 16.9023C37.9561 17.6969 37.6889 18.3508 37.6818 18.3648C37.6678 18.3719 37.4779 18.2734 37.2529 18.1398C35.9381 17.3453 34.3068 17.8586 33.6459 19.2789C33.4912 19.6094 33.4561 19.7781 33.4561 20.2773C33.4561 20.8187 33.4771 20.9242 33.6881 21.3461C34.0467 22.0773 34.7076 22.5836 35.4811 22.7313C35.6709 22.7664 35.8326 22.8086 35.8607 22.8297C35.8818 22.8508 35.6428 23.5187 35.3264 24.3062C35.01 25.0937 34.7568 25.7898 34.7568 25.8461C34.7568 25.9093 34.8131 26.0218 34.8834 26.0992C35.0381 26.282 38.6451 27.7304 38.9475 27.7304C39.285 27.7304 39.4326 27.5265 39.3623 27.1539C39.1725 26.1625 39.4045 25.5437 40.1006 25.1781C41.0779 24.6648 42.217 25.2625 42.3295 26.3382C42.3928 26.9921 42.1115 27.5265 41.4928 27.9132C41.3451 28.0046 41.2115 28.1593 41.1834 28.2578C41.092 28.6304 41.2467 28.7289 43.335 29.5515C44.4811 30.0086 45.367 30.3179 45.4443 30.2968C45.5076 30.2757 45.6131 30.2054 45.6764 30.1351C45.8592 29.9312 49.4662 20.7625 49.5014 20.4109C49.5646 19.8484 49.2764 19.2859 48.8123 19.0398C48.3271 18.7938 39.3975 15.2852 39.2428 15.2852C39.1514 15.2852 39.0178 15.3273 38.9615 15.3695ZM43.9537 18.1398C46.3373 19.0891 48.3482 19.9117 48.4115 19.975C48.4818 20.0383 48.5381 20.1648 48.5381 20.2633C48.5381 20.5164 45.0998 29.1367 45.0014 29.1367C44.9311 29.1367 42.7865 28.307 42.7162 28.2578C42.7021 28.2437 42.7936 28.082 42.9131 27.8992C43.4826 26.9992 43.4545 25.9164 42.8428 25.0304C42.5686 24.6227 41.9287 24.1937 41.4295 24.0742C40.9584 23.9617 40.2201 24.018 39.7982 24.2078C39.0951 24.5172 38.4904 25.2836 38.3428 26.057C38.3006 26.2539 38.2584 26.4296 38.2443 26.4437C38.2303 26.4578 37.6959 26.2609 37.0561 26.0078L35.8889 25.5367L36.0225 25.2132C37.274 22.0492 37.2318 22.1758 37.1475 21.9578C37.035 21.6977 36.817 21.6414 36.3248 21.7539C35.8115 21.8664 35.3615 21.7539 34.9678 21.4164C34.4053 20.9383 34.2646 20.2703 34.574 19.6023C35.0873 18.5055 36.592 18.4352 37.26 19.4758C37.5482 19.9187 37.7662 20.0172 38.0404 19.8063C38.1811 19.7078 38.385 19.2719 38.8631 18.0414C39.2146 17.1484 39.524 16.4102 39.5592 16.4102C39.5873 16.4102 41.5631 17.1906 43.9537 18.1398Z" fill="#3C2FC0"/>
<path d="M16.6158 20.5093C16.2502 20.6288 15.6807 21.2265 15.5752 21.6132C15.5049 21.8593 15.4908 24.8195 15.5049 34.9093L15.526 47.889L15.7369 48.2335C15.8705 48.4444 16.0815 48.6554 16.2924 48.789L16.6369 48.9999H29.7994H42.9619L43.3065 48.789C43.5174 48.6554 43.7283 48.4444 43.8619 48.2335L44.0729 47.889L44.094 41.1952C44.108 34.628 44.108 34.5015 43.9744 34.3819C43.8479 34.2624 43.651 34.2554 41.6893 34.2624C40.501 34.2694 39.5377 34.2624 39.5377 34.2483C39.5377 34.2272 39.5869 34.0866 39.6362 33.9249C40.3604 31.8858 38.6237 29.664 36.4721 29.8608C34.3838 30.0577 33.1041 32.1671 33.8776 34.1499C33.9268 34.2624 33.8213 34.2694 32.1127 34.2554L30.2916 34.2343L30.2776 31.8437C30.2565 29.5022 30.2565 29.453 30.1088 29.3265C29.8838 29.1436 29.7221 29.1788 29.258 29.4882C28.7377 29.8327 28.3791 29.9382 27.8307 29.889C27.0854 29.8327 26.4596 29.4038 26.101 28.7147C25.876 28.2788 25.869 27.421 26.0869 26.9499C26.6635 25.6843 28.2244 25.3468 29.3776 26.2257C29.6658 26.4436 29.919 26.4647 30.1158 26.289C30.2494 26.1694 30.2565 26.0569 30.2565 23.4273C30.2565 20.7906 30.2494 20.6921 30.1158 20.5585C29.9752 20.4179 29.8838 20.4179 23.4221 20.4249C18.8518 20.432 16.7846 20.4531 16.6158 20.5093ZM29.3424 23.1953C29.3424 24.1796 29.3143 24.9882 29.2791 24.9882C29.244 24.9882 29.0963 24.946 28.9487 24.8898C27.5635 24.4117 25.876 25.1358 25.2361 26.4858C24.1463 28.7991 26.2416 31.4077 28.7096 30.796C28.9205 30.7468 29.1526 30.6765 29.2229 30.6483C29.3354 30.5991 29.3424 30.6976 29.3283 32.4132L29.3072 34.2343L26.9307 34.2413C24.7651 34.2554 24.5401 34.2624 24.4135 34.3749C24.2236 34.5507 24.2447 34.8741 24.4557 35.1272C24.9408 35.7038 25.1096 36.5265 24.8846 37.2085C24.6315 37.9608 23.8651 38.5444 23.0424 38.6147C22.0088 38.6921 21.1299 38.0522 20.8627 37.0116C20.694 36.3507 20.8627 35.6616 21.3268 35.1413C21.4393 35.0077 21.5377 34.8179 21.5377 34.7265C21.5377 34.5436 21.3197 34.2694 21.1721 34.2624C21.1229 34.2624 20.0471 34.2624 18.7815 34.2694L16.4752 34.2765V28.0819C16.4752 23.9828 16.4963 21.8382 16.5455 21.7538C16.7354 21.4023 16.5596 21.4093 23.176 21.4023H29.3424V23.1953ZM37.6182 31.0421C38.8346 31.6327 39.1932 33.1585 38.3705 34.2413C38.0822 34.621 38.0471 34.853 38.258 35.0569C38.3916 35.1976 38.476 35.1976 40.7612 35.1905L43.1237 35.1765V41.3921C43.1237 47.5515 43.1237 47.6147 42.983 47.7905C42.8987 47.896 42.7158 48.0085 42.5752 48.0507C42.4065 48.0929 40.2127 48.121 36.3244 48.121H30.3268V46.2929C30.3268 45.2874 30.3408 44.4647 30.3549 44.4647C30.369 44.4647 30.5096 44.5069 30.6643 44.5632C31.1494 44.739 31.6627 44.7671 32.2112 44.6476C34.1799 44.2327 35.2346 42.1444 34.3768 40.3444C33.7088 38.9311 32.0635 38.221 30.6221 38.7272L30.3268 38.8327V37.0116V35.1835H32.6963C34.7987 35.1835 35.0729 35.1694 35.1924 35.064C35.3893 34.8882 35.3471 34.5929 35.0729 34.2343C34.4963 33.4749 34.4822 32.4483 35.0307 31.696C35.6213 30.9015 36.7393 30.6132 37.6182 31.0421ZM20.0612 35.2257C20.0612 35.2468 20.0119 35.4436 19.9486 35.6546C19.8643 35.9358 19.8432 36.2382 19.8643 36.6952C19.8854 37.2718 19.9205 37.4054 20.1526 37.8765C21.2987 40.1897 24.5541 40.1546 25.6651 37.8202C26.0377 37.0327 26.0588 36.0905 25.7213 35.303C25.6721 35.1905 25.7705 35.1835 27.4862 35.1976L29.3072 35.2186L29.3283 37.6022C29.3424 39.7046 29.3565 40.0069 29.4619 40.1194C29.6377 40.3163 29.933 40.2741 30.2846 40.0069C31.6557 38.9663 33.5682 39.8101 33.6807 41.5116C33.7791 42.9319 32.4291 44.0569 31.0862 43.6632C30.8752 43.6069 30.594 43.4733 30.4604 43.3819C30.3268 43.2835 30.151 43.1499 30.0666 43.0866C29.8697 42.946 29.5112 43.0093 29.4127 43.2061C29.3635 43.2905 29.3283 44.2538 29.3213 45.7163L29.3072 48.0858L23.401 48.1069C20.1526 48.121 17.3541 48.1069 17.1854 48.0858C16.9744 48.0507 16.8057 47.9733 16.6721 47.8397L16.4752 47.6429V41.4132V35.1835H18.2682C19.2526 35.1835 20.0612 35.2046 20.0612 35.2257Z" fill="#3C2FC0"/>
</g>
<defs>
<clipPath id="clip0_1_1303">
<rect width="34" height="34" fill="white" transform="translate(15.5 15)"/>
</clipPath>
</defs>
</svg>
