<svg width="64" height="65" viewBox="0 0 64 65" fill="none" xmlns="http://www.w3.org/2000/svg">
<path d="M0 16.5C0 7.66344 7.16344 0.5 16 0.5H48C56.8366 0.5 64 7.66344 64 16.5V48.5C64 57.3366 56.8366 64.5 48 64.5H16C7.16344 64.5 0 57.3366 0 48.5V16.5Z" fill="#DFDDFF"/>
<g clip-path="url(#clip0_1_523)">
<path d="M32.7818 19.0569C32.5287 19.1571 32.4971 19.2837 32.4971 20.1802C32.4971 20.9923 32.5023 21.0187 32.6236 21.1399C32.8135 21.3298 33.0086 21.3614 33.2301 21.2401C33.3566 21.1716 33.441 21.0767 33.4832 20.9554C33.5729 20.6917 33.5676 19.5737 33.4779 19.3522C33.3514 19.0517 33.0824 18.9356 32.7818 19.0569Z" fill="#3C2FC0"/>
<path d="M27.0073 20.7709C26.8333 20.8658 26.7278 21.1084 26.7753 21.3193C26.8175 21.5091 27.7667 22.4003 28.0567 22.5216C28.2149 22.5849 28.2571 22.5849 28.4259 22.5005C28.6632 22.3845 28.7739 22.1736 28.7317 21.931C28.7001 21.7675 28.4892 21.5513 27.6823 20.8605C27.4609 20.6759 27.2394 20.6443 27.0073 20.7709Z" fill="#3C2FC0"/>
<path d="M37.9339 21.1979C37.6175 21.4721 37.3275 21.7727 37.2959 21.8571C37.1535 22.1893 37.4277 22.5637 37.7968 22.5532C38.0078 22.5479 38.2293 22.3844 38.8621 21.7727C39.1521 21.4932 39.247 21.3667 39.247 21.2612C39.247 20.929 39.0044 20.6917 38.6722 20.6917C38.5457 20.6917 38.3927 20.7971 37.9339 21.1979Z" fill="#3C2FC0"/>
<path d="M32.0277 23.7029C31.2367 23.8558 30.8518 24.4781 30.5723 26.0707C30.0924 28.8129 29.5492 30.2631 28.5209 31.5762C28.0621 32.1615 27.0127 33.1582 26.9389 33.0791C26.9283 33.0686 26.8703 32.9631 26.8123 32.8418C26.7543 32.7258 26.6066 32.5412 26.4854 32.4305C26.0582 32.0455 26.1268 32.0561 23.7432 32.0561C21.676 32.0561 21.5969 32.0613 21.3648 32.1668C21.059 32.3092 20.7848 32.5834 20.6266 32.9051L20.5 33.1635V38.8061V44.4486L20.6477 44.7492C20.8059 45.0709 20.9852 45.2502 21.3385 45.44C21.5494 45.5561 21.5916 45.5561 23.7168 45.5561C25.8103 45.5561 25.8842 45.5508 26.1215 45.4453C26.4221 45.3029 26.7068 45.0234 26.8334 44.7439C26.8861 44.6227 26.9441 44.5277 26.96 44.5277C26.9811 44.5277 27.2447 44.6438 27.5453 44.7861C28.6686 45.3135 30.2295 45.767 31.4793 45.9252C32.0594 45.999 32.7291 46.0096 36.2412 45.9938C40.8027 45.9779 40.4969 45.999 41.0822 45.5982C41.6148 45.2344 41.9893 44.5119 41.9893 43.8422C41.9893 43.5311 41.8205 42.8719 41.7256 42.8139C41.6201 42.7506 41.6781 42.6926 42.0051 42.5344C42.6221 42.2285 43.0914 41.5957 43.2021 40.9207C43.2971 40.3406 43.0914 39.6445 42.7012 39.2121L42.5061 38.9959L42.6906 38.7691C43.392 37.9148 43.3973 36.7072 42.7012 35.9426L42.5061 35.7211L42.6959 35.4996C43.777 34.2393 43.0914 32.2828 41.4672 31.977C41.2932 31.9453 39.9115 31.9242 37.9498 31.9242C35.3922 31.9242 34.7119 31.9084 34.7119 31.8557C34.7119 31.824 34.8754 31.1754 35.0758 30.4213C35.5609 28.5861 35.5768 28.5175 35.5715 27.7582C35.5662 27.2361 35.5398 26.9935 35.4344 26.5875C35.1865 25.6382 34.6434 24.7576 34.0105 24.283C33.4146 23.8347 32.6025 23.5922 32.0277 23.7029ZM32.9031 24.8683C33.7574 25.1847 34.3797 26.1761 34.5221 27.4681C34.5854 27.9902 34.4746 28.5914 33.9684 30.474C33.7047 31.4602 33.4885 32.3566 33.4832 32.4621C33.4779 32.615 33.5096 32.6941 33.6203 32.8049L33.7627 32.9525L37.5754 32.9789L41.3828 33.0053L41.6307 33.1529C42.3531 33.5748 42.3479 34.6295 41.6201 35.0355C41.3881 35.1621 41.3564 35.1674 39.9959 35.1938L38.6037 35.2201L38.4771 35.3678C38.34 35.526 38.3084 35.8055 38.4033 35.9848C38.5193 36.201 38.6406 36.2221 40.075 36.2484L41.4514 36.2748L41.6834 36.433C42.2635 36.8443 42.3373 37.6248 41.8416 38.11C41.5199 38.4264 41.3143 38.4633 39.8957 38.4633H38.6564L38.5035 38.6162C38.2926 38.8272 38.2926 39.0855 38.5035 39.3176L38.6564 39.4916L40.0486 39.518C41.5938 39.5496 41.6254 39.5549 41.9312 39.924C42.3637 40.4514 42.1686 41.2951 41.5463 41.5799C41.3564 41.6643 41.1824 41.6801 40.075 41.6801C39.0467 41.6801 38.783 41.6959 38.6406 41.7592C38.3189 41.9174 38.2504 42.3234 38.5035 42.5818C38.6564 42.7348 38.667 42.7348 39.2734 42.7348C40.0012 42.7348 40.2754 42.7928 40.5391 43.0143C41.193 43.5522 40.9715 44.6596 40.1594 44.8969C40.017 44.9391 38.7461 44.9496 35.7666 44.9338C31.2209 44.9127 31.474 44.9285 30.182 44.6016C29.1221 44.3379 27.8723 43.8369 27.2131 43.4098L26.96 43.2516V38.8377V34.4238L27.54 33.9861C28.7318 33.1002 29.6125 32.0613 30.2506 30.8168C30.8518 29.6408 31.2051 28.4806 31.5426 26.598C31.7957 25.1953 31.9223 24.8525 32.2334 24.7365C32.3389 24.6996 32.5656 24.7418 32.9031 24.8683ZM25.7682 33.1951L25.9053 33.3006V38.8061V44.3115L25.7682 44.417C25.6311 44.5225 25.5678 44.5277 23.7379 44.5277H21.85L21.7023 44.4012L21.5547 44.2746V38.8061V33.3375L21.7023 33.2109L21.85 33.0844H23.7379C25.5678 33.0844 25.6311 33.0897 25.7682 33.1951Z" fill="#3C2FC0"/>
<path d="M23.5217 35.104C23.3371 35.2728 23.2896 35.5101 23.4004 35.7158C23.6588 36.222 24.376 36.048 24.376 35.4837C24.376 35.0566 23.8328 34.8193 23.5217 35.104Z" fill="#3C2FC0"/>
<path d="M25.0827 25.2796C24.7662 25.4009 24.6502 25.8439 24.8664 26.1023C25.0194 26.2763 25.2883 26.329 26.1004 26.329C26.6752 26.3343 26.7016 26.329 26.8598 26.1867C27.1498 25.9283 27.0496 25.4536 26.6858 25.3429C26.4643 25.2743 25.225 25.2269 25.0827 25.2796Z" fill="#3C2FC0"/>
<path d="M39.9326 25.2743C39.1311 25.3164 38.9834 25.4061 38.9834 25.8491C38.9834 26.0231 39.015 26.0864 39.1469 26.1971C39.2998 26.3289 39.3367 26.3342 39.8957 26.3289C40.7078 26.3289 40.9768 26.2762 41.1297 26.1022C41.425 25.7594 41.1244 25.2004 40.6604 25.2373C40.5971 25.2426 40.2648 25.2584 39.9326 25.2743Z" fill="#3C2FC0"/>
</g>
<defs>
<clipPath id="clip0_1_523">
<rect width="23" height="27" fill="white" transform="translate(20.5 19)"/>
</clipPath>
</defs>
</svg>
