<svg width="64" height="65" viewBox="0 0 64 65" fill="none" xmlns="http://www.w3.org/2000/svg">
<path d="M0 16.5C0 7.66344 7.16344 0.5 16 0.5H48C56.8366 0.5 64 7.66344 64 16.5V48.5C64 57.3366 56.8366 64.5 48 64.5H16C7.16344 64.5 0 57.3366 0 48.5V16.5Z" fill="#DFDDFF"/>
<g clip-path="url(#clip0_1_315)">
<path d="M20.6305 17.1262C20.3036 17.2896 20.1462 17.5136 20.0675 17.9253C20.0311 18.1312 20.013 19.6871 20.0251 22.0543L20.0433 25.8503L20.2128 25.9956C20.4247 26.1772 20.57 26.1772 20.7819 25.9956L20.9514 25.8503L20.9695 24.5123L20.9877 23.1743H32.0064H43.019V28.1993V33.2243H41.8626C40.5852 33.2243 40.4762 33.2485 40.2583 33.6117C40.1493 33.7934 40.1432 33.9992 40.1432 38.4309C40.1432 42.8626 40.1493 43.0684 40.2583 43.25C40.4883 43.6254 40.6276 43.6678 41.8868 43.6859L43.019 43.7102L43.0069 45.3811L42.9887 47.0581L42.0987 47.0884C41.3662 47.1126 41.1846 47.1368 41.0816 47.2216C40.9121 47.3729 40.9182 47.712 41.0998 47.8754C41.2269 47.9965 41.2875 48.0026 42.238 47.9844C43.2067 47.9663 43.249 47.9602 43.4852 47.8028C43.9332 47.5061 43.9574 47.4093 43.9755 45.4417L43.9998 43.7041L45.5739 43.6859L47.148 43.6678L47.3235 43.468L47.4991 43.2742V38.4369V33.5996L47.3417 33.4119L47.1843 33.2243H45.586H43.9877V25.7231C43.9877 21.0311 43.9634 18.1069 43.9271 17.9132C43.8484 17.5076 43.6728 17.2594 43.358 17.1141C43.1159 17.0051 42.7042 16.999 32.0003 16.999H20.8908L20.6305 17.1262ZM43.0069 20.0988L43.019 22.2662H32.0003H20.9817V20.1291C20.9817 18.9485 20.9998 17.9677 21.024 17.9495C21.0422 17.9253 25.9945 17.9132 32.0245 17.9193L42.9887 17.9374L43.0069 20.0988ZM46.591 34.5865V35.0405H44.5568C42.3106 35.0405 42.3046 35.0405 42.0745 35.428C41.9656 35.6036 41.9595 35.7791 41.9595 38.4309C41.9595 41.0826 41.9656 41.2582 42.0745 41.4338C42.3228 41.8455 42.347 41.8515 44.581 41.8697L46.591 41.8878V42.3419V42.7899H43.8363H41.0816V38.4612V34.1324H43.8363H46.591V34.5865ZM46.591 38.4612V40.9736H44.7444H42.8979V38.4612V35.9487H44.7444H46.591V38.4612Z" fill="#3C2FC0"/>
<path d="M31.6551 18.9379C30.4564 19.6221 30.9468 21.4383 32.3332 21.4383C32.8841 21.4444 33.32 21.1659 33.5501 20.6695C34.1071 19.4707 32.8054 18.278 31.6551 18.9379ZM32.6601 19.8219C32.872 20.0943 32.8054 20.3788 32.4906 20.506C32.3453 20.5665 32.2848 20.5665 32.1334 20.4878C32.0366 20.4394 31.9397 20.3486 31.9155 20.3001C31.7338 19.8158 32.3453 19.4223 32.6601 19.8219Z" fill="#3C2FC0"/>
<path d="M35.5722 18.8533C34.8881 19.1499 34.5612 20.0217 34.9002 20.6756C35.1605 21.1902 35.7841 21.5353 36.2866 21.4445C36.9889 21.3173 37.449 20.7846 37.449 20.1065C37.443 19.5192 37.1463 19.0591 36.6196 18.8351C36.3593 18.7322 35.8386 18.7382 35.5722 18.8533ZM36.4198 19.7856C36.5772 19.943 36.5772 20.276 36.4198 20.4213C36.1353 20.6816 35.6691 20.4637 35.6812 20.0762C35.6933 19.7069 36.1595 19.5253 36.4198 19.7856Z" fill="#3C2FC0"/>
<path d="M39.2229 18.9379C38.0242 19.6221 38.5145 21.4383 39.901 21.4383C40.4519 21.4444 40.8878 21.1659 41.1179 20.6695C41.6748 19.4707 40.3732 18.278 39.2229 18.9379ZM40.2279 19.8219C40.4398 20.0943 40.3732 20.3788 40.0584 20.506C39.9131 20.5665 39.8525 20.5665 39.7012 20.4878C39.6043 20.4394 39.5074 20.3486 39.4832 20.3001C39.3016 19.8158 39.9131 19.4223 40.2279 19.8219Z" fill="#3C2FC0"/>
<path d="M26.0248 24.1443C24.7958 24.3622 23.809 25.2703 23.4881 26.4751C23.3731 26.8929 23.3792 27.7405 23.5002 28.1461C23.6576 28.6789 23.9361 29.139 24.3357 29.5204C25.0017 30.1561 25.6798 30.4406 26.5516 30.4406C27.4658 30.4406 28.1923 30.1258 28.8219 29.4598C29.4515 28.7999 29.6998 28.1764 29.6998 27.2985C29.6998 26.6931 29.6089 26.3177 29.3547 25.8092C28.7492 24.6225 27.3386 23.9142 26.0248 24.1443ZM26.9875 25.0585C27.6958 25.2098 28.271 25.6578 28.5918 26.3117C28.8098 26.7597 28.8582 27.4801 28.7008 27.9887C28.6403 28.1703 28.5616 28.3459 28.5252 28.3761C28.4829 28.4125 28.3376 28.358 28.1075 28.2127C27.829 28.0311 27.7685 27.9645 27.7987 27.8676C27.8169 27.801 27.8472 27.5649 27.8653 27.3469C27.8895 27.0261 27.8714 26.905 27.7745 26.7052C27.3568 25.8939 26.3699 25.676 25.71 26.2451C25.3286 26.572 25.2015 26.8626 25.2378 27.3469C25.256 27.5649 25.2862 27.801 25.3044 27.8676C25.3347 27.9645 25.2741 28.0311 24.9956 28.2127C24.7656 28.358 24.6203 28.4125 24.5779 28.3761C24.4205 28.249 24.2994 27.6557 24.3176 27.1532C24.3357 26.7536 24.3781 26.5841 24.5173 26.2935C24.8201 25.682 25.3286 25.2703 26.0248 25.0827C26.4184 24.9797 26.5818 24.9737 26.9875 25.0585ZM26.818 26.9353C27.1328 27.1835 26.9572 27.7162 26.5516 27.7162C26.1459 27.7162 25.9704 27.1835 26.2852 26.9353C26.376 26.8626 26.491 26.8081 26.5516 26.8081C26.6121 26.8081 26.7271 26.8626 26.818 26.9353ZM27.3507 28.8181C27.5081 28.8847 27.6776 28.9876 27.7382 29.0542C27.8351 29.1632 27.829 29.1753 27.4839 29.3327C27.1751 29.478 27.0541 29.5022 26.5516 29.5022C26.0491 29.5022 25.928 29.478 25.6192 29.3327C25.3104 29.1935 25.2741 29.1571 25.3468 29.0724C25.4557 28.9392 25.8553 28.7455 26.1459 28.6849C26.491 28.6123 27.0056 28.6728 27.3507 28.8181Z" fill="#3C2FC0"/>
<path d="M31.964 26.0398C31.7521 26.2275 31.7339 26.5363 31.9337 26.6997C32.0669 26.8027 32.2243 26.8087 34.1859 26.8087C36.2746 26.8087 36.2928 26.8087 36.4199 26.6755C36.5712 26.5121 36.5773 26.2578 36.4259 26.0762L36.3109 25.9309L34.2222 25.9127L32.1335 25.8945L31.964 26.0398Z" fill="#3C2FC0"/>
<path d="M20.1885 27.5287L20.0432 27.6437L20.025 30.4347L20.0069 33.2257H18.4085H16.8163L16.6589 33.4134L16.5015 33.601V38.4384V43.2757L16.677 43.4694L16.8526 43.6692L18.4267 43.6873L20.0008 43.7055L20.025 45.4431C20.0432 47.4107 20.0674 47.5076 20.5154 47.8042L20.7636 47.9677L30.1355 47.9858L39.5135 47.9979L39.6588 47.8526C39.8404 47.671 39.8525 47.4591 39.6951 47.2654L39.5801 47.1201L30.293 47.0898L21.0118 47.0595L20.9937 45.3825L20.9816 43.7116L22.1137 43.6873C23.373 43.6692 23.5122 43.6268 23.7423 43.2514C23.8513 43.0698 23.8573 42.864 23.8573 38.4323C23.8573 34.0006 23.8513 33.7948 23.7423 33.6131C23.5244 33.2499 23.4154 33.2257 22.1379 33.2257H20.9876L20.9695 30.4347L20.9513 27.6437L20.806 27.5287C20.7273 27.4681 20.5881 27.4136 20.4972 27.4136C20.4064 27.4136 20.2672 27.4681 20.1885 27.5287ZM22.9189 38.4626V42.7913H20.1643H17.4096V42.3433V41.8892L19.4256 41.8711C21.6536 41.8529 21.6778 41.8469 21.926 41.4352C22.035 41.2596 22.0411 41.084 22.0411 38.4323C22.0411 35.7806 22.035 35.605 21.926 35.4294C21.696 35.0419 21.6899 35.0419 19.4438 35.0419H17.4096V34.5879V34.1338H20.1643H22.9189V38.4626ZM21.1027 38.4626V40.9751H19.2561H17.4096V38.4626V35.9501H19.2561H21.1027V38.4626Z" fill="#3C2FC0"/>
<path d="M31.964 27.856C31.7521 28.0437 31.7339 28.3525 31.9337 28.5159C32.0669 28.6188 32.2667 28.6249 35.6389 28.6249C39.1261 28.6249 39.2048 28.6249 39.3259 28.5038C39.4894 28.3404 39.4833 28.0134 39.3199 27.8621C39.1988 27.7531 39.0353 27.747 35.6631 27.7289L32.1335 27.7168L31.964 27.856Z" fill="#3C2FC0"/>
<path d="M25.153 33.3286C25.0622 33.383 24.9411 33.5102 24.8805 33.6131C24.7716 33.7947 24.7655 34.0127 24.7655 38.4323C24.7655 42.8639 24.7716 43.0698 24.8805 43.2514C24.9411 43.3543 25.0803 43.4936 25.1832 43.5541C25.3649 43.6631 25.6131 43.6691 32.0003 43.6691C38.3875 43.6691 38.6357 43.6631 38.8173 43.5541C38.9202 43.4936 39.0595 43.3543 39.12 43.2514C39.229 43.0698 39.2351 42.8639 39.2351 38.4323C39.2351 34.0006 39.229 33.7947 39.12 33.6131C38.8718 33.1954 39.3864 33.2256 31.9882 33.2256C25.9219 33.2317 25.2983 33.2377 25.153 33.3286ZM38.2967 38.4625V42.7913H32.0003H25.7039V38.4625V34.1338H32.0003H38.2967V38.4625Z" fill="#3C2FC0"/>
<path d="M26.9693 35.1447C26.8784 35.1992 26.7574 35.3263 26.6968 35.4292C26.5878 35.6048 26.5818 35.7864 26.5818 38.4321C26.5818 41.0839 26.5878 41.2594 26.6968 41.435C26.7574 41.5379 26.8966 41.6772 26.9995 41.7377C27.1812 41.8467 27.3931 41.8527 32.0003 41.8527C36.6076 41.8527 36.8195 41.8467 37.0011 41.7377C37.104 41.6772 37.2432 41.5379 37.3038 41.435C37.4128 41.2594 37.4188 41.0839 37.4188 38.4321C37.4188 35.7804 37.4128 35.6048 37.3038 35.4292C37.0556 35.0175 37.3704 35.0418 31.9882 35.0418C27.5989 35.0478 27.1085 35.0539 26.9693 35.1447ZM36.4804 38.4624V40.9749H36.1293H35.7781L34.1738 39.4068C31.9277 37.2213 32.0124 37.2334 30.293 38.8922C27.9016 41.217 28.1801 40.9749 27.829 40.9749H27.5202V38.4624V35.9499H32.0003H36.4804V38.4624ZM33.2656 39.7943L34.4523 40.9749H31.9821C30.6199 40.9749 29.5181 40.9567 29.5302 40.9264C29.5847 40.8054 31.9155 38.6137 31.9942 38.6137C32.0427 38.6137 32.6178 39.1465 33.2656 39.7943Z" fill="#3C2FC0"/>
<path d="M29.3184 45.0209C29.1731 45.1783 29.1852 45.5355 29.3426 45.6747C29.5182 45.8321 30.1236 45.8321 30.2992 45.6747C30.4626 45.5234 30.4747 45.154 30.3173 45.0148C30.1538 44.8634 29.4516 44.8695 29.3184 45.0209Z" fill="#3C2FC0"/>
<path d="M31.4977 45.0209C31.3524 45.1783 31.3645 45.5355 31.5219 45.6747C31.6975 45.8321 32.3029 45.8321 32.4785 45.6747C32.6419 45.5234 32.654 45.154 32.4966 45.0148C32.3332 44.8634 31.6309 44.8695 31.4977 45.0209Z" fill="#3C2FC0"/>
<path d="M33.6773 45.0209C33.532 45.1783 33.5441 45.5355 33.7015 45.6747C33.877 45.8321 34.4825 45.8321 34.658 45.6747C34.8215 45.5234 34.8336 45.154 34.6762 45.0148C34.5127 44.8634 33.8104 44.8695 33.6773 45.0209Z" fill="#3C2FC0"/>
</g>
<defs>
<clipPath id="clip0_1_315">
<rect width="31" height="31" fill="white" transform="translate(16.5 17)"/>
</clipPath>
</defs>
</svg>
