<svg width="18" height="20" viewBox="0 0 18 20" fill="none" xmlns="http://www.w3.org/2000/svg">
<g clip-path="url(#clip0_1_851)">
<path d="M0.0579434 1.75704C0.0920278 1.81157 1.58492 3.98275 3.37435 6.5902C5.16378 9.19765 6.62941 11.3449 6.62941 11.362C6.62941 11.3824 5.16037 13.1071 3.36072 15.1999C1.56447 17.2893 0.0715772 19.0276 0.0443097 19.0582C0 19.1128 0.0477181 19.1162 0.746448 19.1162H1.4963L4.39007 15.7521C5.98181 13.9047 7.30087 12.3845 7.31791 12.3811C7.33837 12.3743 8.39498 13.8876 9.66633 15.7418L11.9807 19.1162H14.5165C16.9195 19.1162 17.049 19.1128 17.0183 19.0548C17.0013 19.0242 15.4504 16.7644 13.5758 14.0376C11.7012 11.3109 10.164 9.07154 10.164 9.06132C10.164 9.04768 11.5887 7.38437 13.3304 5.36316L16.4934 1.68205L15.7606 1.67183C15.1573 1.66501 15.0176 1.67183 14.9733 1.71273C14.9426 1.73999 13.6985 3.18176 12.209 4.91325C10.7195 6.64814 9.48909 8.05924 9.47546 8.05242C9.46182 8.04219 8.46656 6.60383 7.26338 4.8519L5.07516 1.66501H2.53588H0L0.0579434 1.75704ZM9.65269 10.377C12.5669 14.5489 14.9596 17.9744 14.963 17.9948C14.9733 18.0153 14.5608 18.0221 13.8246 18.0187L12.6726 18.0084L7.36222 10.4145C4.44119 6.23572 2.05188 2.81024 2.05188 2.80343C2.05188 2.79661 2.56996 2.78979 3.20393 2.78979L4.35257 2.7932L9.65269 10.377Z" fill="white"/>
</g>
<defs>
<clipPath id="clip0_1_851">
<rect width="18" height="19" fill="white" transform="translate(0 0.890625)"/>
</clipPath>
</defs>
</svg>
